<svg xmlns="http://www.w3.org/2000/svg" width="1024" height="81" viewBox="0 0 1024 81">
  <g fill="none" fill-rule="evenodd">
    <path fill="#002C3A" d="M3,-1.77635684e-15 L1021,-1.77635684e-15 L1021,-2.08721929e-14 C1022.65685,-8.44545862e-14 1024,1.34314575 1024,3 L1024,35.5741007 L5.68434189e-14,35.5741007 L5.68434189e-14,3 L5.68434189e-14,3 C5.66405127e-14,1.34314575 1.34314575,3.04359188e-16 3,0 Z"/>
    <g transform="translate(10.787 10.367)">
      <circle cx="57.5" cy="7.5" r="7.5" fill="#2ACB42" opacity=".9"/>
      <path fill="#FFC02F" d="M32.5,15 C36.6421356,15 40,11.6421356 40,7.5 C40,3.35786438 36.6421356,1.0658141e-14 32.5,1.0658141e-14 C28.3578644,1.0658141e-14 25,3.35786438 25,7.5 C25,11.6421356 28.3578644,15 32.5,15 Z"/>
      <circle cx="7.5" cy="7.5" r="7.5" fill="#FF5F57"/>
    </g>
    <rect width="1024" height="45" y="36" fill="#004053"/>
    <path fill="#002B36" d="M963.09457,42.0598616 C962.956925,42.1406736 962.87025,42.2890865 962.87025,42.4486807 L962.87025,53.8888993 C962.87025,54.0013083 962.817907,54.1017551 962.720705,54.1581294 C962.623258,54.2146451 962.504344,54.2146451 962.40666,54.1581294 L960.537339,53.0813997 C960.258826,52.9208 959.918641,52.9208963 959.640065,53.0813997 L952.177738,57.3883145 C951.898746,57.54925 951.7291,57.8588681 951.7291,58.1808824 L951.7291,66.794712 C951.7291,67.1164848 951.898985,67.411126 952.177738,67.5723483 L959.640065,71.879263 C959.919058,72.0402457 960.258347,72.0402457 960.537339,71.879263 L967.999666,67.5723483 C968.278419,67.411126 968.448304,67.1164848 968.448304,66.794712 L968.448304,45.3199572 C968.448304,44.993287 968.270045,44.6867212 967.984712,44.5273647 L963.543206,42.0449073 C963.473459,42.006002 963.396135,41.9992068 963.318888,42.0000689 C963.241642,42.0009877 963.163509,42.0194244 963.09457,42.0598616 Z M914.910965,52.8570571 L907.448636,57.1639718 C907.170577,57.3247149 907,57.6174904 907,57.94161 L907.014922,69.501463 C907.014922,69.6622551 907.097874,69.8115603 907.239242,69.8903292 C907.377804,69.9732617 907.549785,69.9732617 907.687878,69.8903292 L912.114429,67.3480056 C912.394829,67.1814238 912.57802,66.8916649 912.57802,66.5703693 L912.57802,61.1717951 C912.57802,60.8497808 912.747416,60.5542322 913.026658,60.394157 L914.910933,59.3024995 C915.051567,59.2211932 915.20255,59.1828614 915.359569,59.1828614 C915.513366,59.1828614 915.671462,59.221146 915.808207,59.3024995 L917.692482,60.394157 C917.971714,60.5542322 918.141118,60.8497808 918.141118,61.1717951 L918.141118,66.5703693 C918.141118,66.8916649 918.326138,67.1832915 918.60471,67.3480056 L923.031261,69.8903292 C923.170279,69.9732617 923.342019,69.9732617 923.479897,69.8903292 C923.617303,69.8115603 923.704216,69.6622551 923.704216,69.501463 L923.719138,57.94161 C923.719138,57.6174904 923.550451,57.3247149 923.270502,57.1639718 L915.80819,52.8570571 C915.681974,52.782978 915.547685,52.7581894 915.404417,52.7523525 L915.314689,52.7523525 C915.172432,52.7580875 915.038735,52.782978 914.910965,52.8570571 Z M981.922365,52.9766933 L974.460038,57.283608 C974.181285,57.4445907 974.011402,57.7392319 974.011402,58.0612462 L974.011402,66.6750739 C974.011402,66.9989539 974.193847,67.2926387 974.474992,67.452712 L981.877502,71.6698992 C982.150871,71.8260014 982.484657,71.837677 982.75982,71.6847271 L987.24619,69.1872908 C987.388557,69.1083295 987.484864,68.9608429 987.485462,68.7984718 C987.486406,68.6360535 987.401717,68.4904798 987.261144,68.4096527 L979.753953,64.1027379 C979.61338,64.0225824 979.514681,63.8601641 979.514681,63.6989419 L979.514681,61.0071206 C979.514681,60.8461851 979.614576,60.6986966 979.753953,60.6183487 L982.086866,59.2723909 C982.225644,59.1920901 982.396125,59.1920901 982.535502,59.2723909 L984.868414,60.6183487 C985.007791,60.6986966 985.092733,60.8461851 985.092733,61.0071206 L985.092733,63.1307166 C985.092733,63.2918898 985.177674,63.4391387 985.317051,63.5194866 C985.457025,63.6000742 985.626312,63.6004081 985.765689,63.5194866 L990.237103,60.9174402 C990.51466,60.7562179 990.685739,60.4608108 990.685739,60.1398039 L990.685739,58.0610953 C990.685739,57.7400374 990.515258,57.4446794 990.237103,57.2834571 L982.819639,52.9765424 C982.679961,52.8955738 982.526903,52.8570986 982.371003,52.8569062 C982.215102,52.8568684 982.062339,52.8962982 981.922365,52.9766933 Z M960.178429,59.3171896 L962.73566,60.7977153 C962.805049,60.8379128 962.855296,60.9119448 962.855296,60.9921003 L962.855296,63.9531044 C962.855296,64.0334996 962.805528,64.1075787 962.73566,64.1475385 L960.178429,65.6280151 C960.1088,65.6677354 960.02374,65.6677354 959.954111,65.6280151 L957.39688,64.1475385 C957.327251,64.107341 957.277244,64.0334996 957.277244,63.9531044 L957.277244,60.9921003 C957.277244,60.9119448 957.327491,60.8381053 957.39688,60.7977153 L959.954111,59.3174292 C959.989045,59.2973304 960.019882,59.2877602 960.058793,59.2877602 C960.097698,59.2875206 960.143495,59.2970852 960.178429,59.3171896 Z M1004.07263,52.7438585 C1004.29516,52.6179044 1004.54669,52.5644032 1004.80541,52.5644032 C1005.06412,52.5644032 1005.31745,52.6179044 1005.53818,52.7438585 L1012.58178,56.8114989 C1013.03759,57.0750355 1013.31455,57.5699948 1013.31455,58.0975924 L1013.31455,66.2179436 C1013.31455,66.7452544 1013.03759,67.2388743 1012.58178,67.5039899 L1005.53818,71.5567006 C1005.31326,71.6868635 1005.06621,71.7510856 1004.80541,71.7510856 C1004.54819,71.7510856 1004.29755,71.6868635 1004.07263,71.5567006 L1001.70981,70.1659497 C1001.35927,69.9696027 1001.53454,69.9070558 1001.64999,69.8668583 C1002.11837,69.7043909 1002.21228,69.6714677 1002.71177,69.3883115 C1002.76381,69.3591198 1002.83738,69.3567278 1002.89122,69.3883115 L1004.70072,70.4650412 C1004.76652,70.5009319 1004.84967,70.5009319 1004.91009,70.4650412 L1011.95369,66.4123305 C1012.01946,66.3749551 1012.05837,66.2955165 1012.05837,66.2179436 L1012.05837,58.0975924 C1012.05837,58.0181538 1012.00573,57.9434049 1011.93873,57.9032074 L1004.91009,53.8504967 C1004.84488,53.8126912 1004.76652,53.8126912 1004.70072,53.8504967 L997.672079,57.9032074 C997.603886,57.9422089 997.552441,58.0204987 997.552441,58.0975924 L997.552441,66.2179436 C997.552441,66.2955165 997.604484,66.3605517 997.672079,66.3973988 L999.586262,67.5189668 C1000.63189,68.041684 1001.27613,67.419669 1001.27613,66.8011477 L1001.27613,58.785503 C1001.27613,58.6721827 1001.37243,58.5910689 1001.48549,58.5910689 L1002.36781,58.5910689 C1002.47907,58.5910689 1002.57717,58.6721827 1002.57717,58.785503 L1002.57717,66.8011477 C1002.57717,68.1965884 1001.82167,68.9994453 1000.49849,68.9994453 C1000.09173,68.9994453 999.762127,69.0062405 998.868443,68.5657879 L997.029031,67.5039899 C996.573217,67.24074 996.296258,66.7452544 996.296258,66.2179436 L996.296258,58.0975924 C996.296258,57.5699948 996.573217,57.0739338 997.029031,56.8114989 L1004.07263,52.7438585 Z M937.808958,52.7288797 C937.964456,52.7288797 938.118338,52.7681208 938.257596,52.8485159 L945.719922,57.1405009 C945.998915,57.3012911 946.168561,57.6108639 946.168561,57.9330688 L946.168561,66.5468965 C946.168561,66.869007 945.998436,67.1634086 945.719922,67.3245346 L938.257596,71.6314494 C937.978603,71.7925754 937.639314,71.7925754 937.360322,71.6314494 L929.897995,67.3245346 C929.619183,67.1634086 929.449357,66.869007 929.449357,66.5468965 L929.449357,57.9330688 C929.449357,57.6113412 929.619002,57.3012911 929.897995,57.1405009 L937.360322,52.8485159 C937.499579,52.7681208 937.653459,52.7288797 937.808958,52.7288797 Z M1003.4894,60.6399632 C1003.4894,59.2204526 1004.68397,58.3668696 1006.68968,58.3668696 C1008.94363,58.3668696 1010.06283,59.1561833 1010.204,60.8343973 C1010.20939,60.8923015 1010.18247,60.9408261 1010.14418,60.9838949 C1010.1053,61.0242358 1010.05087,61.0586909 1009.99464,61.0586909 L1009.08241,61.0586909 C1008.9879,61.0586909 1008.90714,60.9858097 1008.888,60.8942163 C1008.66907,59.919752 1008.13489,59.6080757 1006.68968,59.6080757 C1005.0716,59.6080757 1004.89513,60.1728072 1004.89513,60.5951249 C1004.89513,61.1067382 1005.1033,61.2481955 1007.28786,61.5372376 C1009.44969,61.8230726 1010.48814,62.2309378 1010.48814,63.750514 C1010.48814,65.2833448 1009.20265,66.1582226 1006.97382,66.1582226 C1003.89497,66.1582226 1003.25013,64.7564169 1003.25013,63.5710588 C1003.25013,63.4584083 1003.34704,63.3616949 1003.45949,63.3616949 L1004.37172,63.3616949 C1004.47341,63.3616949 1004.55,63.4418504 1004.56613,63.5411502 C1004.70312,64.4671843 1005.11227,64.9318992 1006.97382,64.9318992 C1008.45551,64.9318992 1009.08241,64.5966303 1009.08241,63.8103312 C1009.08241,63.3570051 1008.90296,63.0188649 1006.59995,62.7934206 C1004.675,62.6029595 1003.4894,62.1798778 1003.4894,60.6399632 Z M982.433378,60.4156696 C982.463215,60.4156696 982.481542,60.4147075 982.508149,60.4304975 L983.943788,61.2679528 C983.997051,61.2987707 984.033515,61.3555732 984.033515,61.4174976 L984.033515,63.0624997 C984.033515,63.1244241 983.997027,63.181419 983.943788,63.2120464 L982.508149,64.0345229 C982.454912,64.0656275 982.397485,64.0656275 982.34365,64.0345229 L980.908012,63.2120464 C980.854175,63.1811795 980.818285,63.1244241 980.818285,63.0624997 L980.818285,61.4174976 C980.818285,61.3555732 980.854175,61.2985802 980.908012,61.2679528 L982.34365,60.4304975 C982.370569,60.4156696 982.403564,60.4156696 982.433378,60.4156696 Z"/>
  </g>
</svg>
