<svg xmlns="http://www.w3.org/2000/svg" width="33" height="32" viewBox="0 0 33 32">
  <path fill="#00212B" fill-rule="evenodd" d="M1363.40405,0 C1354.34564,0 1347,7.34473064 1347,16.4060575 C1347,23.6534102 1351.7001,29.8022222 1358.21963,31.9717976 C1359.03991,32.1222598 1359.33932,31.6157931 1359.33932,31.1810304 C1359.33932,30.7915869 1359.32512,29.7599175 1359.31717,28.3908771 C1354.75383,29.3822583 1353.79095,26.1917861 1353.79095,26.1917861 C1353.04499,24.296634 1351.96951,23.7920812 1351.96951,23.7920812 C1350.48002,22.7742126 1352.08221,22.7948557 1352.08221,22.7948557 C1353.72851,22.910874 1354.595,24.4854636 1354.595,24.4854636 C1356.05841,26.9924237 1358.43455,26.268521 1359.36933,25.8485639 C1359.51838,24.7883976 1359.94217,24.0655065 1360.41087,23.655413 C1356.76802,23.2413959 1352.93834,21.8339813 1352.93834,15.5475031 C1352.93834,13.7565848 1353.57755,12.2921761 1354.62693,11.1453976 C1354.45825,10.7303757 1353.89528,9.06242741 1354.78776,6.80382007 C1354.78776,6.80382007 1356.16516,6.36271407 1359.29904,8.48556915 C1360.60756,8.12170387 1362.01094,7.93972338 1363.40607,7.93338007 C1364.79919,7.93972338 1366.20267,8.12170387 1367.5131,8.48556915 C1370.64506,6.36271407 1372.01995,6.80382007 1372.01995,6.80382007 C1372.91495,9.06242741 1372.35189,10.7303757 1372.1832,11.1453976 C1373.2346,12.2921761 1373.86947,13.7565917 1373.86947,15.5475031 C1373.86947,21.849696 1370.03386,23.2364607 1366.37922,23.6426238 C1366.96826,24.1490905 1367.49296,25.1503421 1367.49296,26.6806242 C1367.49296,28.8737683 1367.47282,30.6431343 1367.47282,31.1810236 C1367.47282,31.6197099 1367.7683,32.1301069 1368.60086,31.9698769 C1375.11403,29.7962753 1379.81021,23.6514963 1379.81021,16.4060575 C1379.81021,7.34473064 1372.46447,0 1363.40405,0 Z" transform="translate(-1347)"/>
</svg>
