<svg xmlns="http://www.w3.org/2000/svg" width="249" height="24" viewBox="0 0 249 24">
  <g fill="none" fill-rule="evenodd">
    <path fill="#075985" d="M33.0101695,1.1280389 L33.0101695,0 L24.0061017,0 L24.0061017,1.1280389 C26.7498305,1.1280389 27.3681356,1.98379254 26.7111864,4.08427877 L23.1559322,15.0534846 L18.2867797,0 L17.4366102,0 L12.6833898,15.0145867 L9.16677966,4.08427877 C8.43254237,1.82820097 8.97355932,1.1280389 12.219661,1.1280389 L12.219661,0 L0.00813559322,0 L0.00813559322,1.1280389 C3.21559322,1.1280389 3.75661017,1.86709887 4.60677966,4.55105348 L10.8671186,24 L11.6786441,24 L16.4705085,8.9465154 L21.339661,24 L22.1511864,24 L28.4115254,4.55105348 C29.2616949,1.90599676 29.8027119,1.1280389 33.0101695,1.1280389 Z M53.9450049,13.9725326 C53.9450049,19.4049305 49.2924625,23.8694873 43.6163608,23.8694873 C37.9092422,23.8694873 33.2566998,19.4049305 33.2566998,13.9725326 C33.2566998,8.54013478 37.9092422,4.07557792 43.6163608,4.07557792 C49.2924625,4.07557792 53.9450049,8.54013478 53.9450049,13.9725326 Z M49.7887337,13.9725326 C49.7887337,10.1948307 47.9897507,5.57417043 43.6163608,5.57417043 C39.2119541,5.57417043 37.443988,10.1948307 37.443988,13.9725326 C37.443988,17.7502346 39.2119541,22.3708948 43.6163608,22.3708948 C47.9897507,22.3708948 49.7887337,17.7502346 49.7887337,13.9725326 Z M68.1593319,15.1276977 L71.1679759,18.4370895 C73.8974675,21.4654952 75.0761115,22.1835708 76.9681454,22.4333362 L76.9681454,23.3387358 L70.2374675,23.3387358 L64.7164505,15.1276977 L63.816959,15.1276977 L63.816959,18.7805169 C63.816959,21.9025847 64.2201793,22.4333362 66.7945861,22.4333362 L66.7945861,23.3387358 L56.9932302,23.3387358 L56.9932302,22.4333362 C59.5676369,22.4333362 59.9398403,21.9025847 59.9398403,18.7805169 L59.9398403,9.16454832 C59.9398403,6.04248059 59.5676369,5.51172908 56.9932302,5.51172908 L56.9932302,4.60632944 L67.3839081,4.60632944 C71.2300098,4.60632944 73.6493319,6.97910091 73.6493319,9.8826239 C73.6493319,12.5988228 71.5401793,14.8154909 68.1593319,15.1276977 Z M65.5228912,13.7227672 C68.2213658,13.7227672 69.4930607,12.00563 69.4930607,9.8826239 C69.4930607,7.75961785 68.2213658,6.01125992 65.5228912,6.01125992 L63.816959,6.01125992 L63.816959,13.7227672 L65.5228912,13.7227672 Z M78.0933198,23.3387358 L78.0933198,22.4333362 C80.6677266,22.4333362 81.03993,21.9025847 81.03993,18.7805169 L81.03993,9.16454832 C81.03993,6.04248059 80.6677266,5.51172908 78.0933198,5.51172908 L78.0933198,4.60632944 L88.3289131,4.60632944 C95.5248453,4.60632944 98.6575571,8.82112087 98.6575571,13.9725326 C98.6575571,19.1239444 95.5248453,23.3387358 88.3289131,23.3387358 L78.0933198,23.3387358 Z M84.9170486,6.01125992 L84.9170486,18.4058688 C84.9170486,21.4342745 85.320269,21.9338053 87.8946758,21.9338053 L88.2048453,21.9338053 C93.229591,21.9338053 94.2531503,17.5004692 94.2531503,13.9725326 C94.2531503,10.4445961 93.229591,6.01125992 88.2048453,6.01125992 L84.9170486,6.01125992 Z"/>
    <path fill="#0EA5E9" d="M178.034695,3.94090529 L178.034695,10.8470099 L177.135204,10.8470099 C176.918085,8.33569912 175.925543,5.47908313 172.668763,5.47908313 C171.397068,5.47908313 170.15639,6.42082467 170.15639,7.99039389 C170.15639,8.93213543 170.993848,10.3447477 172.637746,11.1923151 L172.637746,11.1923151 L175.615373,12.730493 C177.817577,13.8919742 179.61656,15.8068486 179.61656,18.286768 C179.61656,21.7084289 176.638933,24 173.444187,24 C171.086899,24 169.598085,22.7443446 168.605543,22.5246049 C168.233339,22.8385188 167.861136,23.3093895 167.706051,24 L167.706051,24 L166.80656,24 L166.80656,17.0938954 L167.737068,17.0938954 C168.32639,20.4527735 170.900797,22.5873877 173.444187,22.5873877 C175.24317,22.5873877 176.545882,21.551472 176.545882,19.4796406 C176.545882,18.3495508 175.708424,17.062504 174.250628,16.3091108 L174.250628,16.3091108 L171.304017,14.7395416 C168.667577,13.389712 167.085712,11.914317 167.085712,8.80656989 C167.085712,6.23247636 169.474017,4.09786221 172.482662,4.09786221 C174.312662,4.09786221 175.336221,4.69429852 176.266729,5.38490898 C176.638933,5.07099513 177.011136,4.60012436 177.166221,3.94090529 L177.166221,3.94090529 L178.034695,3.94090529 Z M194.606311,3.94090529 L194.606311,10.8470099 L193.706819,10.8470099 C193.4897,8.33569912 192.497158,5.47908313 189.240378,5.47908313 C187.968683,5.47908313 186.728005,6.42082467 186.728005,7.99039389 C186.728005,8.93213543 187.565463,10.3447477 189.209361,11.1923151 L189.209361,11.1923151 L192.186988,12.730493 C194.389192,13.8919742 196.188175,15.8068486 196.188175,18.286768 C196.188175,21.7084289 193.210548,24 190.015802,24 C187.658514,24 186.1697,22.7443446 185.177158,22.5246049 C184.804955,22.8385188 184.432751,23.3093895 184.277666,24 L184.277666,24 L183.378175,24 L183.378175,17.0938954 L184.308683,17.0938954 C184.898005,20.4527735 187.472412,22.5873877 190.015802,22.5873877 C191.814785,22.5873877 193.117497,21.551472 193.117497,19.4796406 C193.117497,18.3495508 192.280039,17.062504 190.822243,16.3091108 L190.822243,16.3091108 L187.875633,14.7395416 C185.239192,13.389712 183.657327,11.914317 183.657327,8.80656989 C183.657327,6.23247636 186.045633,4.09786221 189.054277,4.09786221 C190.884277,4.09786221 191.907836,4.69429852 192.838344,5.38490898 C193.210548,5.07099513 193.582751,4.60012436 193.737836,3.94090529 L193.737836,3.94090529 L194.606311,3.94090529 Z M135.679431,4.63151575 C139.525533,4.63151575 141.944855,7.01726097 141.944855,9.93665973 C141.944855,12.6677102 139.835703,14.8964985 136.454855,15.2104123 L139.463499,18.5378991 C142.192991,21.5828634 143.371635,22.3048652 145.263669,22.5559963 L145.263669,23.4663465 L138.532991,23.4663465 L133.011974,15.2104123 L132.112482,15.2104123 L132.112482,18.8832043 C132.112482,22.0223428 132.515703,22.5559963 135.090109,22.5559963 L135.090109,23.4663465 L125.288753,23.4663465 L125.288753,22.5559963 C127.86316,22.5559963 128.235364,22.0223428 128.235364,18.8832043 L128.235364,9.21465789 C128.235364,6.07551944 127.86316,5.5418659 125.288753,5.5418659 L125.288753,4.63151575 L135.679431,4.63151575 Z M162.362572,4.63151575 L162.610707,9.05770097 L161.711216,9.05770097 L161.556131,8.42987328 C161.121894,6.7661299 160.811724,6.04412805 157.958165,6.04412805 L157.958165,6.04412805 L153.212572,6.04412805 L153.212572,12.7932757 L154.918504,12.7932757 C158.020199,12.7932757 158.51647,12.3851877 158.51647,9.77970281 L158.51647,9.77970281 L159.415962,9.77970281 L159.415962,17.2194609 L158.51647,17.2194609 C158.51647,14.5825846 158.020199,14.205888 154.918504,14.205888 L154.918504,14.205888 L153.212572,14.205888 L153.212572,18.3809422 C153.212572,21.5200806 153.615792,22.0537342 156.190199,22.0537342 L156.190199,22.0537342 L158.981724,22.0537342 C161.835284,22.0537342 162.17647,21.3317323 162.579691,19.6679889 L162.579691,19.6679889 L162.734775,19.0401612 L163.634267,19.0401612 L163.386131,23.4663465 L146.388843,23.4663465 L146.388843,22.5559963 C148.96325,22.5559963 149.335453,22.0223428 149.335453,18.8832043 L149.335453,18.8832043 L149.335453,9.21465789 C149.335453,6.07551944 148.96325,5.5418659 146.388843,5.5418659 L146.388843,5.5418659 L146.388843,4.63151575 L162.362572,4.63151575 Z M208.510468,4.63151575 L208.510468,5.5418659 C205.936061,5.5418659 205.532841,6.07551944 205.532841,9.21465789 L205.533625,19.1137868 C205.554359,22.0486919 206.000421,22.5559963 208.510468,22.5559963 L208.510468,22.5559963 L208.510468,23.4663465 L198.709112,23.4663465 L198.709112,22.5559963 C201.283519,22.5559963 201.655722,22.0223428 201.655722,18.8832043 L201.654996,8.98407542 C201.635736,6.04917029 201.219159,5.5418659 198.709112,5.5418659 L198.709112,5.5418659 L198.709112,4.63151575 L208.510468,4.63151575 Z M237.745563,4.63151575 L237.745563,5.5418659 C235.574376,5.5418659 234.985054,6.26386774 236.101664,7.92761112 L239.575563,13.2327551 L243.049461,7.92761112 C244.166071,6.23247636 243.824885,5.5418659 241.374546,5.5418659 L241.374546,4.63151575 L248.880647,4.63151575 L248.880647,5.5418659 C246.306241,5.5418659 245.716918,6.26386774 244.414207,8.30430774 L239.978783,15.0848468 L239.978783,18.8832043 C239.978783,22.0223428 240.350986,22.5559963 242.925393,22.5559963 L242.925393,23.4663465 L233.248105,23.4663465 L233.248105,22.5559963 C235.758152,22.5559963 236.204214,22.0486919 236.224948,19.1137868 L236.225732,15.1790209 L231.728274,8.30430774 C230.323579,6.15670405 229.494853,5.58299217 227.466129,5.54404621 L227.687507,9.05770097 L226.756998,9.05770097 L226.601914,8.42987328 C226.198693,6.7661299 225.857507,6.04412805 223.034964,6.04412805 L217.762083,6.04412805 L217.762083,12.7932757 L219.468015,12.7932757 C222.56971,12.7932757 223.065981,12.3851877 223.065981,9.77970281 L223.965473,9.77970281 L223.965473,17.2194609 L223.065981,17.2194609 C223.065981,14.5825846 222.56971,14.205888 219.468015,14.205888 L217.762083,14.205888 L217.762083,18.8832043 C217.762083,22.0223428 218.165303,22.5559963 220.73971,22.5559963 L220.73971,23.4663465 L210.938354,23.4663465 L210.938354,22.5559963 C213.512761,22.5559963 213.884964,22.0223428 213.884964,18.8832043 L213.884964,9.21465789 C213.884964,6.07551944 213.512761,5.5418659 210.938354,5.5418659 L210.938354,4.63151575 L237.745563,4.63151575 Z M133.818414,6.04412805 L132.112482,6.04412805 L132.112482,13.7978 L133.818414,13.7978 C136.516889,13.7978 137.788584,12.0712739 137.788584,9.93665973 C137.788584,7.80204559 136.516889,6.04412805 133.818414,6.04412805 Z M115.344596,1.77635684e-15 C120.13646,1.77635684e-15 123.150698,2.97240389 123.150698,6.60968759 C123.150698,10.2469713 120.13646,13.1802646 115.344596,13.1802646 L110.900528,13.1802646 L110.900528,17.7562022 C110.900528,21.6672599 111.402901,22.3321397 114.610359,22.3321397 L114.610359,23.4663465 L102.398833,23.4663465 L102.398833,22.3321397 C105.606291,22.3321397 106.07002,21.6672599 106.07002,17.7562022 L106.07002,5.71014431 C106.07002,1.79908656 105.606291,1.13420675 102.398833,1.13420675 L102.398833,1.77635684e-15 L115.344596,1.77635684e-15 Z M113.025952,11.4202886 C116.387986,11.4202886 117.972393,9.26920685 117.972393,6.60968759 C117.972393,3.95016832 116.387986,1.75997598 113.025952,1.75997598 L110.900528,1.75997598 L110.900528,11.4202886 L113.025952,11.4202886 Z"/>
  </g>
</svg>
