<svg xmlns="http://www.w3.org/2000/svg" width="245" height="24" viewBox="0 0 245 24">
  <g fill="none">
    <path fill="#1E40AF" d="M32.66,1.302 L32.66,0.2 L23.806,0.2 L23.806,1.302 C26.504,1.302 27.112,2.138 26.466,4.19 L22.97,14.906 L18.182,0.2 L17.346,0.2 L12.672,14.868 L9.214,4.19 C8.492,1.986 9.024,1.302 12.216,1.302 L12.216,0.2 L0.208,0.2 L0.208,1.302 C3.362,1.302 3.894,2.024 4.73,4.646 L10.886,23.646 L11.684,23.646 L16.396,8.94 L21.184,23.646 L21.982,23.646 L28.138,4.646 C28.974,2.062 29.506,1.302 32.66,1.302 Z M53.246,13.85 C53.246,19.157 48.671,23.518 43.089,23.518 C37.477,23.518 32.902,19.157 32.902,13.85 C32.902,8.543 37.477,4.182 43.089,4.182 C48.671,4.182 53.246,8.543 53.246,13.85 L53.246,13.85 Z M49.159,13.85 C49.159,10.16 47.389,5.646 43.089,5.646 C38.759,5.646 37.019,10.159 37.019,13.85 C37.019,17.54 38.759,22.055 43.089,22.055 C47.389,22.055 49.159,17.541 49.159,13.85 Z M67.223,14.979 L70.182,18.212 C72.866,21.17 74.025,21.872 75.885,22.116 L75.885,23 L69.267,23 L63.837,14.979 L62.953,14.979 L62.953,18.547 C62.953,21.597 63.35,22.116 65.881,22.116 L65.881,23 L56.243,23 L56.243,22.116 C58.775,22.116 59.141,21.597 59.141,18.547 L59.141,9.153 C59.141,6.103 58.775,5.584 56.243,5.584 L56.243,4.7 L66.461,4.7 C70.243,4.7 72.621,7.018 72.621,9.854 C72.621,12.508 70.548,14.674 67.223,14.979 L67.223,14.979 Z M64.631,13.606 C67.284,13.606 68.535,11.928 68.535,9.854 C68.535,7.781 67.285,6.073 64.631,6.073 L62.953,6.073 L62.953,13.606 L64.631,13.606 L64.631,13.606 Z M76.99,23 L76.99,22.116 C79.522,22.116 79.888,21.597 79.888,18.547 L79.888,9.153 C79.888,6.103 79.522,5.584 76.991,5.584 L76.991,4.7 L87.056,4.7 C94.132,4.7 97.212,8.818 97.212,13.85 C97.212,18.883 94.132,23 87.056,23 L76.992,23 L76.99,23 Z M83.7,6.072 L83.7,18.181 C83.7,21.14 84.097,21.628 86.629,21.628 L86.934,21.628 C91.874,21.628 92.881,17.297 92.881,13.85 C92.881,10.403 91.875,6.073 86.934,6.073 L83.701,6.073 L83.7,6.072 Z"/>
    <path fill="#3B82F6" d="M223.73,4.7 L207.623,4.7 L207.623,5.585 C210.154,5.585 210.52,6.103 210.52,9.153 L210.52,18.547 C210.52,21.597 210.154,22.116 207.623,22.116 L207.623,23 L217.261,23 L217.261,22.116 C214.729,22.116 214.333,21.597 214.333,18.547 L214.333,14.002 L216.01,14.002 C219.06,14.002 219.548,14.368 219.548,16.93 L220.433,16.93 L220.433,9.702 L219.548,9.702 C219.548,12.233 219.06,12.63 216.01,12.63 L214.333,12.63 L214.333,6.072 L219.518,6.072 C222.293,6.072 222.628,6.774 223.025,8.39 L223.178,9 L224.093,9 L223.875,5.587 C225.87,5.624 226.685,6.182 228.066,8.268 L232.489,14.948 L232.489,18.547 C232.489,21.597 232.092,22.116 229.561,22.116 L229.561,23 L239.077,23 L239.077,22.116 C236.545,22.116 236.179,21.597 236.179,18.547 L236.179,14.857 L240.541,8.269 C241.821,6.286 242.401,5.585 244.933,5.585 L244.933,4.7 L237.552,4.7 L237.552,5.585 C239.962,5.585 240.297,6.255 239.199,7.902 L235.783,13.057 L232.367,7.902 C231.269,6.286 231.848,5.585 233.983,5.585 L233.983,4.7 L223.731,4.7 L223.73,4.7 Z M134.38,14.979 L137.34,18.212 C140.023,21.17 141.182,21.872 143.043,22.116 L143.043,23 L136.424,23 L130.995,14.979 L130.111,14.979 L130.111,18.547 C130.111,21.597 130.507,22.116 133.039,22.116 L133.039,23 L123.4,23 L123.4,22.116 C125.931,22.116 126.297,21.597 126.297,18.547 L126.297,9.153 C126.297,6.103 125.931,5.584 123.4,5.584 L123.4,4.7 L133.617,4.7 C137.399,4.7 139.778,7.018 139.778,9.854 C139.778,12.508 137.704,14.674 134.38,14.979 L134.38,14.979 Z M131.788,13.606 C134.442,13.606 135.692,11.928 135.692,9.854 C135.692,7.781 134.442,6.073 131.788,6.073 L130.111,6.073 L130.111,13.606 L131.788,13.606 L131.788,13.606 Z M144.15,23 L144.15,22.116 C146.682,22.116 147.048,21.597 147.048,18.547 L147.048,9.153 C147.048,6.103 146.682,5.584 144.15,5.584 L144.15,4.7 L159.858,4.7 L160.1,9 L159.215,9 L159.063,8.39 C158.636,6.774 158.331,6.072 155.525,6.072 L150.858,6.072 L150.858,12.63 L152.536,12.63 C155.586,12.63 156.074,12.233 156.074,9.702 L156.958,9.702 L156.958,16.93 L156.074,16.93 C156.074,14.368 155.586,14.002 152.536,14.002 L150.858,14.002 L150.858,18.059 C150.858,21.109 151.255,21.628 153.786,21.628 L156.531,21.628 C159.337,21.628 159.673,20.926 160.069,19.309 L160.222,18.699 L161.106,18.699 L160.863,23 L144.149,23 L144.15,23 Z M165.996,22.085 C166.464083,21.9496843 166.960917,21.9496843 167.429,22.085 L166.544,22.085 L166.544,15.375 L167.459,15.375 C168.039,18.639 170.57,20.713 173.071,20.713 C174.841,20.713 176.121,19.707 176.121,17.693 C176.121,16.595 175.298,15.345 173.864,14.613 L170.967,13.088 C168.374,11.776 166.819,10.343 166.819,7.324 C166.819,4.822 169.167,2.749 172.126,2.749 C173.926,2.749 174.932,3.328 175.847,3.999 C176.213,3.694 176.579,3.236 176.731,2.596 L177.585,2.596 L177.585,9.306 L176.701,9.306 C176.487,6.866 175.511,4.09 172.309,4.09 C171.059,4.09 169.839,5.006 169.839,6.53 C169.839,7.446 170.662,8.818 172.279,9.642 L175.206,11.136 C177.372,12.264 179.141,14.125 179.141,16.535 C179.141,19.859 176.213,22.085 173.071,22.085 C170.753,22.085 169.289,20.865 168.313,20.652 L165.996,22.085 Z M182.292,22.085 C182.760083,21.9496843 183.256917,21.9496843 183.725,22.085 L182.841,22.085 L182.841,15.375 L183.756,15.375 C184.336,18.639 186.866,20.713 189.368,20.713 C191.137,20.713 192.418,19.707 192.418,17.693 C192.418,16.595 191.594,15.345 190.161,14.613 L187.263,13.088 C184.671,11.776 183.115,10.343 183.115,7.324 C183.115,4.822 185.464,2.749 188.422,2.749 C190.222,2.749 191.228,3.328 192.143,3.999 C192.509,3.694 192.875,3.236 193.028,2.596 L193.882,2.596 L193.882,9.306 L192.997,9.306 C192.784,6.866 191.807,4.09 188.605,4.09 C187.355,4.09 186.135,5.006 186.135,6.53 C186.135,7.446 186.958,8.818 188.575,9.642 L191.503,11.136 C193.668,12.264 195.437,14.125 195.437,16.535 C195.437,19.859 192.509,22.085 189.367,22.085 C187.05,22.085 185.586,20.865 184.61,20.652 L182.292,22.085 Z M205.236,23 L195.598,23 L195.598,22.116 C198.13,22.116 198.496,21.597 198.496,18.547 L198.496,9.153 C198.496,6.103 198.13,5.584 195.598,5.584 L195.598,4.7 L205.236,4.7 L205.236,5.585 C202.705,5.585 202.308,6.103 202.308,9.153 L202.308,18.547 C202.308,21.597 202.705,22.116 205.236,22.116 L205.236,23 Z M113.622,0.2 C118.334,0.2 121.298,3.088 121.298,6.622 C121.298,10.156 118.334,13.006 113.622,13.006 L109.252,13.006 L109.252,17.452 C109.252,21.252 109.746,21.898 112.9,21.898 L112.9,23 L100.892,23 L100.892,21.898 C104.046,21.898 104.502,21.252 104.502,17.452 L104.502,5.748 C104.502,1.948 104.046,1.302 100.892,1.302 L100.892,0.2 L113.622,0.2 Z M111.342,11.296 C114.648,11.296 116.206,9.206 116.206,6.622 C116.206,4.038 114.648,1.91 111.342,1.91 L109.252,1.91 L109.252,11.296 L111.342,11.296 Z"/>
  </g>
</svg>
