<svg width="272" height="26" viewBox="0 0 272 26" fill="none" xmlns="http://www.w3.org/2000/svg">
<path fill-rule="evenodd" clip-rule="evenodd" d="M35.9432 1.22207V0H26.1367V1.22207C29.125 1.22207 29.7984 2.14916 29.0829 4.42475L25.2108 16.3084L19.9077 0H18.9817L13.8049 16.2662L9.97488 4.42475C9.17521 1.9806 9.76444 1.22207 13.2998 1.22207V0H0V1.22207C3.49331 1.22207 4.08255 2.02274 5.00848 4.93043L11.8268 26.0007H12.7106L17.9295 9.69231L23.2326 26.0007H24.1165L30.9348 4.93043C31.8607 2.06488 32.4499 1.22207 35.9432 1.22207ZM58.7439 15.1373C58.7439 21.0225 53.6767 25.8587 47.4942 25.8587C41.2785 25.8587 36.2113 21.0225 36.2113 15.1373C36.2113 9.25205 41.2785 4.41588 47.4942 4.41588C53.6767 4.41588 58.7439 9.25205 58.7439 15.1373ZM54.2172 15.1373C54.2172 11.0452 52.2568 6.03939 47.4942 6.03939C42.6984 6.03939 40.7712 11.0441 40.7712 15.1373C40.7712 19.2294 42.6984 24.2363 47.4942 24.2363C52.2568 24.2363 54.2172 19.2305 54.2172 15.1373ZM74.2246 16.3893L77.5019 19.9746C80.4747 23.2549 81.7584 24.0334 83.8185 24.304V25.2843H76.4885L70.4743 16.3893H69.4952V20.3461C69.4952 23.7284 69.9349 24.304 72.7382 24.304V25.2843H62.0633V24.304C64.8677 24.304 65.2731 23.7284 65.2731 20.3461V9.92852C65.2731 6.54619 64.8677 5.97064 62.0633 5.97064V4.99032H73.3806C77.5695 4.99032 80.2033 7.56089 80.2033 10.7059C80.2033 13.6491 77.9073 16.0511 74.2246 16.3893ZM71.3537 14.8667C74.2922 14.8667 75.6777 13.0059 75.6777 10.7059C75.6777 8.40702 74.2933 6.51292 71.3537 6.51292H69.4952V14.8667H71.3537ZM85.0423 25.2843V24.304C87.8467 24.304 88.2521 23.7284 88.2521 20.3461V9.92852C88.2521 6.54619 87.8467 5.97064 85.0434 5.97064V4.99032H96.1913C104.029 4.99032 107.44 9.55701 107.44 15.1373C107.44 20.7187 104.029 25.2843 96.1913 25.2843H85.0446H85.0423ZM92.4742 6.51181V19.9402C92.4742 23.2216 92.9139 23.7628 95.7183 23.7628H96.0561C101.528 23.7628 102.643 18.9599 102.643 15.1373C102.643 11.3147 101.529 6.51292 96.0561 6.51292H92.4753L92.4742 6.51181Z" fill="#434E00"/>
<path fill-rule="evenodd" clip-rule="evenodd" d="M247.569 4.99032H229.729V5.97175C232.532 5.97175 232.938 6.54619 232.938 9.92852V20.3461C232.938 23.7284 232.532 24.304 229.729 24.304V25.2843H240.404V24.304C237.6 24.304 237.161 23.7284 237.161 20.3461V15.3059H239.018C242.396 15.3059 242.937 15.7117 242.937 18.5529H243.917V10.5373H242.937C242.937 13.3441 242.396 13.7844 239.018 13.7844H237.161V6.51181H242.904C245.977 6.51181 246.348 7.2903 246.788 9.08238L246.958 9.75884H247.971L247.73 5.97397C249.939 6.015 250.842 6.6338 252.371 8.94709L257.27 16.3549V20.3461C257.27 23.7284 256.831 24.304 254.027 24.304V25.2843H264.567V24.304C261.763 24.304 261.357 23.7284 261.357 20.3461V16.254L266.188 8.94819C267.606 6.74913 268.249 5.97175 271.053 5.97175V4.99032H262.878V5.97175C265.547 5.97175 265.918 6.71475 264.702 8.54121L260.919 14.2579L257.135 8.54121C255.919 6.74913 256.56 5.97175 258.925 5.97175V4.99032H247.57H247.569ZM148.606 16.3893L151.885 19.9746C154.857 23.2549 156.14 24.0334 158.201 24.304V25.2843H150.87L144.857 16.3893H143.878V20.3461C143.878 23.7284 144.317 24.304 147.121 24.304V25.2843H136.445V24.304C139.248 24.304 139.654 23.7284 139.654 20.3461V9.92852C139.654 6.54619 139.248 5.97064 136.445 5.97064V4.99032H147.761C151.95 4.99032 154.585 7.56089 154.585 10.7059C154.585 13.6491 152.288 16.0511 148.606 16.3893ZM145.736 14.8667C148.675 14.8667 150.06 13.0059 150.06 10.7059C150.06 8.40702 148.675 6.51292 145.736 6.51292H143.878V14.8667H145.736ZM159.428 25.2843V24.304C162.232 24.304 162.637 23.7284 162.637 20.3461V9.92852C162.637 6.54619 162.232 5.97064 159.428 5.97064V4.99032H176.825L177.093 9.75884H176.113L175.945 9.08238C175.472 7.2903 175.134 6.51181 172.026 6.51181H166.857V13.7844H168.716C172.094 13.7844 172.634 13.3441 172.634 10.5373H173.613V18.5529H172.634C172.634 15.7117 172.094 15.3059 168.716 15.3059H166.857V19.8049C166.857 23.1872 167.297 23.7628 170.1 23.7628H173.141C176.248 23.7628 176.621 22.9843 177.059 21.1911L177.229 20.5146H178.208L177.939 25.2843H159.426H159.428ZM183.624 24.2696C183.129 24.6748 182.784 25.2343 182.645 25.8587H181.664V18.4176H182.678C183.32 22.0372 186.124 24.3372 188.894 24.3372C190.854 24.3372 192.272 23.2216 192.272 20.9882C192.272 19.7705 191.36 18.3843 189.772 17.5726L186.563 15.8814C183.691 14.4265 181.969 12.8373 181.969 9.48937C181.969 6.71475 184.57 4.41588 187.847 4.41588C189.841 4.41588 190.955 5.05796 191.968 5.80208C192.374 5.46384 192.779 4.95594 192.947 4.24621H193.893V11.6873H192.914C192.677 8.98146 191.596 5.90299 188.05 5.90299C186.665 5.90299 185.314 6.9188 185.314 8.60885C185.314 9.62466 186.225 11.1462 188.016 12.0599L191.258 13.7167C193.657 14.9676 195.617 17.0314 195.617 19.704C195.617 23.3902 192.374 25.8587 188.894 25.8587C186.326 25.8587 184.705 24.5058 183.624 24.2696ZM201.673 24.2696C201.178 24.6746 200.833 25.2341 200.693 25.8587H199.714V18.4176H200.727C201.369 22.0372 204.172 24.3372 206.943 24.3372C208.902 24.3372 210.321 23.2216 210.321 20.9882C210.321 19.7705 209.408 18.3843 207.821 17.5726L204.611 15.8814C201.74 14.4265 200.017 12.8373 200.017 9.48937C200.017 6.71475 202.619 4.41588 205.895 4.41588C207.889 4.41588 209.003 5.05796 210.016 5.80208C210.422 5.46384 210.827 4.95594 210.997 4.24621H211.942V11.6873H210.962C210.726 8.98146 209.644 5.90299 206.098 5.90299C204.713 5.90299 203.362 6.9188 203.362 8.60885C203.362 9.62466 204.274 11.1462 206.064 12.0599L209.307 13.7167C211.705 14.9676 213.665 17.0314 213.665 19.704C213.665 23.3902 210.422 25.8587 206.942 25.8587C204.375 25.8587 202.754 24.5058 201.673 24.2696ZM227.085 25.2843H216.41V24.304C219.215 24.304 219.62 23.7284 219.62 20.3461V9.92852C219.62 6.54619 219.215 5.97064 216.41 5.97064V4.99032H227.085V5.97175C224.282 5.97175 223.842 6.54619 223.842 9.92852V20.3461C223.842 23.7284 224.282 24.304 227.085 24.304V25.2843ZM125.615 0C130.834 0 134.117 3.20268 134.117 7.12174C134.117 11.0408 130.834 14.2013 125.615 14.2013H120.775V19.1318C120.775 23.3458 121.322 24.0622 124.816 24.0622V25.2843H111.516V24.0622C115.009 24.0622 115.514 23.3458 115.514 19.1318V6.15251C115.514 1.93846 115.009 1.22207 111.516 1.22207V0H125.615ZM123.09 12.305C126.752 12.305 128.477 9.98729 128.477 7.12174C128.477 4.25619 126.752 1.89632 123.09 1.89632H120.775V12.305H123.09Z" fill="#859A00"/>
</svg>

