<svg xmlns="http://www.w3.org/2000/svg" width="44" height="44" viewBox="0 0 44 44">
  <g fill="none">
    <path fill="#4DA34D" d="M22,4 C27.54041,4 32.63666,6.49304 36.01129,10.68939 L28.36133,9.66504 L27.83008,13.62988 L39.72363,15.22265 C39.81347,15.23437 39.90332,15.24023 39.99218,15.24023 C40.97851,15.24023 41.83691,14.51074 41.97167,13.50585 L43.56445,1.6123 L39.59961,1.08105 L38.71362,7.69738 C34.59338,2.86353 28.55487,0 22,0 C10.21294,0 0.56122,9.31766 0.02383,20.97426 C-0.00206,21.53575 0.46361,21.99998 1.02569,21.99998 L3.02857,21.99998 C3.56969,21.99998 3.99724,21.56852 4.02612,21.02818 C4.53253,11.55338 12.40122,4 22,4 Z"/>
    <path fill="#9EDB9E" d="M22,40 C16.45959,40 11.36334,37.50696 7.98871,33.31061 L15.63867,34.33496 L16.16992,30.37012 L4.27637,28.77734 C3.18946,28.63769 2.17481,29.39941 2.02832,30.49414 L0.43555,42.3877 L3.40917,42.78614 C3.95659,42.85949 4.45982,42.47515 4.53313,41.92772 L5.28638,36.30262 C9.40662,41.13647 15.44513,44 22,44 C33.78704,44 43.43875,34.68236 43.97622,23.02579 C44.00211,22.46427 43.53642,22.00001 42.9743,22.00001 L40.97142,22.00001 C40.43033,22.00001 40.0028,22.43144 39.97393,22.97176 C39.46751,32.44659 31.5988,40 22,40 Z"/>
  </g>
</svg>
