<svg xmlns="http://www.w3.org/2000/svg" width="34" height="48" viewBox="0 0 34 48">
  <g fill="none">
    <path fill="#B3B3B3" d="M16,12 L16,10 L2,10 L2,1 C2,0.448 1.552,0 1,0 C0.448,0 0,0.448 0,1 L0,37 C0,37.552 0.448,38 1,38 L16,38 L16,36 L2,36 L2,12 L16,12 Z"/>
    <path fill="#43A6DD" d="M33,22 L17,22 C16.448,22 16,21.553 16,21 L16,1 C16,0.447 16.448,0 17,0 L27,0 L34,7 L34,21 C34,21.553 33.552,22 33,22 Z"/>
    <path fill="#458BC4" d="M27,6 L27,0 L34,7 L28,7 C27.448,7 27,6.552 27,6 Z"/>
    <path fill="#43A6DD" d="M33,48 L17,48 C16.448,48 16,47.553 16,47 L16,27 C16,26.447 16.448,26 17,26 L27,26 L34,33 L34,47 C34,47.553 33.552,48 33,48 Z"/>
    <path fill="#458BC4" d="M27,32 L27,26 L34,33 L28,33 C27.448,33 27,32.552 27,32 Z"/>
  </g>
</svg>
