<svg xmlns="http://www.w3.org/2000/svg" width="44" height="44" viewBox="0 0 44 44">
  <g fill="none">
    <path fill="#EFD358" d="M38,44 L38,5 C38,2.239 35.761,0 33,0 L5,0 C6.634,0 6.088,1.788 7,3 C7.629,3.836 10,3.873 10,5 L10,39 C10,41.761 12.239,44 15,44 L38,44 Z"/>
    <path fill="#A67C52" d="M10,6 L0,6 L0,5 C0,2.239 2.239,0 5,0 L5,0 C7.761,0 10,2.239 10,5 L10,6 Z"/>
    <path fill="#335262" d="M20 27.414L15.293 22.707C14.902 22.316 14.902 21.684 15.293 21.293L20 16.586 21.414 18 17.414 22 21.414 26 20 27.414zM28 27.414L26.586 26 30.586 22 26.586 18 28 16.586 32.707 21.293C33.098 21.684 33.098 22.316 32.707 22.707L28 27.414z"/>
    <path fill="#A67C52" d="M20,38 L20,39 C20,43.5 15,44 15,44 C15,44 38.657,44 39,44 C41.761,44 44,41.761 44,39 L44,38 L20,38 Z"/>
  </g>
</svg>
