<svg xmlns="http://www.w3.org/2000/svg" width="43" height="44" viewBox="0 0 43 44">
  <g fill="none">
    <path fill="#444" d="M41.356,22.388 L26.27,1.815 C26.142,1.597 25.786,1.159 25.74,1.113 C24.298,-0.33 21.736,-0.366 18.533,1.008 C15.614,2.258 12.397,4.556 9.476,7.477 C6.555,10.398 4.257,13.614 3.007,16.533 C1.633,19.739 1.67,22.299 3.112,23.741 C3.157,23.786 3.611,24.152 3.819,24.274 L24.386,39.357 C24.931,39.868 25.64,40.098 26.46,40.098 C29.185,40.098 33.132,37.56 36.345,34.348 C40.526,30.167 43.564,24.743 41.356,22.388 Z"/>
    <path fill="#E86C60" d="M5.823,30.432 C5.448,29.891 4.552,29.891 4.177,30.432 C3.479,31.441 0,36.601 0,39 C0,41.757 2.243,44 5,44 C7.757,44 10,41.757 10,39 C10,36.601 6.521,31.441 5.823,30.432 Z"/>
    <path fill="#B3B3B3" d="M31,4 L27.872,4 L29.339,6 L31,6 C34.859,6 38,9.14 38,13 C38,16.86 34.859,20 31,20 L23,20 C22.447,20 22,20.448 22,21 C22,21.552 22.447,22 23,22 L31,22 C35.963,22 40,17.962 40,13 C40,8.038 35.963,4 31,4 Z"/>
    <path fill="#E86C60" d="M19.32,2.846 C16.63,3.999 13.636,6.146 10.89,8.891 C8.145,11.637 5.998,14.63 4.845,17.32 C3.845,19.654 3.726,21.525 4.527,22.326 C5.326,23.125 7.198,23.008 9.533,22.008 C12.223,20.855 15.217,18.708 17.962,15.963 C20.707,13.218 22.855,10.224 24.008,7.533 C25.008,5.2 25.127,3.328 24.326,2.528 C23.974,2.176 23.416,2.002 22.703,2.002 C21.792,2.001 20.629,2.285 19.32,2.846 Z"/>
  </g>
</svg>
