<svg xmlns="http://www.w3.org/2000/svg" width="44" height="46" viewBox="0 0 44 46">
  <g fill="none">
    <path fill="#B3B3B3" d="M43,9 L12,9 L12,5 L43,5 C43.55228,5 44,5.44772 44,6 L44,8 C44,8.55229 43.55228,9 43,9 Z"/>
    <rect width="4" height="4" x="19" y="5" fill="#898989"/>
    <path fill="#B3B3B3" d="M43,41 L12,41 L12,37 L43,37 C43.55228,37 44,37.44772 44,38 L44,40 C44,40.55228 43.55228,41 43,41 Z"/>
    <rect width="4" height="4" x="19" y="37" fill="#898989"/>
    <path fill="#B3B3B3" d="M43,25 L30,25 L30,21 L43,21 C43.55228,21 44,21.44772 44,22 L44,24 C44,24.55228 43.55228,25 43,25 Z"/>
    <rect width="4" height="4" x="37" y="21" fill="#898989"/>
    <path fill="#43A6DD" d="M12 9L1 9C.44772 9 0 8.55229 0 8L0 6C0 5.44772.44772 5 1 5L12 5 12 9zM30 25L1 25C.44772 25 0 24.55228 0 24L0 22C0 21.44772.44772 21 1 21L30 21 30 25zM12 41L1 41C.44772 41 0 40.55228 0 40L0 38C0 37.44772.44772 37 1 37L12 37 12 41z"/>
    <circle cx="13" cy="7" r="7" fill="#E6E6E6"/>
    <circle cx="31" cy="23" r="7" fill="#E6E6E6"/>
    <circle cx="13" cy="39" r="7" fill="#E6E6E6"/>
  </g>
</svg>
