<svg xmlns="http://www.w3.org/2000/svg" width="46" height="46" viewBox="0 0 46 46">
  <g fill="none">
    <path fill="#B3B3B3" d="M5 46C4.448 46 4 45.552 4 45L4 41C4 40.448 4.448 40 5 40 5.552 40 6 40.448 6 41L6 45C6 45.552 5.552 46 5 46zM41 46C40.448 46 40 45.552 40 45L40 41C40 40.448 40.448 40 41 40 41.552 40 42 40.448 42 41L42 45C42 45.552 41.552 46 41 46z"/>
    <path fill="#A67C52" d="M45,42 L1,42 C0.448,42 0,41.552 0,41 L0,1 C0,0.448 0.448,0 1,0 L45,0 C45.552,0 46,0.448 46,1 L46,41 C46,41.552 45.552,42 45,42 Z"/>
    <rect width="42" height="18" x="2" y="2" fill="#5E4027"/>
    <rect width="42" height="18" x="2" y="22" fill="#5E4027"/>
    <path fill="#BFDEE0" d="M24,20 L23,20 C22.448,20 22,19.552 22,19 L22,7 C22,6.448 22.448,6 23,6 L24,6 C24.552,6 25,6.448 25,7 L25,19 C25,19.552 24.552,20 24,20 Z"/>
    <path fill="#E86C60" d="M14,40 L13,40 C12.448,40 12,39.552 12,39 L12,27 C12,26.448 12.448,26 13,26 L14,26 C14.552,26 15,26.448 15,27 L15,39 C15,39.552 14.552,40 14,40 Z"/>
    <path fill="#BFDEE0" d="M9,40 L8,40 C7.448,40 7,39.552 7,39 L7,27 C7,26.448 7.448,26 8,26 L9,26 C9.552,26 10,26.448 10,27 L10,39 C10,39.552 9.552,40 9,40 Z"/>
    <path fill="#72C472" d="M24,40 L23,40 C22.448,40 22,39.552 22,39 L22,27 C22,26.448 22.448,26 23,26 L24,26 C24.552,26 25,26.448 25,27 L25,39 C25,39.552 24.552,40 24,40 Z"/>
    <path fill="#E6E6E6" d="M19 40L18 40C17.448 40 17 39.552 17 39L17 27C17 26.448 17.448 26 18 26L19 26C19.552 26 20 26.448 20 27L20 39C20 39.552 19.552 40 19 40zM20 18L20 19C20 19.552 19.552 20 19 20L8 20C7.448 20 7 19.552 7 19L7 18C7 17.448 7.448 17 8 17L19 17C19.552 17 20 17.448 20 18z"/>
    <path fill="#EAD8C5" d="M40 38L40 39C40 39.552 39.552 40 39 40L28 40C27.448 40 27 39.552 27 39L27 38C27 37.448 27.448 37 28 37L39 37C39.552 37 40 37.448 40 38zM29 20L28 20C27.448 20 27 19.552 27 19L27 7C27 6.448 27.448 6 28 6L29 6C29.552 6 30 6.448 30 7L30 19C30 19.552 29.552 20 29 20z"/>
    <path fill="#72C472" d="M34,20 L33,20 C32.448,20 32,19.552 32,19 L32,7 C32,6.448 32.448,6 33,6 L34,6 C34.552,6 35,6.448 35,7 L35,19 C35,19.552 34.552,20 34,20 Z"/>
    <path fill="#E86C60" d="M39,20 L38,20 C37.448,20 37,19.552 37,19 L37,7 C37,6.448 37.448,6 38,6 L39,6 C39.552,6 40,6.448 40,7 L40,19 C40,19.552 39.552,20 39,20 Z"/>
  </g>
</svg>
