<svg xmlns="http://www.w3.org/2000/svg" width="55" height="55" viewBox="0 0 55 55">
  <path fill="#FFF" d="M27.4425887,0.0574112735 C42.5987056,0.0574112735 54.8851775,12.3438831 54.8851775,27.5 C54.8851775,42.6561169 42.5987056,54.9425887 27.4425887,54.9425887 C12.2864718,54.9425887 1.13686838e-13,42.6561169 1.13686838e-13,27.5 C1.13686838e-13,12.3438831 12.2864718,0.0574112735 27.4425887,0.0574112735 Z M32.2651357,18.888309 L32.2651357,21.1847599 L40.302714,21.1847599 L40.302714,18.888309 L32.2651357,18.888309 Z M36.5177035,22.7231524 C29.0900626,22.7231524 29.0976409,30.109572 29.0976409,30.109572 C29.0976409,30.109572 28.5871399,37.4196347 36.5177035,37.4196347 C36.5177035,37.4196347 43.1293006,37.8340292 43.1293006,32.2077244 L39.7290605,32.2077244 C39.7290605,32.2077244 39.8408977,34.4111691 36.6314927,34.4111691 C36.6314927,34.4111691 33.2330898,34.6189979 33.2330898,31.1743215 L43.2421712,31.1743215 C43.2421712,31.1743215 44.3364301,22.7231524 36.5177035,22.7231524 Z M39.5382255,28.5334029 L33.1945094,28.5334029 C33.1945094,28.5334029 33.6091336,25.5552505 36.5929123,25.5552505 C39.578643,25.5552505 39.5382255,28.5334029 39.5382255,28.5334029 Z M24.7168163,26.5590292 C24.7168163,26.5590292 27.6639666,26.3385699 27.6639666,22.8828706 C27.6639666,19.4271712 25.2536117,17.7400835 22.2002505,17.7400835 L16.5767015,17.7400835 L16.4121608,17.7400835 L12.0563674,17.7400835 L12.0563674,37.0302714 L16.4121608,37.0302714 L16.5767015,37.0302714 L22.2002505,37.0302714 C22.2002505,37.0302714 28.3343006,37.2377557 28.3343006,31.3424217 C28.3343006,31.3424217 28.6021816,26.5590292 24.7168163,26.5590292 Z M16.5344468,21.1847599 L21.4762944,21.1847599 L22.2001357,21.1847599 C22.2001357,21.1847599 23.5660647,21.2117432 23.5660647,23.2206785 C23.5660647,25.2286952 22.7613883,25.5480167 21.8513048,25.5480167 L16.5344468,25.5480167 L16.5344468,21.1847599 Z M21.9153758,33.6051148 C21.7667954,33.606952 21.6399165,33.585595 21.5552923,33.585595 L16.5344468,33.585595 L16.5344468,28.5334029 L22.2002505,28.5334029 C22.2002505,28.5334029 24.2345616,28.4604906 24.2345616,31.1406785 C24.2345616,33.3987787 22.716263,33.5862839 21.9153758,33.6051148 Z"/>
</svg>
