<svg xmlns="http://www.w3.org/2000/svg" xmlns:xlink="http://www.w3.org/1999/xlink" width="394" height="250" viewBox="0 0 394 250">
  <defs>
    <path id="cart-a" d="M162.965249,29.69085 L39.5620481,29.69085 L36.2412553,5.09316081 C35.761523,1.52943925 33.7716606,9.84013188e-07 30.2380682,9.84013188e-07 L5.90612061,9.84013188e-07 C2.64319431,-0.00186191278 0,2.64158863 0,5.89606932 C0,9.15241291 2.64132764,11.7902748 5.90798727,11.7902748 L25.1700791,11.7884119 L38.9721827,95.6038642 C41.2719111,110.030137 44.5833706,124 63.3657302,124 L128.334924,123.998137 C147.358083,123.998137 149.448745,110.449289 152.862871,96.81661 L167.35564,38.9624873 C168.47377,34.4933979 168.750037,29.69085 162.965249,29.69085 Z M151.177274,56.3880239 L70.7782476,56.3880239 C67.5283879,56.3880239 64.8721269,59.038926 64.8721269,62.2822294 L64.8721269,62.2859551 C64.8721269,65.5273956 67.5283879,68.1801606 70.7782476,68.1801606 L148.224214,68.1801606 L144.853021,81.637727 L85.2206164,81.637727 C81.9726234,81.637727 79.3163625,84.2886291 79.3163625,87.5319324 L79.3163625,87.5356582 C79.3163625,90.7770987 81.9726234,93.4280008 85.2206164,93.4280008 L141.898094,93.4280008 L141.270896,95.9298712 C139.404233,103.38891 138.978634,112.211589 128.333057,112.211589 L63.3638635,112.211589 C52.1172211,112.211589 51.8334884,102.124003 50.4950912,94.1023694 L41.7068435,41.477398 L154.912466,41.477398 L151.177274,56.3880239 Z"/>
  </defs>
  <g fill="none" fill-rule="evenodd">
    <path fill="#8EC5FC" d="M321.498629,124.814088 C321.498629,193.747121 265.646256,249.628176 196.749315,249.628176 C127.852373,249.628176 72,193.747121 72,124.814088 C72,55.8810547 127.852373,0 196.749315,0 C265.646256,0 321.498629,55.8810547 321.498629,124.814088"/>
    <g transform="translate(15)">
      <path fill="#8EC5FC" d="M317.942937,9.24091313 L193.605147,9.24091313 C191.123258,9.24091313 189.111182,7.22811164 189.111182,4.74493413 C189.111182,2.26175661 191.123258,0.248955118 193.605147,0.248955118 L317.942937,0.248955118 C320.424825,0.248955118 322.436582,2.26175661 322.436582,4.74493413 C322.436582,7.22811164 320.424825,9.24091313 317.942937,9.24091313"/>
      <path fill="#CDE6FF" d="M198.487957,18.0219668 L289.693869,18.0219668 C292.11715,18.0219668 294.081767,16.0563304 294.081767,13.6314718 C294.081767,11.2066133 292.11715,9.24097687 289.693869,9.24097687 L198.487957,9.24097687 C196.064676,9.24097687 194.099741,11.2066133 194.099741,13.6314718 C194.099741,16.0563304 196.064676,18.0219668 198.487957,18.0219668"/>
      <path fill="#8EC5FC" d="M57.5803104,28.1538537 L136.207645,28.1538537 C139.004229,28.1538537 141.271119,25.8857872 141.271119,23.0880696 C141.271119,20.2900333 139.004229,18.0219668 136.207645,18.0219668 L57.5803104,18.0219668 C54.7840447,18.0219668 52.5171552,20.2900333 52.5171552,23.0880696 C52.5171552,25.8857872 54.7840447,28.1538537 57.5803104,28.1538537"/>
      <path fill="#CDE6FF" d="M184.583614,36.2868018 L68.4263112,36.2868018 C66.1817179,36.2868018 64.3620271,34.4661662 64.3620271,32.2204074 C64.3620271,29.97433 66.1817179,28.1536944 68.4263112,28.1536944 L184.583614,28.1536944 C186.828208,28.1536944 188.647899,29.97433 188.647899,32.2204074 C188.647899,34.4661662 186.828208,36.2868018 184.583614,36.2868018"/>
      <path fill="#8EC5FC" d="M17.3912613 49.444902L111.33292 49.444902C114.964657 49.444902 117.908715 46.4993155 117.908715 42.8656926 117.908715 39.2323883 114.964657 36.2868018 111.33292 36.2868018L17.3912613 36.2868018C13.7595241 36.2868018 10.8154662 39.2323883 10.8154662 42.8656926 10.8154662 46.4993155 13.7595241 49.444902 17.3912613 49.444902M371.558074 53.2779089L182.714426 53.2779089C178.896675 53.2779089 175.801639 50.1812667 175.801639 46.3615329 175.801639 42.5414805 178.896675 39.4448383 182.714426 39.4448383L371.558074 39.4448383C375.375826 39.4448383 378.470861 42.5414805 378.470861 46.3615329 378.470861 50.1812667 375.375826 53.2779089 371.558074 53.2779089"/>
      <path fill="#CDE6FF" d="M221.548756,67.5090783 L312.438061,67.5090783 C316.365701,67.5090783 319.549921,64.3232049 319.549921,60.3935255 C319.549921,56.4635274 316.365701,53.2779727 312.438061,53.2779727 L221.548756,53.2779727 C217.620798,53.2779727 214.436896,56.4635274 214.436896,60.3935255 C214.436896,64.3232049 217.620798,67.5090783 221.548756,67.5090783"/>
      <path fill="#8EC5FC" d="M334.308305 78.4188384L227.000694 78.4188384C223.989429 78.4188384 221.548629 75.9764523 221.548629 72.9639424 221.548629 69.9514325 223.989429 67.5090464 227.000694 67.5090464L334.308305 67.5090464C337.31957 67.5090464 339.76037 69.9514325 339.76037 72.9639424 339.76037 75.9764523 337.31957 78.4188384 334.308305 78.4188384M37.2469773 102.693444L223.198168 102.693444C227.137911 102.693444 230.331687 99.4980104 230.331687 95.556221 230.331687 91.6144317 227.137911 88.4189978 223.198168 88.4189978L37.2469773 88.4189978C33.3072336 88.4189978 30.113458 91.6144317 30.113458 95.556221 30.113458 99.4980104 33.3072336 102.693444 37.2469773 102.693444"/>
      <path fill="#CDE6FF" d="M132.909445,116.009962 L7.47054035,116.009962 C3.79516619,116.009962 0.815752911,113.029002 0.815752911,109.351719 C0.815752911,105.674436 3.79516619,102.693476 7.47054035,102.693476 L132.909445,102.693476 C136.58482,102.693476 139.564233,105.674436 139.564233,109.351719 C139.564233,113.029002 136.58482,116.009962 132.909445,116.009962"/>
      <path fill="#8EC5FC" d="M332.497055 206.375571L247.010126 206.375571C243.752647 206.375571 241.111818 203.73337 241.111818 200.473881 241.111818 197.214711 243.752647 194.57251 247.010126 194.57251L332.497055 194.57251C335.754853 194.57251 338.395682 197.214711 338.395682 200.473881 338.395682 203.73337 335.754853 206.375571 332.497055 206.375571M12.1536222 153.62325L122.944223 153.62325C126.447916 153.62325 129.288456 150.781554 129.288456 147.275723 129.288456 143.77021 126.447916 140.928196 122.944223 140.928196L12.1536222 140.928196C8.64992904 140.928196 5.80938941 143.77021 5.80938941 147.275723 5.80938941 150.781554 8.64992904 153.62325 12.1536222 153.62325"/>
      <path fill="#CDE6FF" d="M59.3705702,167.855375 L118.868695,167.855375 C122.796654,167.855375 125.980874,164.669502 125.980874,160.739185 C125.980874,156.809187 122.796654,153.623313 118.868695,153.623313 L59.3705702,153.623313 C55.4426116,153.623313 52.2583915,156.809187 52.2583915,160.739185 C52.2583915,164.669502 55.4426116,167.855375 59.3705702,167.855375"/>
      <path fill="#FEFEFE" d="M73.619103 27.0804658L30.1134261 27.0804658C29.5856425 27.0804658 29.1578734 26.6524746 29.1578734 26.124417 29.1578734 25.5963593 29.5856425 25.1683681 30.1134261 25.1683681L73.619103 25.1683681C74.1468866 25.1683681 74.5746557 25.5963593 74.5746557 26.124417 74.5746557 26.6524746 74.1468866 27.0804658 73.619103 27.0804658M59.8265918 31.4864806L30.1133624 31.4864806C29.5855788 31.4864806 29.1578097 31.0584894 29.1578097 30.5304318 29.1578097 30.0023741 29.5855788 29.5743829 30.1133624 29.5743829L59.8265918 29.5743829C60.3543754 29.5743829 60.7821445 30.0023741 60.7821445 30.5304318 60.7821445 31.0584894 60.3543754 31.4864806 59.8265918 31.4864806M31.9905138 128.144803L8.33867368 128.144803C7.81089008 128.144803 7.38312099 127.716812 7.38312099 127.188754 7.38312099 126.660696 7.81089008 126.232705 8.33867368 126.232705L31.9905138 126.232705C32.5182974 126.232705 32.9460665 126.660696 32.9460665 127.188754 32.9460665 127.716812 32.5182974 128.144803 31.9905138 128.144803M145.662711 128.144803L122.01119 128.144803C121.483406 128.144803 121.055637 127.716812 121.055637 127.188754 121.055637 126.660696 121.483406 126.232705 122.01119 126.232705L145.662711 126.232705C146.190495 126.232705 146.618264 126.660696 146.618264 127.188754 146.618264 127.716812 146.190495 128.144803 145.662711 128.144803M111.344005 128.144803L104.616595 128.144803C104.088812 128.144803 103.661042 127.716812 103.661042 127.188754 103.661042 126.660696 104.088812 126.232705 104.616595 126.232705L111.344005 126.232705C111.871788 126.232705 112.299557 126.660696 112.299557 127.188754 112.299557 127.716812 111.871788 128.144803 111.344005 128.144803M40.4576662 121.15838L8.33867368 121.15838C7.81089008 121.15838 7.38312099 120.730389 7.38312099 120.202332 7.38312099 119.674274 7.81089008 119.246283 8.33867368 119.246283L40.4576662 119.246283C40.9854498 119.246283 41.4132189 119.674274 41.4132189 120.202332 41.4132189 120.730389 40.9854498 121.15838 40.4576662 121.15838M334.406313 49.1322262L304.693084 49.1322262C304.1653 49.1322262 303.737531 48.704235 303.737531 48.1761774 303.737531 47.6481197 304.1653 47.2201285 304.693084 47.2201285L334.406313 47.2201285C334.934097 47.2201285 335.361866 47.6481197 335.361866 48.1761774 335.361866 48.704235 334.934097 49.1322262 334.406313 49.1322262M270.630624 45.1322262L240.917395 45.1322262C240.389611 45.1322262 239.961842 44.704235 239.961842 44.1761774 239.961842 43.6481197 240.389611 43.2201285 240.917395 43.2201285L270.630624 43.2201285C271.158408 43.2201285 271.586177 43.6481197 271.586177 44.1761774 271.586177 44.704235 271.158408 45.1322262 270.630624 45.1322262M231.945361 14.5873932L175.797085 14.5873932C175.269301 14.5873932 174.841532 14.159402 174.841532 13.6313444 174.841532 13.1032867 175.269301 12.6752955 175.797085 12.6752955L231.945361 12.6752955C232.473144 12.6752955 232.900913 13.1032867 232.900913 13.6313444 232.900913 14.159402 232.473144 14.5873932 231.945361 14.5873932M122.836915 42.1367404L93.1236852 42.1367404C92.5959016 42.1367404 92.1681325 41.7087492 92.1681325 41.1806915 92.1681325 40.6526339 92.5959016 40.2246427 93.1236852 40.2246427L122.836915 40.2246427C123.364698 40.2246427 123.792467 40.6526339 123.792467 41.1806915 123.792467 41.7087492 123.364698 42.1367404 122.836915 42.1367404M82.1284271 48.1367404L70.4585806 48.1367404C69.930797 48.1367404 69.5030279 47.7087492 69.5030279 47.1806915 69.5030279 46.6526339 69.930797 46.2246427 70.4585806 46.2246427L82.1284271 46.2246427C82.6562107 46.2246427 83.0839798 46.6526339 83.0839798 47.1806915 83.0839798 47.7087492 82.6562107 48.1367404 82.1284271 48.1367404M50.8049959 81.0773075L10.8157529 81.0773075C10.2879693 81.0773075 9.86020022 80.6493163 9.86020022 80.1212587 9.86020022 79.593201 10.2879693 79.1652099 10.8157529 79.1652099L50.8049959 79.1652099C51.3327795 79.1652099 51.7605486 79.593201 51.7605486 80.1212587 51.7605486 80.6493163 51.3327795 81.0773075 50.8049959 81.0773075M310.533963 72.0773075L257.816758 72.0773075C257.288975 72.0773075 256.861206 71.6493163 256.861206 71.1212587 256.861206 70.593201 257.288975 70.1652099 257.816758 70.1652099L310.533963 70.1652099C311.061747 70.1652099 311.489516 70.593201 311.489516 71.1212587 311.489516 71.6493163 311.061747 72.0773075 310.533963 72.0773075M345.679764 171.491292L315.966535 171.491292C315.438751 171.491292 315.010982 171.063301 315.010982 170.535244 315.010982 170.007186 315.438751 169.579195 315.966535 169.579195L345.679764 169.579195C346.207548 169.579195 346.635317 170.007186 346.635317 170.535244 346.635317 171.063301 346.207548 171.491292 345.679764 171.491292M132.765234 10.196962L103.052005 10.196962C102.524221 10.196962 102.096452 9.76897078 102.096452 9.24091313 102.096452 8.71285549 102.524221 8.2848643 103.052005 8.2848643L132.765234 8.2848643C133.293018 8.2848643 133.720787 8.71285549 133.720787 9.24091313 133.720787 9.76897078 133.293018 10.196962 132.765234 10.196962M132.765234 217.667017L103.052005 217.667017C102.524221 217.667017 102.096452 217.239026 102.096452 216.710968 102.096452 216.182911 102.524221 215.75492 103.052005 215.75492L132.765234 215.75492C133.293018 215.75492 133.720787 216.182911 133.720787 216.710968 133.720787 217.239026 133.293018 217.667017 132.765234 217.667017M288.798261 217.667017L259.084713 217.667017C258.55693 217.667017 258.12916 217.239026 258.12916 216.710968 258.12916 216.182911 258.55693 215.75492 259.084713 215.75492L288.798261 215.75492C289.325726 215.75492 289.753814 216.182911 289.753814 216.710968 289.753814 217.239026 289.325726 217.667017 288.798261 217.667017M92.6637458 217.667017L80.1899611 217.667017C79.6621775 217.667017 79.2344084 217.239026 79.2344084 216.710968 79.2344084 216.182911 79.6621775 215.75492 80.1899611 215.75492L92.6637458 215.75492C93.1915294 215.75492 93.6192985 216.182911 93.6192985 216.710968 93.6192985 217.239026 93.1915294 217.667017 92.6637458 217.667017M345.679764 166.902768L311.256297 166.902768C310.728514 166.902768 310.300745 166.474777 310.300745 165.946719 310.300745 165.418661 310.728514 164.99067 311.256297 164.99067L345.679764 164.99067C346.207548 164.99067 346.635317 165.418661 346.635317 165.946719 346.635317 166.474777 346.207548 166.902768 345.679764 166.902768M106.331239 187.211317L71.9080903 187.211317C71.3803067 187.211317 70.9525377 186.783325 70.9525377 186.255268 70.9525377 185.72721 71.3803067 185.299219 71.9080903 185.299219L106.331239 185.299219C106.859023 185.299219 107.286792 185.72721 107.286792 186.255268 107.286792 186.783325 106.859023 187.211317 106.331239 187.211317M142.624996 172.902768L108.201847 172.902768C107.674063 172.902768 107.246294 172.474777 107.246294 171.946719 107.246294 171.418661 107.674063 170.99067 108.201847 170.99067L142.624996 170.99067C143.152779 170.99067 143.580548 171.418661 143.580548 171.946719 143.580548 172.474777 143.152779 172.902768 142.624996 172.902768M38.9120597 166.902768L25.0689679 166.902768C24.5411843 166.902768 24.1134152 166.474777 24.1134152 165.946719 24.1134152 165.418661 24.5411843 164.99067 25.0689679 164.99067L38.9120597 164.99067C39.4398433 164.99067 39.8676124 165.418661 39.8676124 165.946719 39.8676124 166.474777 39.4398433 166.902768 38.9120597 166.902768M304.267439 149.089597L269.844291 149.089597C269.316507 149.089597 268.888738 148.661606 268.888738 148.133549 268.888738 147.605491 269.316507 147.1775 269.844291 147.1775L304.267439 147.1775C304.795223 147.1775 305.222992 147.605491 305.222992 148.133549 305.222992 148.661606 304.795223 149.089597 304.267439 149.089597M345.679764 162.519921L322.436264 162.519921C321.90848 162.519921 321.480711 162.09193 321.480711 161.563872 321.480711 161.035815 321.90848 160.607824 322.436264 160.607824L345.679764 160.607824C346.207548 160.607824 346.635317 161.035815 346.635317 161.563872 346.635317 162.09193 346.207548 162.519921 345.679764 162.519921M334.406313 55.4648069L297.526757 55.4648069C296.998973 55.4648069 296.571204 55.0368157 296.571204 54.5087581 296.571204 53.9807004 296.998973 53.5527092 297.526757 53.5527092L334.406313 53.5527092C334.934097 53.5527092 335.361866 53.9807004 335.361866 54.5087581 335.361866 55.0368157 334.934097 55.4648069 334.406313 55.4648069M266.436099 113.293062L229.556224 113.293062C229.02844 113.293062 228.600671 112.865071 228.600671 112.337013 228.600671 111.808956 229.02844 111.380965 229.556224 111.380965L266.436099 111.380965C266.963882 111.380965 267.391651 111.808956 267.391651 112.337013 267.391651 112.865071 266.963882 113.293062 266.436099 113.293062M66.4776526 36.0250675L30.113458 36.0250675C29.5856744 36.0250675 29.1579053 35.5970763 29.1579053 35.0690187 29.1579053 34.540961 29.5856744 34.1129698 30.113458 34.1129698L66.4776526 34.1129698C67.0054362 34.1129698 67.4332053 34.540961 67.4332053 35.0690187 67.4332053 35.5970763 67.0054362 36.0250675 66.4776526 36.0250675"/>
    </g>
    <g fill="#FEFEFE" transform="translate(0 17)">
      <path d="M58.0907235 16.0590535C58.0907235 12.8470481 55.4881165 10.2430897 52.277778 10.2430897 52.1210673 10.2430897 51.9665863 10.2510568 51.8133794 10.2631667 50.6310422 6.82457773 47.3719705 4.35319148 43.5338338 4.35319148 42.7700287 4.35319148 42.0294754 4.45134583 41.3233219 4.63522589 39.3644389 2.08066339 36.2843741.432435195 32.8179475.432435195 28.5647824.432435195 24.8903638 2.91178852 23.1595394 6.50462006 22.8136293 6.4571363 22.4610304 6.43068561 22.1020611 6.43068561 17.8393405 6.43068561 14.3837435 9.8880769 14.3837435 14.1530108 14.3837435 18.4179446 17.8393405 21.8753359 22.1020611 21.8753359L52.3163186 21.8753359 52.3163186 21.8743799C55.5088201 21.8533468 58.0907235 19.2583116 58.0907235 16.0590535M341.490324 154.189723C341.490324 150.977717 344.092931 148.373759 347.303588 148.373759 347.45998 148.373759 347.614461 148.381407 347.767668 148.393836 348.950005 144.955247 352.209077 142.483861 356.047213 142.483861 356.811018 142.483861 357.551572 142.582015 358.258044 142.765576 360.216608 140.211651 363.296673 138.563104 366.7631 138.563104 371.016265 138.563104 374.690683 141.042458 376.421826 144.635289 376.767418 144.587806 377.120017 144.561355 377.478986 144.561355 381.741706 144.561355 385.197303 148.018746 385.197303 152.28368 385.197303 156.548614 381.741706 160.006005 377.478986 160.006005L347.265047 160.006005 347.265047 160.005049C344.072227 159.984016 341.490324 157.388981 341.490324 154.189723M383.982892 29.6342618C383.354775 29.6342618 382.752458 29.7448448 382.193778 29.9465711 381.377418 27.1048753 379.033766 24.9097871 376.107226 24.3122566 374.561142 19.3302861 369.917793 15.7125973 364.429735 15.7125973 358.543531 15.7125973 353.630079 19.8752339 352.466853 25.4187238 351.738722 25.1851292 350.962813 25.057656 350.157282 25.057656 346.954588 25.057656 344.219478 27.0519739 343.119955 29.8665817 342.949548 29.8493728 342.776593 29.8404497 342.601727 29.8404497 339.749084 29.8404497 337.436646 32.1540879 337.436646 35.0082123 337.436646 37.8623368 339.749084 40.1762937 342.601727 40.1762937L383.982892 40.1762937C386.89255 40.1762937 389.251172 37.8164465 389.251172 34.9052777 389.251172 31.994109 386.89255 29.6342618 383.982892 29.6342618M4.07820332 105.541241C4.53877971 105.541241 4.98024506 105.622187 5.38985864 105.770056 5.98803463 103.687144 7.70579984 102.078114 9.85101563 101.640243 10.9843011 97.9887741 14.3876613 95.3370134 18.4102196 95.3370134 22.72454 95.3370134 26.326018 98.3880839 27.1786896 102.451291 27.712525 102.280159 28.2810788 102.186466 28.8716104 102.186466 31.2187663 102.186466 33.2235159 103.648583 34.0296838 105.711418 34.1545427 105.698989 34.2813127 105.692297 34.4096753 105.692297 36.5004246 105.692297 38.1952565 107.388328 38.1952565 109.480163 38.1952565 111.572316 36.5004246 113.268028 34.4096753 113.268028L4.07820332 113.268028C1.94572824 113.268028.216814905 111.538217.216814905 109.404635.216814905 107.271052 1.94572824 105.541241 4.07820332 105.541241"/>
    </g>
    <g transform="translate(107 50)">
      <path d="M50.7722851,94.8232072 C52.1082512,102.874773 52.3914685,113 63.6176829,113 L128.467005,113 C139.093246,113 139.519935,104.1444 141.381344,96.6575281 L142.007404,94.1463222 L85.434736,94.1463222 C82.1926425,94.1463222 79.5412063,91.4855284 79.5412063,88.2319928 L79.5412063,88.2282531 C79.5412063,84.9747175 82.1926425,82.3120539 85.434736,82.3120539 L144.958827,82.3120539 L148.323896,68.8024018 L71.0185997,68.8024018 C67.774643,68.8024018 65.1232068,66.1416081 65.1232068,62.8862026 L65.1232068,62.8824629 C65.1232068,59.6289273 67.774643,56.9662637 71.0185997,56.9662637 L151.271593,56.9662637 L155,42 L42,42 L50.7722851,94.8232072 Z"/>
      <circle cx="117" cy="146" r="12" fill="#0056AD" fill-rule="nonzero"/>
      <circle cx="72" cy="146" r="12" fill="#0056AD" fill-rule="nonzero"/>
      <g fill-rule="nonzero">
        <use fill="#0056AD" fill-rule="evenodd" xlink:href="#cart-a"/>
        <path stroke="#0056AD" d="M24.7456882,12.2884529 L5.90798727,12.2902748 C2.36634438,12.2902748 -0.5,9.42971302 -0.5,5.89606932 C-0.5,2.36362787 2.36893375,-0.502018577 5.90612061,-0.499999016 L30.2380682,-0.499999016 C34.0884954,-0.499999016 36.2319041,1.27591069 36.7367601,5.02626555 L39.999082,29.19085 L162.965249,29.19085 C165.870072,29.19085 167.600087,30.3591512 168.228955,32.5104725 C168.717,34.1800464 168.53343,36.3150043 167.840653,39.0839858 L153.347892,96.9380773 C153.235281,97.3877354 153.119061,97.8573243 152.981529,98.4173375 C152.927972,98.635414 152.890847,98.7869313 152.800453,99.1562277 C152.710147,99.5253356 152.710147,99.5253356 152.619911,99.8939868 C150.389121,109.003395 148.976587,113.055385 146.097182,116.899169 C142.329032,121.92936 136.713915,124.498137 128.334938,124.498137 L63.3657302,124.5 C54.4464934,124.5 48.4495266,121.418699 44.5695038,115.485438 C41.5505499,110.868908 40.0222226,105.366919 38.4788272,95.6851063 L24.7456882,12.2884529 Z M150.787078,55.8880239 L154.271764,41.977398 L42.2972664,41.977398 L50.9882737,94.0200827 C51.0895529,94.627096 51.179712,95.2082406 51.3256679,96.1795285 C51.5372177,97.5873213 51.5523542,97.6871705 51.6390632,98.2342292 C53.1522982,107.781432 55.7915983,111.711589 63.3638635,111.711589 L128.333057,111.711589 C132.455877,111.711589 135.150922,110.380002 136.950053,107.789724 C138.342981,105.784274 139.024569,103.650631 140.082521,98.8664082 C140.108585,98.7485152 140.108585,98.7485152 140.134649,98.6305734 C140.443172,97.2345604 140.591433,96.5853753 140.785904,95.8082876 L141.257276,93.9280008 L85.2206164,93.9280008 C81.6967068,93.9280008 78.8163625,91.0534673 78.8163625,87.5356582 L78.8163625,87.5319324 C78.8163625,84.0125739 81.696393,81.137727 85.2206164,81.137727 L144.462824,81.137727 L147.583512,68.6801606 L70.7782476,68.6801606 C67.2530906,68.6801606 64.3721269,65.8043823 64.3721269,62.2859551 L64.3721269,62.2822294 C64.3721269,58.7625574 67.2524713,55.8880239 70.7782476,55.8880239 L150.787078,55.8880239 Z"/>
      </g>
    </g>
    <g fill="#CDE6FF" transform="translate(168 105)">
      <path d="M121.17913 14.1830569L7.82130553 14.1830569C3.50180603 14.1830569 0 11.0266699 0 7.13286632 0 3.23944342 3.50180603.0830564784 7.82130553.0830564784L121.17913.0830564784C125.499052.0830564784 129.000858 3.23944342 129.000858 7.13286632 129.000858 11.0266699 125.499052 14.1830569 121.17913 14.1830569M21.4583573 39.5L129.566452 39.5C133.309451 39.5 136.343664 36.2539463 136.343664 32.25L136.343664 32.25C136.343664 28.2460537 133.309451 25 129.566452 25L21.4583573 25C17.7157126 25 14.6811454 28.2460537 14.6811454 32.25L14.6811454 32.25C14.6811454 36.2539463 17.7157126 39.5 21.4583573 39.5"/>
    </g>
  </g>
</svg>
