<svg xmlns="http://www.w3.org/2000/svg" width="60" height="60" viewBox="0 0 60 60">
  <g fill="none" fill-rule="evenodd">
    <path d="M48.482,4.11 C46.449,4.11 44.687,4.839 43.242,6.281 C41.804,7.722 41.075,9.484 41.075,11.517 C41.075,13.549 41.804,15.311 43.242,16.752 C43.243,16.753 43.244,16.755 43.245,16.756 C44.687,18.194 46.449,18.924 48.482,18.924 C50.518,18.924 52.28,18.194 53.718,16.754 C55.158,15.314 55.889,13.552 55.889,11.517 C55.889,9.482 55.159,7.72 53.72,6.281 C52.282,4.841 50.52,4.11 48.482,4.11 Z M50.89,13.928 C50.21,14.608 49.445,14.925 48.483,14.925 C47.522,14.925 46.756,14.608 46.073,13.927 C45.392,13.244 45.075,12.479 45.075,11.518 C45.075,10.556 45.392,9.79 46.071,9.111 C46.755,8.428 47.521,8.111 48.483,8.111 C49.446,8.111 50.211,8.427 50.891,9.109 C51.573,9.791 51.89,10.556 51.89,11.518 C51.89,12.48 51.572,13.245 50.89,13.928 Z"/>
    <path fill="#8EC5FC" fill-rule="nonzero" d="M48.482,8.11 C47.52,8.11 46.753,8.427 46.07,9.11 C45.392,9.79 45.074,10.555 45.074,11.517 C45.074,12.478 45.391,13.244 46.072,13.926 C46.755,14.607 47.521,14.924 48.482,14.924 C49.444,14.924 50.21,14.607 50.889,13.927 C51.572,13.244 51.889,12.479 51.889,11.517 C51.889,10.555 51.572,9.789 50.89,9.108 C50.21,8.427 49.445,8.11 48.482,8.11 Z"/>
    <path fill="#8EC5FC" fill-rule="nonzero" d="M59.033,25.159 C59.675,23.612 60,22.206 60,20.98 L60,3.407 C60,2.473 59.676,1.716 58.98,1.019 C58.285,0.324 57.527,0 56.593,0 L39.02,0 C37.799,0 36.394,0.325 34.843,0.967 C33.303,1.605 32.092,2.369 31.243,3.24 L0.976,33.464 C0.311,34.13 0,34.889 0,35.851 C0,36.805 0.322,37.589 1.015,38.32 L21.76,59.021 C22.428,59.689 23.187,60 24.149,60 C25.096,60 25.876,59.684 26.599,59.003 L56.743,28.82 C57.621,27.94 58.392,26.708 59.033,25.159 Z M53.719,16.755 C52.281,18.194 50.519,18.925 48.483,18.925 C46.45,18.925 44.688,18.196 43.246,16.757 C43.245,16.756 43.244,16.754 43.243,16.753 C41.805,15.312 41.076,13.55 41.076,11.518 C41.076,9.485 41.805,7.723 43.243,6.282 C44.688,4.841 46.45,4.111 48.483,4.111 C50.521,4.111 52.283,4.841 53.721,6.282 C55.16,7.721 55.89,9.483 55.89,11.518 C55.89,13.553 55.159,15.314 53.719,16.755 Z"/>
  </g>
</svg>
