<svg xmlns="http://www.w3.org/2000/svg" width="55" height="55" viewBox="0 0 55 55">
  <path fill="#FFF" d="M27.4425887,0.0574112735 C42.5987056,0.0574112735 54.8851775,12.3438831 54.8851775,27.5 C54.8851775,42.6561169 42.5987056,54.9425887 27.4425887,54.9425887 C12.2864718,54.9425887 0,42.6561169 0,27.5 C0,12.3438831 12.2864718,0.0574112735 27.4425887,0.0574112735 Z M27.4425887,12.5413779 C19.0999269,12.5413779 12.3368789,19.3044259 12.3368789,27.6470877 C12.3368789,35.9897495 19.0999269,42.7527975 27.4425887,42.7527975 C35.7852505,42.7527975 42.5482985,35.9897495 42.5482985,27.6470877 C42.5482985,19.3044259 35.7852505,12.5413779 27.4425887,12.5413779 Z M37.4346764,19.411785 C39.2533507,21.6212004 40.3533507,24.4412422 40.3830898,27.5153862 C40.1953549,27.4771503 35.8071816,26.5334238 31.3527557,27.0941023 C31.2618163,26.8715762 31.1684656,26.6498539 31.0740814,26.4221608 C30.8031002,25.7901775 30.5125992,25.1616388 30.2110752,24.5424008 C35.3306681,22.4519415 37.4091858,19.446691 37.4346764,19.411785 Z M27.42238,14.6838518 C30.7037787,14.6838518 33.7014509,15.905334 35.9846973,17.9175992 C35.9532359,17.9651357 34.1066597,20.7759916 29.2138413,22.6115449 C26.9976514,18.5393633 24.5614614,15.308142 24.3661482,15.04738 C25.3471921,14.8113048 26.3691127,14.6838518 27.42238,14.6838518 Z M21.8909186,15.921524 C22.063382,16.1517432 24.4604175,19.4050104 26.7038205,23.3923382 C20.4791754,25.0470459 15.0767745,24.979071 14.7352923,24.9757411 C15.5762526,20.9603967 18.2748121,17.6288205 21.8909186,15.921524 Z M14.4575365,27.6470877 C14.4575365,27.5078079 14.4643111,27.3735804 14.4685595,27.2343006 C14.6978601,27.2427975 21.1034656,27.3872443 27.7791336,25.3876096 C28.1503549,26.1163883 28.5053862,26.8545825 28.8307933,27.5910543 C28.6592484,27.6411169 28.4885073,27.6912944 28.3194885,27.7473278 C21.3235804,30.0102505 17.7746451,36.3036743 17.7746451,36.3036743 C17.7746451,36.3036743 17.7780898,36.307119 17.7796973,36.3104489 C15.71381,34.0144572 14.4575365,30.9785491 14.4575365,27.6470877 Z M27.4215762,40.6111273 C24.4154071,40.6111273 21.6547286,39.5791023 19.4555324,37.8623904 C19.4793006,37.8114092 21.976691,32.4362213 29.6283507,29.7680898 C29.6571712,29.7587891 29.6853027,29.7502923 29.7124008,29.7392693 C31.5378497,34.4808664 32.2903967,38.4510856 32.4832985,39.5841545 C30.9272234,40.2458768 29.2163674,40.6111273 27.4215762,40.6111273 Z M34.6672234,38.4001044 C34.5339144,37.6186221 33.8441754,33.8131733 32.1435386,29.1395511 C36.3279019,28.4693319 39.9549165,29.6177871 40.2216493,29.7035595 C39.6458142,33.3170251 37.5774008,36.4361795 34.6672234,38.4001044 Z"/>
</svg>
