<svg xmlns="http://www.w3.org/2000/svg" width="174" height="111" viewBox="0 0 174 111">
  <g fill="none" fill-rule="evenodd">
    <path fill="#E0C3FC" d="M95.215252,99.2191369 C95.215252,101.315254 93.5140555,103.01645 91.4179385,103.01645 L53.4448038,103.01645 C51.3486868,103.01645 49.6474904,101.315254 49.6474904,99.2191369 L49.6474904,46.0567484 L68.6340577,31.8168229 L68.6340577,47.1086042 C66.3708589,48.426272 64.8367442,50.848958 64.8367442,53.6513753 C64.8367442,57.8436094 68.2391371,61.2460023 72.4313712,61.2460023 C76.6236052,61.2460023 80.0259981,57.8436094 80.0259981,53.6513753 C80.0259981,50.848958 78.4918835,48.426272 76.2286846,47.1086042 L76.2286846,31.8168229 L95.215252,46.0567484 L95.215252,99.2191369 Z M130.488497,82.0135096 L109.132406,29.2080685 L76.2286846,20.4894368 L76.2286846,4.28630025 C76.2286846,2.1863859 74.5312855,0.488986784 72.4313712,0.488986784 C70.3314568,0.488986784 68.6340577,2.1863859 68.6340577,4.28630025 L68.6340577,22.3235392 L42.0528634,42.2594349 L42.0528634,99.2191369 C42.0528634,105.511285 47.1526554,110.611077 53.4448038,110.611077 L91.4179385,110.611077 C94.8621018,110.611077 97.9113445,109.050382 100.003664,106.63529 L124.200146,96.845816 C130.032819,94.4876844 132.846628,87.8461831 130.488497,82.0135096 L130.488497,82.0135096 Z"/>
    <path fill="#EFDEFF" d="M112.979165 85.8171806L165.842595 85.8171806C167.672872 85.8171806 169.156562 84.2299032 169.156562 82.2720264L169.156562 82.2720264C169.156562 80.3141496 167.672872 78.7268722 165.842595 78.7268722L112.979165 78.7268722C111.149061 78.7268722 109.665198 80.3141496 109.665198 82.2720264L109.665198 82.2720264C109.665198 84.2299032 111.149061 85.8171806 112.979165 85.8171806M87.4196939 110.217609L140.283124 110.217609C142.113401 110.217609 143.597091 108.488024 143.597091 106.354614L143.597091 106.354614C143.597091 104.221203 142.113401 102.491618 140.283124 102.491618L87.4196939 102.491618C85.5895901 102.491618 84.1057269 104.221203 84.1057269 106.354614L84.1057269 106.354614C84.1057269 108.488024 85.5895901 110.217609 87.4196939 110.217609"/>
    <path fill="#E0C3FC" d="M133.954476,7.1881117 L73.1549396,7.1881117 C71.9413287,7.1881117 70.9574504,5.60098426 70.9574504,3.64295751 C70.9574504,1.68493076 71.9413287,0.0978033259 73.1549396,0.0978033259 L133.954476,0.0978033259 C135.168086,0.0978033259 136.151809,1.68493076 136.151809,3.64295751 C136.151809,5.60098426 135.168086,7.1881117 133.954476,7.1881117"/>
    <path fill="#EFDEFF" d="M88.2562258,13.2133846 L132.854711,13.2133846 C134.039664,13.2133846 135.000335,12.2522144 135.000335,11.0664906 C135.000335,9.88076685 134.039664,8.91959662 132.854711,8.91959662 L88.2562258,8.91959662 C87.0712731,8.91959662 86.1104459,9.88076685 86.1104459,11.0664906 C86.1104459,12.2522144 87.0712731,13.2133846 88.2562258,13.2133846"/>
    <path fill="#E0C3FC" d="M28.1560108,15.7228095 L66.6037382,15.7228095 C67.9712309,15.7228095 69.0797099,14.613755 69.0797099,13.245708 C69.0797099,11.8775053 67.9712309,10.7684507 66.6037382,10.7684507 L28.1560108,10.7684507 C26.7886738,10.7684507 25.6801948,11.8775053 25.6801948,13.245708 C25.6801948,14.613755 26.7886738,15.7228095 28.1560108,15.7228095"/>
    <path fill="#EFDEFF" d="M68.5626162,17.2547797 L28.0015245,17.2547797 C27.2177326,17.2547797 26.5823128,16.364513 26.5823128,15.2663666 C26.5823128,14.1680645 27.2177326,13.2777977 28.0015245,13.2777977 L68.5626162,13.2777977 C69.3464081,13.2777977 69.9818279,14.1680645 69.9818279,15.2663666 C69.9818279,16.364513 69.3464081,17.2547797 68.5626162,17.2547797"/>
    <path fill="#E0C3FC" d="M21.2177533 31.0237186L67.153983 31.0237186C68.9298545 31.0237186 70.3694599 29.5833657 70.3694599 27.8065721 70.3694599 26.0299344 68.9298545 24.5895815 67.153983 24.5895815L21.2177533 24.5895815C19.4418818 24.5895815 18.0022764 26.0299344 18.0022764 27.8065721 18.0022764 29.5833657 19.4418818 31.0237186 21.2177533 31.0237186M170.129203 32.8980083L88.9367972 32.8980083C87.2953735 32.8980083 85.9646783 31.3837912 85.9646783 29.5159919 85.9646783 27.6480367 87.2953735 26.1338196 88.9367972 26.1338196L170.129203 26.1338196C171.770626 26.1338196 173.101322 27.6480367 173.101322 29.5159919 173.101322 31.3837912 171.770626 32.8980083 170.129203 32.8980083"/>
    <path fill="#EFDEFF" d="M108.334414,39.8568621 L152.778083,39.8568621 C154.698647,39.8568621 156.255688,38.2990121 156.255688,36.3774508 C156.255688,34.4557337 154.698647,32.8980395 152.778083,32.8980395 L108.334414,32.8980395 C106.413694,32.8980395 104.856808,34.4557337 104.856808,36.3774508 C104.856808,38.2990121 106.413694,39.8568621 108.334414,39.8568621"/>
    <path fill="#E0C3FC" d="M163.472343,45.1915906 L111.000339,45.1915906 C109.52787,45.1915906 108.334352,43.9972961 108.334352,42.5242186 C108.334352,41.051141 109.52787,39.8568465 111.000339,39.8568465 L163.472343,39.8568465 C164.944812,39.8568465 166.138331,41.051141 166.138331,42.5242186 C166.138331,43.9972961 164.944812,45.1915906 163.472343,45.1915906"/>
    <path fill="#EFDEFF" d="M55.430422,39.1238139 L3.1713422,39.1238139 C1.64014523,39.1238139 0.398892393,37.6661637 0.398892393,35.8680212 C0.398892393,34.0698786 1.64014523,32.6122284 3.1713422,32.6122284 L55.430422,32.6122284 C56.9616189,32.6122284 58.2028718,34.0698786 58.2028718,35.8680212 C58.2028718,37.6661637 56.9616189,39.1238139 55.430422,39.1238139"/>
    <path fill="#E0C3FC" d="M5.94296065,77.0756859 L60.1181003,77.0756859 C61.83136,77.0756859 63.2203463,75.6861342 63.2203463,73.9718291 C63.2203463,72.2576799 61.83136,70.8679723 60.1181003,70.8679723 L5.94296065,70.8679723 C4.22970098,70.8679723 2.84071465,72.2576799 2.84071465,73.9718291 C2.84071465,75.6861342 4.22970098,77.0756859 5.94296065,77.0756859"/>
    <path fill="#EFDEFF" d="M24.1415563,84.0350071 L53.2353532,84.0350071 C55.1560731,84.0350071 56.7131146,82.4771571 56.7131146,80.5552842 C56.7131146,78.633567 55.1560731,77.075717 53.2353532,77.075717 L24.1415563,77.075717 C22.2208365,77.075717 20.663795,78.633567 20.663795,80.5552842 C20.663795,82.4771571 22.2208365,84.0350071 24.1415563,84.0350071"/>
    <path fill="#FEFEFE" d="M55.5582398 15.197937L34.2845388 15.197937C34.0264596 15.197937 33.8172861 14.988655 33.8172861 14.7304418 33.8172861 14.4722286 34.0264596 14.2629465 34.2845388 14.2629465L55.5582398 14.2629465C55.816319 14.2629465 56.0254924 14.4722286 56.0254924 14.7304418 56.0254924 14.988655 55.816319 15.197937 55.5582398 15.197937M48.8138841 17.35242L34.2845076 17.35242C34.0264284 17.35242 33.817255 17.143138 33.817255 16.8849248 33.817255 16.6267116 34.0264284 16.4174295 34.2845076 16.4174295L48.8138841 16.4174295C49.0719633 16.4174295 49.2811367 16.6267116 49.2811367 16.8849248 49.2811367 17.143138 49.0719633 17.35242 48.8138841 17.35242M38.6253173 74.8857847L27.0598801 74.8857847C26.8018009 74.8857847 26.5926274 74.6765026 26.5926274 74.4182894 26.5926274 74.1600762 26.8018009 73.9507942 27.0598801 73.9507942L38.6253173 73.9507942C38.8833965 73.9507942 39.09257 74.1600762 39.09257 74.4182894 39.09257 74.6765026 38.8833965 74.8857847 38.6253173 74.8857847M57.5355108 66.5730093L45.9702293 66.5730093C45.7121501 66.5730093 45.5029767 66.3637273 45.5029767 66.1055141 45.5029767 65.8473009 45.7121501 65.6380188 45.9702293 65.6380188L57.5355108 65.6380188C57.79359 65.6380188 58.0027634 65.8473009 58.0027634 66.1055141 58.0027634 66.3637273 57.79359 66.5730093 57.5355108 66.5730093M54.4457467 64.6170622L51.1561324 64.6170622C50.8980532 64.6170622 50.6888798 64.4077802 50.6888798 64.149567 50.6888798 63.8913537 50.8980532 63.6820717 51.1561324 63.6820717L54.4457467 63.6820717C54.703826 63.6820717 54.9129994 63.8913537 54.9129994 64.149567 54.9129994 64.4077802 54.703826 64.6170622 54.4457467 64.6170622M42.7656429 71.4695164L27.0598801 71.4695164C26.8018009 71.4695164 26.5926274 71.2602344 26.5926274 71.0020212 26.5926274 70.7438079 26.8018009 70.5345259 27.0598801 70.5345259L42.7656429 70.5345259C43.0237221 70.5345259 43.2328956 70.7438079 43.2328956 71.0020212 43.2328956 71.2602344 43.0237221 71.4695164 42.7656429 71.4695164M152.273572 33.804745L137.744195 33.804745C137.486116 33.804745 137.276942 33.5954629 137.276942 33.3372497 137.276942 33.0790365 137.486116 32.8697545 137.744195 32.8697545L152.273572 32.8697545C152.531651 32.8697545 152.740824 33.0790365 152.740824 33.3372497 152.740824 33.5954629 152.531651 33.804745 152.273572 33.804745M104.616454 11.5339235L77.1606889 11.5339235C76.9026097 11.5339235 76.6934363 11.3246415 76.6934363 11.0664283 76.6934363 10.8082151 76.9026097 10.598933 77.1606889 10.598933L104.616454 10.598933C104.874533 10.598933 105.083706 10.8082151 105.083706 11.0664283 105.083706 11.3246415 104.874533 11.5339235 104.616454 11.5339235M64.4665089 22.0712695L49.9371324 22.0712695C49.6790532 22.0712695 49.4698798 21.8619875 49.4698798 21.6037743 49.4698798 21.3455611 49.6790532 21.136279 49.9371324 21.136279L64.4665089 21.136279C64.7245881 21.136279 64.9337615 21.3455611 64.9337615 21.6037743 64.9337615 21.8619875 64.7245881 22.0712695 64.4665089 22.0712695M74.8777771 22.0712695L69.1713764 22.0712695C68.9132972 22.0712695 68.7041238 21.8619875 68.7041238 21.6037743 68.7041238 21.3455611 68.9132972 21.136279 69.1713764 21.136279L74.8777771 21.136279C75.1358563 21.136279 75.3450298 21.3455611 75.3450298 21.6037743 75.3450298 21.8619875 75.1358563 22.0712695 74.8777771 22.0712695M24.8429716 41.601679L5.28876023 41.601679C5.03068103 41.601679 4.8215076 41.392397 4.8215076 41.1341838 4.8215076 40.8759706 5.03068103 40.6666885 5.28876023 40.6666885L24.8429716 40.6666885C25.1010508 40.6666885 25.3102242 40.8759706 25.3102242 41.1341838 25.3102242 41.392397 25.1010508 41.601679 24.8429716 41.601679M151.847004 41.601679L126.068988 41.601679C125.810908 41.601679 125.601735 41.392397 125.601735 41.1341838 125.601735 40.8759706 125.810908 40.6666885 126.068988 40.6666885L151.847004 40.6666885C152.105083 40.6666885 152.314257 40.8759706 152.314257 41.1341838 152.314257 41.392397 152.105083 41.601679 151.847004 41.601679M116.216893 79.6618627L101.687517 79.6618627C101.429438 79.6618627 101.220264 79.4525807 101.220264 79.1943675 101.220264 78.9361543 101.429438 78.7268722 101.687517 78.7268722L116.216893 78.7268722C116.474973 78.7268722 116.684146 78.9361543 116.684146 79.1943675 116.684146 79.4525807 116.474973 79.6618627 116.216893 79.6618627M64.920445 6.94212678L50.3910685 6.94212678C50.1329893 6.94212678 49.9238159 6.73284474 49.9238159 6.47463153 49.9238159 6.21641832 50.1329893 6.00713629 50.3910685 6.00713629L64.920445 6.00713629C65.1785242 6.00713629 65.3876977 6.21641832 65.3876977 6.47463153 65.3876977 6.73284474 65.1785242 6.94212678 64.920445 6.94212678M64.920445 108.392242L50.3910685 108.392242C50.1329893 108.392242 49.9238159 108.18296 49.9238159 107.924747 49.9238159 107.666533 50.1329893 107.457251 50.3910685 107.457251L64.920445 107.457251C65.1785242 107.457251 65.3876977 107.666533 65.3876977 107.924747 65.3876977 108.18296 65.1785242 108.392242 64.920445 108.392242M75.1395409 108.392242L69.040025 108.392242C68.7819458 108.392242 68.5727724 108.18296 68.5727724 107.924747 68.5727724 107.666533 68.7819458 107.457251 69.040025 107.457251L75.1395409 107.457251C75.3976201 107.457251 75.6067936 107.666533 75.6067936 107.924747 75.6067936 108.18296 75.3976201 108.392242 75.1395409 108.392242M116.075204 77.7059156L99.242583 77.7059156C98.9845038 77.7059156 98.7753304 77.4966336 98.7753304 77.2384204 98.7753304 76.9802071 98.9845038 76.7709251 99.242583 76.7709251L116.075204 76.7709251C116.333283 76.7709251 116.542456 76.9802071 116.542456 77.2384204 116.542456 77.4966336 116.333283 77.7059156 116.075204 77.7059156M47.1047027 92.5218333L30.272238 92.5218333C30.0141588 92.5218333 29.8049854 92.3125512 29.8049854 92.054338 29.8049854 91.7961248 30.0141588 91.5868428 30.272238 91.5868428L47.1047027 91.5868428C47.3627819 91.5868428 47.5719554 91.7961248 47.5719554 92.054338 47.5719554 92.3125512 47.3627819 92.5218333 47.1047027 92.5218333M54.0941608 90.4150098L37.2616961 90.4150098C37.0036169 90.4150098 36.7944435 90.2057278 36.7944435 89.9475146 36.7944435 89.6893014 37.0036169 89.4800194 37.2616961 89.4800194L54.0941608 89.4800194C54.35224 89.4800194 54.5614135 89.6893014 54.5614135 89.9475146 54.5614135 90.2057278 54.35224 90.4150098 54.0941608 90.4150098M126.832757 88.9526116L110.000292 88.9526116C109.742213 88.9526116 109.53304 88.7433296 109.53304 88.4851164 109.53304 88.2269032 109.742213 88.0176211 110.000292 88.0176211L126.832757 88.0176211C127.090836 88.0176211 127.30001 88.2269032 127.30001 88.4851164 127.30001 88.7433296 127.090836 88.9526116 126.832757 88.9526116M146.304383 76.2389553L134.938618 76.2389553C134.680539 76.2389553 134.471366 76.0296732 134.471366 75.77146 134.471366 75.5132468 134.680539 75.3039648 134.938618 75.3039648L146.304383 75.3039648C146.562462 75.3039648 146.771636 75.5132468 146.771636 75.77146 146.771636 76.0296732 146.562462 76.2389553 146.304383 76.2389553M152.273572 36.9012932L134.239956 36.9012932C133.981877 36.9012932 133.772703 36.6920112 133.772703 36.433798 133.772703 36.1755848 133.981877 35.9663028 134.239956 35.9663028L152.273572 35.9663028C152.531651 35.9663028 152.740824 36.1755848 152.740824 36.433798 152.740824 36.6920112 152.531651 36.9012932 152.273572 36.9012932M52.0661649 19.5717291L34.2845543 19.5717291C34.0264751 19.5717291 33.8173017 19.362447 33.8173017 19.1042338 33.8173017 18.8460206 34.0264751 18.6367386 34.2845543 18.6367386L52.0661649 18.6367386C52.3242441 18.6367386 52.5334175 18.8460206 52.5334175 19.1042338 52.5334175 19.362447 52.3242441 19.5717291 52.0661649 19.5717291"/>
    <g fill="#FEFEFE" transform="translate(19.07 10.758)">
      <path d="M21.5597811 7.85266491C21.5597811 6.28203671 20.2871407 5.00873549 18.7173275 5.00873549 18.6406981 5.00873549 18.5651589 5.01263129 18.4902428 5.01855289 17.9120955 3.33712832 16.3184525 2.1286531 14.4416544 2.1286531 14.0681638 2.1286531 13.706043 2.17664928 13.3607433 2.2665642 12.4028754 1.0174169 10.8967644.211455095 9.20172761.211455095 7.12198613.211455095 5.32524399 1.4238261 4.47889372 3.18067324 4.30974826 3.15745431 4.13733204 3.14452028 3.9618008 3.14452028 1.87738679 3.14452028.187645504 4.83513892.187645504 6.92063522.187645504 9.00613152 1.87738679 10.6967502 3.9618008 10.6967502L18.7361734 10.6967502 18.7361734 10.6962827C20.2972645 10.6859978 21.5597811 9.41705984 21.5597811 7.85266491M92.4185022 67.2975975C92.4185022 65.7269693 93.6911426 64.4536681 95.2611115 64.4536681 95.3375852 64.4536681 95.4131243 64.457408 95.4880405 64.4634855 96.0661878 62.7820609 97.6598308 61.5735857 99.5366289 61.5735857 99.9101195 61.5735857 100.27224 61.6215819 100.617696 61.7113409 101.575408 60.4625053 103.081519 59.6563877 104.776556 59.6563877 106.856297 59.6563877 108.653039 60.8687587 109.499545 62.6256058 109.668535 62.6023869 109.840951 62.5894528 110.016482 62.5894528 112.100896 62.5894528 113.790638 64.2800715 113.790638 66.3655678 113.790638 68.4510641 112.100896 70.1416827 110.016482 70.1416827L95.2422656 70.1416827 95.2422656 70.1412152C93.6810188 70.1309303 92.4185022 68.8619924 92.4185022 67.2975975M121.046843 23.9220474C120.739702 23.9220474 120.445177 23.976121 120.17199 24.0747625 119.7728 22.6852108 118.626785 21.6118417 117.195746 21.3196572 116.439732 18.8835395 114.169195 17.1145374 111.485608 17.1145374 108.607331 17.1145374 106.204718 19.1500118 105.635916 21.860705 105.27987 21.7464804 104.90046 21.6841477 104.506566 21.6841477 102.940491 21.6841477 101.603059 22.6593427 101.065407 24.0356488 100.98208 24.0272338 100.897507 24.0228705 100.812 24.0228705 99.417095 24.0228705 98.2863436 25.154209 98.2863436 26.5498382 98.2863436 27.9454673 99.417095 29.0769617 100.812 29.0769617L121.046843 29.0769617C122.469627 29.0769617 123.622962 27.9230276 123.622962 26.4995045 123.622962 25.0759815 122.469627 23.9220474 121.046843 23.9220474M17.0467582 64.1571335C17.271974 64.1571335 17.4878447 64.1967148 17.6881403 64.2690207 17.9806405 63.2505044 18.820605 62.4637099 19.8695871 62.249597 20.4237488 60.4640769 22.0879469 59.1674009 24.0549248 59.1674009 26.1645704 59.1674009 27.9256456 60.659334 28.3425907 62.6461888 28.6036292 62.5625072 28.8816445 62.5166927 29.1704066 62.5166927 30.3181348 62.5166927 31.2984309 63.2316487 31.6926363 64.2403476 31.7536907 64.2342702 31.8156795 64.2309977 31.8784471 64.2309977 32.9007959 64.2309977 33.7295463 65.0603343 33.7295463 66.0832139 33.7295463 67.1062493 32.9007959 67.9354301 31.8784471 67.9354301L17.0467582 67.9354301C16.0040061 67.9354301 15.1585903 67.0895753 15.1585903 66.0462818 15.1585903 65.0029882 16.0040061 64.1571335 17.0467582 64.1571335"/>
    </g>
  </g>
</svg>
