<svg xmlns="http://www.w3.org/2000/svg" width="93" height="56" viewBox="0 0 93 56">
  <g fill="#D34A47">
    <path d="M24.641545,28.9319588 C24.5756364,29.0281787 24.4602965,29.3278351 24.2900329,29.8364261 C24.1197692,30.3450172 23.9138051,30.9800687 23.6721406,31.7443299 C23.430476,32.5085911 23.166842,33.366323 22.8867308,34.3120275 C22.6038735,35.257732 22.3127775,36.2254296 22.0161892,37.209622 C21.7168547,38.1965636 21.4312512,39.161512 21.1566324,40.1099656 C20.8820136,41.0556701 20.6348567,41.9134021 20.4179078,42.6776632 C20.200959,43.4419244 20.0197105,44.0824742 19.8741626,44.6020619 C19.7286146,45.1189003 19.6407366,45.424055 19.6077823,45.5202749 C19.5281429,45.8254296 19.3990721,46.166323 19.2205698,46.5402062 C19.0420676,46.9140893 18.8333573,47.2659794 18.5916928,47.6013746 C18.3500282,47.9367698 18.083648,48.214433 17.7925521,48.4343643 C17.5014561,48.6542955 17.2021217,48.7642612 16.8972948,48.7642612 C16.3810114,48.7642612 16.0047837,48.5910653 15.7713577,48.2474227 C15.5379317,47.9037801 15.4198456,47.2714777 15.4198456,46.3532646 L15.4198456,45.95189 C15.4198456,45.8171821 15.4280842,45.6742268 15.4445613,45.5230241 C15.4610385,45.2178694 15.5818707,44.643299 15.8070581,43.7993127 C16.0322456,42.9580756 16.3041182,42.0068729 16.6171836,40.9429553 C16.930249,39.8790378 17.2707764,38.7821306 17.6332732,37.6412371 C17.99577,36.5030928 18.3225664,35.4831615 18.6136623,34.5841924 C17.7568516,35.5408935 16.8313863,36.4920962 15.8290277,37.4405498 C14.8294152,38.3890034 13.8023409,39.238488 12.7560433,39.9945017 C11.7069995,40.7505155 10.6497171,41.3690722 9.58419613,41.8446735 C8.51867519,42.3230241 7.49434706,42.5621993 6.51121176,42.5621993 C5.38252849,42.5621993 4.41037793,42.3120275 3.5947601,41.8171821 C2.77914226,41.3195876 2.1063262,40.6680412 1.57356573,39.8652921 C1.04080525,39.062543 0.645354181,38.1525773 0.387212508,37.1381443 C0.129070836,36.1237113 0,35.1092784 0,34.0948454 L0,33.7209622 C0,33.6054983 0.00823856401,33.4927835 0.024715692,33.3773196 C0.120832272,31.5408935 0.38446632,29.6549828 0.810125461,27.7223368 C1.23853079,25.7896907 1.79875314,23.8652921 2.49353871,21.9546392 C3.18832427,20.0412371 3.99021117,18.1718213 4.90194559,16.3436426 C5.81368,14.5154639 6.80505387,12.7890034 7.87881338,11.1642612 C8.95257289,9.5395189 10.0922409,8.04123711 11.3033098,6.67216495 C12.5143787,5.30309278 13.7556557,4.12646048 15.0298869,3.14226804 C16.3041182,2.1580756 17.5920803,1.38831615 18.8910273,0.832989691 C20.1899742,0.27766323 21.4779364,0 22.7521676,0 C24.2213782,0 25.6411574,0.40137457 27.0115052,1.20412371 C28.381853,2.00687285 29.6643228,3.30996564 30.8589146,5.10790378 C31.1335334,5.50927835 31.3065432,5.9161512 31.3779441,6.32852234 C31.449345,6.74089347 31.4877916,7.12852234 31.4877916,7.49140893 C31.4877916,8.35189003 31.2818275,9.03092784 30.8698993,9.52852234 C30.4579711,10.0261168 29.9691497,10.2735395 29.4061811,10.2735395 C28.8898978,10.2735395 28.4093149,10.0013746 27.9671786,9.45429553 C27.5222962,8.90996564 27.0279823,8.12920962 26.4787447,7.11477663 C25.9624614,6.19656357 25.3940005,5.53127148 24.773362,5.11890034 C24.1527235,4.70652921 23.4771612,4.50309278 22.7521676,4.50309278 C21.6234843,4.50309278 20.4151616,4.97319588 19.1326918,5.91065292 C17.850222,6.84810997 16.578737,8.08797251 15.3209829,9.62749141 C14.0632288,11.1670103 12.854906,12.9264605 11.7015071,14.9085911 C10.5481081,16.8879725 9.52652618,18.9168385 8.63950746,20.9924399 C7.75248873,23.0680412 7.04671842,25.1161512 6.52219651,27.1340206 C5.9976746,29.15189 5.73678674,30.966323 5.73678674,32.5745704 C5.73678674,33.1106529 5.77248718,33.6604811 5.84663426,34.224055 C5.92078133,34.7876289 6.05534455,35.3017182 6.25856246,35.7608247 C6.45903418,36.2199313 6.73365298,36.5993127 7.08241886,36.8934708 C7.42843855,37.190378 7.86782863,37.3388316 8.4005891,37.3388316 C8.9965119,37.3388316 9.67482034,37.1381443 10.4327682,36.7367698 C11.1907161,36.3353952 11.9788721,35.8103093 12.7917437,35.1587629 C13.6073616,34.5072165 14.4257256,33.7704467 15.249582,32.9484536 C16.0734384,32.1264605 16.8396248,31.2934708 17.5481413,30.4522337 C18.2566578,29.6109966 18.8882811,28.8027491 19.4347725,28.0274914 C19.9840101,27.2522337 20.3959383,26.5786942 20.6678109,26.0041237 L22.9196851,19.2604811 C23.1943039,18.5347079 23.5540545,18.0178694 23.9961908,17.7099656 C24.4410732,17.404811 24.8969404,17.2508591 25.3637924,17.2508591 C25.5889798,17.2508591 25.8141672,17.2893471 26.0421008,17.366323 C26.2672883,17.443299 26.4705062,17.561512 26.6462622,17.7264605 C26.8247644,17.8886598 26.96482,18.1003436 27.0691751,18.3587629 C27.1735303,18.6171821 27.2257079,18.9195876 27.2257079,19.2632302 C27.2257079,20.1814433 27.1460684,21.0419244 26.9840433,21.8474227 C26.8220182,22.652921 26.6160541,23.4364261 26.366151,24.2006873 C26.1162479,24.9649485 25.8388829,25.737457 25.5313099,26.5099656 C25.2292292,27.2797251 24.9298947,28.0879725 24.641545,28.9319588 L24.641545,28.9319588 Z M55.1626784,34.556701 C54.4514157,35.5134021 53.6248131,36.4453608 52.6828707,37.3553265 C51.738182,38.2652921 50.7660314,39.0735395 49.766419,39.7800687 C48.7668066,40.4865979 47.7809251,41.0556701 46.8142669,41.4872852 C45.8448625,41.9189003 44.9743209,42.1333333 44.1998959,42.1333333 C43.4254709,42.1333333 42.7965938,41.8749141 42.3105186,41.3580756 C41.8271895,40.8412371 41.5855249,39.961512 41.5855249,38.7161512 C41.5855249,37.8364261 41.7145958,36.8109966 41.9727374,35.6453608 C41.5525707,36.3931271 41.0280488,37.1491409 40.3991717,37.9134021 C39.7702947,38.6776632 39.0507934,39.375945 38.2434141,40.0082474 C37.4360349,40.6405498 36.532539,41.15189 35.5329266,41.542268 C34.5333141,41.9353952 33.4430775,42.1305842 32.2649628,42.1305842 C31.7322024,42.1305842 31.2186652,42.0646048 30.7270976,41.9298969 C30.2355299,41.795189 29.8043784,41.5670103 29.433643,41.2426117 C29.0629076,40.9182131 28.7635731,40.4838488 28.5383857,39.9367698 C28.3131983,39.3924399 28.2006046,38.7079038 28.2006046,37.8859107 C28.2006046,37.8666667 28.2335589,37.5752577 28.2967212,37.0116838 C28.3598835,36.44811 28.5658476,35.5573883 28.9146135,34.342268 C29.2606332,33.1271478 29.798886,31.5546392 30.5238797,29.6219931 C31.2516195,27.6893471 32.2759476,25.347079 33.596864,22.5896907 C33.9346452,21.8639175 34.32735,21.3415808 34.7694863,21.0254296 C35.2143688,20.7092784 35.6922055,20.5525773 36.2084888,20.5525773 C36.4336762,20.5525773 36.6671022,20.585567 36.911513,20.6515464 C37.1531775,20.7202749 37.3783649,20.8247423 37.5898214,20.9676976 C37.7985317,21.1106529 37.9687953,21.2920962 38.0978662,21.5120275 C38.226937,21.7319588 38.2928455,21.9848797 38.2928455,22.2735395 C38.2928455,22.4659794 38.2681298,22.6474227 38.2186984,22.8178694 C38.139059,23.1450172 37.9660491,23.5683849 37.6969227,24.0962199 C37.4305425,24.624055 37.1202232,25.2261168 36.765965,25.9051546 C36.4117067,26.5841924 36.035479,27.3154639 35.6400279,28.1017182 C35.2445768,28.8852234 34.8765876,29.6989691 34.5388065,30.5402062 C34.2010254,31.3814433 33.9099295,32.2391753 33.6682649,33.1079038 C33.4266004,33.9793814 33.289291,34.8261168 33.2563367,35.64811 C33.2563367,35.9917526 33.3359762,36.3079038 33.4980013,36.5965636 C33.6600264,36.8824742 33.9264066,37.0281787 34.297142,37.0281787 C35.3461858,37.0281787 36.3457982,36.6845361 37.2987255,35.9945017 C38.2516527,35.3072165 39.1304329,34.4494845 39.9378121,33.4268041 C40.7451914,32.4041237 41.4756774,31.3044674 42.1292702,30.1250859 C42.7828629,28.9484536 43.3293543,27.8735395 43.763252,26.8975945 C44.0708251,26.2460481 44.3399515,25.5477663 44.5733775,24.8027491 C44.8068035,24.057732 45.0621989,23.3676976 45.3368177,22.7353952 C45.6114365,22.1030928 45.924502,21.5780069 46.2815064,21.1573883 C46.6357647,20.7367698 47.0806471,20.5250859 47.6134076,20.5250859 C48.1928533,20.5250859 48.6542129,20.7450172 48.991994,21.1848797 C49.3297751,21.6247423 49.5000388,22.1525773 49.5000388,22.7628866 C49.5000388,23.1065292 49.3929374,23.5821306 49.1732424,24.1841924 C48.9535473,24.7862543 48.6816747,25.4762887 48.349386,26.2515464 C48.0198434,27.0268041 47.6600928,27.8542955 47.2728803,28.7340206 C46.8856678,29.6137457 46.5259171,30.5099656 46.1963746,31.4171821 C45.8640858,32.3271478 45.5922132,33.2151203 45.3725182,34.0865979 C45.1555693,34.9580756 45.0457218,35.766323 45.0457218,36.5113402 C45.0457218,37.2013746 45.3999801,37.5450172 46.1112428,37.5450172 C46.611049,37.5450172 47.2316875,37.3718213 47.9759044,37.0281787 C48.7201214,36.6845361 49.4972926,36.2006873 50.3129104,35.5793814 C51.1285282,34.9580756 51.9413999,34.2268041 52.7570177,33.3828179 C53.5726356,32.5415808 54.294883,31.6316151 54.9237601,30.6556701 L55.1626784,34.556701 L55.1626784,34.556701 Z"/>
    <path d="M55.9151339,33.1216495 C55.7366317,33.561512 55.5636219,34.0728522 55.3933582,34.6584192 C55.2230946,35.2412371 55.1407089,35.7635739 55.1407089,36.2226804 C55.1407089,36.5085911 55.1901403,36.7395189 55.2862569,36.9127148 C55.3823735,37.0859107 55.5691142,37.171134 55.843733,37.171134 C56.1815142,37.171134 56.6044271,37.052921 57.1152181,36.8109966 C57.6232629,36.5718213 58.1725005,36.2556701 58.7601847,35.862543 C59.3506151,35.4721649 59.963015,35.0213058 60.6001307,34.5127148 C61.2372463,34.0068729 61.8716157,33.4790378 62.5004928,32.9347079 C63.1293698,32.3876289 63.730785,31.843299 64.3047383,31.2989691 C64.8786916,30.75189 65.3894825,30.2515464 65.8426036,29.7924399 C65.9716744,29.657732 66.1254609,29.561512 66.301217,29.5065292 C66.476973,29.4487973 66.6307595,29.4213058 66.7598304,29.4213058 C67.0811344,29.4213058 67.3502608,29.5560137 67.5589711,29.8226804 C67.7676814,30.0893471 67.8720365,30.4439863 67.8720365,30.8838488 C67.8720365,31.2852234 67.7594428,31.7360825 67.5342554,32.233677 C67.309068,32.7312715 66.9136169,33.2206186 66.3479022,33.6962199 C65.3153355,34.8261168 64.2745302,35.8955326 63.2254864,36.9099656 C62.1764426,37.9243986 61.1328911,38.8178694 60.0920859,39.5931271 C59.0512806,40.3683849 58.0187139,40.9841924 56.9943858,41.4460481 C55.9700577,41.9051546 54.9731914,42.1333333 54.0037871,42.1333333 C53.3419558,42.1333333 52.789972,42.028866 52.3450895,41.8171821 C51.9002071,41.6054983 51.5459488,41.3195876 51.2795686,40.956701 C51.0131883,40.5938144 50.8237014,40.1621993 50.7111077,39.6646048 C50.598514,39.1670103 50.540844,38.6419244 50.540844,38.0865979 C50.540844,37.1491409 50.6589301,36.1869416 50.8923561,35.2027491 C51.1257821,34.2185567 51.403147,33.3140893 51.7271972,32.4920962 C52.292912,30.9993127 52.8641191,29.5175258 53.4463109,28.0439863 C54.0257566,26.5704467 54.5585171,25.2206186 55.0445923,23.9972509 L62.3769143,5.48453608 C62.6680102,4.7395189 63.0579689,4.21168385 63.5522828,3.90652921 C64.0438504,3.60137457 64.5409104,3.44742268 65.0407167,3.44742268 C65.5405229,3.44742268 65.9963901,3.60962199 66.4083183,3.93402062 C66.8202465,4.25841924 67.0262106,4.7862543 67.0262106,5.51202749 C67.0262106,5.8556701 66.9575559,6.22130584 66.8202465,6.60343643 C66.6829371,6.98556701 66.5099272,7.39793814 66.301217,7.83780069 C65.8975273,8.73676976 65.4169444,9.83642612 64.8622144,11.1367698 C64.3047383,12.4371134 63.7088155,13.852921 63.0716999,15.3841924 C62.4345843,16.9154639 61.7809915,18.5072165 61.1109216,20.1621993 C60.4408518,21.8171821 59.787259,23.4281787 59.1501434,24.9979381 C58.5130278,26.5676976 57.917105,28.0549828 57.3596288,29.4597938 C56.7966603,30.867354 56.3160774,32.0879725 55.9151339,33.1216495 L55.9151339,33.1216495 Z"/>
    <path d="M90.2122759,27.9257732 C90.4374633,27.7718213 90.6489198,27.64811 90.841153,27.55189 C91.0333861,27.4556701 91.2201269,27.4089347 91.3986291,27.4089347 C91.7528874,27.4089347 92.0192676,27.5683849 92.1977698,27.8817869 C92.376272,28.1979381 92.4641501,28.585567 92.4641501,29.0446735 C92.4641501,29.542268 92.3570487,30.04811 92.1373537,30.5649485 C91.9204048,31.0817869 91.5936085,31.5106529 91.1569646,31.8570447 C89.4296123,33.3883162 87.8890009,34.7848797 86.5351302,36.0467354 C85.1785133,37.3085911 83.9015359,38.3945017 82.6987055,39.3044674 C81.4958752,40.214433 80.3232529,40.9154639 79.1780925,41.4130584 C78.0329321,41.9106529 76.8053861,42.1580756 75.4982006,42.1580756 C74.2706545,42.1580756 73.3232197,41.8886598 72.6531498,41.3553265 C71.9830799,40.819244 71.648045,40.0824742 71.648045,39.1450172 L71.648045,38.9305842 C71.648045,38.8646048 71.6562836,38.7821306 71.6727607,38.6859107 C71.735923,38.1113402 71.9885723,37.4515464 72.42247,36.7065292 C72.8591139,35.961512 73.3836358,35.1862543 73.9960357,34.380756 C74.6084357,33.5752577 75.2620284,32.7642612 75.956814,31.942268 C76.6515995,31.1202749 77.2914613,30.3395189 77.8818918,29.6027491 C78.469576,28.8659794 78.9583975,28.1924399 79.34561,27.5793814 C79.7328225,26.966323 79.9278018,26.4714777 79.9278018,26.0865979 C79.9278018,25.8556701 79.8454162,25.6742268 79.6861373,25.542268 C79.5241122,25.4075601 79.257732,25.3415808 78.8869966,25.3415808 C78.2416424,25.3415808 77.5770649,25.5092784 76.8905179,25.8446735 C76.2039709,26.1800687 75.5256625,26.6281787 74.8583388,27.1917526 C74.1882689,27.7553265 73.5346762,28.4013746 72.8975605,29.1298969 C72.2604449,29.8584192 71.6645221,30.6116838 71.107046,31.3979381 C70.5495698,32.1841924 70.041525,32.9704467 69.5829116,33.7649485 C69.1242982,34.5594502 68.7315933,35.2907216 68.4102893,35.961512 C68.3141728,36.1731959 68.1768634,36.4701031 67.9983611,36.8522337 C67.8198589,37.2343643 67.6276258,37.6659794 67.4189155,38.1443299 C67.207459,38.6226804 66.987764,39.1147766 66.7515918,39.6206186 C66.5181658,40.1292096 66.3039631,40.6075601 66.11173,41.0556701 C65.9167506,41.5065292 65.7437408,41.9051546 65.5899543,42.262543 C65.4361677,42.6171821 65.3263202,42.8591065 65.2631579,42.9938144 C65.1807723,43.1670103 65.0489552,43.4914089 64.8622144,43.9697595 C64.6754737,44.44811 64.4640172,45.0061856 64.2196065,45.6494845 C63.9779419,46.2900344 63.7225464,46.9635739 63.4589124,47.6728522 C63.1925321,48.3821306 62.942629,49.0501718 62.7092031,49.6824742 C62.4757771,50.3147766 62.269813,50.867354 62.0913108,51.3457045 C61.9128085,51.824055 61.8002148,52.1484536 61.7507834,52.3216495 C61.5887583,52.819244 61.3992714,53.2865979 61.1823225,53.7292096 C60.9653737,54.1690722 60.7154706,54.556701 60.4326132,54.8920962 C60.1497558,55.2274914 59.8284518,55.4941581 59.4632088,55.6948454 C59.100712,55.8955326 58.69153,55.9945017 58.2411552,55.9945017 C57.6589633,55.9945017 57.1811266,55.8542955 56.7994065,55.5793814 C56.4204325,55.3017182 56.2309456,54.771134 56.2309456,53.9876289 C56.2309456,53.6054983 56.2803769,53.2123711 56.3764935,52.8109966 C56.4726101,52.409622 56.5961886,52.0109966 56.7389903,51.6206186 C56.8845383,51.2274914 57.0328324,50.8453608 57.186619,50.4742268 C57.3404055,50.1003436 57.4804611,49.7429553 57.6095319,49.3965636 C58.4800735,47.4831615 59.3698384,45.5642612 60.2733343,43.6426117 C61.1768301,41.7182131 62.0446256,39.8158076 62.8739743,37.9298969 C63.7060693,36.0467354 64.4750019,34.1938144 65.1862646,32.3766323 C65.8947811,30.5594502 66.4852116,28.8164948 66.9520635,27.1532646 C67.0811344,26.809622 67.2596366,26.3202749 67.484824,25.6879725 C67.7100114,25.0556701 67.9681531,24.4343643 68.259249,23.8213058 C68.5503449,23.2082474 68.8771413,22.6776632 69.2396381,22.2295533 C69.6021349,21.7786942 69.9948398,21.5560137 70.4122604,21.5560137 C71.0576146,21.5560137 71.5244665,21.7044674 71.8155625,22.0013746 C72.1066584,22.2982818 72.2522064,22.732646 72.2522064,23.3072165 C72.2522064,23.4226804 72.2357292,23.6041237 72.202775,23.8515464 C72.1698207,24.0989691 72.1286279,24.3628866 72.0819427,24.6405498 C72.0325113,24.9182131 71.9803338,25.1821306 71.92541,25.4295533 C71.86774,25.6769759 71.8155625,25.8584192 71.7688773,25.9738832 C72.3648001,25.3223368 73.0101543,24.6790378 73.7049398,24.0357388 C74.3997254,23.395189 75.1164805,22.8151203 75.8606974,22.2982818 C76.6021682,21.7814433 77.360116,21.3608247 78.1345411,21.033677 C78.9089661,20.7092784 79.6833911,20.547079 80.4578161,20.547079 C80.9905766,20.547079 81.5178447,20.624055 82.0423666,20.7780069 C82.5668885,20.9319588 83.0337405,21.1546392 83.4456687,21.4515464 C83.8575969,21.7484536 84.1926318,22.1223368 84.4507735,22.5704467 C84.7089151,23.0213058 84.837986,23.5408935 84.837986,24.1347079 C84.837986,24.9209622 84.6402604,25.756701 84.2448094,26.6474227 C83.8493583,27.5381443 83.3522983,28.4316151 82.7563755,29.3305842 C82.1577065,30.2295533 81.5123523,31.1065292 80.8203129,31.9560137 C80.1255274,32.8082474 79.477427,33.5835052 78.8705195,34.2817869 C78.2663581,34.9800687 77.7583133,35.5738832 77.3463851,36.0604811 C76.9344569,36.5498282 76.7202542,36.8797251 76.7037771,37.0501718 C76.7037771,37.2810997 76.7779242,37.4652921 76.920726,37.6109966 C77.0635277,37.756701 77.3079385,37.8254296 77.6484658,37.8254296 C77.9230846,37.8254296 78.3267742,37.6714777 78.8595347,37.366323 C79.3922952,37.0611684 80.1392583,36.5305842 81.0976779,35.7745704 C82.0560975,35.0185567 83.275405,34.0041237 84.7528542,32.7312715 C86.2303033,31.4611684 88.0510259,29.8584192 90.2122759,27.9257732 L90.2122759,27.9257732 Z"/>
  </g>
</svg>
