<svg xmlns="http://www.w3.org/2000/svg" width="101" height="100" viewBox="0 0 101 100">
  <path fill="#8EC5FC" fill-rule="evenodd" d="M85.36,14.64 C65.83388,-4.8865 34.17545,-4.8867 14.64908,14.6396 C-4.877281,34.16579 -4.877272,65.82422 14.64909,85.35046 C34.17546,104.87669 65.83389,104.87648 85.36,85.34999 C94.76859,75.99022 100.0584,63.26629 100.0584,49.995 C100.0584,36.72371 94.76859,23.9998 85.35999,14.64 L85.36,14.64 Z M56.67,76.56 L43.33,76.56 L43.33,43.56 L56.67,43.56 L56.67,76.56 Z M50,38 C45.9615,38 42.68816,34.72516 42.69001,30.68666 C42.69185,26.64816 45.96817,23.3763 50.00668,23.38 C54.04518,23.3837 57.31553,26.6615 57.31,30.7 C57.31001,32.63782 56.53953,34.49612 55.16835,35.86543 C53.79717,37.23472 51.93782,38.00266 50,38 Z"/>
</svg>
