<svg xmlns="http://www.w3.org/2000/svg" width="56" height="55" viewBox="0 0 56 55">
  <path fill="#FFF" d="M28.3851775,0 C43.5412944,0 55.8277662,12.2864718 55.8277662,27.4425887 C55.8277662,42.5987056 43.5412944,54.8851775 28.3851775,54.8851775 C13.2290605,54.8851775 0.942588727,42.5987056 0.942588727,27.4425887 C0.942588727,12.2864718 13.2290605,0 28.3851775,0 Z M28.2290426,33.2657463 C24.9267705,33.2657463 22.2497501,30.5887259 22.2497501,27.2864538 C22.2497501,23.9841818 24.9267705,21.3071613 28.2290426,21.3071613 C31.5313146,21.3071613 34.2083351,23.9841818 34.2083351,27.2864538 C34.2083351,30.5887259 31.5313146,33.2657463 28.2290426,33.2657463 Z M19.4162729,14.4736842 C17.2071339,14.4736842 15.4162729,16.2645452 15.4162729,18.4736842 L15.4162729,36.5263158 C15.4162729,38.7354548 17.2071339,40.5263158 19.4162729,40.5263158 L37.4689045,40.5263158 C39.6780435,40.5263158 41.4689045,38.7354548 41.4689045,36.5263158 L41.4689045,18.4736842 C41.4689045,16.2645452 39.6780435,14.4736842 37.4689045,14.4736842 L19.4162729,14.4736842 Z M36.6496639,21.4400345 C35.6997245,21.4400345 34.9296465,20.6699565 34.9296465,19.7200174 C34.9296465,18.770078 35.6997245,18 36.6496639,18 C37.599603,18 38.369681,18.770078 38.369681,19.7200174 C38.369681,20.6699565 37.599603,21.4400345 36.6496639,21.4400345 Z"/>
</svg>
