<svg xmlns="http://www.w3.org/2000/svg" xmlns:xlink="http://www.w3.org/1999/xlink" width="379" height="250" viewBox="0 0 379 250">
  <defs>
    <polygon id="location-a" points="0 54.591 0 .183 135.999 .183 135.999 54.591"/>
  </defs>
  <g fill="none" fill-rule="evenodd">
    <path fill="#8EC5FC" d="M314.498629,124.814088 C314.498629,193.747121 258.646256,249.628176 189.749315,249.628176 C120.852373,249.628176 65,193.747121 65,124.814088 C65,55.8810547 120.852373,0 189.749315,0 C258.646256,0 314.498629,55.8810547 314.498629,124.814088"/>
    <path fill="#CDE6FF" d="M252.328882,179.5 L337.333637,179.5 C340.276735,179.5 342.662519,176.253946 342.662519,172.25 L342.662519,172.25 C342.662519,168.246054 340.276735,165 337.333637,165 L252.328882,165 C249.386062,165 247,168.246054 247,172.25 L247,172.25 C247,176.253946 249.386062,179.5 252.328882,179.5"/>
    <path fill="#8EC5FC" d="M317.942937,9.24091313 L193.605147,9.24091313 C191.123258,9.24091313 189.111182,7.22811164 189.111182,4.74493413 C189.111182,2.26175661 191.123258,0.248955118 193.605147,0.248955118 L317.942937,0.248955118 C320.424825,0.248955118 322.436582,2.26175661 322.436582,4.74493413 C322.436582,7.22811164 320.424825,9.24091313 317.942937,9.24091313"/>
    <path fill="#CDE6FF" d="M198.487957,18.0219668 L289.693869,18.0219668 C292.11715,18.0219668 294.081767,16.0563304 294.081767,13.6314718 C294.081767,11.2066133 292.11715,9.24097687 289.693869,9.24097687 L198.487957,9.24097687 C196.064676,9.24097687 194.099741,11.2066133 194.099741,13.6314718 C194.099741,16.0563304 196.064676,18.0219668 198.487957,18.0219668"/>
    <path fill="#8EC5FC" d="M57.5803104,28.1538537 L136.207645,28.1538537 C139.004229,28.1538537 141.271119,25.8857872 141.271119,23.0880696 C141.271119,20.2900333 139.004229,18.0219668 136.207645,18.0219668 L57.5803104,18.0219668 C54.7840447,18.0219668 52.5171552,20.2900333 52.5171552,23.0880696 C52.5171552,25.8857872 54.7840447,28.1538537 57.5803104,28.1538537"/>
    <path fill="#CDE6FF" d="M164.583614,36.2868018 L48.4263112,36.2868018 C46.1817179,36.2868018 44.3620271,34.4661662 44.3620271,32.2204074 C44.3620271,29.97433 46.1817179,28.1536944 48.4263112,28.1536944 L164.583614,28.1536944 C166.828208,28.1536944 168.647899,29.97433 168.647899,32.2204074 C168.647899,34.4661662 166.828208,36.2868018 164.583614,36.2868018"/>
    <path fill="#8EC5FC" d="M17.3912613 49.444902L111.33292 49.444902C114.964657 49.444902 117.908715 46.4993155 117.908715 42.8656926 117.908715 39.2323883 114.964657 36.2868018 111.33292 36.2868018L17.3912613 36.2868018C13.7595241 36.2868018 10.8154662 39.2323883 10.8154662 42.8656926 10.8154662 46.4993155 13.7595241 49.444902 17.3912613 49.444902M371.558074 63.2779089L182.714426 63.2779089C178.896675 63.2779089 175.801639 60.1812667 175.801639 56.3615329 175.801639 52.5414805 178.896675 49.4448383 182.714426 49.4448383L371.558074 49.4448383C375.375826 49.4448383 378.470861 52.5414805 378.470861 56.3615329 378.470861 60.1812667 375.375826 63.2779089 371.558074 63.2779089"/>
    <path fill="#CDE6FF" d="M241.548756,77.5090783 L332.438061,77.5090783 C336.365701,77.5090783 339.549921,74.3232049 339.549921,70.3935255 C339.549921,66.4635274 336.365701,63.2779727 332.438061,63.2779727 L241.548756,63.2779727 C237.620798,63.2779727 234.436896,66.4635274 234.436896,70.3935255 C234.436896,74.3232049 237.620798,77.5090783 241.548756,77.5090783"/>
    <path fill="#8EC5FC" d="M334.308305 88.4188384L227.000694 88.4188384C223.989429 88.4188384 221.548629 85.9764523 221.548629 82.9639424 221.548629 79.9514325 223.989429 77.5090464 227.000694 77.5090464L334.308305 77.5090464C337.31957 77.5090464 339.76037 79.9514325 339.76037 82.9639424 339.76037 85.9764523 337.31957 88.4188384 334.308305 88.4188384M37.2469773 102.693444L223.198168 102.693444C227.137911 102.693444 230.331687 99.4980104 230.331687 95.556221 230.331687 91.6144317 227.137911 88.4189978 223.198168 88.4189978L37.2469773 88.4189978C33.3072336 88.4189978 30.113458 91.6144317 30.113458 95.556221 30.113458 99.4980104 33.3072336 102.693444 37.2469773 102.693444"/>
    <path fill="#CDE6FF" d="M113.35771,116.009962 L6.48553764,116.009962 C3.35417087,116.009962 0.815752911,113.029002 0.815752911,109.351719 C0.815752911,105.674436 3.35417087,102.693476 6.48553764,102.693476 L113.35771,102.693476 C116.489077,102.693476 119.027495,105.674436 119.027495,109.351719 C119.027495,113.029002 116.489077,116.009962 113.35771,116.009962"/>
    <path fill="#8EC5FC" d="M332.497055 206.375571L247.010126 206.375571C243.752647 206.375571 241.111818 203.73337 241.111818 200.473881 241.111818 197.214711 243.752647 194.57251 247.010126 194.57251L332.497055 194.57251C335.754853 194.57251 338.395682 197.214711 338.395682 200.473881 338.395682 203.73337 335.754853 206.375571 332.497055 206.375571M12.1536222 153.62325L122.944223 153.62325C126.447916 153.62325 129.288456 150.781554 129.288456 147.275723 129.288456 143.77021 126.447916 140.928196 122.944223 140.928196L12.1536222 140.928196C8.64992904 140.928196 5.80938941 143.77021 5.80938941 147.275723 5.80938941 150.781554 8.64992904 153.62325 12.1536222 153.62325"/>
    <path fill="#CDE6FF" d="M49.3705702,167.855375 L108.868695,167.855375 C112.796654,167.855375 115.980874,164.669502 115.980874,160.739185 C115.980874,156.809187 112.796654,153.623313 108.868695,153.623313 L49.3705702,153.623313 C45.4426116,153.623313 42.2583915,156.809187 42.2583915,160.739185 C42.2583915,164.669502 45.4426116,167.855375 49.3705702,167.855375"/>
    <path fill="#FEFEFE" d="M84.619103 28.0804658L41.1134261 28.0804658C40.5856425 28.0804658 40.1578734 27.6524746 40.1578734 27.124417 40.1578734 26.5963593 40.5856425 26.1683681 41.1134261 26.1683681L84.619103 26.1683681C85.1468866 26.1683681 85.5746557 26.5963593 85.5746557 27.124417 85.5746557 27.6524746 85.1468866 28.0804658 84.619103 28.0804658M70.8265918 32.4864806L41.1133624 32.4864806C40.5855788 32.4864806 40.1578097 32.0584894 40.1578097 31.5304318 40.1578097 31.0023741 40.5855788 30.5743829 41.1133624 30.5743829L70.8265918 30.5743829C71.3543754 30.5743829 71.7821445 31.0023741 71.7821445 31.5304318 71.7821445 32.0584894 71.3543754 32.4864806 70.8265918 32.4864806M51.9905138 130.144803L28.3386737 130.144803C27.8108901 130.144803 27.383121 129.716812 27.383121 129.188754 27.383121 128.660696 27.8108901 128.232705 28.3386737 128.232705L51.9905138 128.232705C52.5182974 128.232705 52.9460665 128.660696 52.9460665 129.188754 52.9460665 129.716812 52.5182974 130.144803 51.9905138 130.144803M117.662711 132.144803L94.0111896 132.144803C93.483406 132.144803 93.055637 131.716812 93.055637 131.188754 93.055637 130.660696 93.483406 130.232705 94.0111896 130.232705L117.662711 130.232705C118.190495 130.232705 118.618264 130.660696 118.618264 131.188754 118.618264 131.716812 118.190495 132.144803 117.662711 132.144803M111.344005 128.144803L104.616595 128.144803C104.088812 128.144803 103.661042 127.716812 103.661042 127.188754 103.661042 126.660696 104.088812 126.232705 104.616595 126.232705L111.344005 126.232705C111.871788 126.232705 112.299557 126.660696 112.299557 127.188754 112.299557 127.716812 111.871788 128.144803 111.344005 128.144803M60.4576662 123.15838L28.3386737 123.15838C27.8108901 123.15838 27.383121 122.730389 27.383121 122.202332 27.383121 121.674274 27.8108901 121.246283 28.3386737 121.246283L60.4576662 121.246283C60.9854498 121.246283 61.4132189 121.674274 61.4132189 122.202332 61.4132189 122.730389 60.9854498 123.15838 60.4576662 123.15838M314.406313 59.1322262L284.693084 59.1322262C284.1653 59.1322262 283.737531 58.704235 283.737531 58.1761774 283.737531 57.6481197 284.1653 57.2201285 284.693084 57.2201285L314.406313 57.2201285C314.934097 57.2201285 315.361866 57.6481197 315.361866 58.1761774 315.361866 58.704235 314.934097 59.1322262 314.406313 59.1322262M231.945361 14.5873932L175.797085 14.5873932C175.269301 14.5873932 174.841532 14.159402 174.841532 13.6313444 174.841532 13.1032867 175.269301 12.6752955 175.797085 12.6752955L231.945361 12.6752955C232.473144 12.6752955 232.900913 13.1032867 232.900913 13.6313444 232.900913 14.159402 232.473144 14.5873932 231.945361 14.5873932M122.836915 42.1367404L93.1236852 42.1367404C92.5959016 42.1367404 92.1681325 41.7087492 92.1681325 41.1806915 92.1681325 40.6526339 92.5959016 40.2246427 93.1236852 40.2246427L122.836915 40.2246427C123.364698 40.2246427 123.792467 40.6526339 123.792467 41.1806915 123.792467 41.7087492 123.364698 42.1367404 122.836915 42.1367404M86.1284271 42.1367404L74.4585806 42.1367404C73.930797 42.1367404 73.5030279 41.7087492 73.5030279 41.1806915 73.5030279 40.6526339 73.930797 40.2246427 74.4585806 40.2246427L86.1284271 40.2246427C86.6562107 40.2246427 87.0839798 40.6526339 87.0839798 41.1806915 87.0839798 41.7087492 86.6562107 42.1367404 86.1284271 42.1367404M50.8049959 81.0773075L10.8157529 81.0773075C10.2879693 81.0773075 9.86020022 80.6493163 9.86020022 80.1212587 9.86020022 79.593201 10.2879693 79.1652099 10.8157529 79.1652099L50.8049959 79.1652099C51.3327795 79.1652099 51.7605486 79.593201 51.7605486 80.1212587 51.7605486 80.6493163 51.3327795 81.0773075 50.8049959 81.0773075M310.533963 81.0773075L257.816758 81.0773075C257.288975 81.0773075 256.861206 80.6493163 256.861206 80.1212587 256.861206 79.593201 257.288975 79.1652099 257.816758 79.1652099L310.533963 79.1652099C311.061747 79.1652099 311.489516 79.593201 311.489516 80.1212587 311.489516 80.6493163 311.061747 81.0773075 310.533963 81.0773075M295.679764 147.491292L265.966535 147.491292C265.438751 147.491292 265.010982 147.063301 265.010982 146.535244 265.010982 146.007186 265.438751 145.579195 265.966535 145.579195L295.679764 145.579195C296.207548 145.579195 296.635317 146.007186 296.635317 146.535244 296.635317 147.063301 296.207548 147.491292 295.679764 147.491292M132.765234 10.196962L103.052005 10.196962C102.524221 10.196962 102.096452 9.76897078 102.096452 9.24091313 102.096452 8.71285549 102.524221 8.2848643 103.052005 8.2848643L132.765234 8.2848643C133.293018 8.2848643 133.720787 8.71285549 133.720787 9.24091313 133.720787 9.76897078 133.293018 10.196962 132.765234 10.196962M129.765234 217.667017L100.052005 217.667017C99.5242214 217.667017 99.0964524 217.239026 99.0964524 216.710968 99.0964524 216.182911 99.5242214 215.75492 100.052005 215.75492L129.765234 215.75492C130.293018 215.75492 130.720787 216.182911 130.720787 216.710968 130.720787 217.239026 130.293018 217.667017 129.765234 217.667017M298.798261 210.667017L269.084713 210.667017C268.55693 210.667017 268.12916 210.239026 268.12916 209.710968 268.12916 209.182911 268.55693 208.75492 269.084713 208.75492L298.798261 208.75492C299.325726 208.75492 299.753814 209.182911 299.753814 209.710968 299.753814 210.239026 299.325726 210.667017 298.798261 210.667017M92.6637458 217.667017L80.1899611 217.667017C79.6621775 217.667017 79.2344084 217.239026 79.2344084 216.710968 79.2344084 216.182911 79.6621775 215.75492 80.1899611 215.75492L92.6637458 215.75492C93.1915294 215.75492 93.6192985 216.182911 93.6192985 216.710968 93.6192985 217.239026 93.1915294 217.667017 92.6637458 217.667017M295.679764 142.902768L261.256297 142.902768C260.728514 142.902768 260.300745 142.474777 260.300745 141.946719 260.300745 141.418661 260.728514 140.99067 261.256297 140.99067L295.679764 140.99067C296.207548 140.99067 296.635317 141.418661 296.635317 141.946719 296.635317 142.474777 296.207548 142.902768 295.679764 142.902768M106.331239 187.211317L71.9080903 187.211317C71.3803067 187.211317 70.9525377 186.783325 70.9525377 186.255268 70.9525377 185.72721 71.3803067 185.299219 71.9080903 185.299219L106.331239 185.299219C106.859023 185.299219 107.286792 185.72721 107.286792 186.255268 107.286792 186.783325 106.859023 187.211317 106.331239 187.211317M120.624996 180.902768L86.201847 180.902768C85.6740634 180.902768 85.2462943 180.474777 85.2462943 179.946719 85.2462943 179.418661 85.6740634 178.99067 86.201847 178.99067L120.624996 178.99067C121.152779 178.99067 121.580548 179.418661 121.580548 179.946719 121.580548 180.474777 121.152779 180.902768 120.624996 180.902768M38.9120597 166.902768L25.0689679 166.902768C24.5411843 166.902768 24.1134152 166.474777 24.1134152 165.946719 24.1134152 165.418661 24.5411843 164.99067 25.0689679 164.99067L38.9120597 164.99067C39.4398433 164.99067 39.8676124 165.418661 39.8676124 165.946719 39.8676124 166.474777 39.4398433 166.902768 38.9120597 166.902768M291.267439 184.089597L256.844291 184.089597C256.316507 184.089597 255.888738 183.661606 255.888738 183.133549 255.888738 182.605491 256.316507 182.1775 256.844291 182.1775L291.267439 182.1775C291.795223 182.1775 292.222992 182.605491 292.222992 183.133549 292.222992 183.661606 291.795223 184.089597 291.267439 184.089597M335.679764 183.519921L312.436264 183.519921C311.90848 183.519921 311.480711 183.09193 311.480711 182.563872 311.480711 182.035815 311.90848 181.607824 312.436264 181.607824L335.679764 181.607824C336.207548 181.607824 336.635317 182.035815 336.635317 182.563872 336.635317 183.09193 336.207548 183.519921 335.679764 183.519921M314.406313 65.4648069L277.526757 65.4648069C276.998973 65.4648069 276.571204 65.0368157 276.571204 64.5087581 276.571204 63.9807004 276.998973 63.5527092 277.526757 63.5527092L314.406313 63.5527092C314.934097 63.5527092 315.361866 63.9807004 315.361866 64.5087581 315.361866 65.0368157 314.934097 65.4648069 314.406313 65.4648069M77.4776526 37.0250675L41.113458 37.0250675C40.5856744 37.0250675 40.1579053 36.5970763 40.1579053 36.0690187 40.1579053 35.540961 40.5856744 35.1129698 41.113458 35.1129698L77.4776526 35.1129698C78.0054362 35.1129698 78.4332053 35.540961 78.4332053 36.0690187 78.4332053 36.5970763 78.0054362 37.0250675 77.4776526 37.0250675"/>
    <g fill="#FEFEFE" transform="translate(10 18)">
      <path d="M44.0907235 16.0590535C44.0907235 12.8470481 41.4881165 10.2430897 38.277778 10.2430897 38.1210673 10.2430897 37.9665863 10.2510568 37.8133794 10.2631667 36.6310422 6.82457773 33.3719705 4.35319148 29.5338338 4.35319148 28.7700287 4.35319148 28.0294754 4.45134583 27.3233219 4.63522589 25.3644389 2.08066339 22.2843741.432435195 18.8179475.432435195 14.5647824.432435195 10.8903638 2.91178852 9.1595394 6.50462006 8.81362933 6.4571363 8.46103038 6.43068561 8.10206109 6.43068561 3.83934055 6.43068561.383743509 9.8880769.383743509 14.1530108.383743509 18.4179446 3.83934055 21.8753359 8.10206109 21.8753359L38.3163186 21.8753359 38.3163186 21.8743799C41.5088201 21.8533468 44.0907235 19.2583116 44.0907235 16.0590535M276.490324 125.189723C276.490324 121.977717 279.092931 119.373759 282.303588 119.373759 282.45998 119.373759 282.614461 119.381407 282.767668 119.393836 283.950005 115.955247 287.209077 113.483861 291.047213 113.483861 291.811018 113.483861 292.551572 113.582015 293.258044 113.765576 295.216608 111.211651 298.296673 109.563104 301.7631 109.563104 306.016265 109.563104 309.690683 112.042458 311.421826 115.635289 311.767418 115.587806 312.120017 115.561355 312.478986 115.561355 316.741706 115.561355 320.197303 119.018746 320.197303 123.28368 320.197303 127.548614 316.741706 131.006005 312.478986 131.006005L282.265047 131.006005 282.265047 131.005049C279.072227 130.984016 276.490324 128.388981 276.490324 125.189723M279.546246 41.9216645C278.918129 41.9216645 278.315812 42.0322475 277.757132 42.2339738 276.940772 39.392278 274.59712 37.1971898 271.67058 36.5996593 270.124496 31.6176888 265.481147 28 259.993089 28 254.106885 28 249.193433 32.1626366 248.030207 37.7061265 247.302076 37.4725319 246.526167 37.3450587 245.720636 37.3450587 242.517942 37.3450587 239.782832 39.3393766 238.683309 42.1539844 238.512902 42.1367755 238.339947 42.1278524 238.165081 42.1278524 235.312438 42.1278524 233 44.4414906 233 47.295615 233 50.1497395 235.312438 52.4636964 238.165081 52.4636964L279.546246 52.4636964C282.455903 52.4636964 284.814526 50.1038492 284.814526 47.1926804 284.814526 44.2815117 282.455903 41.9216645 279.546246 41.9216645M36.8613884 111.204228C37.3219648 111.204228 37.7634302 111.285173 38.1730437 111.433042 38.7712197 109.350131 40.4889849 107.7411 42.6342007 107.30323 43.7674862 103.651761 47.1708464 101 51.1934047 101 55.5077251 101 59.1092031 104.051071 59.9618747 108.114278 60.4957101 107.943145 61.0642639 107.849453 61.6547955 107.849453 64.0019514 107.849453 66.006701 109.31157 66.8128689 111.374405 66.9377278 111.361976 67.0644978 111.355284 67.1928604 111.355284 69.2836097 111.355284 70.9784416 113.051314 70.9784416 115.143149 70.9784416 117.235303 69.2836097 118.931015 67.1928604 118.931015L36.8613884 118.931015C34.7289133 118.931015 33 117.201204 33 115.067621 33 112.934039 34.7289133 111.204228 36.8613884 111.204228"/>
    </g>
    <g transform="translate(122 49)">
      <g transform="translate(0 96)">
        <mask id="location-b" fill="#fff">
          <use xlink:href="#location-a"/>
        </mask>
        <path fill="#0056AD" d="M98.9785333,0.707992593 C96.0148667,4.50665926 93.1022,7.83762222 90.4275333,10.6894741 C112.946867,14.3113259 124.665533,22.6729556 124.665533,26.072363 C124.665533,30.4699185 105.183533,43.1834741 67.9988667,43.1834741 C30.8198667,43.1834741 11.3322,30.4699185 11.3322,26.072363 C11.3322,22.5417704 23.9405333,13.6554 48.1712,10.2902148 C45.4852,7.39273333 42.5668667,4.01614074 39.5975333,0.183251852 C16.2452,4.70058519 -0.00113333333,14.5794 -0.00113333333,26.072363 C-0.00113333333,41.8259926 30.4458667,54.5908815 67.9988667,54.5908815 C105.551867,54.5908815 135.998867,41.8259926 135.998867,26.072363 C135.998867,15.0071778 120.942533,5.43636296 98.9785333,0.707992593" mask="url(#location-b)"/>
      </g>
      <path fill="#0056AD" d="M54.5005668,37.8567341 C54.5005668,29.4968961 61.2167309,22.7163293 69.4971662,22.7163293 C77.7832691,22.7163293 84.4994332,29.4968961 84.4994332,37.8567341 C84.4994332,46.2165722 77.7832691,52.997139 69.4971662,52.997139 C61.2167309,52.997139 54.5005668,46.2165722 54.5005668,37.8567341 M69.4971662,106 C69.4971662,106 107,75.7134683 107,37.8567341 C107,16.948556 90.2124235,0 69.4971662,0 C48.7875765,0 32,16.948556 32,37.8567341 C32,75.7134683 69.4971662,106 69.4971662,106"/>
    </g>
  </g>
</svg>
