<svg xmlns="http://www.w3.org/2000/svg" xmlns:xlink="http://www.w3.org/1999/xlink" width="142" height="50" viewBox="0 0 142 50">
  <defs>
    <linearGradient id="logo-a" x1="100%" x2="0%" y1="50%" y2="50%">
      <stop offset="0%" stop-color="#8EC5FC"/>
      <stop offset="100%" stop-color="#E0C3FC"/>
    </linearGradient>
    <linearGradient id="logo-c" x1="0%" y1="50%" y2="50%">
      <stop offset="0%" stop-color="#FFF" stop-opacity=".5"/>
      <stop offset="100%" stop-opacity=".5"/>
    </linearGradient>
    <polygon id="logo-b" points="0 0 0 49.02 49.02 0"/>
    <linearGradient id="logo-d" x1="50%" x2="50%" y1="100%" y2="0%">
      <stop offset="0%" stop-color="#8EC5FC"/>
      <stop offset="100%" stop-color="#E0C3FC"/>
    </linearGradient>
    <linearGradient id="logo-f" x1="50%" x2="50%" y1="0%" y2="100%">
      <stop offset="0%" stop-color="#FFF" stop-opacity=".5"/>
      <stop offset="100%" stop-opacity=".5"/>
    </linearGradient>
    <polygon id="logo-e" points="49.02 0 0 49.02 49.02 49.02"/>
    <linearGradient id="logo-g" x1="50%" x2="50%" y1="0%" y2="100%">
      <stop offset="0%" stop-color="#8EC5FC"/>
      <stop offset="100%" stop-color="#E0C3FC"/>
    </linearGradient>
  </defs>
  <g fill="none" fill-rule="evenodd">
    <g transform="translate(0 .49)">
      <use fill="url(#logo-a)" xlink:href="#logo-b"/>
      <use fill="url(#logo-c)" fill-opacity=".5" xlink:href="#logo-b"/>
      <use fill="url(#logo-d)" xlink:href="#logo-e"/>
      <use fill="url(#logo-f)" fill-opacity=".5" xlink:href="#logo-e"/>
      <polygon fill="url(#logo-g)" points="0 0 0 49.02 49.02 49.02"/>
    </g>
    <path fill="#8EC5FC" d="M57.1895425,20.9187463 L71.643213,20.9187463 L71.643213,17.141353 L61.6830599,17.141353 L61.6830599,0.486482472 L57.1895425,0.486482472 L57.1895425,20.9187463 Z M73.9983766,20.9187463 L78.4918939,20.9187463 L78.4918939,0.486482472 L73.9983766,0.486482472 L73.9983766,20.9187463 Z M82.278114,20.9187463 L86.7716313,20.9187463 L86.7716313,12.4768446 L95.3293491,12.4768446 L95.3293491,8.98561742 L86.7716313,8.98561742 L86.7716313,4.26387578 L96.6459211,4.26387578 L96.6459211,0.486482472 L82.278114,0.486482472 L82.278114,20.9187463 Z M99.086948,20.9187463 L114.5996,20.9187463 L114.5996,17.141353 L103.580465,17.141353 L103.580465,12.1334452 L113.483376,12.1334452 L113.483376,8.64221803 L103.580465,8.64221803 L103.580465,4.26387578 L114.370631,4.26387578 L114.370631,0.486482472 L99.086948,0.486482472 L99.086948,20.9187463 Z M117.441323,4.89344133 L119.330318,4.89344133 C119.330318,6.29565552 118.901001,7.29723708 117.441323,7.78371955 L117.441323,9.6724162 C119.816877,9.35763343 121.591387,7.41170354 121.505524,4.86482472 L121.505524,0.486482472 L117.441323,0.486482472 L117.441323,4.89344133 Z M123.975172,14.1366083 C123.917929,19.1731327 128.153857,21.4052288 132.675995,21.4052288 C138.228494,21.4052288 141.176471,18.6008004 141.176471,14.8520237 C141.176471,10.2161319 136.59709,9.27178358 135.108791,8.89976757 C129.985609,7.58340324 129.01249,7.38308692 129.01249,5.80917305 C129.01249,4.09217609 130.672516,3.49122715 132.103572,3.49122715 C134.250157,3.49122715 135.996046,4.1207927 136.139152,6.58182168 L140.489563,6.58182168 C140.489563,1.86008004 136.568469,0 132.30392,0 C128.611795,0 124.662079,2.00316312 124.662079,6.18118905 C124.662079,10.0158156 127.72454,11.1890969 130.758379,11.9903621 C133.763598,12.7916273 136.826059,13.1636434 136.826059,15.3671228 C136.826059,17.4561358 134.421884,17.9140016 132.847722,17.9140016 C130.443547,17.9140016 128.325583,16.8551868 128.325583,14.1366083 L123.975172,14.1366083 Z"/>
    <path fill="#E0C3FC" d="M57.1895425,49.5135175 L57.1895425,29.0812537 L61.6786806,29.0812537 L61.6786806,37.551772 L69.6561936,29.0812537 L75.2604679,29.0812537 L67.2829549,37.1511394 L76.0324853,49.5135175 L70.3996177,49.5135175 L64.2520719,40.3275838 L61.6786806,42.9316959 L61.6786806,49.5135175 L57.1895425,49.5135175 Z M76.7841323,39.3832355 C76.7841323,33.3165129 80.501253,28.5947712 86.8203583,28.5947712 C93.1394635,28.5947712 96.8565843,33.3165129 96.8565843,39.3832355 C96.8565843,45.2782584 93.1394635,50 86.8203583,50 C80.501253,50 76.7841323,45.2782584 76.7841323,39.3832355 Z M81.436607,39.3832355 C81.436607,42.7886128 82.9520485,46.2226067 86.9836948,46.2226067 C91.0153411,46.2226067 92.5307827,42.7886128 92.5307827,39.3832355 C92.5307827,35.8061585 91.0153411,32.3721646 86.9836948,32.3721646 C82.9520485,32.3721646 81.436607,35.8061585 81.436607,39.3832355 Z M98.8663337,39.3832355 C98.8663337,33.3165129 102.583454,28.5947712 108.90256,28.5947712 C115.221665,28.5947712 118.938786,33.3165129 118.938786,39.3832355 C118.938786,45.2782584 115.221665,50 108.90256,50 C102.583454,50 98.8663337,45.2782584 98.8663337,39.3832355 Z M103.682145,39.3832355 C103.682145,42.7886128 105.197586,46.2226067 109.229233,46.2226067 C113.260879,46.2226067 114.776321,42.7886128 114.776321,39.3832355 C114.776321,35.8061585 113.260879,32.3721646 109.229233,32.3721646 C105.197586,32.3721646 103.682145,35.8061585 103.682145,39.3832355 Z M121.834925,49.5135175 L121.834925,29.0812537 L126.324064,29.0812537 L126.324064,45.7361242 L136.27451,45.7361242 L136.27451,49.5135175 L121.834925,49.5135175 Z"/>
  </g>
</svg>
