<svg xmlns="http://www.w3.org/2000/svg" width="245" height="24" viewBox="0 0 245 24">
  <g fill="none" fill-rule="evenodd">
    <path fill="#859A00" d="M32.66,1.302 L32.66,0.2 L23.806,0.2 L23.806,1.302 C26.504,1.302 27.112,2.138 26.466,4.19 L22.97,14.906 L18.182,0.2 L17.346,0.2 L12.672,14.868 L9.214,4.19 C8.492,1.986 9.024,1.302 12.216,1.302 L12.216,0.2 L0.208,0.2 L0.208,1.302 C3.362,1.302 3.894,2.024 4.73,4.646 L10.886,23.646 L11.684,23.646 L16.396,8.94 L21.184,23.646 L21.982,23.646 L28.138,4.646 C28.974,2.062 29.506,1.302 32.66,1.302 Z M53.2459215,13.85 C53.2459215,19.157 48.6709215,23.5185 43.0894215,23.5185 C37.4774215,23.5185 32.9024215,19.157 32.9024215,13.85 C32.9024215,8.543 37.4774215,4.1815 43.0894215,4.1815 C48.6709215,4.1815 53.2459215,8.543 53.2459215,13.85 Z M49.1589215,13.85 C49.1589215,10.1595 47.3899215,5.6455 43.0894215,5.6455 C38.7584215,5.6455 37.0199215,10.1595 37.0199215,13.85 C37.0199215,17.5405 38.7584215,22.0545 43.0894215,22.0545 C47.3899215,22.0545 49.1589215,17.5405 49.1589215,13.85 Z M67.223343,14.9785 L70.181843,18.2115 C72.865843,21.17 74.024843,21.8715 75.885343,22.1155 L75.885343,23 L69.266843,23 L63.837843,14.9785 L62.953343,14.9785 L62.953343,18.547 C62.953343,21.597 63.349843,22.1155 65.881343,22.1155 L65.881343,23 L56.243343,23 L56.243343,22.1155 C58.774843,22.1155 59.140843,21.597 59.140843,18.547 L59.140843,9.153 C59.140843,6.103 58.774843,5.5845 56.243343,5.5845 L56.243343,4.7 L66.460843,4.7 C70.242843,4.7 72.621843,7.018 72.621843,9.8545 C72.621843,12.508 70.547843,14.6735 67.223343,14.9785 Z M64.630843,13.606 C67.284343,13.606 68.534843,11.9285 68.534843,9.8545 C68.534843,7.7805 67.284343,6.0725 64.630843,6.0725 L62.953343,6.0725 L62.953343,13.606 L64.630843,13.606 Z M76.9917645,23 L76.9917645,22.1155 C79.5232645,22.1155 79.8892645,21.597 79.8892645,18.547 L79.8892645,9.153 C79.8892645,6.103 79.5232645,5.5845 76.9917645,5.5845 L76.9917645,4.7 L87.0567645,4.7 C94.1327645,4.7 97.2132645,8.8175 97.2132645,13.85 C97.2132645,18.8825 94.1327645,23 87.0567645,23 L76.9917645,23 Z M83.7017645,6.0725 L83.7017645,18.181 C83.7017645,21.1395 84.0982645,21.6275 86.6297645,21.6275 L86.9347645,21.6275 C91.8757645,21.6275 92.8822645,17.2965 92.8822645,13.85 C92.8822645,10.4035 91.8757645,6.0725 86.9347645,6.0725 L83.7017645,6.0725 Z"/>
    <path fill="#FFF" d="M223.730926,4.7 L207.622715,4.7 L207.622715,5.5845 C210.154215,5.5845 210.520215,6.103 210.520215,9.153 L210.520215,18.547 C210.520215,21.597 210.154215,22.1155 207.622715,22.1155 L207.622715,23 L217.260715,23 L217.260715,22.1155 C214.729215,22.1155 214.332715,21.597 214.332715,18.547 L214.332715,14.0025 L216.010215,14.0025 C219.060215,14.0025 219.548215,14.3685 219.548215,16.9305 L220.432715,16.9305 L220.432715,9.702 L219.548215,9.702 C219.548215,12.2335 219.060215,12.63 216.010215,12.63 L214.332715,12.63 L214.332715,6.0725 L219.517715,6.0725 C222.293215,6.0725 222.628715,6.774 223.025215,8.3905 L223.177715,9.0005 L224.092715,9.0005 L223.874807,5.58661423 C225.869879,5.62441754 226.684802,6.18180274 228.066136,8.2685 L232.488636,14.948 L232.488636,18.547 C232.488636,21.597 232.092136,22.1155 229.560636,22.1155 L229.560636,23 L239.076636,23 L239.076636,22.1155 C236.545136,22.1155 236.179136,21.597 236.179136,18.547 L236.179136,14.8565 L240.540636,8.2685 C241.821636,6.286 242.401136,5.5845 244.932636,5.5845 L244.932636,4.7 L237.551636,4.7 L237.551636,5.5845 C239.961136,5.5845 240.296636,6.2555 239.198636,7.9025 L235.782636,13.057 L232.366636,7.9025 C231.268636,6.286 231.848136,5.5845 233.983136,5.5845 L233.983136,4.7 L223.730926,4.7 Z M134.380608,14.9785 L137.339107,18.2115 C140.023108,21.17 141.182108,21.8715 143.042608,22.1155 L143.042608,23 L136.424108,23 L130.995108,14.9785 L130.110608,14.9785 L130.110608,18.547 C130.110608,21.597 130.507107,22.1155 133.038608,22.1155 L133.038608,23 L123.400608,23 L123.400608,22.1155 C125.932108,22.1155 126.298108,21.597 126.298108,18.547 L126.298108,9.153 C126.298108,6.103 125.932108,5.5845 123.400608,5.5845 L123.400608,4.7 L133.618107,4.7 C137.400108,4.7 139.779108,7.018 139.779108,9.8545 C139.779108,12.508 137.705108,14.6735 134.380608,14.9785 Z M131.788108,13.606 C134.441608,13.606 135.692108,11.9285 135.692108,9.8545 C135.692108,7.7805 134.441608,6.0725 131.788108,6.0725 L130.110608,6.0725 L130.110608,13.606 L131.788108,13.606 Z M144.149029,23 L144.149029,22.1155 C146.680529,22.1155 147.046529,21.597 147.046529,18.547 L147.046529,9.153 C147.046529,6.103 146.680529,5.5845 144.149029,5.5845 L144.149029,4.7 L159.856529,4.7 L160.100529,9.0005 L159.216029,9.0005 L159.063529,8.3905 C158.636529,6.774 158.331529,6.0725 155.525529,6.0725 L150.859029,6.0725 L150.859029,12.63 L152.536529,12.63 C155.586529,12.63 156.074529,12.2335 156.074529,9.702 L156.959029,9.702 L156.959029,16.9305 L156.074529,16.9305 C156.074529,14.3685 155.586529,14.0025 152.536529,14.0025 L150.859029,14.0025 L150.859029,18.059 C150.859029,21.109 151.255529,21.6275 153.787029,21.6275 L156.532029,21.6275 C159.338029,21.6275 159.673529,20.926 160.070029,19.3095 L160.222529,18.6995 L161.107029,18.6995 L160.863029,23 L144.149029,23 Z M165.995451,22.085 C165.62945,22.39 165.26345,22.8475 165.110951,23.5185 L164.22645,23.5185 L164.22645,16.8085 L165.141451,16.8085 C165.72095,20.072 168.252451,22.146 170.75345,22.146 C172.52245,22.146 173.80345,21.1395 173.80345,19.1265 C173.80345,18.0285 172.97995,16.778 171.54645,16.046 L168.64895,14.521 C166.05645,13.2095 164.50095,11.776 164.50095,8.7565 C164.50095,6.2555 166.84945,4.1815 169.807951,4.1815 C171.607451,4.1815 172.61395,4.761 173.528951,5.432 C173.89495,5.127 174.260951,4.6695 174.413451,4.029 L175.26745,4.029 L175.26745,10.739 L174.38295,10.739 C174.16945,8.299 173.19345,5.5235 169.99095,5.5235 C168.740451,5.5235 167.520451,6.4385 167.520451,7.9635 C167.520451,8.8785 168.343951,10.251 169.96045,11.0745 L172.88845,12.569 C175.05395,13.6975 176.82295,15.558 176.82295,17.9675 C176.82295,21.292 173.89495,23.5185 170.75345,23.5185 C168.435451,23.5185 166.971451,22.2985 165.995451,22.085 Z M182.290872,22.085 C181.924872,22.39 181.558872,22.8475 181.406372,23.5185 L180.521872,23.5185 L180.521872,16.8085 L181.436872,16.8085 C182.016372,20.072 184.547872,22.146 187.048872,22.146 C188.817872,22.146 190.098872,21.1395 190.098872,19.1265 C190.098872,18.0285 189.275372,16.778 187.841872,16.046 L184.944372,14.521 C182.351872,13.2095 180.796372,11.776 180.796372,8.7565 C180.796372,6.2555 183.144872,4.1815 186.103372,4.1815 C187.902872,4.1815 188.909372,4.761 189.824372,5.432 C190.190372,5.127 190.556372,4.6695 190.708872,4.029 L191.562872,4.029 L191.562872,10.739 L190.678372,10.739 C190.464872,8.299 189.488872,5.5235 186.286372,5.5235 C185.035872,5.5235 183.815872,6.4385 183.815872,7.9635 C183.815872,8.8785 184.639372,10.251 186.255872,11.0745 L189.183872,12.569 C191.349372,13.6975 193.118372,15.558 193.118372,17.9675 C193.118372,21.292 190.190372,23.5185 187.048872,23.5185 C184.730872,23.5185 183.266872,22.2985 182.290872,22.085 Z M205.235293,23 L195.597293,23 L195.597293,22.1155 C198.128794,22.1155 198.494793,21.597 198.494793,18.547 L198.494793,9.153 C198.494793,6.103 198.128794,5.5845 195.597293,5.5845 L195.597293,4.7 L205.235293,4.7 L205.235293,5.5845 C202.703793,5.5845 202.307293,6.103 202.307293,9.153 L202.307293,18.547 C202.307293,21.597 202.703793,22.1155 205.235293,22.1155 L205.235293,23 Z M113.622186,0.2 C118.334186,0.2 121.298186,3.088 121.298186,6.622 C121.298186,10.156 118.334186,13.006 113.622186,13.006 L109.252186,13.006 L109.252186,17.452 C109.252186,21.252 109.746186,21.898 112.900186,21.898 L112.900186,23 L100.892186,23 L100.892186,21.898 C104.046186,21.898 104.502186,21.252 104.502186,17.452 L104.502186,5.748 C104.502186,1.948 104.046186,1.302 100.892186,1.302 L100.892186,0.2 L113.622186,0.2 Z M111.342186,11.296 C114.648186,11.296 116.206186,9.206 116.206186,6.622 C116.206186,4.038 114.648186,1.91 111.342186,1.91 L109.252186,1.91 L109.252186,11.296 L111.342186,11.296 Z"/>
  </g>
</svg>
