<svg xmlns="http://www.w3.org/2000/svg" width="78" height="57" viewBox="0 0 78 57">
  <path fill="#FFF" fill-rule="evenodd" d="M81.3,0 L18.7,0 C14.4,0 11,3.5 11,7.7 L11,49.2 C11,53.5 14.5,56.89999 18.7,56.89999 L81.2,56.89999 C85.5,56.89999 88.89999,53.39999 88.89999,49.2 L88.89999,7.7 C89,3.5 85.5,0 81.3,0 Z M81.5,13.8 L66.1,29.3 C66.1,29.3 66.1,29.3 66.1,29.3 L78.5,41.7 C79.3,42.5 79.3,43.7 78.5,44.5 C78.1,44.9 77.6,45.1 77.1,45.1 C76.6,45.1 76.1,44.9 75.7,44.5 L63.2,32.1 C63.2,32.1 63.2,32.1 63.2,32.1 L55.6,39.7 C54.1,41.3 52,42 50,42 C48,42 45.9,41.2 44.4,39.7 L36.9,31.9 L23.4,45.5 C23,45.8 22.5,46 22,46 C21.5,46 21,45.8 20.6,45.4 C19.8,44.6 19.8,43.4 20.6,42.6 L34.1,29.1 C34.1,29.1 34.1,29.1 34.1,29.1 L18.5,12.9 C17.7,12.1 17.8,10.8 18.6,10.1 C19.4,9.3 20.7,9.4 21.4,10.2 L47.2,37 C48.7,38.5 51.2,38.5 52.7,37 L78.7,11 C79.5,10.2 80.7,10.2 81.5,11 C82.3,11.8 82.3,13 81.5,13.8 Z" transform="translate(-11)"/>
</svg>
