<svg xmlns="http://www.w3.org/2000/svg" width="16" height="12" viewBox="0 0 16 12">
  <path fill-rule="evenodd" d="M14.4386386,0 L1.5814725,0 C0.698312534,0 0,0.718851138 0,1.5814725 L0,10.1049931 C0,10.9881531 0.718851138,11.6864636 1.5814725,11.6864636 L14.4181,11.6864636 C15.3012599,11.6864636 15.9995704,10.9676125 15.9995704,10.1049931 L15.9995704,1.5814725 C16.0201111,0.718851138 15.3012599,0 14.4386386,0 Z M14.4797158,2.83432734 L11.3167708,6.01781096 C11.3167708,6.01781096 11.3167708,6.01781096 11.3167708,6.01781096 L13.8635577,8.56459784 C14.0278665,8.72890668 14.0278665,8.97536992 13.8635577,9.13967875 C13.7814032,9.22183317 13.6787102,9.26291038 13.5760172,9.26291038 C13.4733242,9.26291038 13.3706312,9.22183317 13.2884768,9.13967875 L10.7211513,6.59289187 C10.7211513,6.59289187 10.7211513,6.59289187 10.7211513,6.59289187 L9.16021736,8.15382577 C8.8521383,8.48244343 8.42082762,8.62621366 8.01005554,8.62621366 C7.59928346,8.62621366 7.16797278,8.46190482 6.85989372,8.15382577 L5.31949842,6.55181466 L2.54678689,9.34506479 C2.46463247,9.40668061 2.36193945,9.44775781 2.25924643,9.44775781 C2.15655341,9.44775781 2.05386039,9.40668061 1.97170598,9.32452619 C1.80739715,9.16021736 1.80739715,8.91375411 1.97170598,8.74944528 L4.74441751,5.97673375 C4.74441751,5.97673375 4.74441751,5.97673375 4.74441751,5.97673375 L1.5403953,2.64947991 C1.37608646,2.48517108 1.39662507,2.21816923 1.5609339,2.074399 C1.72524273,1.91009017 1.99224458,1.93062877 2.13601481,2.0949376 L7.43497463,7.59928346 C7.74305369,7.90736252 8.25651879,7.90736252 8.56459784,7.59928346 L13.9046349,2.25924643 C14.0689437,2.0949376 14.3154069,2.0949376 14.4797158,2.25924643 C14.6440246,2.42355527 14.6440246,2.67001851 14.4797158,2.83432734 Z"/>
</svg>
