<svg xmlns="http://www.w3.org/2000/svg" width="16" height="18" viewBox="0 0 16 18">
  <g fill="#E0C3FC" fill-rule="evenodd">
    <path d="M11.6445333,11.2708 C11.2958667,11.7148 10.9532,12.1041333 10.6385333,12.4374667 C13.2878667,12.8608 14.6665333,13.8381333 14.6665333,14.2354667 C14.6665333,14.7494667 12.3745333,16.2354667 7.99986667,16.2354667 C3.62586667,16.2354667 1.3332,14.7494667 1.3332,14.2354667 C1.3332,13.8228 2.81653333,12.7841333 5.6672,12.3908 C5.3512,12.0521333 5.00786667,11.6574667 4.65853333,11.2094667 C1.9112,11.7374667 -0.000133333333,12.8921333 -0.000133333333,14.2354667 C-0.000133333333,16.0768 3.58186667,17.5688 7.99986667,17.5688 C12.4178667,17.5688 15.9998667,16.0768 15.9998667,14.2354667 C15.9998667,12.9421333 14.2285333,11.8234667 11.6445333,11.2708"/>
    <path d="M6.4108,4.4108 C6.4108,3.4368 7.2008,2.6468 8.1748,2.6468 C9.14946667,2.6468 9.93946667,3.4368 9.93946667,4.4108 C9.93946667,5.3848 9.14946667,6.1748 8.1748,6.1748 C7.2008,6.1748 6.4108,5.3848 6.4108,4.4108 M8.1748,12.3501333 C8.1748,12.3501333 12.5861333,8.82146667 12.5861333,4.4108 C12.5861333,1.9748 10.6114667,0.000133333333 8.1748,0.000133333333 C5.7388,0.000133333333 3.76413333,1.9748 3.76413333,4.4108 C3.76413333,8.82146667 8.1748,12.3501333 8.1748,12.3501333"/>
  </g>
</svg>
