<svg xmlns="http://www.w3.org/2000/svg" width="21" height="15" viewBox="0 0 21 15">
  <g fill="#E0C3FC" fill-rule="evenodd">
    <path d="M8.73365217,7.18663043 C8.35930435,8.04358696 7.54343478,8.75902174 6.75104348,8.75902174 C5.78386957,8.75902174 5.08017391,8.05141304 4.70647826,7.19576087 C2.52821739,8.32402174 2.80213043,11.1772826 2.80213043,11.1772826 C2.80213043,11.568587 3.10995652,11.6246739 3.47256522,11.6246739 L6.75104348,11.6246739 L10.0243043,11.6246739 C10.3862609,11.6246739 10.6953913,11.568587 10.6953913,11.1772826 C10.6953913,11.1772826 10.9125652,8.31554348 8.73365217,7.18663043"/>
    <path d="M6.75104348,8.29486957 C7.84147826,8.29486957 8.70886957,6.73356522 8.70886957,5.44421739 C8.70886957,4.15356522 7.82386957,3.10747826 6.73278261,3.10747826 C5.64104348,3.10747826 4.758,4.15356522 4.758,5.44421739 C4.758,6.73356522 5.65865217,8.29486957 6.75104348,8.29486957"/>
    <path d="M19.5652174,13.0434783 C19.5652174,13.4034783 19.2730435,13.6956522 18.9130435,13.6956522 L1.95652174,13.6956522 C1.59652174,13.6956522 1.30434783,13.4034783 1.30434783,13.0434783 L1.30434783,1.95652174 C1.30434783,1.59652174 1.59652174,1.30434783 1.95652174,1.30434783 L18.9130435,1.30434783 C19.2730435,1.30434783 19.5652174,1.59652174 19.5652174,1.95652174 L19.5652174,13.0434783 Z M18.9130435,0 L1.95652174,0 C0.875869565,0 0,0.875869565 0,1.95652174 L0,13.0434783 C0,14.1241304 0.875869565,15 1.95652174,15 L18.9130435,15 C19.9936957,15 20.8695652,14.1241304 20.8695652,13.0434783 L20.8695652,1.95652174 C20.8695652,0.875869565 19.9936957,0 18.9130435,0 L18.9130435,0 Z"/>
    <path d="M17.6086957 3.91304348L12.3913043 3.91304348C12.0306522 3.91304348 11.7391304 4.20456522 11.7391304 4.56521739 11.7391304 4.92586957 12.0306522 5.2173913 12.3913043 5.2173913L17.6086957 5.2173913C17.9693478 5.2173913 18.2608696 4.92586957 18.2608696 4.56521739 18.2608696 4.20456522 17.9693478 3.91304348 17.6086957 3.91304348M17.6086957 6.52173913L12.3913043 6.52173913C12.0306522 6.52173913 11.7391304 6.81326087 11.7391304 7.17391304 11.7391304 7.53456522 12.0306522 7.82608696 12.3913043 7.82608696L17.6086957 7.82608696C17.9693478 7.82608696 18.2608696 7.53456522 18.2608696 7.17391304 18.2608696 6.81326087 17.9693478 6.52173913 17.6086957 6.52173913M17.6086957 9.13043478L12.3913043 9.13043478C12.0306522 9.13043478 11.7391304 9.42195652 11.7391304 9.7826087 11.7391304 10.1432609 12.0306522 10.4347826 12.3913043 10.4347826L17.6086957 10.4347826C17.9693478 10.4347826 18.2608696 10.1432609 18.2608696 9.7826087 18.2608696 9.42195652 17.9693478 9.13043478 17.6086957 9.13043478"/>
  </g>
</svg>
