<svg xmlns="http://www.w3.org/2000/svg" xmlns:xlink="http://www.w3.org/1999/xlink" width="18" height="18" viewBox="0 0 18 18">
  <defs>
    <polygon id="my-door-a" points="0 .029 0 16.875 8.437 16.875 8.437 .029"/>
    <polygon id="my-door-c" points="8.438 .543 0 .543 0 7.856 8.438 7.856"/>
  </defs>
  <g fill="none" fill-rule="evenodd">
    <g transform="translate(0 .582)">
      <mask id="my-door-b" fill="#fff">
        <use xlink:href="#my-door-a"/>
      </mask>
      <path fill="#E0C3FC" d="M7.94401875,1.5327 L0.49483125,0.037575 C0.36658125,0.0122625 0.24733125,0.0448875 0.14608125,0.1281375 C0.04426875,0.210825 -0.00016875,0.334575 -0.00016875,0.465075 L-0.00016875,14.757075 C-0.00016875,15.0822 0.22933125,15.3617625 0.54826875,15.425325 L7.72970625,16.86195 C7.93051875,16.9018875 8.08351875,16.849575 8.24214375,16.7202 C8.40020625,16.5902625 8.43733125,16.397325 8.43733125,16.192575 L8.43733125,2.2015125 C8.43733125,1.8763875 8.26295625,1.5962625 7.94401875,1.5327" mask="url(#my-door-b)"/>
    </g>
    <g transform="translate(4.5 .02)">
      <mask id="my-door-d" fill="#fff">
        <use xlink:href="#my-door-c"/>
      </mask>
      <path fill="#E0C3FC" d="M7.3125,7.8557625 L8.4375,7.8557625 L8.4375,1.6682625 C8.4375,1.0472625 7.9335,0.5432625 7.3125,0.5432625 L0,0.5432625 L4.5,1.6682625 L7.3125,1.6682625 L7.3125,7.8557625 Z" mask="url(#my-door-d)"/>
    </g>
    <path fill="#E0C3FC" d="M11.8125,14.625 L9.5625,14.625 L9.5625,15.75 L11.8125,15.75 C12.4335,15.75 12.9375,15.246 12.9375,14.625 L12.9375,12.375 L11.8125,12.375 L11.8125,14.625 Z"/>
    <path fill="#E0C3FC" d="M17.4375,10.125 L14.0625,7.3125 L14.0625,9 L10.6875,9 C10.3764375,9 10.125,9.2514375 10.125,9.5625 L10.125,10.6875 C10.125,10.9985625 10.3764375,11.25 10.6875,11.25 L14.0625,11.25 L14.0625,12.9375 L17.4375,10.125 Z"/>
  </g>
</svg>
