<svg xmlns="http://www.w3.org/2000/svg" width="17" height="20" viewBox="0 0 17 20">
  <path fill="#E0C3FC" fill-rule="evenodd" d="M19.6551724,24.9310345 C19.6551724,25.3117241 19.3462069,25.6206897 18.9655172,25.6206897 L12.0689655,25.6206897 C11.6882759,25.6206897 11.3793103,25.3117241 11.3793103,24.9310345 L11.3793103,15.2758621 L14.8275862,12.6896552 L14.8275862,15.4668966 C14.4165517,15.7062069 14.137931,16.1462069 14.137931,16.6551724 C14.137931,17.4165517 14.7558621,18.0344828 15.5172414,18.0344828 C16.2786207,18.0344828 16.8965517,17.4165517 16.8965517,16.6551724 C16.8965517,16.1462069 16.617931,15.7062069 16.2068966,15.4668966 L16.2068966,12.6896552 L19.6551724,15.2758621 L19.6551724,24.9310345 Z M26.0613793,21.8062069 L22.1827586,12.2158621 L16.2068966,10.6324138 L16.2068966,7.68965517 C16.2068966,7.30827586 15.8986207,7 15.5172414,7 C15.1358621,7 14.8275862,7.30827586 14.8275862,7.68965517 L14.8275862,10.9655172 L10,14.5862069 L10,24.9310345 C10,26.0737931 10.9262069,27 12.0689655,27 L18.9655172,27 C19.5910345,27 20.1448276,26.7165517 20.5248276,26.277931 L24.9193103,24.5 C25.9786207,24.0717241 26.4896552,22.8655172 26.0613793,21.8062069 L26.0613793,21.8062069 Z" transform="translate(-10 -7)"/>
</svg>
