<svg xmlns="http://www.w3.org/2000/svg" width="216" height="59" viewBox="0 0 216 59">
  <g fill="none" fill-rule="evenodd">
    <path fill="#404137" d="M109.105967,0.366547578 C108.956818,0.368379876 108.805957,0.404193975 108.672849,0.482744596 C108.407082,0.639724907 108.239727,0.92802236 108.239727,1.23803988 L108.239727,23.4610825 C108.239727,23.6794411 108.138663,23.8745625 107.950983,23.9840717 C107.76283,24.0938557 107.533229,24.0938557 107.344617,23.9840717 L103.735293,21.892485 C103.197533,21.5805143 102.540697,21.5807012 102.002816,21.892485 L87.5943962,30.2588243 C87.0557112,30.5714473 86.7281561,31.1728919 86.7281561,31.7984165 L86.7281561,48.531095 C86.7281561,49.1561505 87.0561738,49.7285018 87.5943962,50.0416819 L102.002816,58.4080211 C102.541502,58.7207358 103.196608,58.7207358 103.735293,58.4080211 L118.143713,50.0416819 C118.681936,49.7285018 119.009953,49.1561505 119.009953,48.531095 L119.009953,6.81559938 C119.009953,6.18103056 118.665767,5.58551534 118.114839,5.27595957 L109.539086,0.453695342 C109.404415,0.378120373 109.255117,0.364920497 109.105967,0.366595217 L109.105967,0.366547578 Z M16.4185242,21.2532988 C16.1437562,21.2644392 15.8856125,21.3127899 15.6389099,21.4566912 L1.23048607,29.8230305 C0.693604047,30.1352798 0.364249578,30.7040068 0.364249578,31.3336211 L0.39306172,53.7890577 C0.39306172,54.1014022 0.553225902,54.391433 0.826183609,54.5444446 C1.09372128,54.7055439 1.42578577,54.7055439 1.6924201,54.5444446 L10.2392997,49.6058881 C10.7807021,49.2822969 11.1344103,48.7194296 11.1344103,48.0953012 L11.1344103,37.6083737 C11.1344103,36.9828491 11.4614845,36.4087351 12.0006504,36.0977831 L15.638848,33.9771985 C15.9103888,33.8192581 16.2019087,33.7447971 16.5050845,33.7447971 C16.802039,33.7447971 17.1072947,33.8191665 17.3713247,33.9771985 L21.0095223,36.0977831 C21.5486699,36.4087351 21.8757588,36.9828491 21.8757588,37.6083737 L21.8757588,48.0953012 C21.8757588,48.7194296 22.2330002,49.2859248 22.770873,49.6058881 L31.3177526,54.5444446 C31.5861717,54.7055439 31.91777,54.7055439 32.1839891,54.5444446 C32.4492939,54.391433 32.6171073,54.1014022 32.6171073,53.7890577 L32.6459195,31.3336211 C32.6459195,30.7040068 32.3202148,30.1352798 31.779683,29.8230305 L17.3712919,21.4566912 C17.1275907,21.3127899 16.8683033,21.2646371 16.5916776,21.2532988 L16.4184295,21.2532988 L16.4185242,21.2532988 Z M145.892199,21.4566912 C145.591183,21.4563248 145.296225,21.5329185 145.025959,21.6890889 L130.617538,30.0554282 C130.079316,30.3681429 129.751302,30.9404942 129.751302,31.5660188 L129.751302,48.2986936 C129.751302,48.9278425 130.103571,49.4983358 130.646413,49.8092842 L144.939337,58.0013242 C145.467163,58.3045586 146.111645,58.3272388 146.642935,58.030128 L155.305315,53.1787668 C155.5802,53.0253815 155.766153,52.7388834 155.767307,52.4234716 C155.769128,52.1079681 155.60561,51.8251859 155.334189,51.6681763 L140.839143,43.301837 C140.567722,43.146132 140.377151,42.8306286 140.377151,42.5174485 L140.377151,37.2884874 C140.377151,36.9758643 140.570032,36.6893625 140.839143,36.5332837 L145.343581,33.9187116 C145.611537,33.7627243 145.940706,33.7627243 146.209817,33.9187116 L150.714255,36.5332837 C150.983366,36.6893625 151.147373,36.9758643 151.147373,37.2884874 L151.147373,41.4136501 C151.147373,41.7267349 151.31138,42.0127713 151.580491,42.1688501 C151.850757,42.3253943 152.17762,42.326043 152.446732,42.1688501 L161.080233,37.1142798 C161.616147,36.8010998 161.94647,36.2272606 161.94647,35.6036929 L161.94647,31.5657256 C161.94647,30.9420589 161.617301,30.3683151 161.080233,30.055135 L146.758435,21.6887958 C146.488741,21.5315113 146.193215,21.4567719 145.892199,21.4563981 L145.892199,21.4566912 Z M102.811305,33.9481016 C102.886424,33.9481016 102.974849,33.9666811 103.042301,34.0057347 L107.979857,36.8817099 C108.113835,36.9597951 108.210853,37.1036048 108.210853,37.2593099 L108.210853,43.0111686 C108.210853,43.167339 108.11476,43.3112404 107.979857,43.3888639 L103.042301,46.2647437 C102.90786,46.3419018 102.743624,46.3419018 102.609183,46.2647437 L97.6716267,43.3888639 C97.5371858,43.3107786 97.4406306,43.167339 97.4406306,43.0111686 L97.4406306,37.2593099 C97.4406306,37.1036048 97.5376484,36.9601689 97.6716267,36.8817099 L102.609183,34.0062001 C102.676634,33.9671575 102.736175,33.948567 102.811305,33.948567 L102.811305,33.9481016 Z"/>
    <path fill="#83CD29" d="M189.059715,21.0499943 C188.56018,21.0499943 188.074515,21.1539223 187.64486,21.3985927 L174.044925,29.3001329 C173.164829,29.8099222 172.63007,30.7735388 172.63007,31.7984165 L172.63007,47.5724952 C172.63007,48.5968158 173.164829,49.5593147 174.044925,50.0706871 L177.5965,52.1332685 C179.322045,52.9888638 179.958444,52.9756639 180.743832,52.9756639 C183.298656,52.9756639 184.757399,51.416085 184.757399,48.7053905 L184.757399,33.1347078 C184.757399,32.9145792 184.567982,32.7570125 184.353155,32.7570125 L182.649556,32.7570125 C182.431262,32.7570125 182.245308,32.9145792 182.245308,33.1347078 L182.245308,48.7053905 C182.245308,49.9068907 181.001393,51.1151777 178.982481,50.0997804 L175.286535,47.9210936 C175.156021,47.8495167 175.055535,47.7231834 175.055535,47.5724952 L175.055535,31.7984165 C175.055535,31.6486591 175.154866,31.4965783 175.286535,31.4208165 L188.857593,23.5482779 C188.98464,23.4748394 189.135942,23.4748394 189.261837,23.5482779 L202.832895,31.4208165 C202.962255,31.4989017 203.063891,31.644104 203.063891,31.7984165 L203.063891,47.5724952 C203.063891,47.7231834 202.988772,47.8774959 202.861769,47.9500989 L189.261837,55.8226375 C189.145183,55.8923564 188.98464,55.8923564 188.857593,55.8226375 L185.363766,53.7310508 C185.259816,53.6696981 185.117755,53.6743448 185.01727,53.7310508 C184.052861,54.281092 183.871526,54.3450466 182.967175,54.6606453 C182.744265,54.7387305 182.405851,54.8602302 183.082675,55.2416414 L187.64486,57.9432257 C188.079133,58.1960719 188.563072,58.3208257 189.059715,58.3208257 C189.563286,58.3208257 190.040297,58.1960719 190.47457,57.9432257 L204.074502,50.0706871 C204.954601,49.5556904 205.489356,48.5968158 205.489356,47.5724952 L205.489356,31.7984165 C205.489356,30.7735388 204.954601,29.8120624 204.074502,29.3001329 L190.47457,21.3985927 C190.048379,21.1539223 189.559251,21.0499943 189.059715,21.0499943 L189.059715,21.0499943 Z M59.7015367,21.3694958 C59.4012967,21.3694958 59.104182,21.4457231 58.8353002,21.6018935 L44.42688,29.9392312 C43.8881949,30.251572 43.5606399,30.8538558 43.5606399,31.4788234 L43.5606399,48.2114982 C43.5606399,48.8372097 43.8885446,49.4090956 44.42688,49.7220888 L58.8353002,58.088428 C59.3739853,58.4014212 60.0290918,58.4014212 60.5677769,58.088428 L74.9761971,49.7220888 C75.513957,49.4090956 75.8424372,48.8372097 75.8424372,48.2114982 L75.8424372,31.4788234 C75.8424372,30.8529286 75.5148822,30.251572 74.9761971,29.9392312 L60.5677769,21.6018935 C60.2988951,21.4457231 60.0017767,21.3694958 59.7015367,21.3694958 Z M209.243054,21.4568781 L209.243054,21.863575 L210.369164,21.863575 L210.369164,24.8556556 L210.831156,24.8556556 L210.831156,21.863575 L211.986141,21.863575 L211.986141,21.4568781 L209.243054,21.4568781 L209.243054,21.4568781 Z M212.390385,21.4568781 L212.390385,24.8556556 L212.823503,24.8556556 L212.823503,22.851268 C212.823503,22.7694632 212.827182,22.6429467 212.823503,22.473668 C212.817967,22.3012268 212.823503,22.1509124 212.823503,22.0668758 L212.823503,21.9794972 L213.776366,24.8553771 L214.238358,24.8553771 L215.220094,21.9794972 C215.220094,22.1624412 215.195799,22.3390637 215.191282,22.5023911 C215.189461,22.6613503 215.191282,22.7807135 215.191282,22.8509895 L215.191282,24.8553771 L215.6244,24.8553771 L215.6244,21.4565996 L214.98916,21.4565996 L214.007424,24.3325748 L213.054561,21.4565996 L212.390447,21.4565996 L212.390385,21.4568781 Z M192.697913,32.3214973 C188.825251,32.3214973 186.51875,33.9796135 186.51875,36.7370646 C186.51875,39.7284049 188.807928,40.5502566 192.524665,40.9202342 C196.971354,41.3581681 197.317847,42.0150177 197.317847,42.8956202 C197.317847,44.4230349 196.107424,45.074307 193.246531,45.074307 C189.652222,45.074307 188.862212,44.1715813 188.597719,42.3727263 C188.566576,42.1798329 188.418698,42.0241279 188.222353,42.0241279 L186.461002,42.0241279 C186.243865,42.0241279 186.056758,42.2119971 186.056758,42.4308248 C186.056758,44.7334262 187.301828,47.4564851 193.246531,47.4564851 C197.550001,47.4564851 200.03206,45.7570029 200.03206,42.7794232 C200.03206,39.8275909 198.027008,39.0352978 193.852897,38.4800529 C189.634894,37.9185781 189.232963,37.643792 189.232963,36.6499645 C189.232963,35.829597 189.573682,34.7325854 192.697913,34.7325854 C195.488352,34.7325854 196.519754,35.338028 196.942477,37.2309606 C196.979437,37.408884 197.135361,37.5504584 197.317847,37.5504584 L199.079197,37.5504584 C199.187766,37.5504584 199.29287,37.4835282 199.367945,37.4051645 C199.441863,37.3215017 199.493837,37.227241 199.483442,37.1147599 C199.210866,33.854768 197.04989,32.3214973 192.697913,32.3214973 L192.697913,32.3214973 Z M145.863325,36.3013661 C145.805759,36.3013661 145.742052,36.3013661 145.690077,36.3301698 L142.918116,37.9569574 C142.814166,38.0164521 142.744868,38.1271632 142.744868,38.2474536 L142.744868,41.4429302 C142.744868,41.5632206 142.814166,41.67347 142.918116,41.7334301 L145.690077,43.3311208 C145.794023,43.3915427 145.904904,43.3915427 146.007695,43.3311208 L148.779656,41.7334301 C148.882451,41.6739354 148.952904,41.5632206 148.952904,41.4429302 L148.952904,38.2474536 C148.952904,38.1271632 148.882498,38.0168222 148.779656,37.9569574 L146.007695,36.3301698 C145.956321,36.2994971 145.920935,36.3013661 145.863325,36.3013661 Z"/>
  </g>
</svg>
