<svg xmlns="http://www.w3.org/2000/svg" width="14" height="14" viewBox="0 0 14 14">
  <path d="M7.50795469,13.4068983 C8.17309405,13.7950872 8.93190786,14.0002545 9.7021764,14.0002545 C10.8652157,14.0002545 11.9590174,13.5474099 12.7817233,12.724704 C13.5672648,11.938908 14,10.8939799 14,9.78286879 L14,9.54562809 C14,9.28038688 13.8355606,9.04289172 13.5871197,8.94972633 L10.1932035,7.67697594 C9.95901745,7.58915617 9.69606721,7.64642993 9.519664,7.82283314 L8.62237495,8.72012218 C7.32976963,7.79152347 6.20847652,6.67023037 5.27987781,5.37762504 L6.17716685,4.480336 C6.35357006,4.3039328 6.41058928,4.04047346 6.32302405,3.80679648 L5.05027364,0.412880234 C4.95710831,0.164439354 4.71961308,0 4.45437189,0 L4.21713122,0 C3.10602011,0 2.06109202,0.432735141 1.27529592,1.21853125 C1.27529592,1.21853125 1.27529592,1.21853125 1.27529592,1.21853125 C0.452844597,2.04098256 0,3.13478426 0,4.29782359 C0,5.06809214 0.205167366,5.82690594 0.593101693,6.4920453 C2.25964108,9.34936998 4.65063001,11.7403589 7.50795469,13.4068983 Z"/>
</svg>
