<svg xmlns="http://www.w3.org/2000/svg" width="175" height="110" viewBox="0 0 175 110">
  <g fill="none" fill-rule="evenodd">
    <path fill="#E0C3FC" fill-rule="nonzero" d="M31.311073,60.7374108 L76.7837631,107.385056 C82.0596001,112.873014 91.3551223,109.131224 91.3551223,101.647645 L91.3551223,77.4507381 L126.527369,77.4507381 C139.088885,77.4507381 149.138099,67.4726323 149.138099,55 C149.138099,42.5273677 139.088885,32.5492619 126.527369,32.5492619 L91.3551223,32.5492619 L91.3551223,8.35235527 C91.3551223,0.868775905 82.0596001,-2.87301378 76.7837631,2.61494442 L31.311073,49.2625892 C28.296309,52.5054735 28.296309,57.4945265 31.311073,60.7374108 Z"/>
    <path fill="#EFDEFF" d="M107.719966 72.6L160.94946 72.6C162.792411 72.6 164.286376 71.0130404 164.286376 69.0555556L164.286376 69.0555556C164.286376 67.0980707 162.792411 65.5111111 160.94946 65.5111111L107.719966 65.5111111C105.877189 65.5111111 104.383051 67.0980707 104.383051 69.0555556L104.383051 69.0555556C104.383051 71.0130404 105.877189 72.6 107.719966 72.6M88.0250509 106.333333L141.254545 106.333333C143.097496 106.333333 144.59146 104.965265 144.59146 103.277778L144.59146 103.277778C144.59146 101.590291 143.097496 100.222222 141.254545 100.222222L88.0250509 100.222222C86.1822742 100.222222 84.6881356 101.590291 84.6881356 103.277778L84.6881356 103.277778C84.6881356 104.965265 86.1822742 106.333333 88.0250509 106.333333"/>
    <path fill="#E0C3FC" d="M143.744785,7.18667263 L82.524229,7.18667263 C81.3022142,7.18667263 80.3115229,5.59986294 80.3115229,3.64222819 C80.3115229,1.68459344 81.3022142,0.0977837457 82.524229,0.0977837457 L143.744785,0.0977837457 C144.9668,0.0977837457 145.957334,1.68459344 145.957334,3.64222819 C145.957334,5.59986294 144.9668,7.18667263 143.744785,7.18667263"/>
    <path fill="#EFDEFF" d="M97.7300874,13.2107393 L142.637405,13.2107393 C143.830563,13.2107393 144.797887,12.2497615 144.797887,11.0642751 C144.797887,9.87878872 143.830563,8.91781091 142.637405,8.91781091 L97.7300874,8.91781091 C96.5369293,8.91781091 95.5694486,9.87878872 95.5694486,11.0642751 C95.5694486,12.2497615 96.5369293,13.2107393 97.7300874,13.2107393"/>
    <path fill="#E0C3FC" d="M28.3509833,15.7196618 L67.0649505,15.7196618 C68.4419128,15.7196618 69.5580677,14.6108293 69.5580677,13.2430562 C69.5580677,11.8751274 68.4419128,10.7662949 67.0649505,10.7662949 L28.3509833,10.7662949 C26.9741779,10.7662949 25.858023,11.8751274 25.858023,13.2430562 C25.858023,14.6108293 26.9741779,15.7196618 28.3509833,15.7196618"/>
    <path fill="#EFDEFF" d="M85.9602373,19.6957698 L28.7675312,19.6957698 C27.6623543,19.6957698 26.7663879,18.8056812 26.7663879,17.7077547 C26.7663879,16.6096725 27.6623543,15.7195839 28.7675312,15.7195839 L85.9602373,15.7195839 C87.0654142,15.7195839 87.9613806,16.6096725 87.9613806,17.7077547 C87.9613806,18.8056812 87.0654142,19.6957698 85.9602373,19.6957698"/>
    <path fill="#E0C3FC" d="M8.56298545 31.0175076L54.8173107 31.0175076C56.6054796 31.0175076 58.0550539 29.5774431 58.0550539 27.8010053 58.0550539 26.0247232 56.6054796 24.5846587 54.8173107 24.5846587L8.56298545 24.5846587C6.77481652 24.5846587 5.32524228 26.0247232 5.32524228 27.8010053 5.32524228 29.5774431 6.77481652 31.0175076 8.56298545 31.0175076M171.3073 32.8914221L89.5526597 32.8914221C87.8998697 32.8914221 86.5599597 31.3775082 86.5599597 29.5100828 86.5599597 27.6425016 87.8998697 26.1285876 89.5526597 26.1285876L171.3073 26.1285876C172.96009 26.1285876 174.3 27.6425016 174.3 29.5100828 174.3 31.3775082 172.96009 32.8914221 171.3073 32.8914221"/>
    <path fill="#EFDEFF" d="M109.084599,39.8488827 L153.836028,39.8488827 C155.769892,39.8488827 157.337716,38.2913446 157.337716,36.370168 C157.337716,34.4488356 155.769892,32.8914533 153.836028,32.8914533 L109.084599,32.8914533 C107.150579,32.8914533 105.582912,34.4488356 105.582912,36.370168 C105.582912,38.2913446 107.150579,39.8488827 109.084599,39.8488827"/>
    <path fill="#E0C3FC" d="M164.604344,45.1825432 L111.768986,45.1825432 C110.28632,45.1825432 109.084537,43.9884878 109.084537,42.5157052 C109.084537,41.0429226 110.28632,39.8488672 111.768986,39.8488672 L164.604344,39.8488672 C166.087009,39.8488672 167.288793,41.0429226 167.288793,42.5157052 C167.288793,43.9884878 166.087009,45.1825432 164.604344,45.1825432"/>
    <path fill="#EFDEFF" d="M55.8142622,48.8937591 L3.19330286,48.8937591 C1.65150277,48.8937591 0.401654611,47.4364007 0.401654611,45.6386182 C0.401654611,43.8408356 1.65150277,42.3834772 3.19330286,42.3834772 L55.8142622,42.3834772 C57.3560623,42.3834772 58.6059104,43.8408356 58.6059104,45.6386182 C58.6059104,47.4364007 57.3560623,48.8937591 55.8142622,48.8937591"/>
    <path fill="#E0C3FC" d="M129.246431 97.9613901L87.154986 97.9613901C85.5510916 97.9613901 84.250819 96.6696477 84.250819 95.0761197 84.250819 93.4827474 85.5510916 92.191005 87.154986 92.191005L129.246431 92.191005C130.850483 92.191005 132.150755 93.4827474 132.150755 95.0761197 132.150755 96.6696477 130.850483 97.9613901 129.246431 97.9613901M5.984114 77.0602553L60.5344014 77.0602553C62.2595249 77.0602553 63.6581296 75.6709818 63.6581296 73.9570199 63.6581296 72.2432139 62.2595249 70.8537845 60.5344014 70.8537845L5.984114 70.8537845C4.25899048 70.8537845 2.8603858 72.2432139 2.8603858 73.9570199 2.8603858 75.6709818 4.25899048 77.0602553 5.984114 77.0602553"/>
    <path fill="#EFDEFF" d="M24.3087299,84.0181833 L53.6039932,84.0181833 C55.5380135,84.0181833 57.1058371,82.4606452 57.1058371,80.539157 C57.1058371,78.6178246 55.5380135,77.0602865 53.6039932,77.0602865 L24.3087299,77.0602865 C22.3747096,77.0602865 20.806886,78.6178246 20.806886,80.539157 C20.806886,82.4606452 22.3747096,84.0181833 24.3087299,84.0181833"/>
    <path fill="#FEFEFE" d="M55.9429651 15.1948944L34.5219496 15.1948944C34.2620833 15.1948944 34.0514614 14.9856542 34.0514614 14.7274927 34.0514614 14.4693312 34.2620833 14.2600911 34.5219496 14.2600911L55.9429651 14.2600911C56.2028314 14.2600911 56.4134533 14.4693312 56.4134533 14.7274927 56.4134533 14.9856542 56.2028314 15.1948944 55.9429651 15.1948944M49.1519066 17.3489461L34.5219183 17.3489461C34.2620519 17.3489461 34.05143 17.1397059 34.05143 16.8815444 34.05143 16.6233829 34.2620519 16.4141428 34.5219183 16.4141428L49.1519066 16.4141428C49.411773 16.4141428 49.6223949 16.6233829 49.6223949 16.8815444 49.6223949 17.1397059 49.411773 17.3489461 49.1519066 17.3489461M38.8927869 74.8707925L27.2472622 74.8707925C26.9873959 74.8707925 26.776774 74.6615524 26.776774 74.4033909 26.776774 74.1452294 26.9873959 73.9359892 27.2472622 73.9359892L38.8927869 73.9359892C39.1526532 73.9359892 39.3632751 74.1452294 39.3632751 74.4033909 39.3632751 74.6615524 39.1526532 74.8707925 38.8927869 74.8707925M57.9339282 66.5596814L46.2885603 66.5596814C46.028694 66.5596814 45.8180721 66.3504413 45.8180721 66.0922798 45.8180721 65.8341182 46.028694 65.6248781 46.2885603 65.6248781L57.9339282 65.6248781C58.1937945 65.6248781 58.4044164 65.8341182 58.4044164 66.0922798 58.4044164 66.3504413 58.1937945 66.5596814 57.9339282 66.5596814M54.8227684 64.6041259L51.5103744 64.6041259C51.2505081 64.6041259 51.0398862 64.3948857 51.0398862 64.1367242 51.0398862 63.8785627 51.2505081 63.6693225 51.5103744 63.6693225L54.8227684 63.6693225C55.0826347 63.6693225 55.2932566 63.8785627 55.2932566 64.1367242 55.2932566 64.3948857 55.0826347 64.6041259 54.8227684 64.6041259M43.0617831 71.4552082L27.2472622 71.4552082C26.9873959 71.4552082 26.776774 71.245968 26.776774 70.9878065 26.776774 70.729645 26.9873959 70.5204049 27.2472622 70.5204049L43.0617831 70.5204049C43.3216494 70.5204049 43.5322713 70.729645 43.5322713 70.9878065 43.5322713 71.245968 43.3216494 71.4552082 43.0617831 71.4552082M153.328024 33.7979773L138.698035 33.7979773C138.438169 33.7979773 138.227547 33.5887371 138.227547 33.3305756 138.227547 33.0724141 138.438169 32.8631739 138.698035 32.8631739L153.328024 32.8631739C153.58789 32.8631739 153.798512 33.0724141 153.798512 33.3305756 153.798512 33.5887371 153.58789 33.7979773 153.328024 33.7979773M114.203605 11.5316144L86.5577171 11.5316144C86.2978507 11.5316144 86.0872288 11.3223743 86.0872288 11.0642128 86.0872288 10.8060513 86.2978507 10.5968111 86.5577171 10.5968111L114.203605 10.5968111C114.463472 10.5968111 114.674094 10.8060513 114.674094 11.0642128 114.674094 11.3223743 114.463472 11.5316144 114.203605 11.5316144M75.252752 22.0668509L60.6227636 22.0668509C60.3628973 22.0668509 60.1522754 21.8576107 60.1522754 21.5994492 60.1522754 21.3412877 60.3628973 21.1320475 60.6227636 21.1320475L75.252752 21.1320475C75.5126183 21.1320475 75.7232402 21.3412877 75.7232402 21.5994492 75.7232402 21.8576107 75.5126183 22.0668509 75.252752 22.0668509M85.7361154 22.0668509L79.9901994 22.0668509C79.7303331 22.0668509 79.5197112 21.8576107 79.5197112 21.5994492 79.5197112 21.3412877 79.7303331 21.1320475 79.9901994 21.1320475L85.7361154 21.1320475C85.9959817 21.1320475 86.2066036 21.3412877 86.2066036 21.5994492 86.2066036 21.8576107 85.9959817 22.0668509 85.7361154 22.0668509M25.0150022 41.5933503L5.32538342 41.5933503C5.06551709 41.5933503 4.85489519 41.3841102 4.85489519 41.1259487 4.85489519 40.8677872 5.06551709 40.658547 5.32538342 40.658547L25.0150022 40.658547C25.2748685 40.658547 25.4854904 40.8677872 25.4854904 41.1259487 25.4854904 41.3841102 25.2748685 41.5933503 25.0150022 41.5933503M152.898502 41.5933503L126.94198 41.5933503C126.682114 41.5933503 126.471492 41.3841102 126.471492 41.1259487 126.471492 40.8677872 126.682114 40.658547 126.94198 40.658547L152.898502 40.658547C153.158369 40.658547 153.36899 40.8677872 153.36899 41.1259487 153.36899 41.3841102 153.158369 41.5933503 152.898502 41.5933503M142.625053 63.0236922L127.995065 63.0236922C127.735198 63.0236922 127.524576 62.8144521 127.524576 62.5562905 127.524576 62.298129 127.735198 62.0888889 127.995065 62.0888889L142.625053 62.0888889C142.884919 62.0888889 143.095541 62.298129 143.095541 62.5562905 143.095541 62.8144521 142.884919 63.0236922 142.625053 63.0236922M65.370001 6.94073697L50.7400127 6.94073697C50.4801463 6.94073697 50.2695244 6.73149682 50.2695244 6.47333531 50.2695244 6.2151738 50.4801463 6.00593366 50.7400127 6.00593366L65.370001 6.00593366C65.6298673 6.00593366 65.8404892 6.2151738 65.8404892 6.47333531 65.8404892 6.73149682 65.6298673 6.94073697 65.370001 6.94073697M65.370001 108.370542L50.7400127 108.370542C50.4801463 108.370542 50.2695244 108.161302 50.2695244 107.90314 50.2695244 107.644979 50.4801463 107.435738 50.7400127 107.435738L65.370001 107.435738C65.6298673 107.435738 65.8404892 107.644979 65.8404892 107.90314 65.8404892 108.161302 65.6298673 108.370542 65.370001 108.370542M75.6598613 108.370542L69.5181079 108.370542C69.2582416 108.370542 69.0476197 108.161302 69.0476197 107.90314 69.0476197 107.644979 69.2582416 107.435738 69.5181079 107.435738L75.6598613 107.435738C75.9197276 107.435738 76.1303495 107.644979 76.1303495 107.90314 76.1303495 108.161302 75.9197276 108.370542 75.6598613 108.370542M142.482382 61.0681366L125.5332 61.0681366C125.273334 61.0681366 125.062712 60.8588965 125.062712 60.600735 125.062712 60.3425735 125.273334 60.1333333 125.5332 60.1333333L142.482382 60.1333333C142.742248 60.1333333 142.95287 60.3425735 142.95287 60.600735 142.95287 60.8588965 142.742248 61.0681366 142.482382 61.0681366M47.4308897 92.5033104L30.4818648 92.5033104C30.2219985 92.5033104 30.0113766 92.2940702 30.0113766 92.0359087 30.0113766 91.7777472 30.2219985 91.5685071 30.4818648 91.5685071L47.4308897 91.5685071C47.690756 91.5685071 47.9013779 91.7777472 47.9013779 92.0359087 47.9013779 92.2940702 47.690756 92.5033104 47.4308897 92.5033104M54.4687478 90.3969087L37.519723 90.3969087C37.2598566 90.3969087 37.0492347 90.1876686 37.0492347 89.9295071 37.0492347 89.6713456 37.2598566 89.4621054 37.519723 89.4621054L54.4687478 89.4621054C54.7286141 89.4621054 54.939236 89.6713456 54.939236 89.9295071 54.939236 90.1876686 54.7286141 90.3969087 54.4687478 90.3969087M120.325445 76.7125811L103.37642 76.7125811C103.116554 76.7125811 102.905932 76.5033409 102.905932 76.2451794 102.905932 75.9870179 103.116554 75.7777778 103.37642 75.7777778L120.325445 75.7777778C120.585312 75.7777778 120.795934 75.9870179 120.795934 76.2451794 120.795934 76.5033409 120.585312 76.7125811 120.325445 76.7125811M147.3175 76.2236922L135.873031 76.2236922C135.613164 76.2236922 135.402542 76.0144521 135.402542 75.7562905 135.402542 75.498129 135.613164 75.2888889 135.873031 75.2888889L147.3175 75.2888889C147.577366 75.2888889 147.787988 75.498129 147.787988 75.7562905 147.787988 76.0144521 147.577366 76.2236922 147.3175 76.2236922M153.328024 36.8939056L135.16953 36.8939056C134.909664 36.8939056 134.699042 36.6846655 134.699042 36.4265039 134.699042 36.1683424 134.909664 35.9591023 135.16953 35.9591023L153.328024 35.9591023C153.58789 35.9591023 153.798512 36.1683424 153.798512 36.4265039 153.798512 36.6846655 153.58789 36.8939056 153.328024 36.8939056M52.4267086 19.5678108L34.5219653 19.5678108C34.262099 19.5678108 34.0514771 19.3585706 34.0514771 19.1004091 34.0514771 18.8422476 34.262099 18.6330075 34.5219653 18.6330075L52.4267086 18.6330075C52.6865749 18.6330075 52.8971968 18.8422476 52.8971968 19.1004091 52.8971968 19.3585706 52.6865749 19.5678108 52.4267086 19.5678108"/>
    <g fill="#FEFEFE" transform="translate(19.203 10.267)">
      <path d="M21.7090766 7.85109281C21.7090766 6.28077905 20.4276234 5.00773274 18.8469398 5.00773274 18.7697798 5.00773274 18.6937175 5.01162776 18.6182825 5.01754818 18.0361318 3.33646023 16.4314532 2.12822695 14.5416589 2.12822695 14.1655819 2.12822695 13.8009536 2.17621352 13.4532628 2.26611044 12.4887619 1.01721321 10.9722215.211412762 9.26544701.211412762 7.1713039.211412762 5.36211982 1.42354105 4.50990881 3.18003647 4.33959207 3.15682219 4.16598191 3.14389074 3.98923516 3.14389074 1.89038717 3.14389074.188944897 4.83417093.188944897 6.91924971.188944897 9.00432849 1.89038717 10.6946087 3.98923516 10.6946087L18.8659162 10.6946087 18.8659162 10.6941413C20.4378174 10.6838584 21.7090766 9.41517455 21.7090766 7.85109281M118.661864 50.6619023C118.661864 49.0915885 119.943318 47.8185422 121.524158 47.8185422 121.601161 47.8185422 121.677223 47.8222814 121.752658 47.8283576 122.334809 46.1472697 123.939488 44.9390364 125.829282 44.9390364 126.205359 44.9390364 126.569987 44.987023 126.917835 45.0767641 127.882179 43.8281785 129.398719 43.0222222 131.105494 43.0222222 133.199637 43.0222222 135.008821 44.2343505 135.861189 45.9908459 136.031349 45.9676317 136.204959 45.9547002 136.381706 45.9547002 138.480554 45.9547002 140.181996 47.6449804 140.181996 49.7300592 140.181996 51.815138 138.480554 53.5054181 136.381706 53.5054181L121.505182 53.5054181 121.505182 53.5049507C119.933124 53.4946679 118.661864 52.225984 118.661864 50.6619023M121.885058 23.9172582C121.575791 23.9172582 121.279226 23.971321 121.004147 24.0699427 120.602194 22.6806692 119.448243 21.607515 118.007294 21.315389 117.246044 18.879759 114.959785 17.1111111 112.257614 17.1111111 109.359407 17.1111111 106.940156 19.1461779 106.367415 21.8563285 106.008903 21.7421267 105.626867 21.6798065 105.230245 21.6798065 103.653326 21.6798065 102.306631 22.6548063 101.765256 24.0308368 101.681353 24.0224236 101.596194 24.0180612 101.510095 24.0180612 100.105531 24.0180612 98.9669492 25.1491732 98.9669492 26.5445229 98.9669492 27.9398726 100.105531 29.0711405 101.510095 29.0711405L121.885058 29.0711405C123.317695 29.0711405 124.479017 27.9174374 124.479017 26.4941993 124.479017 25.0709613 123.317695 23.9172582 121.885058 23.9172582M17.1648023 64.1442892C17.3915776 64.1442892 17.6089432 64.1838626 17.8106258 64.256154 18.1051514 63.2378416 18.9509324 62.4512046 20.0071785 62.2371347 20.5651775 60.4519719 22.2408998 59.1555556 24.2214984 59.1555556 26.3457528 59.1555556 28.1190229 60.64719 28.5388552 62.6336471 28.8017013 62.5499822 29.0816418 62.5041768 29.3724035 62.5041768 30.5280795 62.5041768 31.5151638 63.2189897 31.912099 64.2274867 31.9735761 64.2214105 32.0359943 64.2181387 32.0991965 64.2181387 33.1286248 64.2181387 33.963114 65.0473092 33.963114 66.069984 33.963114 67.0928147 33.1286248 67.9218294 32.0991965 67.9218294L17.1648023 67.9218294C16.1148294 67.9218294 15.2635593 67.076144 15.2635593 66.0330593 15.2635593 64.9899746 16.1148294 64.1442892 17.1648023 64.1442892"/>
    </g>
  </g>
</svg>
