<svg xmlns="http://www.w3.org/2000/svg" width="380" height="250" viewBox="0 0 380 250">
  <g fill="none" fill-rule="evenodd">
    <path fill="#8EC5FC" d="M315.498629,124.814088 C315.498629,193.747121 259.646256,249.628176 190.749315,249.628176 C121.852373,249.628176 66,193.747121 66,124.814088 C66,55.8810547 121.852373,0 190.749315,0 C259.646256,0 315.498629,55.8810547 315.498629,124.814088"/>
    <g transform="translate(1)">
      <path fill="#CDE6FF" d="M252.249992,141.5 L341.093019,141.5 C344.169008,141.5 346.662519,138.253946 346.662519,134.25 L346.662519,134.25 C346.662519,130.246054 344.169008,127 341.093019,127 L252.249992,127 C249.174294,127 246.680493,130.246054 246.680493,134.25 L246.680493,134.25 C246.680493,138.253946 249.174294,141.5 252.249992,141.5"/>
      <path fill="#8EC5FC" d="M317.942937,9.24091313 L193.605147,9.24091313 C191.123258,9.24091313 189.111182,7.22811164 189.111182,4.74493413 C189.111182,2.26175661 191.123258,0.248955118 193.605147,0.248955118 L317.942937,0.248955118 C320.424825,0.248955118 322.436582,2.26175661 322.436582,4.74493413 C322.436582,7.22811164 320.424825,9.24091313 317.942937,9.24091313"/>
      <path fill="#CDE6FF" d="M198.487957,18.0219668 L289.693869,18.0219668 C292.11715,18.0219668 294.081767,16.0563304 294.081767,13.6314718 C294.081767,11.2066133 292.11715,9.24097687 289.693869,9.24097687 L198.487957,9.24097687 C196.064676,9.24097687 194.099741,11.2066133 194.099741,13.6314718 C194.099741,16.0563304 196.064676,18.0219668 198.487957,18.0219668"/>
      <path fill="#8EC5FC" d="M57.5803104,28.1538537 L136.207645,28.1538537 C139.004229,28.1538537 141.271119,25.8857872 141.271119,23.0880696 C141.271119,20.2900333 139.004229,18.0219668 136.207645,18.0219668 L57.5803104,18.0219668 C54.7840447,18.0219668 52.5171552,20.2900333 52.5171552,23.0880696 C52.5171552,25.8857872 54.7840447,28.1538537 57.5803104,28.1538537"/>
      <path fill="#CDE6FF" d="M184.583614,36.2868018 L68.4263112,36.2868018 C66.1817179,36.2868018 64.3620271,34.4661662 64.3620271,32.2204074 C64.3620271,29.97433 66.1817179,28.1536944 68.4263112,28.1536944 L184.583614,28.1536944 C186.828208,28.1536944 188.647899,29.97433 188.647899,32.2204074 C188.647899,34.4661662 186.828208,36.2868018 184.583614,36.2868018"/>
      <path fill="#8EC5FC" d="M17.3912613 49.444902L111.33292 49.444902C114.964657 49.444902 117.908715 46.4993155 117.908715 42.8656926 117.908715 39.2323883 114.964657 36.2868018 111.33292 36.2868018L17.3912613 36.2868018C13.7595241 36.2868018 10.8154662 39.2323883 10.8154662 42.8656926 10.8154662 46.4993155 13.7595241 49.444902 17.3912613 49.444902M371.558074 63.2779089L182.714426 63.2779089C178.896675 63.2779089 175.801639 60.1812667 175.801639 56.3615329 175.801639 52.5414805 178.896675 49.4448383 182.714426 49.4448383L371.558074 49.4448383C375.375826 49.4448383 378.470861 52.5414805 378.470861 56.3615329 378.470861 60.1812667 375.375826 63.2779089 371.558074 63.2779089"/>
      <path fill="#CDE6FF" d="M314.242864,77.5090783 C317.173773,77.5090783 319.549921,74.3232049 319.549921,70.3935255 C319.549921,66.4635274 317.173773,63.2779727 314.242864,63.2779727 L246.418875,63.2779727 C243.487729,63.2779727 241.111818,66.4635274 241.111818,70.3935255 C241.111818,74.3232049 243.487729,77.5090783 246.418875,77.5090783 L314.242864,77.5090783 Z"/>
      <path fill="#8EC5FC" d="M334.308305 88.4188384L227.000694 88.4188384C223.989429 88.4188384 221.548629 85.9764523 221.548629 82.9639424 221.548629 79.9514325 223.989429 77.5090464 227.000694 77.5090464L334.308305 77.5090464C337.31957 77.5090464 339.76037 79.9514325 339.76037 82.9639424 339.76037 85.9764523 337.31957 88.4188384 334.308305 88.4188384M37.2469773 102.693444L223.198168 102.693444C227.137911 102.693444 230.331687 99.4980104 230.331687 95.556221 230.331687 91.6144317 227.137911 88.4189978 223.198168 88.4189978L37.2469773 88.4189978C33.3072336 88.4189978 30.113458 91.6144317 30.113458 95.556221 30.113458 99.4980104 33.3072336 102.693444 37.2469773 102.693444"/>
      <path fill="#CDE6FF" d="M113.35771,116.009962 L6.48553764,116.009962 C3.35417087,116.009962 0.815752911,113.029002 0.815752911,109.351719 C0.815752911,105.674436 3.35417087,102.693476 6.48553764,102.693476 L113.35771,102.693476 C116.489077,102.693476 119.027495,105.674436 119.027495,109.351719 C119.027495,113.029002 116.489077,116.009962 113.35771,116.009962"/>
      <path fill="#8EC5FC" d="M332.497055 206.375571L247.010126 206.375571C243.752647 206.375571 241.111818 203.73337 241.111818 200.473881 241.111818 197.214711 243.752647 194.57251 247.010126 194.57251L332.497055 194.57251C335.754853 194.57251 338.395682 197.214711 338.395682 200.473881 338.395682 203.73337 335.754853 206.375571 332.497055 206.375571M12.1536222 153.62325L122.944223 153.62325C126.447916 153.62325 129.288456 150.781554 129.288456 147.275723 129.288456 143.77021 126.447916 140.928196 122.944223 140.928196L12.1536222 140.928196C8.64992904 140.928196 5.80938941 143.77021 5.80938941 147.275723 5.80938941 150.781554 8.64992904 153.62325 12.1536222 153.62325"/>
      <path fill="#CDE6FF" d="M49.3705702,167.855375 L108.868695,167.855375 C112.796654,167.855375 115.980874,164.669502 115.980874,160.739185 C115.980874,156.809187 112.796654,153.623313 108.868695,153.623313 L49.3705702,153.623313 C45.4426116,153.623313 42.2583915,156.809187 42.2583915,160.739185 C42.2583915,164.669502 45.4426116,167.855375 49.3705702,167.855375"/>
      <path fill="#FEFEFE" d="M73.619103 27.0804658L30.1134261 27.0804658C29.5856425 27.0804658 29.1578734 26.6524746 29.1578734 26.124417 29.1578734 25.5963593 29.5856425 25.1683681 30.1134261 25.1683681L73.619103 25.1683681C74.1468866 25.1683681 74.5746557 25.5963593 74.5746557 26.124417 74.5746557 26.6524746 74.1468866 27.0804658 73.619103 27.0804658M59.8265918 31.4864806L30.1133624 31.4864806C29.5855788 31.4864806 29.1578097 31.0584894 29.1578097 30.5304318 29.1578097 30.0023741 29.5855788 29.5743829 30.1133624 29.5743829L59.8265918 29.5743829C60.3543754 29.5743829 60.7821445 30.0023741 60.7821445 30.5304318 60.7821445 31.0584894 60.3543754 31.4864806 59.8265918 31.4864806M51.9905138 130.144803L28.3386737 130.144803C27.8108901 130.144803 27.383121 129.716812 27.383121 129.188754 27.383121 128.660696 27.8108901 128.232705 28.3386737 128.232705L51.9905138 128.232705C52.5182974 128.232705 52.9460665 128.660696 52.9460665 129.188754 52.9460665 129.716812 52.5182974 130.144803 51.9905138 130.144803M117.662711 132.144803L94.0111896 132.144803C93.483406 132.144803 93.055637 131.716812 93.055637 131.188754 93.055637 130.660696 93.483406 130.232705 94.0111896 130.232705L117.662711 130.232705C118.190495 130.232705 118.618264 130.660696 118.618264 131.188754 118.618264 131.716812 118.190495 132.144803 117.662711 132.144803M111.344005 128.144803L104.616595 128.144803C104.088812 128.144803 103.661042 127.716812 103.661042 127.188754 103.661042 126.660696 104.088812 126.232705 104.616595 126.232705L111.344005 126.232705C111.871788 126.232705 112.299557 126.660696 112.299557 127.188754 112.299557 127.716812 111.871788 128.144803 111.344005 128.144803M60.4576662 123.15838L28.3386737 123.15838C27.8108901 123.15838 27.383121 122.730389 27.383121 122.202332 27.383121 121.674274 27.8108901 121.246283 28.3386737 121.246283L60.4576662 121.246283C60.9854498 121.246283 61.4132189 121.674274 61.4132189 122.202332 61.4132189 122.730389 60.9854498 123.15838 60.4576662 123.15838M314.406313 59.1322262L284.693084 59.1322262C284.1653 59.1322262 283.737531 58.704235 283.737531 58.1761774 283.737531 57.6481197 284.1653 57.2201285 284.693084 57.2201285L314.406313 57.2201285C314.934097 57.2201285 315.361866 57.6481197 315.361866 58.1761774 315.361866 58.704235 314.934097 59.1322262 314.406313 59.1322262M231.945361 14.5873932L175.797085 14.5873932C175.269301 14.5873932 174.841532 14.159402 174.841532 13.6313444 174.841532 13.1032867 175.269301 12.6752955 175.797085 12.6752955L231.945361 12.6752955C232.473144 12.6752955 232.900913 13.1032867 232.900913 13.6313444 232.900913 14.159402 232.473144 14.5873932 231.945361 14.5873932M122.836915 42.1367404L93.1236852 42.1367404C92.5959016 42.1367404 92.1681325 41.7087492 92.1681325 41.1806915 92.1681325 40.6526339 92.5959016 40.2246427 93.1236852 40.2246427L122.836915 40.2246427C123.364698 40.2246427 123.792467 40.6526339 123.792467 41.1806915 123.792467 41.7087492 123.364698 42.1367404 122.836915 42.1367404M82.1284271 48.1367404L70.4585806 48.1367404C69.930797 48.1367404 69.5030279 47.7087492 69.5030279 47.1806915 69.5030279 46.6526339 69.930797 46.2246427 70.4585806 46.2246427L82.1284271 46.2246427C82.6562107 46.2246427 83.0839798 46.6526339 83.0839798 47.1806915 83.0839798 47.7087492 82.6562107 48.1367404 82.1284271 48.1367404M50.8049959 81.0773075L10.8157529 81.0773075C10.2879693 81.0773075 9.86020022 80.6493163 9.86020022 80.1212587 9.86020022 79.593201 10.2879693 79.1652099 10.8157529 79.1652099L50.8049959 79.1652099C51.3327795 79.1652099 51.7605486 79.593201 51.7605486 80.1212587 51.7605486 80.6493163 51.3327795 81.0773075 50.8049959 81.0773075M310.533963 81.0773075L257.816758 81.0773075C257.288975 81.0773075 256.861206 80.6493163 256.861206 80.1212587 256.861206 79.593201 257.288975 79.1652099 257.816758 79.1652099L310.533963 79.1652099C311.061747 79.1652099 311.489516 79.593201 311.489516 80.1212587 311.489516 80.6493163 311.061747 81.0773075 310.533963 81.0773075M285.679764 131.491292L255.966535 131.491292C255.438751 131.491292 255.010982 131.063301 255.010982 130.535244 255.010982 130.007186 255.438751 129.579195 255.966535 129.579195L285.679764 129.579195C286.207548 129.579195 286.635317 130.007186 286.635317 130.535244 286.635317 131.063301 286.207548 131.491292 285.679764 131.491292M132.765234 10.196962L103.052005 10.196962C102.524221 10.196962 102.096452 9.76897078 102.096452 9.24091313 102.096452 8.71285549 102.524221 8.2848643 103.052005 8.2848643L132.765234 8.2848643C133.293018 8.2848643 133.720787 8.71285549 133.720787 9.24091313 133.720787 9.76897078 133.293018 10.196962 132.765234 10.196962M142.765234 217.667017L113.052005 217.667017C112.524221 217.667017 112.096452 217.239026 112.096452 216.710968 112.096452 216.182911 112.524221 215.75492 113.052005 215.75492L142.765234 215.75492C143.293018 215.75492 143.720787 216.182911 143.720787 216.710968 143.720787 217.239026 143.293018 217.667017 142.765234 217.667017M278.798261 217.667017L249.084713 217.667017C248.55693 217.667017 248.12916 217.239026 248.12916 216.710968 248.12916 216.182911 248.55693 215.75492 249.084713 215.75492L278.798261 215.75492C279.325726 215.75492 279.753814 216.182911 279.753814 216.710968 279.753814 217.239026 279.325726 217.667017 278.798261 217.667017M102.663746 217.667017L90.1899611 217.667017C89.6621775 217.667017 89.2344084 217.239026 89.2344084 216.710968 89.2344084 216.182911 89.6621775 215.75492 90.1899611 215.75492L102.663746 215.75492C103.191529 215.75492 103.619299 216.182911 103.619299 216.710968 103.619299 217.239026 103.191529 217.667017 102.663746 217.667017M285.679764 126.902768L251.256297 126.902768C250.728514 126.902768 250.300745 126.474777 250.300745 125.946719 250.300745 125.418661 250.728514 124.99067 251.256297 124.99067L285.679764 124.99067C286.207548 124.99067 286.635317 125.418661 286.635317 125.946719 286.635317 126.474777 286.207548 126.902768 285.679764 126.902768M106.331239 187.211317L71.9080903 187.211317C71.3803067 187.211317 70.9525377 186.783325 70.9525377 186.255268 70.9525377 185.72721 71.3803067 185.299219 71.9080903 185.299219L106.331239 185.299219C106.859023 185.299219 107.286792 185.72721 107.286792 186.255268 107.286792 186.783325 106.859023 187.211317 106.331239 187.211317M120.624996 180.902768L86.201847 180.902768C85.6740634 180.902768 85.2462943 180.474777 85.2462943 179.946719 85.2462943 179.418661 85.6740634 178.99067 86.201847 178.99067L120.624996 178.99067C121.152779 178.99067 121.580548 179.418661 121.580548 179.946719 121.580548 180.474777 121.152779 180.902768 120.624996 180.902768M38.9120597 166.902768L25.0689679 166.902768C24.5411843 166.902768 24.1134152 166.474777 24.1134152 165.946719 24.1134152 165.418661 24.5411843 164.99067 25.0689679 164.99067L38.9120597 164.99067C39.4398433 164.99067 39.8676124 165.418661 39.8676124 165.946719 39.8676124 166.474777 39.4398433 166.902768 38.9120597 166.902768M291.267439 170.089597L256.844291 170.089597C256.316507 170.089597 255.888738 169.661606 255.888738 169.133549 255.888738 168.605491 256.316507 168.1775 256.844291 168.1775L291.267439 168.1775C291.795223 168.1775 292.222992 168.605491 292.222992 169.133549 292.222992 169.661606 291.795223 170.089597 291.267439 170.089597M326.679764 169.519921L303.436264 169.519921C302.90848 169.519921 302.480711 169.09193 302.480711 168.563872 302.480711 168.035815 302.90848 167.607824 303.436264 167.607824L326.679764 167.607824C327.207548 167.607824 327.635317 168.035815 327.635317 168.563872 327.635317 169.09193 327.207548 169.519921 326.679764 169.519921M314.406313 65.4648069L277.526757 65.4648069C276.998973 65.4648069 276.571204 65.0368157 276.571204 64.5087581 276.571204 63.9807004 276.998973 63.5527092 277.526757 63.5527092L314.406313 63.5527092C314.934097 63.5527092 315.361866 63.9807004 315.361866 64.5087581 315.361866 65.0368157 314.934097 65.4648069 314.406313 65.4648069M297.436099 148.293062L260.556224 148.293062C260.02844 148.293062 259.600671 147.865071 259.600671 147.337013 259.600671 146.808956 260.02844 146.380965 260.556224 146.380965L297.436099 146.380965C297.963882 146.380965 298.391651 146.808956 298.391651 147.337013 298.391651 147.865071 297.963882 148.293062 297.436099 148.293062M66.4776526 36.0250675L30.113458 36.0250675C29.5856744 36.0250675 29.1579053 35.5970763 29.1579053 35.0690187 29.1579053 34.540961 29.5856744 34.1129698 30.113458 34.1129698L66.4776526 34.1129698C67.0054362 34.1129698 67.4332053 34.540961 67.4332053 35.0690187 67.4332053 35.5970763 67.0054362 36.0250675 66.4776526 36.0250675"/>
    </g>
    <g fill="#FEFEFE" transform="translate(0 17)">
      <path d="M44.0907235 16.0590535C44.0907235 12.8470481 41.4881165 10.2430897 38.277778 10.2430897 38.1210673 10.2430897 37.9665863 10.2510568 37.8133794 10.2631667 36.6310422 6.82457773 33.3719705 4.35319148 29.5338338 4.35319148 28.7700287 4.35319148 28.0294754 4.45134583 27.3233219 4.63522589 25.3644389 2.08066339 22.2843741.432435195 18.8179475.432435195 14.5647824.432435195 10.8903638 2.91178852 9.1595394 6.50462006 8.81362933 6.4571363 8.46103038 6.43068561 8.10206109 6.43068561 3.83934055 6.43068561.383743509 9.8880769.383743509 14.1530108.383743509 18.4179446 3.83934055 21.8753359 8.10206109 21.8753359L38.3163186 21.8753359 38.3163186 21.8743799C41.5088201 21.8533468 44.0907235 19.2583116 44.0907235 16.0590535M277.490324 110.189723C277.490324 106.977717 280.092931 104.373759 283.303588 104.373759 283.45998 104.373759 283.614461 104.381407 283.767668 104.393836 284.950005 100.955247 288.209077 98.4838608 292.047213 98.4838608 292.811018 98.4838608 293.551572 98.5820151 294.258044 98.7655765 296.216608 96.2116514 299.296673 94.5631045 302.7631 94.5631045 307.016265 94.5631045 310.690683 97.0424578 312.421826 100.635289 312.767418 100.587806 313.120017 100.561355 313.478986 100.561355 317.741706 100.561355 321.197303 104.018746 321.197303 108.28368 321.197303 112.548614 317.741706 116.006005 313.478986 116.006005L283.265047 116.006005 283.265047 116.005049C280.072227 115.984016 277.490324 113.388981 277.490324 110.189723M290.546246 42.9216645C289.918129 42.9216645 289.315812 43.0322475 288.757132 43.2339738 287.940772 40.392278 285.59712 38.1971898 282.67058 37.5996593 281.124496 32.6176888 276.481147 29 270.993089 29 265.106885 29 260.193433 33.1626366 259.030207 38.7061265 258.302076 38.4725319 257.526167 38.3450587 256.720636 38.3450587 253.517942 38.3450587 250.782832 40.3393766 249.683309 43.1539844 249.512902 43.1367755 249.339947 43.1278524 249.165081 43.1278524 246.312438 43.1278524 244 45.4414906 244 48.295615 244 51.1497395 246.312438 53.4636964 249.165081 53.4636964L290.546246 53.4636964C293.455903 53.4636964 295.814526 51.1038492 295.814526 48.1926804 295.814526 45.2815117 293.455903 42.9216645 290.546246 42.9216645M47.8613884 112.204228C48.3219648 112.204228 48.7634302 112.285173 49.1730437 112.433042 49.7712197 110.350131 51.4889849 108.7411 53.6342007 108.30323 54.7674862 104.651761 58.1708464 102 62.1934047 102 66.5077251 102 70.1092031 105.051071 70.9618747 109.114278 71.4957101 108.943145 72.0642639 108.849453 72.6547955 108.849453 75.0019514 108.849453 77.006701 110.31157 77.8128689 112.374405 77.9377278 112.361976 78.0644978 112.355284 78.1928604 112.355284 80.2836097 112.355284 81.9784416 114.051314 81.9784416 116.143149 81.9784416 118.235303 80.2836097 119.931015 78.1928604 119.931015L47.8613884 119.931015C45.7289133 119.931015 44 118.201204 44 116.067621 44 113.934039 45.7289133 112.204228 47.8613884 112.204228"/>
    </g>
    <g fill="#0056AD" transform="translate(126 60)">
      <path fill-rule="nonzero" d="M65.0007943,0 C29.1587746,0 0,29.157186 0,64.9992057 C0,100.841225 29.1587746,130 65.0007943,130 C100.839637,130 130,100.841225 130,64.9992057 C130,29.157186 100.841225,0 65.0007943,0 Z M65.0007943,122.172962 C33.475004,122.172962 7.82544939,96.5234074 7.82544939,64.9976171 C7.82544939,60.4367431 8.3782826,56.0061344 9.39181015,51.7502719 C13.8589567,50.3141764 22.8917429,44.8255594 40.8699424,29.9991446 L49.12908,21.7368299 C49.12908,21.7368299 70.6450943,63.4217247 119.861547,48.9400364 C121.353244,54.0378576 122.171373,59.4232156 122.171373,64.9976171 C122.172962,96.524996 96.5281732,122.172962 65.0007943,122.172962 Z"/>
      <circle cx="43.333" cy="75.581" r="9.07" fill-rule="nonzero"/>
      <circle cx="85.659" cy="75.581" r="9.07" fill-rule="nonzero"/>
      <path fill-rule="nonzero" d="M51.1631405 43.8617764C50.5639309 42.5528196 49.0146377 41.9625991 47.6816367 42.5575794L27.7523106 51.4521395C26.4289226 52.0439466 25.8377239 53.5845492 26.4337291 54.8982658 26.8727222 55.8629274 27.8324189 56.4341085 28.8369761 56.4341085 29.1974631 56.4341085 29.5643588 56.3595377 29.9168351 56.2024628L49.8461611 47.3079028C51.167947 46.7160957 51.7591457 45.1754931 51.1631405 43.8617764zM103.151947 62.4390367L83.1257002 54.5945774C81.8028858 54.074706 80.2991871 54.7449402 79.7848466 56.1014046 79.273652 57.4546698 79.9374186 58.9758935 81.2680975 59.4973645L101.292772 67.3418238C101.597915 67.4617941 101.910924 67.5193798 102.220786 67.5193798 103.257332 67.5193798 104.23568 66.8795381 104.632052 65.8349966 105.146393 64.4817313 104.482626 62.9589081 103.151947 62.4390367z"/>
      <path d="M84.9146166,111.436273 C84.4269196,111.842687 83.8579398,112.005253 83.28896,112.005253 C82.5574146,112.005253 81.7445863,111.680121 81.2568893,111.029859 C81.0130408,110.78601 75.5670913,104.283384 65.4880205,104.283384 C55.3276669,104.283384 49.8004345,110.948576 49.7191517,111.029859 C48.8250406,112.167818 47.1181012,112.330384 45.9801415,111.436273 C44.8421819,110.542162 44.6796163,108.835222 45.5737274,107.697263 C45.8988587,107.372131 52.7266163,99 65.4067377,99 C78.086859,99 84.9958994,107.372131 85.2397479,107.697263 C86.2151419,108.916505 86.0525762,110.542162 84.9146166,111.436273 Z"/>
    </g>
  </g>
</svg>
