<svg xmlns="http://www.w3.org/2000/svg" width="20" height="20" viewBox="0 0 20 20">
  <path fill="#E0C3FC" d="M1389.63134,84.156682 L1385.97542,80.500768 C1387.23502,78.9032258 1387.91091,76.9677419 1387.91091,74.9708141 C1387.91091,70.0245776 1383.88633,66 1378.94009,66 C1373.99386,66 1370,70.0552995 1370,75.0015361 C1370,79.9477727 1374.02458,83.9723502 1378.97081,83.9723502 C1380.96774,83.9723502 1382.93395,83.296467 1384.50077,82.0368664 L1388.15668,85.6927803 C1388.37174,85.9078341 1388.61751,86 1388.89401,86 C1389.17051,86 1389.41628,85.9078341 1389.63134,85.6927803 C1390.06144,85.2319508 1390.06144,84.5867896 1389.63134,84.156682 Z M1385.76037,75.0322581 C1385.76037,78.7803379 1382.71889,81.8525346 1378.97081,81.8525346 C1375.22273,81.8525346 1372.15054,78.7803379 1372.15054,75.0322581 C1372.15054,71.2841782 1375.19201,68.2119816 1378.97081,68.2119816 C1382.74962,68.2119816 1385.76037,71.2534562 1385.76037,75.0322581 Z" transform="translate(-1370 -66)"/>
</svg>
