<svg xmlns="http://www.w3.org/2000/svg" width="394" height="250" viewBox="0 0 394 250">
  <g fill="none" fill-rule="evenodd">
    <path fill="#8EC5FC" d="M196.749315,249.628176 C127.852373,249.628176 72,193.747121 72,124.814088 C72,55.8810547 127.852373,0 196.749315,0 C265.646256,0 321.498629,55.8810547 321.498629,124.814088 C321.498629,193.747121 265.646256,249.628176 196.749315,249.628176 Z"/>
    <g transform="translate(15)">
      <path fill="#8EC5FC" d="M317.942937,9.24091313 L193.605147,9.24091313 C191.123258,9.24091313 189.111182,7.22811164 189.111182,4.74493413 C189.111182,2.26175661 191.123258,0.248955118 193.605147,0.248955118 L317.942937,0.248955118 C320.424825,0.248955118 322.436582,2.26175661 322.436582,4.74493413 C322.436582,7.22811164 320.424825,9.24091313 317.942937,9.24091313"/>
      <path fill="#CDE6FF" d="M198.487957,18.0219668 L289.693869,18.0219668 C292.11715,18.0219668 294.081767,16.0563304 294.081767,13.6314718 C294.081767,11.2066133 292.11715,9.24097687 289.693869,9.24097687 L198.487957,9.24097687 C196.064676,9.24097687 194.099741,11.2066133 194.099741,13.6314718 C194.099741,16.0563304 196.064676,18.0219668 198.487957,18.0219668"/>
      <path fill="#8EC5FC" d="M57.5803104,28.1538537 L136.207645,28.1538537 C139.004229,28.1538537 141.271119,25.8857872 141.271119,23.0880696 C141.271119,20.2900333 139.004229,18.0219668 136.207645,18.0219668 L57.5803104,18.0219668 C54.7840447,18.0219668 52.5171552,20.2900333 52.5171552,23.0880696 C52.5171552,25.8857872 54.7840447,28.1538537 57.5803104,28.1538537"/>
      <path fill="#CDE6FF" d="M184.583614,36.2868018 L68.4263112,36.2868018 C66.1817179,36.2868018 64.3620271,34.4661662 64.3620271,32.2204074 C64.3620271,29.97433 66.1817179,28.1536944 68.4263112,28.1536944 L184.583614,28.1536944 C186.828208,28.1536944 188.647899,29.97433 188.647899,32.2204074 C188.647899,34.4661662 186.828208,36.2868018 184.583614,36.2868018"/>
      <path fill="#8EC5FC" d="M17.3912613 49.444902L111.33292 49.444902C114.964657 49.444902 117.908715 46.4993155 117.908715 42.8656926 117.908715 39.2323883 114.964657 36.2868018 111.33292 36.2868018L17.3912613 36.2868018C13.7595241 36.2868018 10.8154662 39.2323883 10.8154662 42.8656926 10.8154662 46.4993155 13.7595241 49.444902 17.3912613 49.444902M371.558074 63.2779089L182.714426 63.2779089C178.896675 63.2779089 175.801639 60.1812667 175.801639 56.3615329 175.801639 52.5414805 178.896675 49.4448383 182.714426 49.4448383L371.558074 49.4448383C375.375826 49.4448383 378.470861 52.5414805 378.470861 56.3615329 378.470861 60.1812667 375.375826 63.2779089 371.558074 63.2779089"/>
      <path fill="#CDE6FF" d="M221.548756,77.5090783 L312.438061,77.5090783 C316.365701,77.5090783 319.549921,74.3232049 319.549921,70.3935255 C319.549921,66.4635274 316.365701,63.2779727 312.438061,63.2779727 L221.548756,63.2779727 C217.620798,63.2779727 214.436896,66.4635274 214.436896,70.3935255 C214.436896,74.3232049 217.620798,77.5090783 221.548756,77.5090783"/>
      <path fill="#8EC5FC" d="M334.308305 88.4188384L227.000694 88.4188384C223.989429 88.4188384 221.548629 85.9764523 221.548629 82.9639424 221.548629 79.9514325 223.989429 77.5090464 227.000694 77.5090464L334.308305 77.5090464C337.31957 77.5090464 339.76037 79.9514325 339.76037 82.9639424 339.76037 85.9764523 337.31957 88.4188384 334.308305 88.4188384M37.2469773 102.693444L223.198168 102.693444C227.137911 102.693444 230.331687 99.4980104 230.331687 95.556221 230.331687 91.6144317 227.137911 88.4189978 223.198168 88.4189978L37.2469773 88.4189978C33.3072336 88.4189978 30.113458 91.6144317 30.113458 95.556221 30.113458 99.4980104 33.3072336 102.693444 37.2469773 102.693444"/>
      <path fill="#CDE6FF" d="M113.35771,116.009962 L6.48553764,116.009962 C3.35417087,116.009962 0.815752911,113.029002 0.815752911,109.351719 C0.815752911,105.674436 3.35417087,102.693476 6.48553764,102.693476 L113.35771,102.693476 C116.489077,102.693476 119.027495,105.674436 119.027495,109.351719 C119.027495,113.029002 116.489077,116.009962 113.35771,116.009962"/>
      <path fill="#8EC5FC" d="M332.497055 206.375571L247.010126 206.375571C243.752647 206.375571 241.111818 203.73337 241.111818 200.473881 241.111818 197.214711 243.752647 194.57251 247.010126 194.57251L332.497055 194.57251C335.754853 194.57251 338.395682 197.214711 338.395682 200.473881 338.395682 203.73337 335.754853 206.375571 332.497055 206.375571M12.1536222 153.62325L122.944223 153.62325C126.447916 153.62325 129.288456 150.781554 129.288456 147.275723 129.288456 143.77021 126.447916 140.928196 122.944223 140.928196L12.1536222 140.928196C8.64992904 140.928196 5.80938941 143.77021 5.80938941 147.275723 5.80938941 150.781554 8.64992904 153.62325 12.1536222 153.62325"/>
      <path fill="#CDE6FF" d="M49.3705702,167.855375 L108.868695,167.855375 C112.796654,167.855375 115.980874,164.669502 115.980874,160.739185 C115.980874,156.809187 112.796654,153.623313 108.868695,153.623313 L49.3705702,153.623313 C45.4426116,153.623313 42.2583915,156.809187 42.2583915,160.739185 C42.2583915,164.669502 45.4426116,167.855375 49.3705702,167.855375"/>
      <path fill="#FEFEFE" d="M73.619103 27.0804658L30.1134261 27.0804658C29.5856425 27.0804658 29.1578734 26.6524746 29.1578734 26.124417 29.1578734 25.5963593 29.5856425 25.1683681 30.1134261 25.1683681L73.619103 25.1683681C74.1468866 25.1683681 74.5746557 25.5963593 74.5746557 26.124417 74.5746557 26.6524746 74.1468866 27.0804658 73.619103 27.0804658M59.8265918 31.4864806L30.1133624 31.4864806C29.5855788 31.4864806 29.1578097 31.0584894 29.1578097 30.5304318 29.1578097 30.0023741 29.5855788 29.5743829 30.1133624 29.5743829L59.8265918 29.5743829C60.3543754 29.5743829 60.7821445 30.0023741 60.7821445 30.5304318 60.7821445 31.0584894 60.3543754 31.4864806 59.8265918 31.4864806M31.9905138 128.144803L8.33867368 128.144803C7.81089008 128.144803 7.38312099 127.716812 7.38312099 127.188754 7.38312099 126.660696 7.81089008 126.232705 8.33867368 126.232705L31.9905138 126.232705C32.5182974 126.232705 32.9460665 126.660696 32.9460665 127.188754 32.9460665 127.716812 32.5182974 128.144803 31.9905138 128.144803M117.662711 132.144803L94.0111896 132.144803C93.483406 132.144803 93.055637 131.716812 93.055637 131.188754 93.055637 130.660696 93.483406 130.232705 94.0111896 130.232705L117.662711 130.232705C118.190495 130.232705 118.618264 130.660696 118.618264 131.188754 118.618264 131.716812 118.190495 132.144803 117.662711 132.144803M111.344005 128.144803L104.616595 128.144803C104.088812 128.144803 103.661042 127.716812 103.661042 127.188754 103.661042 126.660696 104.088812 126.232705 104.616595 126.232705L111.344005 126.232705C111.871788 126.232705 112.299557 126.660696 112.299557 127.188754 112.299557 127.716812 111.871788 128.144803 111.344005 128.144803M40.4576662 121.15838L8.33867368 121.15838C7.81089008 121.15838 7.38312099 120.730389 7.38312099 120.202332 7.38312099 119.674274 7.81089008 119.246283 8.33867368 119.246283L40.4576662 119.246283C40.9854498 119.246283 41.4132189 119.674274 41.4132189 120.202332 41.4132189 120.730389 40.9854498 121.15838 40.4576662 121.15838M334.406313 59.1322262L304.693084 59.1322262C304.1653 59.1322262 303.737531 58.704235 303.737531 58.1761774 303.737531 57.6481197 304.1653 57.2201285 304.693084 57.2201285L334.406313 57.2201285C334.934097 57.2201285 335.361866 57.6481197 335.361866 58.1761774 335.361866 58.704235 334.934097 59.1322262 334.406313 59.1322262M270.630624 55.1322262L240.917395 55.1322262C240.389611 55.1322262 239.961842 54.704235 239.961842 54.1761774 239.961842 53.6481197 240.389611 53.2201285 240.917395 53.2201285L270.630624 53.2201285C271.158408 53.2201285 271.586177 53.6481197 271.586177 54.1761774 271.586177 54.704235 271.158408 55.1322262 270.630624 55.1322262M231.945361 14.5873932L175.797085 14.5873932C175.269301 14.5873932 174.841532 14.159402 174.841532 13.6313444 174.841532 13.1032867 175.269301 12.6752955 175.797085 12.6752955L231.945361 12.6752955C232.473144 12.6752955 232.900913 13.1032867 232.900913 13.6313444 232.900913 14.159402 232.473144 14.5873932 231.945361 14.5873932M122.836915 42.1367404L93.1236852 42.1367404C92.5959016 42.1367404 92.1681325 41.7087492 92.1681325 41.1806915 92.1681325 40.6526339 92.5959016 40.2246427 93.1236852 40.2246427L122.836915 40.2246427C123.364698 40.2246427 123.792467 40.6526339 123.792467 41.1806915 123.792467 41.7087492 123.364698 42.1367404 122.836915 42.1367404M82.1284271 48.1367404L70.4585806 48.1367404C69.930797 48.1367404 69.5030279 47.7087492 69.5030279 47.1806915 69.5030279 46.6526339 69.930797 46.2246427 70.4585806 46.2246427L82.1284271 46.2246427C82.6562107 46.2246427 83.0839798 46.6526339 83.0839798 47.1806915 83.0839798 47.7087492 82.6562107 48.1367404 82.1284271 48.1367404M50.8049959 81.0773075L10.8157529 81.0773075C10.2879693 81.0773075 9.86020022 80.6493163 9.86020022 80.1212587 9.86020022 79.593201 10.2879693 79.1652099 10.8157529 79.1652099L50.8049959 79.1652099C51.3327795 79.1652099 51.7605486 79.593201 51.7605486 80.1212587 51.7605486 80.6493163 51.3327795 81.0773075 50.8049959 81.0773075M310.533963 81.0773075L257.816758 81.0773075C257.288975 81.0773075 256.861206 80.6493163 256.861206 80.1212587 256.861206 79.593201 257.288975 79.1652099 257.816758 79.1652099L310.533963 79.1652099C311.061747 79.1652099 311.489516 79.593201 311.489516 80.1212587 311.489516 80.6493163 311.061747 81.0773075 310.533963 81.0773075M335.679764 147.491292L305.966535 147.491292C305.438751 147.491292 305.010982 147.063301 305.010982 146.535244 305.010982 146.007186 305.438751 145.579195 305.966535 145.579195L335.679764 145.579195C336.207548 145.579195 336.635317 146.007186 336.635317 146.535244 336.635317 147.063301 336.207548 147.491292 335.679764 147.491292M132.765234 10.196962L103.052005 10.196962C102.524221 10.196962 102.096452 9.76897078 102.096452 9.24091313 102.096452 8.71285549 102.524221 8.2848643 103.052005 8.2848643L132.765234 8.2848643C133.293018 8.2848643 133.720787 8.71285549 133.720787 9.24091313 133.720787 9.76897078 133.293018 10.196962 132.765234 10.196962M132.765234 217.667017L103.052005 217.667017C102.524221 217.667017 102.096452 217.239026 102.096452 216.710968 102.096452 216.182911 102.524221 215.75492 103.052005 215.75492L132.765234 215.75492C133.293018 215.75492 133.720787 216.182911 133.720787 216.710968 133.720787 217.239026 133.293018 217.667017 132.765234 217.667017M288.798261 217.667017L259.084713 217.667017C258.55693 217.667017 258.12916 217.239026 258.12916 216.710968 258.12916 216.182911 258.55693 215.75492 259.084713 215.75492L288.798261 215.75492C289.325726 215.75492 289.753814 216.182911 289.753814 216.710968 289.753814 217.239026 289.325726 217.667017 288.798261 217.667017M92.6637458 217.667017L80.1899611 217.667017C79.6621775 217.667017 79.2344084 217.239026 79.2344084 216.710968 79.2344084 216.182911 79.6621775 215.75492 80.1899611 215.75492L92.6637458 215.75492C93.1915294 215.75492 93.6192985 216.182911 93.6192985 216.710968 93.6192985 217.239026 93.1915294 217.667017 92.6637458 217.667017M335.679764 142.902768L301.256297 142.902768C300.728514 142.902768 300.300745 142.474777 300.300745 141.946719 300.300745 141.418661 300.728514 140.99067 301.256297 140.99067L335.679764 140.99067C336.207548 140.99067 336.635317 141.418661 336.635317 141.946719 336.635317 142.474777 336.207548 142.902768 335.679764 142.902768M106.331239 187.211317L71.9080903 187.211317C71.3803067 187.211317 70.9525377 186.783325 70.9525377 186.255268 70.9525377 185.72721 71.3803067 185.299219 71.9080903 185.299219L106.331239 185.299219C106.859023 185.299219 107.286792 185.72721 107.286792 186.255268 107.286792 186.783325 106.859023 187.211317 106.331239 187.211317M120.624996 180.902768L86.201847 180.902768C85.6740634 180.902768 85.2462943 180.474777 85.2462943 179.946719 85.2462943 179.418661 85.6740634 178.99067 86.201847 178.99067L120.624996 178.99067C121.152779 178.99067 121.580548 179.418661 121.580548 179.946719 121.580548 180.474777 121.152779 180.902768 120.624996 180.902768M38.9120597 166.902768L25.0689679 166.902768C24.5411843 166.902768 24.1134152 166.474777 24.1134152 165.946719 24.1134152 165.418661 24.5411843 164.99067 25.0689679 164.99067L38.9120597 164.99067C39.4398433 164.99067 39.8676124 165.418661 39.8676124 165.946719 39.8676124 166.474777 39.4398433 166.902768 38.9120597 166.902768M291.267439 170.089597L256.844291 170.089597C256.316507 170.089597 255.888738 169.661606 255.888738 169.133549 255.888738 168.605491 256.316507 168.1775 256.844291 168.1775L291.267439 168.1775C291.795223 168.1775 292.222992 168.605491 292.222992 169.133549 292.222992 169.661606 291.795223 170.089597 291.267439 170.089597M345.679764 169.519921L322.436264 169.519921C321.90848 169.519921 321.480711 169.09193 321.480711 168.563872 321.480711 168.035815 321.90848 167.607824 322.436264 167.607824L345.679764 167.607824C346.207548 167.607824 346.635317 168.035815 346.635317 168.563872 346.635317 169.09193 346.207548 169.519921 345.679764 169.519921M334.406313 65.4648069L297.526757 65.4648069C296.998973 65.4648069 296.571204 65.0368157 296.571204 64.5087581 296.571204 63.9807004 296.998973 63.5527092 297.526757 63.5527092L334.406313 63.5527092C334.934097 63.5527092 335.361866 63.9807004 335.361866 64.5087581 335.361866 65.0368157 334.934097 65.4648069 334.406313 65.4648069M318.436099 136.293062L281.556224 136.293062C281.02844 136.293062 280.600671 135.865071 280.600671 135.337013 280.600671 134.808956 281.02844 134.380965 281.556224 134.380965L318.436099 134.380965C318.963882 134.380965 319.391651 134.808956 319.391651 135.337013 319.391651 135.865071 318.963882 136.293062 318.436099 136.293062M66.4776526 36.0250675L30.113458 36.0250675C29.5856744 36.0250675 29.1579053 35.5970763 29.1579053 35.0690187 29.1579053 34.540961 29.5856744 34.1129698 30.113458 34.1129698L66.4776526 34.1129698C67.0054362 34.1129698 67.4332053 34.540961 67.4332053 35.0690187 67.4332053 35.5970763 67.0054362 36.0250675 66.4776526 36.0250675"/>
    </g>
    <g fill="#FEFEFE" transform="translate(0 17)">
      <path d="M58.0907235 16.0590535C58.0907235 12.8470481 55.4881165 10.2430897 52.277778 10.2430897 52.1210673 10.2430897 51.9665863 10.2510568 51.8133794 10.2631667 50.6310422 6.82457773 47.3719705 4.35319148 43.5338338 4.35319148 42.7700287 4.35319148 42.0294754 4.45134583 41.3233219 4.63522589 39.3644389 2.08066339 36.2843741.432435195 32.8179475.432435195 28.5647824.432435195 24.8903638 2.91178852 23.1595394 6.50462006 22.8136293 6.4571363 22.4610304 6.43068561 22.1020611 6.43068561 17.8393405 6.43068561 14.3837435 9.8880769 14.3837435 14.1530108 14.3837435 18.4179446 17.8393405 21.8753359 22.1020611 21.8753359L52.3163186 21.8753359 52.3163186 21.8743799C55.5088201 21.8533468 58.0907235 19.2583116 58.0907235 16.0590535M341.490324 126.189723C341.490324 122.977717 344.092931 120.373759 347.303588 120.373759 347.45998 120.373759 347.614461 120.381407 347.767668 120.393836 348.950005 116.955247 352.209077 114.483861 356.047213 114.483861 356.811018 114.483861 357.551572 114.582015 358.258044 114.765576 360.216608 112.211651 363.296673 110.563104 366.7631 110.563104 371.016265 110.563104 374.690683 113.042458 376.421826 116.635289 376.767418 116.587806 377.120017 116.561355 377.478986 116.561355 381.741706 116.561355 385.197303 120.018746 385.197303 124.28368 385.197303 128.548614 381.741706 132.006005 377.478986 132.006005L347.265047 132.006005 347.265047 132.005049C344.072227 131.984016 341.490324 129.388981 341.490324 126.189723M383.982892 39.6342618C383.354775 39.6342618 382.752458 39.7448448 382.193778 39.9465711 381.377418 37.1048753 379.033766 34.9097871 376.107226 34.3122566 374.561142 29.3302861 369.917793 25.7125973 364.429735 25.7125973 358.543531 25.7125973 353.630079 29.8752339 352.466853 35.4187238 351.738722 35.1851292 350.962813 35.057656 350.157282 35.057656 346.954588 35.057656 344.219478 37.0519739 343.119955 39.8665817 342.949548 39.8493728 342.776593 39.8404497 342.601727 39.8404497 339.749084 39.8404497 337.436646 42.1540879 337.436646 45.0082123 337.436646 47.8623368 339.749084 50.1762937 342.601727 50.1762937L383.982892 50.1762937C386.89255 50.1762937 389.251172 47.8164465 389.251172 44.9052777 389.251172 41.994109 386.89255 39.6342618 383.982892 39.6342618M4.07820332 105.541241C4.53877971 105.541241 4.98024506 105.622187 5.38985864 105.770056 5.98803463 103.687144 7.70579984 102.078114 9.85101563 101.640243 10.9843011 97.9887741 14.3876613 95.3370134 18.4102196 95.3370134 22.72454 95.3370134 26.326018 98.3880839 27.1786896 102.451291 27.712525 102.280159 28.2810788 102.186466 28.8716104 102.186466 31.2187663 102.186466 33.2235159 103.648583 34.0296838 105.711418 34.1545427 105.698989 34.2813127 105.692297 34.4096753 105.692297 36.5004246 105.692297 38.1952565 107.388328 38.1952565 109.480163 38.1952565 111.572316 36.5004246 113.268028 34.4096753 113.268028L4.07820332 113.268028C1.94572824 113.268028.216814905 111.538217.216814905 109.404635.216814905 107.271052 1.94572824 105.541241 4.07820332 105.541241"/>
    </g>
    <path fill="#CDE6FF" d="M6.77721189,14.5 L114.885307,14.5 C118.628306,14.5 121.662519,11.2539463 121.662519,7.25 L121.662519,7.25 C121.662519,3.24605373 118.628306,-1.98951966e-13 114.885307,-1.98951966e-13 L6.77721189,-1.98951966e-13 C3.0345672,-1.98951966e-13 0,3.24605373 0,7.25 L0,7.25 C0,11.2539463 3.0345672,14.5 6.77721189,14.5" transform="translate(236 151)"/>
    <g fill="#0056AD" fill-rule="nonzero" transform="translate(151 70)">
      <path d="M81.6023443,38.5593495 L71.177869,38.5593495 L71.177869,25.1084136 C71.177869,11.2091132 59.9687558,-1.98951966e-13 46.0694554,-1.98951966e-13 C32.170155,-1.98951966e-13 20.9610417,11.2091132 20.9610417,25.1084136 L20.9610417,38.5593495 L10.5365664,38.5593495 C4.70782756,38.5593495 -2.27373675e-13,43.2671771 -2.27373675e-13,49.0959159 L-2.27373675e-13,99.4248343 C-2.27373675e-13,105.253573 4.70782756,109.961401 10.5365664,109.961401 L81.4902532,109.961401 C87.318992,109.961401 92.0268196,105.253573 92.0268196,99.4248343 L92.0268196,49.0959159 C92.1389107,43.2671771 87.4310832,38.5593495 81.6023443,38.5593495 Z M30.3766968,25.1084136 C30.3766968,16.4773964 37.4384382,9.41565511 46.0694554,9.41565511 C54.7004726,9.41565511 61.7622139,16.4773964 61.7622139,25.1084136 L61.7622139,38.5593495 L30.3766968,38.5593495 L30.3766968,25.1084136 Z M82.7232556,99.4248343 C82.7232556,100.097381 82.1628,100.545746 81.6023443,100.545746 L10.5365664,100.545746 C9.86401964,100.545746 9.41565511,99.98529 9.41565511,99.4248343 L9.41565511,49.0959159 C9.41565511,48.4233691 9.97611077,47.9750046 10.5365664,47.9750046 L81.4902532,47.9750046 C82.1628,47.9750046 82.6111645,48.5354603 82.6111645,49.0959159 L82.6111645,99.4248343 L82.7232556,99.4248343 Z"/>
      <path d="M44.8962476,62.7564103 C39.5158733,62.7564103 35.2564103,67.1279644 35.2564103,72.3962476 C35.2564103,75.8710727 37.1619595,79.0096244 39.9642378,80.6909914 L39.9642378,90.3308288 L49.9403486,90.3308288 L49.9403486,80.6909914 C52.7426269,79.0096244 54.6481761,75.9831639 54.6481761,72.3962476 C54.536085,67.0158733 50.276622,62.7564103 44.8962476,62.7564103 Z"/>
    </g>
  </g>
</svg>
