<svg xmlns="http://www.w3.org/2000/svg" width="394" height="251" viewBox="0 0 394 251">
  <g fill="none" fill-rule="evenodd" transform="translate(-.083 .917)">
    <path fill="#8EC5FC" d="M321.498629,124.814088 C321.498629,193.747121 265.646256,249.628176 196.749315,249.628176 C127.852373,249.628176 72,193.747121 72,124.814088 C72,55.8810547 127.852373,0 196.749315,0 C265.646256,0 321.498629,55.8810547 321.498629,124.814088"/>
    <g transform="translate(15)">
      <path fill="#CDE6FF" d="M198.777212 142.673787L306.885307 142.673787C310.628306 142.673787 313.662519 140.405604 313.662519 137.607843L313.662519 137.607843C313.662519 134.810082 310.628306 132.5419 306.885307 132.5419L198.777212 132.5419C195.034567 132.5419 192 134.810082 192 137.607843L192 137.607843C192 140.405604 195.034567 142.673787 198.777212 142.673787M313.17913 129.583068L199.821306 129.583068C195.501806 129.583068 192 125.710338 192 120.932835 192 116.155798 195.501806 112.283069 199.821306 112.283069L313.17913 112.283069C317.499052 112.283069 321.000858 116.155798 321.000858 120.932835 321.000858 125.710338 317.499052 129.583068 313.17913 129.583068"/>
      <path fill="#8EC5FC" d="M317.942937,9.24091313 L193.605147,9.24091313 C191.123258,9.24091313 189.111182,7.22811164 189.111182,4.74493413 C189.111182,2.26175661 191.123258,0.248955118 193.605147,0.248955118 L317.942937,0.248955118 C320.424825,0.248955118 322.436582,2.26175661 322.436582,4.74493413 C322.436582,7.22811164 320.424825,9.24091313 317.942937,9.24091313"/>
      <path fill="#CDE6FF" d="M198.487957,18.0219668 L289.693869,18.0219668 C292.11715,18.0219668 294.081767,16.0563304 294.081767,13.6314718 C294.081767,11.2066133 292.11715,9.24097687 289.693869,9.24097687 L198.487957,9.24097687 C196.064676,9.24097687 194.099741,11.2066133 194.099741,13.6314718 C194.099741,16.0563304 196.064676,18.0219668 198.487957,18.0219668"/>
      <path fill="#8EC5FC" d="M57.5803104,28.1538537 L136.207645,28.1538537 C139.004229,28.1538537 141.271119,25.8857872 141.271119,23.0880696 C141.271119,20.2900333 139.004229,18.0219668 136.207645,18.0219668 L57.5803104,18.0219668 C54.7840447,18.0219668 52.5171552,20.2900333 52.5171552,23.0880696 C52.5171552,25.8857872 54.7840447,28.1538537 57.5803104,28.1538537"/>
      <path fill="#CDE6FF" d="M184.583614,36.2868018 L68.4263112,36.2868018 C66.1817179,36.2868018 64.3620271,34.4661662 64.3620271,32.2204074 C64.3620271,29.97433 66.1817179,28.1536944 68.4263112,28.1536944 L184.583614,28.1536944 C186.828208,28.1536944 188.647899,29.97433 188.647899,32.2204074 C188.647899,34.4661662 186.828208,36.2868018 184.583614,36.2868018"/>
      <path fill="#8EC5FC" d="M17.3912613 49.444902L111.33292 49.444902C114.964657 49.444902 117.908715 46.4993155 117.908715 42.8656926 117.908715 39.2323883 114.964657 36.2868018 111.33292 36.2868018L17.3912613 36.2868018C13.7595241 36.2868018 10.8154662 39.2323883 10.8154662 42.8656926 10.8154662 46.4993155 13.7595241 49.444902 17.3912613 49.444902M371.558074 53.2779089L182.714426 53.2779089C178.896675 53.2779089 175.801639 50.1812667 175.801639 46.3615329 175.801639 42.5414805 178.896675 39.4448383 182.714426 39.4448383L371.558074 39.4448383C375.375826 39.4448383 378.470861 42.5414805 378.470861 46.3615329 378.470861 50.1812667 375.375826 53.2779089 371.558074 53.2779089"/>
      <path fill="#CDE6FF" d="M221.548756,67.5090783 L312.438061,67.5090783 C316.365701,67.5090783 319.549921,64.3232049 319.549921,60.3935255 C319.549921,56.4635274 316.365701,53.2779727 312.438061,53.2779727 L221.548756,53.2779727 C217.620798,53.2779727 214.436896,56.4635274 214.436896,60.3935255 C214.436896,64.3232049 217.620798,67.5090783 221.548756,67.5090783"/>
      <path fill="#8EC5FC" d="M334.308305 78.4188384L227.000694 78.4188384C223.989429 78.4188384 221.548629 75.9764523 221.548629 72.9639424 221.548629 69.9514325 223.989429 67.5090464 227.000694 67.5090464L334.308305 67.5090464C337.31957 67.5090464 339.76037 69.9514325 339.76037 72.9639424 339.76037 75.9764523 337.31957 78.4188384 334.308305 78.4188384M37.2469773 102.693444L223.198168 102.693444C227.137911 102.693444 230.331687 99.4980104 230.331687 95.556221 230.331687 91.6144317 227.137911 88.4189978 223.198168 88.4189978L37.2469773 88.4189978C33.3072336 88.4189978 30.113458 91.6144317 30.113458 95.556221 30.113458 99.4980104 33.3072336 102.693444 37.2469773 102.693444"/>
      <path fill="#CDE6FF" d="M132.909445,116.009962 L7.47054035,116.009962 C3.79516619,116.009962 0.815752911,113.029002 0.815752911,109.351719 C0.815752911,105.674436 3.79516619,102.693476 7.47054035,102.693476 L132.909445,102.693476 C136.58482,102.693476 139.564233,105.674436 139.564233,109.351719 C139.564233,113.029002 136.58482,116.009962 132.909445,116.009962"/>
      <path fill="#8EC5FC" d="M332.497055 206.375571L247.010126 206.375571C243.752647 206.375571 241.111818 203.73337 241.111818 200.473881 241.111818 197.214711 243.752647 194.57251 247.010126 194.57251L332.497055 194.57251C335.754853 194.57251 338.395682 197.214711 338.395682 200.473881 338.395682 203.73337 335.754853 206.375571 332.497055 206.375571M12.1536222 153.62325L122.944223 153.62325C126.447916 153.62325 129.288456 150.781554 129.288456 147.275723 129.288456 143.77021 126.447916 140.928196 122.944223 140.928196L12.1536222 140.928196C8.64992904 140.928196 5.80938941 143.77021 5.80938941 147.275723 5.80938941 150.781554 8.64992904 153.62325 12.1536222 153.62325"/>
      <path fill="#CDE6FF" d="M59.3705702,167.855375 L118.868695,167.855375 C122.796654,167.855375 125.980874,164.669502 125.980874,160.739185 C125.980874,156.809187 122.796654,153.623313 118.868695,153.623313 L59.3705702,153.623313 C55.4426116,153.623313 52.2583915,156.809187 52.2583915,160.739185 C52.2583915,164.669502 55.4426116,167.855375 59.3705702,167.855375"/>
      <path fill="#FEFEFE" d="M73.619103 27.0804658L30.1134261 27.0804658C29.5856425 27.0804658 29.1578734 26.6524746 29.1578734 26.124417 29.1578734 25.5963593 29.5856425 25.1683681 30.1134261 25.1683681L73.619103 25.1683681C74.1468866 25.1683681 74.5746557 25.5963593 74.5746557 26.124417 74.5746557 26.6524746 74.1468866 27.0804658 73.619103 27.0804658M59.8265918 31.4864806L30.1133624 31.4864806C29.5855788 31.4864806 29.1578097 31.0584894 29.1578097 30.5304318 29.1578097 30.0023741 29.5855788 29.5743829 30.1133624 29.5743829L59.8265918 29.5743829C60.3543754 29.5743829 60.7821445 30.0023741 60.7821445 30.5304318 60.7821445 31.0584894 60.3543754 31.4864806 59.8265918 31.4864806M31.9905138 118.144803L8.33867368 118.144803C7.81089008 118.144803 7.38312099 117.716812 7.38312099 117.188754 7.38312099 116.660696 7.81089008 116.232705 8.33867368 116.232705L31.9905138 116.232705C32.5182974 116.232705 32.9460665 116.660696 32.9460665 117.188754 32.9460665 117.716812 32.5182974 118.144803 31.9905138 118.144803M124.662711 124.144803L101.01119 124.144803C100.483406 124.144803 100.055637 123.716812 100.055637 123.188754 100.055637 122.660696 100.483406 122.232705 101.01119 122.232705L124.662711 122.232705C125.190495 122.232705 125.618264 122.660696 125.618264 123.188754 125.618264 123.716812 125.190495 124.144803 124.662711 124.144803M91.3440046 124.144803L84.6165952 124.144803C84.0888116 124.144803 83.6610425 123.716812 83.6610425 123.188754 83.6610425 122.660696 84.0888116 122.232705 84.6165952 122.232705L91.3440046 122.232705C91.8717882 122.232705 92.2995573 122.660696 92.2995573 123.188754 92.2995573 123.716812 91.8717882 124.144803 91.3440046 124.144803M40.4576662 111.15838L8.33867368 111.15838C7.81089008 111.15838 7.38312099 110.730389 7.38312099 110.202332 7.38312099 109.674274 7.81089008 109.246283 8.33867368 109.246283L40.4576662 109.246283C40.9854498 109.246283 41.4132189 109.674274 41.4132189 110.202332 41.4132189 110.730389 40.9854498 111.15838 40.4576662 111.15838M334.406313 49.1322262L304.693084 49.1322262C304.1653 49.1322262 303.737531 48.704235 303.737531 48.1761774 303.737531 47.6481197 304.1653 47.2201285 304.693084 47.2201285L334.406313 47.2201285C334.934097 47.2201285 335.361866 47.6481197 335.361866 48.1761774 335.361866 48.704235 334.934097 49.1322262 334.406313 49.1322262M270.630624 45.1322262L240.917395 45.1322262C240.389611 45.1322262 239.961842 44.704235 239.961842 44.1761774 239.961842 43.6481197 240.389611 43.2201285 240.917395 43.2201285L270.630624 43.2201285C271.158408 43.2201285 271.586177 43.6481197 271.586177 44.1761774 271.586177 44.704235 271.158408 45.1322262 270.630624 45.1322262M231.945361 14.5873932L175.797085 14.5873932C175.269301 14.5873932 174.841532 14.159402 174.841532 13.6313444 174.841532 13.1032867 175.269301 12.6752955 175.797085 12.6752955L231.945361 12.6752955C232.473144 12.6752955 232.900913 13.1032867 232.900913 13.6313444 232.900913 14.159402 232.473144 14.5873932 231.945361 14.5873932M122.836915 42.1367404L93.1236852 42.1367404C92.5959016 42.1367404 92.1681325 41.7087492 92.1681325 41.1806915 92.1681325 40.6526339 92.5959016 40.2246427 93.1236852 40.2246427L122.836915 40.2246427C123.364698 40.2246427 123.792467 40.6526339 123.792467 41.1806915 123.792467 41.7087492 123.364698 42.1367404 122.836915 42.1367404M82.1284271 48.1367404L70.4585806 48.1367404C69.930797 48.1367404 69.5030279 47.7087492 69.5030279 47.1806915 69.5030279 46.6526339 69.930797 46.2246427 70.4585806 46.2246427L82.1284271 46.2246427C82.6562107 46.2246427 83.0839798 46.6526339 83.0839798 47.1806915 83.0839798 47.7087492 82.6562107 48.1367404 82.1284271 48.1367404M50.8049959 81.0773075L10.8157529 81.0773075C10.2879693 81.0773075 9.86020022 80.6493163 9.86020022 80.1212587 9.86020022 79.593201 10.2879693 79.1652099 10.8157529 79.1652099L50.8049959 79.1652099C51.3327795 79.1652099 51.7605486 79.593201 51.7605486 80.1212587 51.7605486 80.6493163 51.3327795 81.0773075 50.8049959 81.0773075M310.533963 72.0773075L257.816758 72.0773075C257.288975 72.0773075 256.861206 71.6493163 256.861206 71.1212587 256.861206 70.593201 257.288975 70.1652099 257.816758 70.1652099L310.533963 70.1652099C311.061747 70.1652099 311.489516 70.593201 311.489516 71.1212587 311.489516 71.6493163 311.061747 72.0773075 310.533963 72.0773075M281.668782 186.045646L251.955553 186.045646C251.427769 186.045646 251 185.617655 251 185.089597 251 184.56154 251.427769 184.133549 251.955553 184.133549L281.668782 184.133549C282.196566 184.133549 282.624335 184.56154 282.624335 185.089597 282.624335 185.617655 282.196566 186.045646 281.668782 186.045646M132.765234 10.196962L103.052005 10.196962C102.524221 10.196962 102.096452 9.76897078 102.096452 9.24091313 102.096452 8.71285549 102.524221 8.2848643 103.052005 8.2848643L132.765234 8.2848643C133.293018 8.2848643 133.720787 8.71285549 133.720787 9.24091313 133.720787 9.76897078 133.293018 10.196962 132.765234 10.196962M132.765234 217.667017L103.052005 217.667017C102.524221 217.667017 102.096452 217.239026 102.096452 216.710968 102.096452 216.182911 102.524221 215.75492 103.052005 215.75492L132.765234 215.75492C133.293018 215.75492 133.720787 216.182911 133.720787 216.710968 133.720787 217.239026 133.293018 217.667017 132.765234 217.667017M288.798261 217.667017L259.084713 217.667017C258.55693 217.667017 258.12916 217.239026 258.12916 216.710968 258.12916 216.182911 258.55693 215.75492 259.084713 215.75492L288.798261 215.75492C289.325726 215.75492 289.753814 216.182911 289.753814 216.710968 289.753814 217.239026 289.325726 217.667017 288.798261 217.667017M118.663746 211.667017L106.189961 211.667017C105.662177 211.667017 105.234408 211.239026 105.234408 210.710968 105.234408 210.182911 105.662177 209.75492 106.189961 209.75492L118.663746 209.75492C119.191529 209.75492 119.619299 210.182911 119.619299 210.710968 119.619299 211.239026 119.191529 211.667017 118.663746 211.667017M282.37902 181.045646L247.955553 181.045646C247.427769 181.045646 247 180.617655 247 180.089597 247 179.56154 247.427769 179.133549 247.955553 179.133549L282.37902 179.133549C282.906803 179.133549 283.334572 179.56154 283.334572 180.089597 283.334572 180.617655 282.906803 181.045646 282.37902 181.045646M112.331239 187.211317L77.9080903 187.211317C77.3803067 187.211317 76.9525377 186.783325 76.9525377 186.255268 76.9525377 185.72721 77.3803067 185.299219 77.9080903 185.299219L112.331239 185.299219C112.859023 185.299219 113.286792 185.72721 113.286792 186.255268 113.286792 186.783325 112.859023 187.211317 112.331239 187.211317M142.624996 172.902768L108.201847 172.902768C107.674063 172.902768 107.246294 172.474777 107.246294 171.946719 107.246294 171.418661 107.674063 170.99067 108.201847 170.99067L142.624996 170.99067C143.152779 170.99067 143.580548 171.418661 143.580548 171.946719 143.580548 172.474777 143.152779 172.902768 142.624996 172.902768M38.9120597 166.902768L25.0689679 166.902768C24.5411843 166.902768 24.1134152 166.474777 24.1134152 165.946719 24.1134152 165.418661 24.5411843 164.99067 25.0689679 164.99067L38.9120597 164.99067C39.4398433 164.99067 39.8676124 165.418661 39.8676124 165.946719 39.8676124 166.474777 39.4398433 166.902768 38.9120597 166.902768M298.267439 156.089597L263.844291 156.089597C263.316507 156.089597 262.888738 155.661606 262.888738 155.133549 262.888738 154.605491 263.316507 154.1775 263.844291 154.1775L298.267439 154.1775C298.795223 154.1775 299.222992 154.605491 299.222992 155.133549 299.222992 155.661606 298.795223 156.089597 298.267439 156.089597M282.199053 177.045646L258.955553 177.045646C258.427769 177.045646 258 176.617655 258 176.089597 258 175.56154 258.427769 175.133549 258.955553 175.133549L282.199053 175.133549C282.726837 175.133549 283.154606 175.56154 283.154606 176.089597 283.154606 176.617655 282.726837 177.045646 282.199053 177.045646M334.406313 55.4648069L297.526757 55.4648069C296.998973 55.4648069 296.571204 55.0368157 296.571204 54.5087581 296.571204 53.9807004 296.998973 53.5527092 297.526757 53.5527092L334.406313 53.5527092C334.934097 53.5527092 335.361866 53.9807004 335.361866 54.5087581 335.361866 55.0368157 334.934097 55.4648069 334.406313 55.4648069M276.436099 108.293062L239.556224 108.293062C239.02844 108.293062 238.600671 107.865071 238.600671 107.337013 238.600671 106.808956 239.02844 106.380965 239.556224 106.380965L276.436099 106.380965C276.963882 106.380965 277.391651 106.808956 277.391651 107.337013 277.391651 107.865071 276.963882 108.293062 276.436099 108.293062M66.4776526 36.0250675L30.113458 36.0250675C29.5856744 36.0250675 29.1579053 35.5970763 29.1579053 35.0690187 29.1579053 34.540961 29.5856744 34.1129698 30.113458 34.1129698L66.4776526 34.1129698C67.0054362 34.1129698 67.4332053 34.540961 67.4332053 35.0690187 67.4332053 35.5970763 67.0054362 36.0250675 66.4776526 36.0250675"/>
    </g>
    <g fill="#FEFEFE" transform="translate(0 15)">
      <path d="M58.0907235 18.0590535C58.0907235 14.8470481 55.4881165 12.2430897 52.277778 12.2430897 52.1210673 12.2430897 51.9665863 12.2510568 51.8133794 12.2631667 50.6310422 8.82457773 47.3719705 6.35319148 43.5338338 6.35319148 42.7700287 6.35319148 42.0294754 6.45134583 41.3233219 6.63522589 39.3644389 4.08066339 36.2843741 2.43243519 32.8179475 2.43243519 28.5647824 2.43243519 24.8903638 4.91178852 23.1595394 8.50462006 22.8136293 8.4571363 22.4610304 8.43068561 22.1020611 8.43068561 17.8393405 8.43068561 14.3837435 11.8880769 14.3837435 16.1530108 14.3837435 20.4179446 17.8393405 23.8753359 22.1020611 23.8753359L52.3163186 23.8753359 52.3163186 23.8743799C55.5088201 23.8533468 58.0907235 21.2583116 58.0907235 18.0590535M134.70698 201.622735C134.70698 199.513073 132.997574 197.802779 130.889006 197.802779 130.786078 197.802779 130.684614 197.808012 130.583987 197.815965 129.807421 195.557482 127.666845 193.934262 125.145936 193.934262 124.644265 193.934262 124.157866 193.99873 123.69406 194.119504 122.407455 192.441653 120.384452 191.359088 118.107684 191.359088 115.314183 191.359088 112.900805 192.987541 111.76399 195.347332 111.536794 195.316144 111.305206 195.298771 111.069433 195.298771 108.269655 195.298771 106 197.569604 106 200.370836 106 203.172068 108.269655 205.442901 111.069433 205.442901L130.91432 205.442901 130.91432 205.442273C133.011172 205.428458 134.70698 203.724025 134.70698 201.622735M278 170.760167C278 167.548161 280.602607 164.944203 283.813264 164.944203 283.969656 164.944203 284.124137 164.951851 284.277344 164.96428 285.459681 161.525691 288.718753 159.054305 292.55689 159.054305 293.320695 159.054305 294.061248 159.152459 294.76772 159.336021 296.726285 156.782095 299.806349 155.133549 303.272776 155.133549 307.525941 155.133549 311.20036 157.612902 312.931503 161.205733 313.277094 161.15825 313.629693 161.131799 313.988662 161.131799 318.251383 161.131799 321.70698 164.58919 321.70698 168.854124 321.70698 173.119058 318.251383 176.576449 313.988662 176.576449L283.774723 176.576449 283.774723 176.575493C280.581903 176.55446 278 173.959425 278 170.760167M382.820062 16.994493C382.053306 16.994493 381.318044 17.1294841 380.636051 17.375736 379.639501 13.9068132 376.778551 11.2272191 373.206058 10.4978 371.318718 4.41619513 365.650476-1.98951966e-13 358.951079-1.98951966e-13 351.765655-1.98951966e-13 345.767692 5.08142537 344.347716 11.8484897 343.458869 11.5633354 342.5117 11.407726 341.52837 11.407726 337.618768 11.407726 334.279957 13.8422353 332.937745 17.2780911 332.729725 17.2570838 332.518595 17.2461912 332.305132 17.2461912 328.822845 17.2461912 326 20.070502 326 23.5545968 326 27.0386915 328.822845 29.8633914 332.305132 29.8633914L382.820062 29.8633914C386.371948 29.8633914 389.251172 26.9826721 389.251172 23.4289422 389.251172 19.8752122 386.371948 16.994493 382.820062 16.994493M4.07820332 97.5412413C4.53877971 97.5412413 4.98024506 97.6221868 5.38985864 97.7700557 5.98803463 95.6871439 7.70579984 94.0781137 9.85101563 93.6402434 10.9843011 89.9887741 14.3876613 87.3370134 18.4102196 87.3370134 22.72454 87.3370134 26.326018 90.3880839 27.1786896 94.4512914 27.712525 94.2801587 28.2810788 94.1864659 28.8716104 94.1864659 31.2187663 94.1864659 33.2235159 95.6485833 34.0296838 97.711418 34.1545427 97.6989894 34.2813127 97.692297 34.4096753 97.692297 36.5004246 97.692297 38.1952565 99.3883277 38.1952565 101.480163 38.1952565 103.572316 36.5004246 105.268028 34.4096753 105.268028L4.07820332 105.268028C1.94572824 105.268028.216814905 103.538217.216814905 101.404635.216814905 99.2710523 1.94572824 97.5412413 4.07820332 97.5412413"/>
    </g>
    <path fill="#0056AD" fill-rule="nonzero" stroke="#0056AD" d="M245.778527,138.749684 C245.778527,134.983989 243.787511,131.584962 240.729488,129.673392 C241.981053,127.923157 242.722948,125.784251 242.722948,123.471789 C242.722948,117.574522 237.925689,112.777263 232.028421,112.777263 L198.067495,112.777263 C201.303964,102.732964 202.963754,92.2938838 203.000421,81.7313584 C203.021199,75.7399792 198.68961,70.7288297 192.926789,70.0737136 C186.989188,69.395375 181.485479,73.4702951 180.417248,79.3480068 L180.187469,80.6105721 C177.916562,93.0993344 172.6243,105.01487 164.883907,115.071392 C161.521548,119.438425 156.481065,121.944 151.055579,121.944 C149.367677,121.944 148,123.311677 148,124.999579 L148,164.722105 C148.015889,165.517778 148.32878,166.317117 148.894674,166.883011 C157.353738,175.340853 168.600713,180 180.563916,180 L225.597039,180 C231.496751,180 236.435788,175.349409 236.608123,169.633032 C236.671679,167.506349 236.114342,165.466444 235.025333,163.705209 C238.663917,161.996529 241.196381,158.307834 241.196381,154.028801 C241.196381,151.975452 240.60482,150.06266 239.597702,148.433425 C243.242396,146.725967 245.778527,143.032384 245.778527,138.749684 Z M213.694948,118.888421 L232.028421,118.888421 C234.554774,118.888421 236.61179,120.944214 236.61179,123.471789 C236.61179,125.999364 234.554774,128.055158 232.028421,128.055158 L213.694948,128.055158 C211.168595,128.055158 209.111579,125.999364 209.111579,123.471789 C209.111579,120.944214 211.168595,118.888421 213.694948,118.888421 Z M207.10223,173.888842 L180.563916,173.888842 C170.646729,173.888842 161.305213,170.172036 154.111158,163.414317 L154.111158,127.857156 C160.260205,127.057817 165.834803,123.854348 169.727611,118.797976 C178.058341,107.973893 183.755163,95.1453501 186.200848,81.7008026 L186.430628,80.4382374 C186.924409,77.7163277 189.467873,75.834091 192.23745,76.1445379 C194.856692,76.4427624 196.899041,78.8872255 196.890486,81.7093583 C196.855041,91.9638812 195.191584,102.094959 191.950226,111.821478 L190.935773,114.864834 C190.625326,115.796175 190.781772,116.821627 191.356221,117.6173 C191.93067,118.412973 192.85101,118.888421 193.833684,118.888421 L204.046652,118.888421 C203.38298,120.27932 203.000421,121.830332 203.000421,123.471789 C203.000421,126.46259 204.238542,129.167388 206.224668,131.110737 C204.238542,133.054085 203.000421,135.758883 203.000421,138.749684 C203.000421,141.740485 204.238542,144.445283 206.224668,146.388631 C204.238542,148.33198 203.000421,151.036778 203.000421,154.027579 C203.000421,157.854386 205.026881,161.209412 208.058016,163.098982 C206.802784,164.851662 206.056,166.990567 206.056,169.305474 C206.056,170.946931 206.438559,172.497943 207.10223,173.888842 Z M225.595817,173.888842 L216.750527,173.888842 C214.224174,173.888842 212.167158,171.833049 212.167158,169.305474 C212.167158,166.777899 214.224174,164.722105 216.750527,164.722105 L225.917263,164.722105 C227.167606,164.722105 228.33606,165.215887 229.206289,166.114227 C230.07774,167.011345 230.536077,168.195687 230.498187,169.449697 C230.424854,171.897827 228.226059,173.888842 225.595817,173.888842 Z M230.500632,158.610947 L213.694948,158.610947 C211.168595,158.610947 209.111579,156.555154 209.111579,154.027579 C209.111579,151.500004 211.168595,149.44421 213.694948,149.44421 L230.500632,149.44421 C233.026985,149.44421 235.084,151.500004 235.084,154.027579 C235.084,156.555154 233.026985,158.610947 230.500632,158.610947 Z M235.084,143.333052 L213.694948,143.333052 C211.168595,143.333052 209.111579,141.277259 209.111579,138.749684 C209.111579,136.222109 211.168595,134.166316 213.694948,134.166316 L235.084,134.166316 C235.394447,134.166316 235.704894,134.196871 236.004341,134.257983 C238.126135,134.689431 239.667369,136.577779 239.667369,138.749684 C239.667369,141.277259 237.610353,143.333052 235.084,143.333052 Z"/>
  </g>
</svg>
