<svg xmlns="http://www.w3.org/2000/svg" width="394" height="251" viewBox="0 0 394 251">
  <g fill="none" fill-rule="evenodd" transform="translate(-1)">
    <path fill="#8EC5FC" fill-rule="nonzero" d="M322.415629,125.731088 C322.415629,194.664121 266.563256,250.545176 197.666315,250.545176 C128.769373,250.545176 72.917,194.664121 72.917,125.731088 C72.917,56.7980547 128.769373,0.917 197.666315,0.917 C266.563256,0.917 322.415629,56.7980547 322.415629,125.731088"/>
    <g fill-rule="nonzero" transform="translate(15.917 .917)">
      <path fill="#8EC5FC" d="M317.942937,9.24091313 L193.605147,9.24091313 C191.123258,9.24091313 189.111182,7.22811164 189.111182,4.74493413 C189.111182,2.26175661 191.123258,0.248955118 193.605147,0.248955118 L317.942937,0.248955118 C320.424825,0.248955118 322.436582,2.26175661 322.436582,4.74493413 C322.436582,7.22811164 320.424825,9.24091313 317.942937,9.24091313"/>
      <path fill="#CDE6FF" d="M198.487957,18.0219668 L289.693869,18.0219668 C292.11715,18.0219668 294.081767,16.0563304 294.081767,13.6314718 C294.081767,11.2066133 292.11715,9.24097687 289.693869,9.24097687 L198.487957,9.24097687 C196.064676,9.24097687 194.099741,11.2066133 194.099741,13.6314718 C194.099741,16.0563304 196.064676,18.0219668 198.487957,18.0219668"/>
      <path fill="#8EC5FC" d="M57.5803104,28.1538537 L136.207645,28.1538537 C139.004229,28.1538537 141.271119,25.8857872 141.271119,23.0880696 C141.271119,20.2900333 139.004229,18.0219668 136.207645,18.0219668 L57.5803104,18.0219668 C54.7840447,18.0219668 52.5171552,20.2900333 52.5171552,23.0880696 C52.5171552,25.8857872 54.7840447,28.1538537 57.5803104,28.1538537"/>
      <path fill="#CDE6FF" d="M184.583614,36.2868018 L68.4263112,36.2868018 C66.1817179,36.2868018 64.3620271,34.4661662 64.3620271,32.2204074 C64.3620271,29.97433 66.1817179,28.1536944 68.4263112,28.1536944 L184.583614,28.1536944 C186.828208,28.1536944 188.647899,29.97433 188.647899,32.2204074 C188.647899,34.4661662 186.828208,36.2868018 184.583614,36.2868018"/>
      <path fill="#8EC5FC" d="M17.3912613,49.444902 L111.33292,49.444902 C114.964657,49.444902 117.908715,46.4993155 117.908715,42.8656926 C117.908715,39.2323883 114.964657,36.2868018 111.33292,36.2868018 L17.3912613,36.2868018 C13.7595241,36.2868018 10.8154662,39.2323883 10.8154662,42.8656926 C10.8154662,46.4993155 13.7595241,49.444902 17.3912613,49.444902 M371.558074,53.2779089 L182.714426,53.2779089 C178.896675,53.2779089 175.801639,50.1812667 175.801639,46.3615329 C175.801639,42.5414805 178.896675,39.4448383 182.714426,39.4448383 L371.558074,39.4448383 C375.375826,39.4448383 378.470861,42.5414805 378.470861,46.3615329 C378.470861,50.1812667 375.375826,53.2779089 371.558074,53.2779089"/>
      <path fill="#CDE6FF" d="M221.548756,67.5090783 L312.438061,67.5090783 C316.365701,67.5090783 319.549921,64.3232049 319.549921,60.3935255 C319.549921,56.4635274 316.365701,53.2779727 312.438061,53.2779727 L221.548756,53.2779727 C217.620798,53.2779727 214.436896,56.4635274 214.436896,60.3935255 C214.436896,64.3232049 217.620798,67.5090783 221.548756,67.5090783"/>
      <path fill="#8EC5FC" d="M334.308305,78.4188384 L227.000694,78.4188384 C223.989429,78.4188384 221.548629,75.9764523 221.548629,72.9639424 C221.548629,69.9514325 223.989429,67.5090464 227.000694,67.5090464 L334.308305,67.5090464 C337.31957,67.5090464 339.76037,69.9514325 339.76037,72.9639424 C339.76037,75.9764523 337.31957,78.4188384 334.308305,78.4188384 M37.2469773,102.693444 L223.198168,102.693444 C227.137911,102.693444 230.331687,99.4980104 230.331687,95.556221 C230.331687,91.6144317 227.137911,88.4189978 223.198168,88.4189978 L37.2469773,88.4189978 C33.3072336,88.4189978 30.113458,91.6144317 30.113458,95.556221 C30.113458,99.4980104 33.3072336,102.693444 37.2469773,102.693444"/>
      <path fill="#CDE6FF" d="M132.909445,116.009962 L7.47054035,116.009962 C3.79516619,116.009962 0.815752911,113.029002 0.815752911,109.351719 C0.815752911,105.674436 3.79516619,102.693476 7.47054035,102.693476 L132.909445,102.693476 C136.58482,102.693476 139.564233,105.674436 139.564233,109.351719 C139.564233,113.029002 136.58482,116.009962 132.909445,116.009962"/>
      <path fill="#8EC5FC" d="M332.497055,206.375571 L247.010126,206.375571 C243.752647,206.375571 241.111818,203.73337 241.111818,200.473881 C241.111818,197.214711 243.752647,194.57251 247.010126,194.57251 L332.497055,194.57251 C335.754853,194.57251 338.395682,197.214711 338.395682,200.473881 C338.395682,203.73337 335.754853,206.375571 332.497055,206.375571 M12.1536222,153.62325 L122.944223,153.62325 C126.447916,153.62325 129.288456,150.781554 129.288456,147.275723 C129.288456,143.77021 126.447916,140.928196 122.944223,140.928196 L12.1536222,140.928196 C8.64992904,140.928196 5.80938941,143.77021 5.80938941,147.275723 C5.80938941,150.781554 8.64992904,153.62325 12.1536222,153.62325"/>
      <path fill="#CDE6FF" d="M59.3705702,167.855375 L118.868695,167.855375 C122.796654,167.855375 125.980874,164.669502 125.980874,160.739185 C125.980874,156.809187 122.796654,153.623313 118.868695,153.623313 L59.3705702,153.623313 C55.4426116,153.623313 52.2583915,156.809187 52.2583915,160.739185 C52.2583915,164.669502 55.4426116,167.855375 59.3705702,167.855375"/>
      <path fill="#FEFEFE" d="M73.619103,27.0804658 L30.1134261,27.0804658 C29.5856425,27.0804658 29.1578734,26.6524746 29.1578734,26.124417 C29.1578734,25.5963593 29.5856425,25.1683681 30.1134261,25.1683681 L73.619103,25.1683681 C74.1468866,25.1683681 74.5746557,25.5963593 74.5746557,26.124417 C74.5746557,26.6524746 74.1468866,27.0804658 73.619103,27.0804658 M59.8265918,31.4864806 L30.1133624,31.4864806 C29.5855788,31.4864806 29.1578097,31.0584894 29.1578097,30.5304318 C29.1578097,30.0023741 29.5855788,29.5743829 30.1133624,29.5743829 L59.8265918,29.5743829 C60.3543754,29.5743829 60.7821445,30.0023741 60.7821445,30.5304318 C60.7821445,31.0584894 60.3543754,31.4864806 59.8265918,31.4864806 M31.9905138,118.144803 L8.33867368,118.144803 C7.81089008,118.144803 7.38312099,117.716812 7.38312099,117.188754 C7.38312099,116.660696 7.81089008,116.232705 8.33867368,116.232705 L31.9905138,116.232705 C32.5182974,116.232705 32.9460665,116.660696 32.9460665,117.188754 C32.9460665,117.716812 32.5182974,118.144803 31.9905138,118.144803 M124.662711,124.144803 L101.01119,124.144803 C100.483406,124.144803 100.055637,123.716812 100.055637,123.188754 C100.055637,122.660696 100.483406,122.232705 101.01119,122.232705 L124.662711,122.232705 C125.190495,122.232705 125.618264,122.660696 125.618264,123.188754 C125.618264,123.716812 125.190495,124.144803 124.662711,124.144803 M91.3440046,124.144803 L84.6165952,124.144803 C84.0888116,124.144803 83.6610425,123.716812 83.6610425,123.188754 C83.6610425,122.660696 84.0888116,122.232705 84.6165952,122.232705 L91.3440046,122.232705 C91.8717882,122.232705 92.2995573,122.660696 92.2995573,123.188754 C92.2995573,123.716812 91.8717882,124.144803 91.3440046,124.144803 M40.4576662,111.15838 L8.33867368,111.15838 C7.81089008,111.15838 7.38312099,110.730389 7.38312099,110.202332 C7.38312099,109.674274 7.81089008,109.246283 8.33867368,109.246283 L40.4576662,109.246283 C40.9854498,109.246283 41.4132189,109.674274 41.4132189,110.202332 C41.4132189,110.730389 40.9854498,111.15838 40.4576662,111.15838 M334.406313,49.1322262 L304.693084,49.1322262 C304.1653,49.1322262 303.737531,48.704235 303.737531,48.1761774 C303.737531,47.6481197 304.1653,47.2201285 304.693084,47.2201285 L334.406313,47.2201285 C334.934097,47.2201285 335.361866,47.6481197 335.361866,48.1761774 C335.361866,48.704235 334.934097,49.1322262 334.406313,49.1322262 M270.630624,45.1322262 L240.917395,45.1322262 C240.389611,45.1322262 239.961842,44.704235 239.961842,44.1761774 C239.961842,43.6481197 240.389611,43.2201285 240.917395,43.2201285 L270.630624,43.2201285 C271.158408,43.2201285 271.586177,43.6481197 271.586177,44.1761774 C271.586177,44.704235 271.158408,45.1322262 270.630624,45.1322262 M231.945361,14.5873932 L175.797085,14.5873932 C175.269301,14.5873932 174.841532,14.159402 174.841532,13.6313444 C174.841532,13.1032867 175.269301,12.6752955 175.797085,12.6752955 L231.945361,12.6752955 C232.473144,12.6752955 232.900913,13.1032867 232.900913,13.6313444 C232.900913,14.159402 232.473144,14.5873932 231.945361,14.5873932 M122.836915,42.1367404 L93.1236852,42.1367404 C92.5959016,42.1367404 92.1681325,41.7087492 92.1681325,41.1806915 C92.1681325,40.6526339 92.5959016,40.2246427 93.1236852,40.2246427 L122.836915,40.2246427 C123.364698,40.2246427 123.792467,40.6526339 123.792467,41.1806915 C123.792467,41.7087492 123.364698,42.1367404 122.836915,42.1367404 M82.1284271,48.1367404 L70.4585806,48.1367404 C69.930797,48.1367404 69.5030279,47.7087492 69.5030279,47.1806915 C69.5030279,46.6526339 69.930797,46.2246427 70.4585806,46.2246427 L82.1284271,46.2246427 C82.6562107,46.2246427 83.0839798,46.6526339 83.0839798,47.1806915 C83.0839798,47.7087492 82.6562107,48.1367404 82.1284271,48.1367404 M50.8049959,81.0773075 L10.8157529,81.0773075 C10.2879693,81.0773075 9.86020022,80.6493163 9.86020022,80.1212587 C9.86020022,79.593201 10.2879693,79.1652099 10.8157529,79.1652099 L50.8049959,79.1652099 C51.3327795,79.1652099 51.7605486,79.593201 51.7605486,80.1212587 C51.7605486,80.6493163 51.3327795,81.0773075 50.8049959,81.0773075 M310.533963,72.0773075 L257.816758,72.0773075 C257.288975,72.0773075 256.861206,71.6493163 256.861206,71.1212587 C256.861206,70.593201 257.288975,70.1652099 257.816758,70.1652099 L310.533963,70.1652099 C311.061747,70.1652099 311.489516,70.593201 311.489516,71.1212587 C311.489516,71.6493163 311.061747,72.0773075 310.533963,72.0773075 M281.668782,186.045646 L251.955553,186.045646 C251.427769,186.045646 251,185.617655 251,185.089597 C251,184.56154 251.427769,184.133549 251.955553,184.133549 L281.668782,184.133549 C282.196566,184.133549 282.624335,184.56154 282.624335,185.089597 C282.624335,185.617655 282.196566,186.045646 281.668782,186.045646 M132.765234,10.196962 L103.052005,10.196962 C102.524221,10.196962 102.096452,9.76897078 102.096452,9.24091313 C102.096452,8.71285549 102.524221,8.2848643 103.052005,8.2848643 L132.765234,8.2848643 C133.293018,8.2848643 133.720787,8.71285549 133.720787,9.24091313 C133.720787,9.76897078 133.293018,10.196962 132.765234,10.196962 M132.765234,217.667017 L103.052005,217.667017 C102.524221,217.667017 102.096452,217.239026 102.096452,216.710968 C102.096452,216.182911 102.524221,215.75492 103.052005,215.75492 L132.765234,215.75492 C133.293018,215.75492 133.720787,216.182911 133.720787,216.710968 C133.720787,217.239026 133.293018,217.667017 132.765234,217.667017 M288.798261,217.667017 L259.084713,217.667017 C258.55693,217.667017 258.12916,217.239026 258.12916,216.710968 C258.12916,216.182911 258.55693,215.75492 259.084713,215.75492 L288.798261,215.75492 C289.325726,215.75492 289.753814,216.182911 289.753814,216.710968 C289.753814,217.239026 289.325726,217.667017 288.798261,217.667017 M118.663746,211.667017 L106.189961,211.667017 C105.662177,211.667017 105.234408,211.239026 105.234408,210.710968 C105.234408,210.182911 105.662177,209.75492 106.189961,209.75492 L118.663746,209.75492 C119.191529,209.75492 119.619299,210.182911 119.619299,210.710968 C119.619299,211.239026 119.191529,211.667017 118.663746,211.667017 M282.37902,181.045646 L247.955553,181.045646 C247.427769,181.045646 247,180.617655 247,180.089597 C247,179.56154 247.427769,179.133549 247.955553,179.133549 L282.37902,179.133549 C282.906803,179.133549 283.334572,179.56154 283.334572,180.089597 C283.334572,180.617655 282.906803,181.045646 282.37902,181.045646 M112.331239,187.211317 L77.9080903,187.211317 C77.3803067,187.211317 76.9525377,186.783325 76.9525377,186.255268 C76.9525377,185.72721 77.3803067,185.299219 77.9080903,185.299219 L112.331239,185.299219 C112.859023,185.299219 113.286792,185.72721 113.286792,186.255268 C113.286792,186.783325 112.859023,187.211317 112.331239,187.211317 M142.624996,172.902768 L108.201847,172.902768 C107.674063,172.902768 107.246294,172.474777 107.246294,171.946719 C107.246294,171.418661 107.674063,170.99067 108.201847,170.99067 L142.624996,170.99067 C143.152779,170.99067 143.580548,171.418661 143.580548,171.946719 C143.580548,172.474777 143.152779,172.902768 142.624996,172.902768 M38.9120597,166.902768 L25.0689679,166.902768 C24.5411843,166.902768 24.1134152,166.474777 24.1134152,165.946719 C24.1134152,165.418661 24.5411843,164.99067 25.0689679,164.99067 L38.9120597,164.99067 C39.4398433,164.99067 39.8676124,165.418661 39.8676124,165.946719 C39.8676124,166.474777 39.4398433,166.902768 38.9120597,166.902768 M298.267439,156.089597 L263.844291,156.089597 C263.316507,156.089597 262.888738,155.661606 262.888738,155.133549 C262.888738,154.605491 263.316507,154.1775 263.844291,154.1775 L298.267439,154.1775 C298.795223,154.1775 299.222992,154.605491 299.222992,155.133549 C299.222992,155.661606 298.795223,156.089597 298.267439,156.089597 M282.199053,177.045646 L258.955553,177.045646 C258.427769,177.045646 258,176.617655 258,176.089597 C258,175.56154 258.427769,175.133549 258.955553,175.133549 L282.199053,175.133549 C282.726837,175.133549 283.154606,175.56154 283.154606,176.089597 C283.154606,176.617655 282.726837,177.045646 282.199053,177.045646 M334.406313,55.4648069 L297.526757,55.4648069 C296.998973,55.4648069 296.571204,55.0368157 296.571204,54.5087581 C296.571204,53.9807004 296.998973,53.5527092 297.526757,53.5527092 L334.406313,53.5527092 C334.934097,53.5527092 335.361866,53.9807004 335.361866,54.5087581 C335.361866,55.0368157 334.934097,55.4648069 334.406313,55.4648069 M276.436099,108.293062 L239.556224,108.293062 C239.02844,108.293062 238.600671,107.865071 238.600671,107.337013 C238.600671,106.808956 239.02844,106.380965 239.556224,106.380965 L276.436099,106.380965 C276.963882,106.380965 277.391651,106.808956 277.391651,107.337013 C277.391651,107.865071 276.963882,108.293062 276.436099,108.293062 M66.4776526,36.0250675 L30.113458,36.0250675 C29.5856744,36.0250675 29.1579053,35.5970763 29.1579053,35.0690187 C29.1579053,34.540961 29.5856744,34.1129698 30.113458,34.1129698 L66.4776526,34.1129698 C67.0054362,34.1129698 67.4332053,34.540961 67.4332053,35.0690187 C67.4332053,35.5970763 67.0054362,36.0250675 66.4776526,36.0250675"/>
    </g>
    <g transform="translate(.917 15.917)">
      <path fill="#FEFEFE" fill-rule="nonzero" d="M58.0907235,18.0590535 C58.0907235,14.8470481 55.4881165,12.2430897 52.277778,12.2430897 C52.1210673,12.2430897 51.9665863,12.2510568 51.8133794,12.2631667 C50.6310422,8.82457773 47.3719705,6.35319148 43.5338338,6.35319148 C42.7700287,6.35319148 42.0294754,6.45134583 41.3233219,6.63522589 C39.3644389,4.08066339 36.2843741,2.43243519 32.8179475,2.43243519 C28.5647824,2.43243519 24.8903638,4.91178852 23.1595394,8.50462006 C22.8136293,8.4571363 22.4610304,8.43068561 22.1020611,8.43068561 C17.8393405,8.43068561 14.3837435,11.8880769 14.3837435,16.1530108 C14.3837435,20.4179446 17.8393405,23.8753359 22.1020611,23.8753359 L52.3163186,23.8753359 L52.3163186,23.8743799 C55.5088201,23.8533468 58.0907235,21.2583116 58.0907235,18.0590535 M134.70698,201.622735 C134.70698,199.513073 132.997574,197.802779 130.889006,197.802779 C130.786078,197.802779 130.684614,197.808012 130.583987,197.815965 C129.807421,195.557482 127.666845,193.934262 125.145936,193.934262 C124.644265,193.934262 124.157866,193.99873 123.69406,194.119504 C122.407455,192.441653 120.384452,191.359088 118.107684,191.359088 C115.314183,191.359088 112.900805,192.987541 111.76399,195.347332 C111.536794,195.316144 111.305206,195.298771 111.069433,195.298771 C108.269655,195.298771 106,197.569604 106,200.370836 C106,203.172068 108.269655,205.442901 111.069433,205.442901 L130.91432,205.442901 L130.91432,205.442273 C133.011172,205.428458 134.70698,203.724025 134.70698,201.622735 M278,170.760167 C278,167.548161 280.602607,164.944203 283.813264,164.944203 C283.969656,164.944203 284.124137,164.951851 284.277344,164.96428 C285.459681,161.525691 288.718753,159.054305 292.55689,159.054305 C293.320695,159.054305 294.061248,159.152459 294.76772,159.336021 C296.726285,156.782095 299.806349,155.133549 303.272776,155.133549 C307.525941,155.133549 311.20036,157.612902 312.931503,161.205733 C313.277094,161.15825 313.629693,161.131799 313.988662,161.131799 C318.251383,161.131799 321.70698,164.58919 321.70698,168.854124 C321.70698,173.119058 318.251383,176.576449 313.988662,176.576449 L283.774723,176.576449 L283.774723,176.575493 C280.581903,176.55446 278,173.959425 278,170.760167 M382.820062,16.994493 C382.053306,16.994493 381.318044,17.1294841 380.636051,17.375736 C379.639501,13.9068132 376.778551,11.2272191 373.206058,10.4978 C371.318718,4.41619513 365.650476,-1.98951966e-13 358.951079,-1.98951966e-13 C351.765655,-1.98951966e-13 345.767692,5.08142537 344.347716,11.8484897 C343.458869,11.5633354 342.5117,11.407726 341.52837,11.407726 C337.618768,11.407726 334.279957,13.8422353 332.937745,17.2780911 C332.729725,17.2570838 332.518595,17.2461912 332.305132,17.2461912 C328.822845,17.2461912 326,20.070502 326,23.5545968 C326,27.0386915 328.822845,29.8633914 332.305132,29.8633914 L382.820062,29.8633914 C386.371948,29.8633914 389.251172,26.9826721 389.251172,23.4289422 C389.251172,19.8752122 386.371948,16.994493 382.820062,16.994493 M4.07820332,97.5412413 C4.53877971,97.5412413 4.98024506,97.6221868 5.38985864,97.7700557 C5.98803463,95.6871439 7.70579984,94.0781137 9.85101563,93.6402434 C10.9843011,89.9887741 14.3876613,87.3370134 18.4102196,87.3370134 C22.72454,87.3370134 26.326018,90.3880839 27.1786896,94.4512914 C27.712525,94.2801587 28.2810788,94.1864659 28.8716104,94.1864659 C31.2187663,94.1864659 33.2235159,95.6485833 34.0296838,97.711418 C34.1545427,97.6989894 34.2813127,97.692297 34.4096753,97.692297 C36.5004246,97.692297 38.1952565,99.3883277 38.1952565,101.480163 C38.1952565,103.572316 36.5004246,105.268028 34.4096753,105.268028 L4.07820332,105.268028 C1.94572824,105.268028 0.216814905,103.538217 0.216814905,101.404635 C0.216814905,99.2710523 1.94572824,97.5412413 4.07820332,97.5412413"/>
      <path fill="#CDE6FF" d="M328.17913,114.583068 L214.821306,114.583068 C210.501806,114.583068 207,110.710338 207,105.932835 C207,101.155798 210.501806,97.283069 214.821306,97.283069 L328.17913,97.283069 C332.499052,97.283069 336.000858,101.155798 336.000858,105.932835 C336.000858,110.710338 332.499052,114.583068 328.17913,114.583068"/>
    </g>
    <path fill="#0056AD" fill-rule="nonzero" stroke="#0056AD" d="M246.695527,139.666684 C246.695527,135.900989 244.704511,132.501962 241.646488,130.590392 C242.898053,128.840157 243.639948,126.701251 243.639948,124.388789 C243.639948,118.491522 238.842689,113.694263 232.945421,113.694263 L198.984495,113.694263 C202.220964,103.649964 203.880754,93.2108838 203.917421,82.6483584 C203.938199,76.6569792 199.60661,71.6458297 193.843789,70.9907136 C187.906188,70.312375 182.402479,74.3872951 181.334248,80.2650068 L181.104469,81.5275721 C178.833562,94.0163344 173.5413,105.93187 165.800907,115.988392 C162.438548,120.355425 157.398065,122.861 151.972579,122.861 C150.284677,122.861 148.917,124.228677 148.917,125.916579 L148.917,165.639105 C148.932889,166.434778 149.24578,167.234117 149.811674,167.800011 C158.270738,176.257853 169.517713,180.917 181.480916,180.917 L226.514039,180.917 C232.413751,180.917 237.352788,176.266409 237.525123,170.550032 C237.588679,168.423349 237.031342,166.383444 235.942333,164.622209 C239.580917,162.913529 242.113381,159.224834 242.113381,154.945801 C242.113381,152.892452 241.52182,150.97966 240.514702,149.350425 C244.159396,147.642967 246.695527,143.949384 246.695527,139.666684 Z M214.611948,119.805421 L232.945421,119.805421 C235.471774,119.805421 237.52879,121.861214 237.52879,124.388789 C237.52879,126.916364 235.471774,128.972158 232.945421,128.972158 L214.611948,128.972158 C212.085595,128.972158 210.028579,126.916364 210.028579,124.388789 C210.028579,121.861214 212.085595,119.805421 214.611948,119.805421 Z M208.01923,174.805842 L181.480916,174.805842 C171.563729,174.805842 162.222213,171.089036 155.028158,164.331317 L155.028158,128.774156 C161.177205,127.974817 166.751803,124.771348 170.644611,119.714976 C178.975341,108.890893 184.672163,96.0623501 187.117848,82.6178026 L187.347628,81.3552374 C187.841409,78.6333277 190.384873,76.751091 193.15445,77.0615379 C195.773692,77.3597624 197.816041,79.8042255 197.807486,82.6263583 C197.772041,92.8808812 196.108584,103.011959 192.867226,112.738478 L191.852773,115.781834 C191.542326,116.713175 191.698772,117.738627 192.273221,118.5343 C192.84767,119.329973 193.76801,119.805421 194.750684,119.805421 L204.963652,119.805421 C204.29998,121.19632 203.917421,122.747332 203.917421,124.388789 C203.917421,127.37959 205.155542,130.084388 207.141668,132.027737 C205.155542,133.971085 203.917421,136.675883 203.917421,139.666684 C203.917421,142.657485 205.155542,145.362283 207.141668,147.305631 C205.155542,149.24898 203.917421,151.953778 203.917421,154.944579 C203.917421,158.771386 205.943881,162.126412 208.975016,164.015982 C207.719784,165.768662 206.973,167.907567 206.973,170.222474 C206.973,171.863931 207.355559,173.414943 208.01923,174.805842 Z M226.512817,174.805842 L217.667527,174.805842 C215.141174,174.805842 213.084158,172.750049 213.084158,170.222474 C213.084158,167.694899 215.141174,165.639105 217.667527,165.639105 L226.834263,165.639105 C228.084606,165.639105 229.25306,166.132887 230.123289,167.031227 C230.99474,167.928345 231.453077,169.112687 231.415187,170.366697 C231.341854,172.814827 229.143059,174.805842 226.512817,174.805842 Z M231.417632,159.527947 L214.611948,159.527947 C212.085595,159.527947 210.028579,157.472154 210.028579,154.944579 C210.028579,152.417004 212.085595,150.36121 214.611948,150.36121 L231.417632,150.36121 C233.943985,150.36121 236.001,152.417004 236.001,154.944579 C236.001,157.472154 233.943985,159.527947 231.417632,159.527947 Z M236.001,144.250052 L214.611948,144.250052 C212.085595,144.250052 210.028579,142.194259 210.028579,139.666684 C210.028579,137.139109 212.085595,135.083316 214.611948,135.083316 L236.001,135.083316 C236.311447,135.083316 236.621894,135.113871 236.921341,135.174983 C239.043135,135.606431 240.584369,137.494779 240.584369,139.666684 C240.584369,142.194259 238.527353,144.250052 236.001,144.250052 Z" transform="rotate(180 197.806 125.917)"/>
    <path fill="#CDE6FF" fill-rule="nonzero" d="M214.694212,143.590787 L322.802307,143.590787 C326.545306,143.590787 329.579519,141.322604 329.579519,138.524843 L329.579519,138.524843 C329.579519,135.727082 326.545306,133.4589 322.802307,133.4589 L214.694212,133.4589 C210.951567,133.4589 207.917,135.727082 207.917,138.524843 L207.917,138.524843 C207.917,141.322604 210.951567,143.590787 214.694212,143.590787"/>
  </g>
</svg>
