<svg xmlns="http://www.w3.org/2000/svg" width="292" height="185" viewBox="0 0 292 185">
  <g fill="none" fill-rule="evenodd">
    <path fill="#8EC5FC" d="M238.26802,92.3624252 C238.26802,143.37287 196.87489,184.72485 145.814213,184.72485 C94.7535354,184.72485 53.3604061,143.37287 53.3604061,92.3624252 C53.3604061,41.3519804 94.7535354,0 145.814213,0 C196.87489,0 238.26802,41.3519804 238.26802,92.3624252"/>
    <g transform="translate(11.117)">
      <path fill="#8EC5FC" d="M235.632836,6.83827572 L143.484017,6.83827572 C141.644648,6.83827572 140.153465,5.34880262 140.153465,3.51125125 C140.153465,1.67369989 141.644648,0.184226787 143.484017,0.184226787 L235.632836,0.184226787 C237.472206,0.184226787 238.963152,1.67369989 238.963152,3.51125125 C238.963152,5.34880262 237.472206,6.83827572 235.632836,6.83827572"/>
      <path fill="#CDE6FF" d="M147.10275,13.3362554 L214.696979,13.3362554 C216.492913,13.3362554 217.948924,11.8816845 217.948924,10.0872891 C217.948924,8.29289383 216.492913,6.83832288 214.696979,6.83832288 L147.10275,6.83832288 C145.306815,6.83832288 143.850569,8.29289383 143.850569,10.0872891 C143.850569,11.8816845 145.306815,13.3362554 147.10275,13.3362554"/>
      <path fill="#8EC5FC" d="M42.6737326,20.8338517 L100.945767,20.8338517 C103.018363,20.8338517 104.698392,19.1554825 104.698392,17.0851715 C104.698392,15.0146246 103.018363,13.3362554 100.945767,13.3362554 L42.6737326,13.3362554 C40.6013732,13.3362554 38.9213434,15.0146246 38.9213434,17.0851715 C38.9213434,19.1554825 40.6013732,20.8338517 42.6737326,20.8338517"/>
      <path fill="#CDE6FF" d="M136.798009,26.8522334 L50.7118854,26.8522334 C49.0483798,26.8522334 47.6997764,25.504963 47.6997764,23.8431015 C47.6997764,22.1810042 49.0483798,20.8337338 50.7118854,20.8337338 L136.798009,20.8337338 C138.461514,20.8337338 139.810118,22.1810042 139.810118,23.8431015 C139.810118,25.504963 138.461514,26.8522334 136.798009,26.8522334"/>
      <path fill="#8EC5FC" d="M12.8889551 36.5892275L82.5106921 36.5892275C85.2022334 36.5892275 87.384124 34.4094935 87.384124 31.7206125 87.384124 29.0319673 85.2022334 26.8522334 82.5106921 26.8522334L12.8889551 26.8522334C10.1974138 26.8522334 8.01552321 29.0319673 8.01552321 31.7206125 8.01552321 34.4094935 10.1974138 36.5892275 12.8889551 36.5892275M275.367913 46.8256526L135.412722 46.8256526C132.583322 46.8256526 130.28954 44.5341374 130.28954 41.7075344 130.28954 38.8806955 132.583322 36.5891803 135.412722 36.5891803L275.367913 36.5891803C278.197312 36.5891803 280.491095 38.8806955 280.491095 41.7075344 280.491095 44.5341374 278.197312 46.8256526 275.367913 46.8256526"/>
      <path fill="#CDE6FF" d="M164.193494,57.356718 L231.553081,57.356718 C234.463921,57.356718 236.8238,54.9991716 236.8238,52.0912089 C236.8238,49.1830103 234.463921,46.8256998 231.553081,46.8256998 L164.193494,46.8256998 C161.282419,46.8256998 158.922776,49.1830103 158.922776,52.0912089 C158.922776,54.9991716 161.282419,57.356718 164.193494,57.356718"/>
      <path fill="#8EC5FC" d="M247.761485 65.4299404L168.234017 65.4299404C166.002318 65.4299404 164.1934 63.6225747 164.1934 61.3933174 164.1934 59.1640601 166.002318 57.3566944 168.234017 57.3566944L247.761485 57.3566944C249.993184 57.3566944 251.802102 59.1640601 251.802102 61.3933174 251.802102 63.6225747 249.993184 65.4299404 247.761485 65.4299404M27.6043588 75.9931488L165.415901 75.9931488C168.335711 75.9931488 170.702671 73.6285277 170.702671 70.7116036 170.702671 67.7946794 168.335711 65.4300584 165.415901 65.4300584L27.6043588 65.4300584C24.6845487 65.4300584 22.3175881 67.7946794 22.3175881 70.7116036 22.3175881 73.6285277 24.6845487 75.9931488 27.6043588 75.9931488"/>
      <path fill="#CDE6FF" d="M84.0112976,85.8473717 L4.80654059,85.8473717 C2.48583222,85.8473717 0.604568147,83.6414611 0.604568147,80.920272 C0.604568147,78.199083 2.48583222,75.9931724 4.80654059,75.9931724 L84.0112976,75.9931724 C86.332006,75.9931724 88.21327,78.199083 88.21327,80.920272 C88.21327,83.6414611 86.332006,85.8473717 84.0112976,85.8473717"/>
      <path fill="#8EC5FC" d="M246.419137 152.717922L183.063342 152.717922C180.64917 152.717922 178.692007 150.762694 178.692007 148.350672 178.692007 145.938886 180.64917 143.983658 183.063342 143.983658L246.419137 143.983658C248.833546 143.983658 250.790708 145.938886 250.790708 148.350672 250.790708 150.762694 248.833546 152.717922 246.419137 152.717922M9.00725302 113.681205L91.1160232 113.681205C93.712669 113.681205 95.8178405 111.57835 95.8178405 108.984035 95.8178405 106.389956 93.712669 104.286865 91.1160232 104.286865L9.00725302 104.286865C6.41060731 104.286865 4.30543581 106.389956 4.30543581 108.984035 4.30543581 111.57835 6.41060731 113.681205 9.00725302 113.681205"/>
      <path fill="#CDE6FF" d="M36.5893566,124.212977 L80.6844138,124.212977 C83.5954897,124.212977 85.9553686,121.855431 85.9553686,118.946997 C85.9553686,116.038798 83.5954897,113.681252 80.6844138,113.681252 L36.5893566,113.681252 C33.6782807,113.681252 31.3184018,116.038798 31.3184018,118.946997 C31.3184018,121.855431 33.6782807,124.212977 36.5893566,124.212977"/>
      <path fill="#FEFEFE" d="M84.9461372 21.5195447L52.7033513 21.5195447C52.3122021 21.5195447 51.9951752 21.2028312 51.9951752 20.8120685 51.9951752 20.4213059 52.3122021 20.1045924 52.7033513 20.1045924L84.9461372 20.1045924C85.3372865 20.1045924 85.6543133 20.4213059 85.6543133 20.8120685 85.6543133 21.2028312 85.3372865 21.5195447 84.9461372 21.5195447M74.7242761 24.7799956L52.7033041 24.7799956C52.3121549 24.7799956 51.995128 24.4632822 51.995128 24.0725195 51.995128 23.6817569 52.3121549 23.3650434 52.7033041 23.3650434L74.7242761 23.3650434C75.1154254 23.3650434 75.4324522 23.6817569 75.4324522 24.0725195 75.4324522 24.4632822 75.1154254 24.7799956 74.7242761 24.7799956M23.7087057 94.8271541L6.17993075 94.8271541C5.78878148 94.8271541 5.47175464 94.5104407 5.47175464 94.119678 5.47175464 93.7289153 5.78878148 93.4122019 6.17993075 93.4122019L23.7087057 93.4122019C24.0998549 93.4122019 24.4168818 93.7289153 24.4168818 94.119678 24.4168818 94.5104407 24.0998549 94.8271541 23.7087057 94.8271541M87.2018063 97.7871541L69.6732675 97.7871541C69.2821182 97.7871541 68.9650913 97.4704407 68.9650913 97.079678 68.9650913 96.6889153 69.2821182 96.3722019 69.6732675 96.3722019L87.2018063 96.3722019C87.5929556 96.3722019 87.9099824 96.6889153 87.9099824 97.079678 87.9099824 97.4704407 87.5929556 97.7871541 87.2018063 97.7871541M82.518907 94.8271541L77.5331111 94.8271541C77.1419619 94.8271541 76.824935 94.5104407 76.824935 94.119678 76.824935 93.7289153 77.1419619 93.4122019 77.5331111 93.4122019L82.518907 93.4122019C82.9100562 93.4122019 83.2270831 93.7289153 83.2270831 94.119678 83.2270831 94.5104407 82.9100562 94.8271541 82.518907 94.8271541M29.9838541 89.6572015L6.17993075 89.6572015C5.78878148 89.6572015 5.47175464 89.340488 5.47175464 88.9497253 5.47175464 88.5589627 5.78878148 88.2422492 6.17993075 88.2422492L29.9838541 88.2422492C30.3750034 88.2422492 30.6920302 88.5589627 30.6920302 88.9497253 30.6920302 89.340488 30.3750034 89.6572015 29.9838541 89.6572015M247.83412 43.7578474L225.813148 43.7578474C225.421999 43.7578474 225.104972 43.4411339 225.104972 43.0503713 225.104972 42.6596086 225.421999 42.3428951 225.813148 42.3428951L247.83412 42.3428951C248.22527 42.3428951 248.542296 42.6596086 248.542296 43.0503713 248.542296 43.4411339 248.22527 43.7578474 247.83412 43.7578474M200.568889 40.7978474L178.547917 40.7978474C178.156768 40.7978474 177.839741 40.4811339 177.839741 40.0903713 177.839741 39.6996086 178.156768 39.3828951 178.547917 39.3828951L200.568889 39.3828951C200.960038 39.3828951 201.277065 39.6996086 201.277065 40.0903713 201.277065 40.4811339 200.960038 40.7978474 200.568889 40.7978474M171.898592 10.794671L130.286164 10.794671C129.895015 10.794671 129.577988 10.4779575 129.577988 10.0871948 129.577988 9.69643216 129.895015 9.37971868 130.286164 9.37971868L171.898592 9.37971868C172.289741 9.37971868 172.606768 9.69643216 172.606768 10.0871948 172.606768 10.4779575 172.289741 10.794671 171.898592 10.794671M91.0364951 31.1811879L69.015523 31.1811879C68.6243738 31.1811879 68.3073469 30.8644744 68.3073469 30.4737117 68.3073469 30.0829491 68.6243738 29.7662356 69.015523 29.7662356L91.0364951 29.7662356C91.4276443 29.7662356 91.7446712 30.0829491 91.7446712 30.4737117 91.7446712 30.8644744 91.4276443 31.1811879 91.0364951 31.1811879M60.8667531 35.6211879L52.2180344 35.6211879C51.8268851 35.6211879 51.5098583 35.3044744 51.5098583 34.9137117 51.5098583 34.5229491 51.8268851 34.2062356 52.2180344 34.2062356L60.8667531 34.2062356C61.2579023 34.2062356 61.5749292 34.5229491 61.5749292 34.9137117 61.5749292 35.3044744 61.2579023 35.6211879 60.8667531 35.6211879M37.6524335 59.9972076L8.01573566 59.9972076C7.62458639 59.9972076 7.30755956 59.6804941 7.30755956 59.2897314 7.30755956 58.8989688 7.62458639 58.5822553 8.01573566 58.5822553L37.6524335 58.5822553C38.0435828 58.5822553 38.3606096 58.8989688 38.3606096 59.2897314 38.3606096 59.6804941 38.0435828 59.9972076 37.6524335 59.9972076M230.141922 59.9972076L191.072318 59.9972076C190.681169 59.9972076 190.364142 59.6804941 190.364142 59.2897314 190.364142 58.8989688 190.681169 58.5822553 191.072318 58.5822553L230.141922 58.5822553C230.533071 58.5822553 230.850098 58.8989688 230.850098 59.2897314 230.850098 59.6804941 230.533071 59.9972076 230.141922 59.9972076M248.777897 109.143556L226.756924 109.143556C226.365775 109.143556 226.048748 108.826843 226.048748 108.43608 226.048748 108.045318 226.365775 107.728604 226.756924 107.728604L248.777897 107.728604C249.169046 107.728604 249.486073 108.045318 249.486073 108.43608 249.486073 108.826843 249.169046 109.143556 248.777897 109.143556M98.3945392 7.54575186L76.3735672 7.54575186C75.9824179 7.54575186 75.6653911 7.22903837 75.6653911 6.83827572 75.6653911 6.44751306 75.9824179 6.13079958 76.3735672 6.13079958L98.3945392 6.13079958C98.7856885 6.13079958 99.1027153 6.44751306 99.1027153 6.83827572 99.1027153 7.22903837 98.7856885 7.54575186 98.3945392 7.54575186M98.3945392 161.073593L76.3735672 161.073593C75.9824179 161.073593 75.6653911 160.756879 75.6653911 160.366117 75.6653911 159.975354 75.9824179 159.658641 76.3735672 159.658641L98.3945392 159.658641C98.7856885 159.658641 99.1027153 159.975354 99.1027153 160.366117 99.1027153 160.756879 98.7856885 161.073593 98.3945392 161.073593M214.033229 161.073593L192.012021 161.073593C191.620872 161.073593 191.303845 160.756879 191.303845 160.366117 191.303845 159.975354 191.620872 159.658641 192.012021 159.658641L214.033229 159.658641C214.424142 159.658641 214.741405 159.975354 214.741405 160.366117 214.741405 160.756879 214.424142 161.073593 214.033229 161.073593M68.6746543 161.073593L59.4301234 161.073593C59.0389742 161.073593 58.7219473 160.756879 58.7219473 160.366117 58.7219473 159.975354 59.0389742 159.658641 59.4301234 159.658641L68.6746543 159.658641C69.0658036 159.658641 69.3828304 159.975354 69.3828304 160.366117 69.3828304 160.756879 69.0658036 161.073593 68.6746543 161.073593M78.8038623 138.536374L53.2922903 138.536374C52.901141 138.536374 52.5841142 138.219661 52.5841142 137.828898 52.5841142 137.438136 52.901141 137.121422 53.2922903 137.121422L78.8038623 137.121422C79.1950116 137.121422 79.5120384 137.438136 79.5120384 137.828898 79.5120384 138.219661 79.1950116 138.536374 78.8038623 138.536374M89.3972048 133.868048L63.8856328 133.868048C63.4944835 133.868048 63.1774567 133.551335 63.1774567 133.160572 63.1774567 132.769809 63.4944835 132.453096 63.8856328 132.453096L89.3972048 132.453096C89.7883541 132.453096 90.1053809 132.769809 90.1053809 133.160572 90.1053809 133.551335 89.7883541 133.868048 89.3972048 133.868048M28.8383793 123.508048L18.5790321 123.508048C18.1878828 123.508048 17.870856 123.191335 17.870856 122.800572 17.870856 122.409809 18.1878828 122.093096 18.5790321 122.093096L28.8383793 122.093096C29.2295286 122.093096 29.5465554 122.409809 29.5465554 122.800572 29.5465554 123.191335 29.2295286 123.508048 28.8383793 123.508048M215.863178 125.866302L190.351606 125.866302C189.960457 125.866302 189.64343 125.549589 189.64343 125.158826 189.64343 124.768063 189.960457 124.45135 190.351606 124.45135L215.863178 124.45135C216.254328 124.45135 216.571355 124.768063 216.571355 125.158826 216.571355 125.549589 216.254328 125.866302 215.863178 125.866302M256.189064 125.444742L238.962916 125.444742C238.571767 125.444742 238.25474 125.128028 238.25474 124.737266 238.25474 124.346503 238.571767 124.029789 238.962916 124.029789L256.189064 124.029789C256.580213 124.029789 256.89724 124.346503 256.89724 124.737266 256.89724 125.128028 256.580213 125.444742 256.189064 125.444742M247.83412 48.4439571L220.502064 48.4439571C220.110914 48.4439571 219.793888 48.1272436 219.793888 47.736481 219.793888 47.3457183 220.110914 47.0290048 220.502064 47.0290048L247.83412 47.0290048C248.22527 47.0290048 248.542296 47.3457183 248.542296 47.736481 248.542296 48.1272436 248.22527 48.4439571 247.83412 48.4439571M213.764824 100.856866L186.432531 100.856866C186.041382 100.856866 185.724355 100.540153 185.724355 100.14939 185.724355 99.7586272 186.041382 99.4419137 186.432531 99.4419137L213.764824 99.4419137C214.155974 99.4419137 214.473 99.7586272 214.473 100.14939 214.473 100.540153 214.155974 100.856866 213.764824 100.856866M79.6534887 28.13855L52.7033749 28.13855C52.3122257 28.13855 51.9951988 27.8218365 51.9951988 27.4310738 51.9951988 27.0403112 52.3122257 26.7235977 52.7033749 26.7235977L79.6534887 26.7235977C80.044638 26.7235977 80.3616648 27.0403112 80.3616648 27.4310738 80.3616648 27.8218365 80.044638 28.13855 79.6534887 28.13855"/>
    </g>
    <g fill="#FEFEFE" transform="translate(0 14.06)">
      <path d="M73.4377951 11.8836996C73.4377951 9.50681556 71.5089594 7.57988638 69.1297238 7.57988638 69.0135829 7.57988638 68.8990944 7.58578201 68.7855502 7.59474338 67.9093003 5.05018752 65.4939476 3.2213617 62.6494403 3.2213617 62.0833715 3.2213617 61.534535 3.29399592 61.0111929 3.43006716 59.5594319 1.53969091 57.2767443.320002044 54.7077174.320002044 51.5556256.320002044 48.8324524 2.1547235 47.5497094 4.81341884 47.2933497 4.77828086 47.0320327 4.75870735 46.7659945 4.75870735 43.6068209 4.75870735 41.0458201 7.31717691 41.0458201 10.473228 41.0458201 13.629279 43.6068209 16.1877486 46.7659945 16.1877486L69.1582869 16.1877486 69.1582869 16.1870411C71.5243032 16.1714766 73.4377951 14.2511506 73.4377951 11.8836996M230.48731 88.0473045C230.48731 86.2246562 231.966384 84.7470433 233.791017 84.7470433 233.879895 84.7470433 233.967688 84.7513834 234.054756 84.758436 234.726684 82.8072131 236.578831 81.4048281 238.760064 81.4048281 239.194138 81.4048281 239.614998 81.4605257 240.01649 81.5646874 241.129552 80.1154658 242.879969 79.18 244.849956 79.18 247.267052 79.18 249.355242 80.5869059 250.33906 82.6256535 250.535461 82.5987089 250.735845 82.5836995 250.939849 82.5836995 253.362375 82.5836995 255.326208 84.5455918 255.326208 86.965723 255.326208 89.3858543 253.362375 91.3477465 250.939849 91.3477465L233.769114 91.3477465 233.769114 91.347204C231.954618 91.3352688 230.48731 89.8627194 230.48731 88.0473045M233.856608 16.9620317C233.391101 16.9620317 232.944714 17.0438631 232.530667 17.1931406 231.925648 15.0902857 230.188728 13.4659205 228.019821 13.0237479 226.873992 9.33708972 223.432728 6.66 219.365437 6.66 215.003072 6.66 211.36163 9.74035112 210.499544 13.8425336 209.959914 13.6696736 209.384875 13.5753435 208.787882 13.5753435 206.414312 13.5753435 204.387276 15.0511387 203.572402 17.1339484 203.44611 17.1212139 203.31793 17.1146108 203.188334 17.1146108 201.074192 17.1146108 199.360406 18.826703 199.360406 20.9387551 199.360406 23.0508072 201.074192 24.7631353 203.188334 24.7631353L233.856608 24.7631353C236.013005 24.7631353 237.761019 23.0168484 237.761019 20.8625835 237.761019 18.7083187 236.013005 16.9620317 233.856608 16.9620317M3.02242479 76.6205186C3.36376568 76.6205186 3.69094304 76.6804182 3.99451453 76.7898412 4.43783277 75.2484865 5.71089734 74.0578042 7.3007527 73.7337801 8.14064956 71.0316929 10.6629368 69.0693899 13.6441221 69.0693899 16.8415372 69.0693899 19.510653 71.3271821 20.1425821 74.3339557 20.5382165 74.2073174 20.9595813 74.1379848 21.3972341 74.1379848 23.1367507 74.1379848 24.6225041 75.2199516 25.2199687 76.7464493 25.3125037 76.7372521 25.4064551 76.7322998 25.5015868 76.7322998 27.0510761 76.7322998 28.3071444 77.9873625 28.3071444 79.5353203 28.3071444 81.0835139 27.0510761 82.3383407 25.5015868 82.3383407L3.02242479 82.3383407C1.44201179 82.3383407.160685158 81.0582806.160685158 79.4794296.160685158 77.9005787 1.44201179 76.6205186 3.02242479 76.6205186"/>
    </g>
    <path fill="#CDE6FF" d="M5.02270526,10.73 L85.1434253,10.73 C87.9174245,10.73 90.1661305,8.32792024 90.1661305,5.365 L90.1661305,5.365 C90.1661305,2.40207976 87.9174245,0 85.1434253,0 L5.02270526,0 C2.24896859,0 0,2.40207976 0,5.365 L0,5.365 C0,8.32792024 2.24896859,10.73 5.02270526,10.73" transform="translate(167.492 131.72)"/>
    <path fill="#0056AD" fill-rule="nonzero" stroke="#0056AD" d="M161.961674,92.0395556 C165.437068,88.1559259 167.570937,83.0417037 167.570937,77.4259259 C167.570937,65.3365185 157.764972,55.5 145.713116,55.5 C133.66126,55.5 123.855295,65.3365185 123.855295,77.4259259 C123.855295,89.5153333 133.66126,99.3518519 145.713116,99.3518519 C149.96173,99.3518519 153.917996,98.1102963 157.278636,95.9971852 C169.163826,100.489259 177.346848,111.400148 178.387827,124.018519 L113.041138,124.018519 C113.748785,115.524963 117.721444,107.604222 124.183162,101.952815 C125.322501,100.957926 125.439987,99.2285185 124.448188,98.0856296 C123.459122,96.9454815 121.732354,96.8248889 120.593015,97.8197778 C112.24606,105.11563 107.461929,115.662 107.461929,126.759259 C107.461929,128.274889 108.685967,129.5 110.194157,129.5 L181.232076,129.5 C182.742997,129.5 183.964303,128.274889 183.964303,126.759259 C183.964303,111.723556 175.275819,98.2966667 161.961674,92.0395556 Z M128.978222,77.3817204 C128.978222,68.3857473 136.305117,61.0698925 145.314666,61.0698925 C154.324215,61.0698925 161.651111,68.3857473 161.651111,77.3817204 C161.651111,86.3776935 154.324215,93.6935484 145.314666,93.6935484 C136.305117,93.6935484 128.978222,86.3776935 128.978222,77.3817204 Z"/>
  </g>
</svg>
