<?xml version="1.0" standalone="no"?>
<!DOCTYPE svg PUBLIC "-//W3C//DTD SVG 1.1//EN" "http://www.w3.org/Graphics/SVG/1.1/DTD/svg11.dtd" >
<svg xmlns="http://www.w3.org/2000/svg" xmlns:xlink="http://www.w3.org/1999/xlink" version="1.1">
<metadata>
Created by FontForge 20160102 at Sat Feb 14 23:13:06 2016
 By uniteet7
 Copyright (c) 1987, 1991, 1993, 2002 Fundicion Tipografica Neufville S. A
</metadata>
<defs>
<font id="FuturaStdLight" horiz-adv-x="620" >
  <font-face 
    font-family="FuturaStdLight"
    font-weight="400"
    font-stretch="normal"
    units-per-em="1000"
    panose-1="0 0 5 0 0 0 0 0 0 0"
    ascent="825"
    descent="-175"
    x-height="462"
    cap-height="754"
    bbox="-175 -302 1127 971"
    underline-thickness="50"
    underline-position="-50"
    unicode-range="U+0020-FB02"
  />
<missing-glyph horiz-adv-x="500" 
d="M500 700v-700h-500v700h500zM80 650l170 -255l170 255h-340zM220 350l-170 255v-510zM450 605l-170 -255l170 -255v510zM250 305l-170 -255h340z" />
    <glyph glyph-name=".notdef" horiz-adv-x="500" 
d="M500 700v-700h-500v700h500zM80 650l170 -255l170 255h-340zM220 350l-170 255v-510zM450 605l-170 -255l170 -255v510zM250 305l-170 -255h340z" />
    <glyph glyph-name=".null" horiz-adv-x="0" 
 />
    <glyph glyph-name="nonmarkingreturn" horiz-adv-x="333" 
 />
    <glyph glyph-name="space" unicode=" " horiz-adv-x="310" 
 />
    <glyph glyph-name="exclam" unicode="!" horiz-adv-x="320" 
d="M184 754v-611h-48v611h48zM160 72q17 0 29 -12t12 -29t-12 -29t-29 -12t-29 12t-12 29t12 29t29 12z" />
    <glyph glyph-name="quotedbl" unicode="&#x22;" horiz-adv-x="278" 
d="M95 514h-27l-10 240h48zM209 514h-27l-10 240h48z" />
    <glyph glyph-name="numbersign" unicode="#" 
d="M410 228l-37 -228h-46l36 228h-135l-33 -228h-48l33 228h-121v48h128l23 162h-123v48h130l32 212h50l-32 -212h136l32 212h50l-33 -212h110v-48h-118l-26 -162h118v-48h-126zM235 276h136l24 162h-136z" />
    <glyph glyph-name="dollar" unicode="$" 
d="M302 38v346q-5 2 -14 7q-40 20 -60.5 32t-48.5 34.5t-40.5 51t-12.5 64.5q0 80 48.5 132.5t127.5 58.5v105h45v-107q48 -6 89 -34t64 -70l-37 -30q-46 80 -116 88v-300q6 -3 34.5 -17t36 -18.5t30.5 -18t30.5 -21.5l22.5 -24t20.5 -30t10.5 -34t5 -43q0 -79 -55.5 -141
t-134.5 -77v-113h-45v111q-78 2 -135 45t-84 118l41 19q23 -61 70.5 -99t107.5 -35zM302 437v279q-53 0 -90.5 -43t-37.5 -98q0 -26 9.5 -46.5t29.5 -37t36 -26t43 -23.5q7 -3 10 -5zM347 362v-322q61 15 101.5 63.5t40.5 110.5q0 29 -12 52t-37 42t-42.5 28.5t-50.5 25.5z
" />
    <glyph glyph-name="percent" unicode="%" horiz-adv-x="664" 
d="M123 -17l-31 18l446 770l33 -17zM180 761q64 0 108 -42t44 -107q0 -63 -44 -105t-108 -42t-108 42t-44 105q0 65 44 107t108 42zM180 719q-45 0 -77.5 -31t-32.5 -76q0 -43 32.5 -74t77.5 -31t77.5 31t32.5 74q0 45 -32.5 76t-77.5 31zM484 289q64 0 108 -42t44 -107
q0 -63 -44 -105t-108 -42t-108 42t-44 105q0 65 44 107t108 42zM484 247q-45 0 -77.5 -31t-32.5 -76q0 -43 32.5 -74t77.5 -31t77.5 31t32.5 74q0 45 -32.5 76t-77.5 31z" />
    <glyph glyph-name="ampersand" unicode="&#x26;" horiz-adv-x="642" 
d="M592 0l-95 125q-76 -65 -143.5 -102.5t-134.5 -37.5q-83 0 -140 58.5t-57 140.5q0 38 15.5 74t34 60t56.5 54.5t58 44t65 41.5q-2 3 -17 23.5t-19.5 27.5t-15.5 25t-15 29t-8 27.5t-4 32.5q0 60 43.5 102.5t103.5 42.5q58 0 97.5 -41t39.5 -99q0 -31 -10.5 -57.5
t-33.5 -50t-43 -39.5t-54 -39l186 -254l96 105l37 -20l-105 -120l115 -153h-52zM316 723q-40 0 -68 -32t-28 -73q0 -19 7 -39t15.5 -33t23 -34.5t21.5 -32.5q10 8 32.5 24t34 26t26.5 26t21.5 34t6.5 40q0 39 -26.5 66.5t-65.5 27.5zM279 420l-48 -32q-36 -23 -57 -38.5
t-49 -41.5t-41.5 -55.5t-13.5 -63.5q0 -65 42 -112t107 -47q41 0 91 24t80.5 46.5t78.5 62.5z" />
    <glyph glyph-name="quotesingle" unicode="'" horiz-adv-x="222" 
d="M124 514h-27l-10 240h48z" />
    <glyph glyph-name="parenleft" unicode="(" horiz-adv-x="240" 
d="M137 780l37 -26q-63 -223 -63 -459q0 -220 63 -447l-37 -25q-35 90 -53 222t-18 250q0 124 17.5 258.5t53.5 226.5z" />
    <glyph glyph-name="parenright" unicode=")" horiz-adv-x="240" 
d="M66 754l37 26q36 -92 53.5 -226.5t17.5 -258.5q0 -118 -18 -250t-53 -222l-37 25q63 227 63 447q0 236 -63 459z" />
    <glyph glyph-name="asterisk" unicode="*" horiz-adv-x="619" 
d="M334 754l-4 -150l142 50l15 -47l-144 -43l92 -119l-40 -29l-85 124l-86 -124l-39 28l91 120l-144 43l15 47l142 -50l-4 150h49z" />
    <glyph glyph-name="plus" unicode="+" 
d="M334 512v-232h232v-48h-232v-232h-48v232h-232v48h232v232h48z" />
    <glyph glyph-name="comma" unicode="," horiz-adv-x="310" 
d="M115 -166l-30 11l68 229l45 -14z" />
    <glyph glyph-name="hyphen" unicode="-" horiz-adv-x="190" 
d="M190 297h-190v45h190v-45z" />
    <glyph glyph-name="period" unicode="." horiz-adv-x="310" 
d="M155 72q17 0 29 -12t12 -29t-12 -29t-29 -12t-29 12t-12 29t12 29t29 12z" />
    <glyph glyph-name="slash" unicode="/" horiz-adv-x="640" 
d="M72 -142l-37 19l535 948l35 -18z" />
    <glyph glyph-name="zero" unicode="0" 
d="M310 764q54 0 100 -24.5t77.5 -64.5t53.5 -90.5t32.5 -102t10.5 -100.5q0 -62 -16.5 -127.5t-48 -126t-86.5 -99.5t-123 -39t-123 39t-86.5 99.5t-48 126t-16.5 127.5q0 49 10.5 100.5t32.5 102t53.5 90.5t77.5 64.5t100 24.5zM310 35q57 0 102.5 34.5t71.5 88.5t39 112
t13 112q0 48 -13 103.5t-39 109t-71.5 89t-102.5 35.5t-102.5 -35.5t-71.5 -89t-39 -109t-13 -103.5q0 -54 13 -112t39 -112t71.5 -88.5t102.5 -34.5z" />
    <glyph glyph-name="one" unicode="1" 
d="M212 754h144v-754h-48v709h-119z" />
    <glyph glyph-name="two" unicode="2" 
d="M534 0h-465l281 309q81 89 107 135q32 55 32 102q0 73 -52.5 123t-125.5 50q-78 0 -129 -50.5t-49 -127.5h-48q3 92 47 143q33 37 81.5 58.5t97.5 21.5q94 0 160 -63.5t66 -157.5q0 -36 -11.5 -70t-37 -70.5t-42 -56t-51.5 -57.5l-219 -244h358v-45z" />
    <glyph glyph-name="three" unicode="3" 
d="M302 370v45q68 2 114 45.5t46 111.5q0 61 -44 104t-105 43q-65 0 -103.5 -39t-42.5 -104h-48q6 87 57 137.5t138 50.5q81 0 138.5 -56.5t57.5 -137.5q0 -58 -30.5 -105t-82.5 -70q56 -21 90 -72t34 -111q0 -94 -63.5 -158t-157.5 -64q-87 0 -148.5 55t-60.5 140h48
q6 -67 49 -108.5t111 -41.5q71 0 122.5 51.5t51.5 122.5q0 72 -49.5 116.5t-121.5 44.5z" />
    <glyph glyph-name="four" unicode="4" 
d="M573 143h-106v-143h-48v143h-407v6l449 631h6v-592h106v-45zM413 634l-313 -440v-6h319v446h-6z" />
    <glyph glyph-name="five" unicode="5" 
d="M279 709l-63 -204q25 8 57 8q108 0 182 -74.5t74 -182.5q0 -115 -78.5 -190.5t-193.5 -75.5q-68 0 -127.5 33.5t-95.5 91.5l44 18q29 -45 78 -71.5t102 -26.5q95 0 159 63.5t64 158.5q0 89 -65 150t-155 61q-58 0 -115 -34l98 320h287v-45h-252z" />
    <glyph glyph-name="six" unicode="6" 
d="M213 500l2 -2q48 20 100 20q108 0 185.5 -78.5t77.5 -186.5q0 -99 -75 -181q-76 -82 -194 -82q-110 0 -188.5 76.5t-78.5 186.5q0 89 55 166l243 345l39 -29zM310 35q90 0 155 64.5t65 154.5t-65 154.5t-155 64.5q-91 0 -155.5 -64.5t-64.5 -154.5q0 -91 64.5 -155
t155.5 -64z" />
    <glyph glyph-name="seven" unicode="7" 
d="M70 754h547l-540 -762l-37 29l488 688h-458v45z" />
    <glyph glyph-name="eight" unicode="8" 
d="M310 -10q-90 0 -154.5 59t-64.5 148q0 137 123 196q-48 24 -77 71t-29 101q0 85 58 142t144 57t144 -57t58 -142q0 -54 -29 -101t-77 -71q123 -59 123 -196q0 -89 -64.5 -148t-154.5 -59zM310 719q-63 0 -108.5 -45t-45.5 -108t45 -107.5t109 -44.5q63 0 108.5 44.5
t45.5 107.5t-45.5 108t-108.5 45zM310 369q-70 0 -120.5 -49t-50.5 -118t50.5 -118t120.5 -49t120.5 49t50.5 118t-50.5 118t-120.5 49z" />
    <glyph glyph-name="nine" unicode="9" 
d="M408 256l-2 2q-49 -20 -101 -20q-108 0 -185.5 78t-77.5 186q0 109 79.5 185.5t189.5 76.5q113 0 190 -77t77 -190q0 -82 -55 -161l-243 -344l-39 29zM311 719q-90 0 -155.5 -64t-65.5 -154t65.5 -154t155.5 -64t154.5 64t64.5 154t-64.5 154t-154.5 64z" />
    <glyph glyph-name="colon" unicode=":" horiz-adv-x="310" 
d="M155 472q17 0 29 -12t12 -29t-12 -29t-29 -12t-29 12t-12 29t12 29t29 12zM155 72q17 0 29 -12t12 -29t-12 -29t-29 -12t-29 12t-12 29t12 29t29 12z" />
    <glyph glyph-name="semicolon" unicode=";" horiz-adv-x="310" 
d="M161 472q17 0 29 -12t12 -29t-12 -29t-29 -12t-29 12t-12 29t12 29t29 12zM115 -166l-30 11l68 229l45 -14z" />
    <glyph glyph-name="less" unicode="&#x3c;" 
d="M566 -5l-512 235v53l512 223v-46l-460 -204l460 -215v-46z" />
    <glyph glyph-name="equal" unicode="=" 
d="M54 317v48h512v-48h-512zM54 147v48h512v-48h-512z" />
    <glyph glyph-name="greater" unicode="&#x3e;" 
d="M54 460v46l512 -223v-53l-512 -235v46l460 215z" />
    <glyph glyph-name="question" unicode="?" horiz-adv-x="491" 
d="M354 303h48q3 -69 -41 -115t-115 -46q-66 0 -112 42.5t-46 106.5q0 65 37.5 100.5t105.5 52.5l48 13.5t38.5 15.5t33 24t18.5 34.5t8 50.5q0 57 -37.5 97t-95.5 40q-56 0 -93.5 -36.5t-36.5 -90.5q0 -32 5 -53h-46q-7 37 -7 64q0 70 53 115.5t126 45.5q80 0 130 -50.5
t50 -129.5t-41.5 -118.5t-124.5 -60.5q-25 -6 -38 -10t-32 -13t-28.5 -19.5t-17 -28t-7.5 -40.5q0 -47 31.5 -77t80.5 -30t78 34.5t28 81.5zM243 72q17 0 29 -12t12 -29t-12 -29t-29 -12t-29 12t-12 29t12 29t29 12z" />
    <glyph glyph-name="at" unicode="@" horiz-adv-x="800" 
d="M610 588l-103 -324q-4 -13 -6 -21t-2.5 -19t3.5 -16.5t13.5 -10t25.5 -4.5q61 0 119 84.5t58 167.5q0 120 -91.5 198.5t-209.5 78.5q-137 0 -236 -104.5t-99 -244.5q0 -138 101 -239.5t236 -101.5q86 0 159 35t114 101h56q-43 -81 -130 -129.5t-199 -48.5
q-160 0 -269.5 114t-109.5 276q0 159 111 271.5t264 112.5q145 0 245 -92t100 -231q0 -116 -74.5 -203t-158.5 -87q-27 0 -47.5 13t-27.5 36q-57 -49 -130 -49q-63 0 -98 41.5t-35 105.5q0 112 69 211t173 99q76 0 120 -67l15 47h44zM337 193q46 1 86.5 38t54.5 81l47 147
q9 31 -21 69t-81 38q-50 0 -95.5 -44.5t-71 -105t-25.5 -112.5q0 -47 28.5 -79.5t77.5 -31.5z" />
    <glyph glyph-name="A" unicode="A" horiz-adv-x="641" 
d="M54 0h-49l316 779l315 -779h-49l-101 248h-331zM173 293h295l-147 364z" />
    <glyph glyph-name="B" unicode="B" horiz-adv-x="565" 
d="M81 754h151q52 0 88.5 -8.5t67.5 -35.5q63 -55 63 -156q0 -105 -87 -154q70 -14 113 -66t43 -124q0 -96 -70 -156q-64 -54 -176 -54h-193v754zM129 412h83h16.5h16.5t14.5 0.5t16 1t14 2t15 3.5t13.5 5t15 7t14 9q56 40 56 121q0 85 -62 124q-38 24 -129 24h-83v-297z
M129 45h115q40 0 56 0.5t46.5 7.5t51.5 21q74 50 74 134q0 43 -20.5 80t-57.5 55q-48 24 -159 24h-106v-322z" />
    <glyph glyph-name="C" unicode="C" horiz-adv-x="739" 
d="M680 666v-66q-44 53 -113.5 86t-139.5 33q-140 0 -241.5 -103.5t-101.5 -243.5q0 -134 101 -233q49 -47 113 -75.5t129 -28.5q66 0 139 32.5t114 82.5v-66q-113 -94 -251 -94q-158 0 -275.5 114.5t-117.5 271.5q0 160 116.5 274t277.5 114q144 0 250 -98z" />
    <glyph glyph-name="D" unicode="D" horiz-adv-x="652" 
d="M81 754h136q90 0 155.5 -20.5t124.5 -74.5q120 -112 120 -283q0 -165 -116 -276q-59 -57 -126 -78.5t-158 -21.5h-136v754zM129 45h87q161 0 253 91q100 100 100 240q0 151 -109 251q-51 46 -109.5 64t-134.5 18h-87v-664z" />
    <glyph glyph-name="E" unicode="E" horiz-adv-x="507" 
d="M129 435h304v-45h-304v-345h312v-45h-360v754h360v-45h-312v-274z" />
    <glyph glyph-name="F" unicode="F" horiz-adv-x="444" 
d="M129 435h249v-45h-249v-390h-48v754h304v-45h-256v-274z" />
    <glyph glyph-name="G" unicode="G" horiz-adv-x="824" 
d="M470 363h318q2 -79 -15 -139.5t-64 -111.5q-53 -58 -129.5 -90t-156.5 -32q-157 0 -272 114t-115 270q0 162 115.5 276t277.5 114q198 0 327 -176l-39 -31q-51 77 -126 119.5t-165 42.5q-137 0 -239.5 -103t-102.5 -239q0 -140 100.5 -241t241.5 -101q119 0 222 83
q87 74 92 200h-270v45z" />
    <glyph glyph-name="H" unicode="H" horiz-adv-x="716" 
d="M587 754h48v-754h-48v389h-458v-389h-48v754h48v-320h458v320z" />
    <glyph glyph-name="I" unicode="I" horiz-adv-x="210" 
d="M81 0v754h48v-754h-48z" />
    <glyph glyph-name="J" unicode="J" horiz-adv-x="218" 
d="M137 754v-740q0 -81 -28.5 -126.5t-104.5 -45.5q-41 0 -74 22.5t-51 59.5l36 27q13 -28 38.5 -46t54.5 -18q27 0 44 11t24.5 32t10 39.5t2.5 44.5v740h48z" />
    <glyph glyph-name="K" unicode="K" horiz-adv-x="569" 
d="M551 754l-369 -363l392 -391h-63l-362 360l-20 -20v-340h-48v754h48v-352l358 352h64z" />
    <glyph glyph-name="L" unicode="L" horiz-adv-x="327" 
d="M321 45v-45h-240v754h48v-709h192z" />
    <glyph glyph-name="M" unicode="M" horiz-adv-x="897" 
d="M711 624l-263 -649l-262 649h-2l-129 -624h-46l162 779l277 -686l278 686l162 -779h-46l-129 624h-2z" />
    <glyph glyph-name="N" unicode="N" horiz-adv-x="843" 
d="M129 648v-648h-48v764l633 -668v658h48v-779z" />
    <glyph glyph-name="O" unicode="O" horiz-adv-x="854" 
d="M427 764q159 0 275 -114t116 -273t-116 -273t-275 -114t-275 114t-116 273t115.5 273t275.5 114zM427 719q-141 0 -242 -101t-101 -241t101 -241t242 -101q140 0 241.5 101.5t101.5 240.5q0 140 -101.5 241t-241.5 101z" />
    <glyph glyph-name="P" unicode="P" horiz-adv-x="472" 
d="M81 0v754h133q54 0 92.5 -8.5t70.5 -35.5q68 -58 68 -155q0 -96 -63 -149q-55 -48 -168 -48h-85v-358h-48zM129 403h87q86 0 132 41q49 45 49 113q0 80 -57 122q-39 30 -132 30h-79v-306z" />
    <glyph glyph-name="Q" unicode="Q" horiz-adv-x="854" 
d="M742 0l-68 80q-109 -90 -247 -90q-162 0 -276.5 113t-114.5 274q0 160 115.5 273.5t276.5 113.5q159 0 274.5 -113t115.5 -271q0 -147 -110 -273l99 -107h-65zM520 309l153 -166q97 105 97 228q0 143 -99 245.5t-243 102.5q-140 0 -242 -101.5t-102 -240.5
q0 -142 101.5 -242t244.5 -100q111 0 210 79l-188 195h68z" />
    <glyph glyph-name="R" unicode="R" horiz-adv-x="488" 
d="M399 0l-246 357h-24v-357h-48v754h94q39 0 62 -1.5t54.5 -10.5t55.5 -26q76 -53 76 -162q0 -96 -59.5 -147.5t-156.5 -49.5l247 -357h-55zM129 402h61q92 0 132 35q53 43 53 119q0 44 -20.5 81.5t-59.5 54.5q-36 17 -135 17h-31v-307z" />
    <glyph glyph-name="S" unicode="S" horiz-adv-x="544" 
d="M464 658l-34 -28q-56 89 -153 89q-60 0 -101 -42t-41 -102q0 -28 11 -50t36 -40.5t40 -26.5t49 -24l144 -75q86 -54 86 -150q0 -92 -71 -155.5t-165 -63.5q-77 0 -136 44t-86 118l42 19q54 -136 182 -136q75 0 130.5 52t55.5 126q0 23 -9.5 43.5t-20 33t-34.5 28.5
t-34.5 21.5t-39.5 19.5l-14 7l-136 72q-78 48 -78 135q0 84 54 137.5t139 53.5q57 0 107 -28.5t77 -77.5z" />
    <glyph glyph-name="T" unicode="T" horiz-adv-x="450" 
d="M201 0v709h-195v45h438v-45h-195v-709h-48z" />
    <glyph glyph-name="U" unicode="U" horiz-adv-x="660" 
d="M586 754v-470q0 -50 -1.5 -76t-13.5 -63t-36 -67q-37 -43 -91.5 -65.5t-113.5 -22.5t-113.5 22.5t-91.5 65.5q-24 30 -36 67t-13.5 63t-1.5 76v470h48v-456q0 -46 1.5 -71t10.5 -60.5t27 -58.5q26 -34 74 -53.5t95 -19.5t95 19.5t74 53.5q18 23 27 58.5t10.5 60.5t1.5 71
v456h48z" />
    <glyph glyph-name="V" unicode="V" horiz-adv-x="555" 
d="M279 110l223 644h48l-274 -779l-271 779h48l224 -644h2z" />
    <glyph glyph-name="W" unicode="W" horiz-adv-x="1105" 
d="M554 792l282 -686l209 648h48l-254 -779l-288 697l-287 -697l-252 779h48l212 -648z" />
    <glyph glyph-name="X" unicode="X" horiz-adv-x="494" 
d="M73 754l173 -324l173 324h53l-197 -369l207 -385h-52l-184 341l-182 -341h-52l206 385l-198 369h53z" />
    <glyph glyph-name="Y" unicode="Y" horiz-adv-x="559" 
d="M57 754l222 -382l222 382h53l-251 -432v-322h-48v322l-251 432h53z" />
    <glyph glyph-name="Z" unicode="Z" horiz-adv-x="568" 
d="M543 0h-531l460 709h-416v45h500l-460 -709h447v-45z" />
    <glyph glyph-name="bracketleft" unicode="[" horiz-adv-x="300" 
d="M235 -152v-51h-170v957h170v-51h-122v-855h122z" />
    <glyph glyph-name="backslash" unicode="\" horiz-adv-x="640" 
d="M605 19l-37 -19l-533 807l35 18z" />
    <glyph glyph-name="bracketright" unicode="]" horiz-adv-x="300" 
d="M65 703v51h170v-957h-170v51h122v855h-122z" />
    <glyph glyph-name="asciicircum" unicode="^" 
d="M284 754h52l230 -453h-46l-210 408l-209 -408h-47z" />
    <glyph glyph-name="underscore" unicode="_" horiz-adv-x="500" 
d="M0 -75h500v-50h-500v50z" />
    <glyph glyph-name="grave" unicode="`" horiz-adv-x="313" 
d="M237 567l-38 -17l-124 145l61 19z" />
    <glyph glyph-name="a" unicode="a" horiz-adv-x="560" 
d="M438 0v83h-2q-25 -43 -74 -68t-102 -25q-103 0 -165.5 70t-62.5 174q0 103 62 170.5t164 67.5q54 0 101.5 -23.5t76.5 -66.5h2v80h45v-462h-45zM256 430q-77 0 -128 -59t-51 -137q0 -83 50.5 -142.5t131.5 -59.5q85 0 133.5 59.5t48.5 147.5q0 82 -51 136.5t-134 54.5z
" />
    <glyph glyph-name="b" unicode="b" horiz-adv-x="560" 
d="M122 825v-443h2q29 43 76.5 66.5t101.5 23.5q102 0 164 -67.5t62 -170.5q0 -104 -62.5 -174t-165.5 -70q-53 0 -102 25t-74 68h-2v-83h-45v825h45zM301 32q82 0 132 59.5t50 142.5q0 79 -51 137.5t-129 58.5q-85 0 -134.5 -56t-49.5 -141q0 -84 49.5 -142.5t132.5 -58.5z
" />
    <glyph glyph-name="c" unicode="c" horiz-adv-x="477" 
d="M431 415v-60q-69 75 -163 75q-80 0 -135.5 -59t-55.5 -139t55 -140t135 -60q102 0 170 83v-61q-73 -64 -168 -64q-102 0 -169.5 70t-67.5 172q0 101 68.5 170.5t169.5 69.5q94 0 161 -57z" />
    <glyph glyph-name="d" unicode="d" horiz-adv-x="560" 
d="M438 83h-2q-25 -43 -74 -68t-102 -25q-103 0 -165.5 70t-62.5 174q0 103 62 170.5t164 67.5q54 0 101.5 -23.5t76.5 -66.5h2v443h45v-825h-45v83zM259 32q85 0 133.5 59.5t48.5 147.5q0 82 -51 136.5t-134 54.5q-77 0 -128 -59t-51 -137q0 -83 50.5 -142.5t131.5 -59.5z
" />
    <glyph glyph-name="e" unicode="e" horiz-adv-x="510" 
d="M478 227h-401q-2 -87 50.5 -141t134.5 -54q52 0 94.5 28.5t68.5 76.5l38 -22q-66 -125 -207 -125q-100 0 -162 70.5t-62 171.5q0 100 62.5 170t161.5 70q102 0 162.5 -71t59.5 -174zM77 269h356q-9 66 -58 113.5t-118 47.5q-70 0 -122 -47.5t-58 -113.5z" />
    <glyph glyph-name="f" unicode="f" horiz-adv-x="240" 
d="M77 0v420h-51v42h51v207q0 81 18 113q32 56 103 56q22 0 40 -7v-41q-36 6 -37 6q-28 0 -45 -12t-24 -35.5t-8.5 -41t-1.5 -47.5v-198h116v-42h-116v-420h-45z" />
    <glyph glyph-name="g" unicode="g" horiz-adv-x="567" 
d="M490 462v-440q0 -44 -2 -70.5t-12.5 -61.5t-31.5 -64q-65 -89 -184 -89q-94 0 -158.5 53t-69.5 145h45q4 -70 55.5 -113t123.5 -43q100 0 148 69q41 60 41 175v57h-2q-31 -41 -79.5 -65.5t-100.5 -24.5q-98 0 -161 71t-63 171q0 101 65 170.5t165 69.5q107 0 174 -90h2
v80h45zM263 430q-77 0 -128 -59t-51 -137q0 -83 50.5 -142.5t131.5 -59.5q85 0 133.5 59.5t48.5 147.5q0 82 -51 136.5t-134 54.5z" />
    <glyph glyph-name="h" unicode="h" horiz-adv-x="490" 
d="M122 390h2q20 39 56 60.5t81 21.5q85 0 118.5 -48.5t33.5 -144.5v-279h-45v279q0 36 -3.5 59.5t-14 46.5t-34 34t-59.5 11q-135 0 -135 -202v-228h-45v825h45v-435z" />
    <glyph glyph-name="i" unicode="i" horiz-adv-x="234" 
d="M117 657q17 0 29 -12t12 -29t-12 -29t-29 -12t-29 12t-12 29t12 29t29 12zM94 0v462h45v-462h-45z" />
    <glyph glyph-name="j" unicode="j" horiz-adv-x="234" 
d="M117 657q17 0 29 -12t12 -29t-12 -29t-29 -12t-29 12t-12 29t12 29t29 12zM94 -270v732h45v-732h-45z" />
    <glyph glyph-name="k" unicode="k" horiz-adv-x="427" 
d="M312 462h58l-194 -200l259 -262h-59l-229 231l-25 -26v-205h-45v825h45v-559z" />
    <glyph glyph-name="l" unicode="l" horiz-adv-x="199" 
d="M77 0v825h45v-825h-45z" />
    <glyph glyph-name="m" unicode="m" horiz-adv-x="725" 
d="M122 404h2q16 32 47.5 50t68.5 18q93 0 130 -84q18 41 54 62.5t81 21.5q82 0 112.5 -47.5t30.5 -134.5v-290h-45v296q0 64 -19.5 99t-79.5 35q-119 0 -119 -164v-266h-45v285q0 66 -21 105.5t-82 39.5q-115 0 -115 -176v-254h-45v462h45v-58z" />
    <glyph glyph-name="n" unicode="n" horiz-adv-x="490" 
d="M122 390h2q20 39 56 60.5t81 21.5q85 0 118.5 -48.5t33.5 -144.5v-279h-45v279q0 36 -3.5 59.5t-14 46.5t-34 34t-59.5 11q-135 0 -135 -202v-228h-45v462h45v-72z" />
    <glyph glyph-name="o" unicode="o" horiz-adv-x="547" 
d="M272 472q102 0 172.5 -69.5t70.5 -171.5t-70.5 -171.5t-172.5 -69.5q-99 0 -169.5 70.5t-70.5 169.5q0 100 70 171t170 71zM269 430q-81 0 -136.5 -59t-55.5 -141q0 -80 55.5 -139t136.5 -59q85 0 143 57t58 141q0 85 -57.5 142.5t-143.5 57.5z" />
    <glyph glyph-name="p" unicode="p" horiz-adv-x="560" 
d="M122 379h2q25 43 74 68t102 25q103 0 165.5 -70.5t62.5 -174.5q0 -103 -62 -170t-164 -67q-55 0 -102.5 23.5t-75.5 66.5h-2v-350h-45v732h45v-83zM301 430q-85 0 -133.5 -60.5t-48.5 -148.5q0 -82 51 -135.5t133 -53.5q79 0 129.5 57t50.5 137q0 83 -50 143.5t-132 60.5
z" />
    <glyph glyph-name="q" unicode="q" horiz-adv-x="560" 
d="M438 -270v350h-2q-28 -43 -75.5 -66.5t-102.5 -23.5q-102 0 -164 66.5t-62 169.5q0 105 62.5 175.5t165.5 70.5q53 0 102 -25t74 -68h2v83h45v-732h-45zM259 430q-85 0 -133.5 -60.5t-48.5 -148.5q0 -82 51 -135.5t133 -53.5q79 0 129.5 57t50.5 137q0 83 -50 143.5
t-132 60.5z" />
    <glyph glyph-name="r" unicode="r" horiz-adv-x="278" 
d="M122 402h2q30 70 100 70q24 0 49 -11l-24 -40q-17 9 -32 9q-20 0 -35.5 -7t-25.5 -16.5t-17 -27t-10 -30.5t-5 -36t-2 -33.5v-32.5v-11v-236h-45v462h45v-60z" />
    <glyph glyph-name="s" unicode="s" horiz-adv-x="375" 
d="M310 398l-39 -20q-24 52 -81 52q-30 0 -54.5 -21.5t-24.5 -50.5q0 -30 23 -49t56 -30.5t66.5 -25t56.5 -43.5t23 -76q0 -63 -43 -103.5t-106 -40.5q-58 0 -101.5 33t-57.5 89l44 14q29 -94 115 -94q43 0 73.5 30t30.5 74q0 38 -23 57t-67 34q-32 12 -49 19.5t-40.5 23
t-34.5 36.5t-11 49q0 51 37 84t89 33q36 0 69.5 -21t48.5 -53z" />
    <glyph glyph-name="t" unicode="t" horiz-adv-x="209" 
d="M82 0v420h-51v42h51v165h45v-165h81v-42h-81v-420h-45z" />
    <glyph glyph-name="u" unicode="u" horiz-adv-x="472" 
d="M402 462v-277q0 -33 -0.5 -48.5t-7.5 -41t-20 -43.5q-47 -62 -138 -62t-138 62q-13 18 -20 43.5t-7.5 41t-0.5 48.5v277h45v-261q0 -39 3.5 -65t15 -52t37 -39t65.5 -13t65.5 13t37 39t15 52t3.5 65v261h45z" />
    <glyph glyph-name="v" unicode="v" horiz-adv-x="433" 
d="M382 462h46l-211 -487l-212 487h46l167 -381z" />
    <glyph glyph-name="w" unicode="w" horiz-adv-x="752" 
d="M377 487l164 -404l160 379h46l-209 -487l-163 399l-162 -399l-208 487h46l163 -379z" />
    <glyph glyph-name="x" unicode="x" horiz-adv-x="443" 
d="M74 462l147 -187l148 187h54l-172 -218l188 -244h-53l-165 212l-164 -212h-53l188 244l-172 218h54z" />
    <glyph glyph-name="y" unicode="y" horiz-adv-x="460" 
d="M40 462l197 -418l177 418h46l-310 -732h-46l111 262l-222 470h47z" />
    <glyph glyph-name="z" unicode="z" horiz-adv-x="480" 
d="M473 0h-470l378 420h-317v42h411l-377 -420h375v-42z" />
    <glyph glyph-name="braceleft" unicode="{" horiz-adv-x="300" 
d="M41 255v44q39 27 56 51t17 64v176q0 89 30.5 125.5t114.5 38.5v-46q-97 0 -97 -80v-186q0 -71 -16.5 -104t-56.5 -59v-5q39 -25 56 -60t17 -108v-185q0 -80 97 -80v-44q-84 3 -114.5 39t-30.5 124v176q0 41 -17.5 66t-55.5 53z" />
    <glyph glyph-name="bar" unicode="|" horiz-adv-x="320" 
d="M184 786v-1000h-48v1000h48z" />
    <glyph glyph-name="braceright" unicode="}" horiz-adv-x="300" 
d="M259 299v-44q-38 -28 -55.5 -53t-17.5 -66v-176q0 -88 -30.5 -124t-114.5 -39v44q97 0 97 80v185q0 73 17 108t56 60v5q-40 26 -56.5 59t-16.5 104v186q0 80 -97 80v46q84 -2 114.5 -38.5t30.5 -125.5v-176q0 -40 17 -64t56 -51z" />
    <glyph glyph-name="asciitilde" unicode="~" 
d="M201 314q39 0 117 -36q10 -4 28.5 -13t29 -14t23.5 -9t22 -4q53 0 97 80l48 -23q-69 -109 -146 -109q-37 0 -109 38q-74 38 -110 38q-31 0 -53.5 -19t-46.5 -55l-47 23q1 2 13 16.5t15 18t14.5 16.5t17.5 17.5t18 13t21.5 12t22 6.5t25.5 3z" />
    <glyph glyph-name="uni00A0" unicode="&#xa0;" horiz-adv-x="310" 
 />
    <glyph glyph-name="exclamdown" unicode="&#xa1;" horiz-adv-x="320" 
d="M160 472q17 0 29 -12t12 -29t-12 -29t-29 -12t-29 12t-12 29t12 29t29 12zM136 -290v611h48v-611h-48z" />
    <glyph glyph-name="cent" unicode="&#xa2;" 
d="M506 568v-60q-63 70 -145 76v-399q90 8 149 83h2v-61q-70 -60 -151 -64v-128h-45v129q-89 9 -149 77t-60 158q0 96 58 166t151 80v117h45v-116q80 -3 145 -58zM316 186v396q-71 -10 -117.5 -67.5t-46.5 -130.5t46.5 -130.5t117.5 -67.5z" />
    <glyph glyph-name="sterling" unicode="&#xa3;" 
d="M91 -10l-27 39q25 29 61.5 47.5t72.5 17.5q64 55 64 119l-3 29h-124v45h112l-81 138q-28 44 -41 76.5t-13 73.5q0 81 60 135t141 54q83 0 138.5 -58.5t53.5 -140.5h-48q1 67 -41 110.5t-109 43.5q-60 0 -103.5 -44.5t-43.5 -104.5q0 -45 46 -117q4 -7 23.5 -38.5
t27.5 -44.5t21 -37.5t21 -45.5h136v-45h-127l2 -33q0 -69 -57 -126l10 -3q7 -2 42.5 -15.5t61.5 -21.5t42 -8q63 0 106 82l41 -24q-24 -43 -61 -73t-80 -30q-37 0 -113 30q-73 29 -102 29q-50 0 -109 -59z" />
    <glyph glyph-name="currency" unicode="&#xa4;" 
d="M104 534l42 -42q80 58 164 58t164 -58l42 42l36 -36l-40 -40q53 -82 53 -158t-53 -158l40 -40l-36 -36l-42 42q-80 -58 -164 -58t-164 58l-42 -42l-36 36l40 40q-53 82 -53 158t53 158l-40 40zM310 502q-88 -2 -148 -59.5t-59 -142.5q2 -82 62.5 -142t144.5 -60t144.5 60
t62.5 142q1 85 -59 142.5t-148 59.5z" />
    <glyph glyph-name="yen" unicode="&#xa5;" 
d="M82 397v45h134l-181 312h58l217 -377l217 377h58l-181 -312h134v-45h-160l-44 -75h204v-45h-204v-277h-48v277h-204v45h204l-43 75h-161z" />
    <glyph glyph-name="brokenbar" unicode="&#xa6;" horiz-adv-x="320" 
d="M184 661v-250h-48v250h48zM184 161v-250h-48v250h48z" />
    <glyph glyph-name="section" unicode="&#xa7;" 
d="M192 -11v-13q1 -63 28 -93.5t89 -30.5q57 0 93 31t36 86q0 31 -11.5 53t-38 38t-43 23t-53.5 19q-81 27 -123 66t-42 116q0 59 29.5 104.5t83.5 67.5q-50 24 -73 59.5t-23 90.5q0 75 49.5 116.5t125.5 41.5q89 0 124.5 -44t42.5 -137h-48q-2 136 -124 136
q-54 0 -88 -32.5t-34 -86.5q0 -14 2.5 -26t5.5 -21t11 -18t12.5 -14.5t16.5 -12.5t17 -10.5t20.5 -9t20.5 -7.5t23 -8t22 -7q34 -11 55.5 -22t45.5 -31t36 -52.5t12 -76.5q0 -111 -113 -167q107 -41 107 -155q0 -76 -50 -115.5t-128 -39.5q-88 0 -127 43t-37 129v10h48z
M310 155q54 0 94 39t40 93t-40 94t-94 40q-55 0 -95 -40t-40 -94t40 -93t95 -39z" />
    <glyph glyph-name="dieresis" unicode="&#xa8;" horiz-adv-x="421" 
d="M117 674q17 0 28.5 -12t11.5 -28t-11.5 -28t-28.5 -12t-28.5 12t-11.5 28t11.5 28t28.5 12zM304 674q16 0 28 -12t12 -28t-12 -28t-28 -12t-28 12t-12 28t12 28t28 12z" />
    <glyph glyph-name="copyright" unicode="&#xa9;" horiz-adv-x="800" 
d="M401 -10q-161 0 -274.5 114t-113.5 274t113.5 273t274.5 113q160 0 273 -113t113 -273q0 -161 -113 -274.5t-273 -113.5zM401 38q141 0 239.5 99t98.5 241q0 141 -98.5 239.5t-239.5 98.5q-142 0 -241 -98.5t-99 -239.5q0 -142 99 -241t241 -99zM549 308h48
q-7 -68 -58.5 -109t-120.5 -41q-95 0 -154.5 63.5t-59.5 159.5q0 98 57 160t154 62q71 0 121.5 -39t60.5 -107h-48q-8 44 -46.5 71t-86.5 27q-75 0 -119.5 -49.5t-44.5 -123.5q0 -72 46.5 -124t119.5 -52q48 0 86.5 27.5t44.5 74.5z" />
    <glyph glyph-name="ordfeminine" unicode="&#xaa;" horiz-adv-x="336" 
d="M286 481v50h-2q-16 -26 -48 -41t-66 -15q-67 0 -107.5 42t-40.5 104t40 102.5t107 40.5q76 0 115 -54h2v48h29v-277h-29zM163 730q-46 0 -76.5 -33t-30.5 -77q0 -45 30 -78t79 -33q53 0 84.5 33t31.5 81q0 45 -33.5 76t-84.5 31z" />
    <glyph glyph-name="guillemotleft" unicode="&#xab;" horiz-adv-x="397" 
d="M181 151l-146 169l146 169l29 -27l-121 -142l121 -142zM301 151l-146 169l146 169l29 -27l-121 -142l121 -142z" />
    <glyph glyph-name="logicalnot" unicode="&#xac;" 
d="M54 317v48h512v-266h-48v218h-464z" />
    <glyph glyph-name="uni00AD" unicode="&#xad;" horiz-adv-x="190" 
d="M190 297h-190v45h190v-45z" />
    <glyph glyph-name="registered" unicode="&#xae;" horiz-adv-x="800" 
d="M401 -10q-161 0 -274.5 114t-113.5 274t113.5 273t274.5 113q160 0 273 -113t113 -273q0 -161 -113 -274.5t-273 -113.5zM401 38q141 0 239.5 99t98.5 241q0 141 -98.5 239.5t-239.5 98.5q-142 0 -241 -98.5t-99 -239.5q0 -142 99 -241t241 -99zM528 158l-121 195h-99
v-195h-48v423h185q81 0 115.5 -28.5t34.5 -83.5q0 -112 -133 -116l128 -195h-62zM308 401h83q6 0 21 -0.5t23 0t22.5 1t23.5 2.5t20.5 5t18.5 8t14 12.5t10 17.5t3 23q0 63 -114 63h-125v-132z" />
    <glyph glyph-name="macron" unicode="&#xaf;" horiz-adv-x="456" 
d="M380 629h-305v45h305v-45z" />
    <glyph glyph-name="degree" unicode="&#xb0;" horiz-adv-x="400" 
d="M350 614q0 -62 -44 -106t-106 -44t-106 44t-44 106q-1 62 43.5 106t106.5 44t106 -44t44 -106zM199 722q-45 0 -76 -31.5t-31 -76.5q0 -46 31 -77t77 -31q45 0 76.5 31t31.5 77q0 45 -31.5 76.5t-77.5 31.5z" />
    <glyph glyph-name="plusminus" unicode="&#xb1;" 
d="M334 512v-192h232v-48h-232v-192h-48v192h-232v48h232v192h48zM566 48v-48h-512v48h512z" />
    <glyph glyph-name="twosuperior" unicode="&#xb2;" horiz-adv-x="372" 
d="M336 306h-302l182 185q27 27 41 43.5t30.5 46t16.5 53.5q0 43 -32.5 69.5t-80.5 26.5q-51 0 -82 -27t-31 -72h-34q2 54 31 85q45 48 116 48q61 0 104 -38t43 -94q0 -66 -88 -154l-136 -138h222v-34z" />
    <glyph glyph-name="threesuperior" unicode="&#xb3;" horiz-adv-x="372" 
d="M183 525v34q44 0 73 24.5t29 65.5q0 36 -27 58.5t-68 22.5q-87 0 -92 -78h-34q5 52 38 82t89 30q53 0 90.5 -34t37.5 -82q0 -35 -20 -63t-54 -42q36 -13 58.5 -43.5t22.5 -66.5q0 -56 -41.5 -94.5t-102.5 -38.5q-56 0 -96 33t-40 84h34q5 -39 31 -61t70 -22q47 0 79 27.5
t32 69.5q0 43 -31 68.5t-78 25.5z" />
    <glyph glyph-name="acute" unicode="&#xb4;" horiz-adv-x="313" 
d="M113 550l-38 17l101 147l61 -19z" />
    <glyph glyph-name="mu" unicode="&#xb5;" horiz-adv-x="472" 
d="M70 462h45v-228q0 -36 5 -67.5t17 -64t37.5 -51.5t61.5 -19q40 0 65.5 13t37 39t15 52t3.5 65v261h45v-277q0 -33 -0.5 -48.5t-7.5 -41t-20 -43.5q-47 -62 -138 -62q-34 0 -70 22t-49 60h-2v-342h-45v732z" />
    <glyph glyph-name="paragraph" unicode="&#xb6;" 
d="M282 -178v548q-75 -1 -123.5 55t-48.5 135q0 194 203 194h197v-45h-40v-887h-48v887h-92v-887h-48z" />
    <glyph glyph-name="periodcentered" unicode="&#xb7;" horiz-adv-x="310" 
d="M155 297q17 0 29 -12t12 -29t-12 -29t-29 -12t-29 12t-12 29t12 29t29 12z" />
    <glyph glyph-name="cedilla" unicode="&#xb8;" horiz-adv-x="299" 
d="M75 -164l93 144l56 -22l-111 -141z" />
    <glyph glyph-name="onesuperior" unicode="&#xb9;" horiz-adv-x="372" 
d="M149 754h95v-448h-34v414h-76z" />
    <glyph glyph-name="ordmasculine" unicode="&#xba;" horiz-adv-x="328" 
d="M163 764q66 0 112 -41.5t46 -102.5q0 -62 -46 -103.5t-112 -41.5q-64 0 -110 42.5t-46 101.5q0 60 45.5 102.5t110.5 42.5zM161 730q-48 0 -81.5 -33.5t-33.5 -78.5q0 -44 33.5 -76.5t81.5 -32.5q50 0 85.5 31.5t35.5 77.5q0 47 -35 79.5t-86 32.5z" />
    <glyph glyph-name="guillemotright" unicode="&#xbb;" horiz-adv-x="397" 
d="M67 462l29 27l146 -169l-146 -169l-29 27l121 142zM187 462l29 27l146 -169l-146 -169l-29 27l121 142z" />
    <glyph glyph-name="onequarter" unicode="&#xbc;" horiz-adv-x="930" 
d="M234 -17l-32 18l447 771l32 -18zM115 754h95v-448h-34v414h-76zM830 82h-66v-82h-34v82h-259v4l287 382h6v-352h66v-34zM725 367l-186 -247v-4h191v251h-5z" />
    <glyph glyph-name="onehalf" unicode="&#xbd;" horiz-adv-x="930" 
d="M190 -17l-32 18l447 771l32 -18zM115 754h95v-448h-34v414h-76zM828 0h-302l182 185q27 27 41 43.5t30.5 46t16.5 53.5q0 43 -32.5 69.5t-80.5 26.5q-51 0 -82 -27t-31 -72h-34q2 54 31 85q45 48 116 48q61 0 104 -38t43 -94q0 -66 -88 -154l-136 -138h222v-34z" />
    <glyph glyph-name="threequarters" unicode="&#xbe;" horiz-adv-x="930" 
d="M287 -17l-32 18l447 771l32 -18zM197 525v34q44 0 73 24.5t29 65.5q0 36 -27 58.5t-68 22.5q-87 0 -92 -78h-34q5 52 38 82t89 30q53 0 90.5 -34t37.5 -82q0 -35 -20 -63t-54 -42q36 -13 58.5 -43.5t22.5 -66.5q0 -56 -41.5 -94.5t-102.5 -38.5q-56 0 -96 33t-40 84h34
q5 -39 31 -61t70 -22q47 0 79 27.5t32 69.5q0 43 -31 68.5t-78 25.5zM870 82h-66v-82h-34v82h-259v4l287 382h6v-352h66v-34zM765 367l-186 -247v-4h191v251h-5z" />
    <glyph glyph-name="questiondown" unicode="&#xbf;" horiz-adv-x="491" 
d="M248 472q17 0 29 -12t12 -29t-12 -29t-29 -12t-29 12t-12 29t12 29t29 12zM137 159h-48q-3 69 41 115t115 46q66 0 112 -42.5t46 -106.5q0 -65 -37.5 -100.5t-105.5 -52.5l-48 -13.5t-38.5 -15.5t-33 -24t-18.5 -34.5t-8 -50.5q0 -57 37.5 -97t95.5 -40q56 0 93.5 36.5
t36.5 90.5q0 32 -5 53h46q7 -37 7 -64q0 -70 -53 -115.5t-126 -45.5q-80 0 -130 50.5t-50 129.5t41.5 118.5t124.5 60.5q25 6 38 10t32 13t28.5 19.5t17 28t7.5 40.5q0 47 -31.5 77t-80.5 30t-78 -34.5t-28 -81.5z" />
    <glyph glyph-name="Agrave" unicode="&#xc0;" horiz-adv-x="641" 
d="M401 824l-38 -17l-124 145l61 19zM54 0h-49l316 779l315 -779h-49l-101 248h-331zM173 293h295l-147 364z" />
    <glyph glyph-name="Aacute" unicode="&#xc1;" horiz-adv-x="641" 
d="M277 807l-38 17l101 147l61 -19zM54 0h-49l316 779l315 -779h-49l-101 248h-331zM173 293h295l-147 364z" />
    <glyph glyph-name="Acircumflex" unicode="&#xc2;" horiz-adv-x="641" 
d="M459 845l-38 -29l-100 77l-102 -77l-36 29l138 106zM54 0h-49l316 779l315 -779h-49l-101 248h-331zM173 293h295l-147 364z" />
    <glyph glyph-name="Atilde" unicode="&#xc3;" horiz-adv-x="641" 
d="M206 843l-30 22q11 27 31.5 45.5t46.5 18.5q24 0 70 -19q51 -20 63 -20q34 0 48 41l29 -22q-7 -27 -30 -46t-51 -19q-17 0 -65 20q-46 20 -68 20q-30 0 -44 -41zM54 0h-49l316 779l315 -779h-49l-101 248h-331zM173 293h295l-147 364z" />
    <glyph glyph-name="Adieresis" unicode="&#xc4;" horiz-adv-x="641" 
d="M227 931q17 0 28.5 -11.5t11.5 -28.5t-11.5 -28.5t-28.5 -11.5t-28.5 11.5t-11.5 28.5t11.5 28.5t28.5 11.5zM414 931q16 0 28 -11.5t12 -28.5t-12 -28.5t-28 -11.5t-28 11.5t-12 28.5t12 28.5t28 11.5zM54 0h-49l316 779l315 -779h-49l-101 248h-331zM173 293h295
l-147 364z" />
    <glyph glyph-name="Aring" unicode="&#xc5;" horiz-adv-x="641" 
d="M321 971q36 0 61.5 -25.5t25.5 -61.5t-25.5 -61.5t-61.5 -25.5t-61.5 25.5t-25.5 61.5t25.5 61.5t61.5 25.5zM321 931q-19 0 -33 -13.5t-14 -33.5t14 -33.5t33 -13.5t33 13.5t14 33.5t-14 33.5t-33 13.5zM54 0h-49l316 779l315 -779h-49l-101 248h-331zM173 293h295
l-147 364z" />
    <glyph glyph-name="AE" unicode="&#xc6;" horiz-adv-x="942" 
d="M59 0h-54l304 754h329l17 -45h-311l112 -274h303l19 -45h-303l140 -345h312l18 -45h-365l-100 248h-323zM176 293h285l-144 355z" />
    <glyph glyph-name="Ccedilla" unicode="&#xc7;" horiz-adv-x="739" 
d="M680 666v-66q-44 53 -113.5 86t-139.5 33q-140 0 -241.5 -103.5t-101.5 -243.5q0 -134 101 -233q49 -47 113 -75.5t129 -28.5q66 0 139 32.5t114 82.5v-66q-113 -94 -251 -94q-158 0 -275.5 114.5t-117.5 271.5q0 160 116.5 274t277.5 114q144 0 250 -98zM295 -164
l93 144l56 -22l-111 -141z" />
    <glyph glyph-name="Egrave" unicode="&#xc8;" horiz-adv-x="507" 
d="M334 824l-38 -17l-124 145l61 19zM129 435h304v-45h-304v-345h312v-45h-360v754h360v-45h-312v-274z" />
    <glyph glyph-name="Eacute" unicode="&#xc9;" horiz-adv-x="507" 
d="M230 807l-38 17l101 147l61 -19zM129 435h304v-45h-304v-345h312v-45h-360v754h360v-45h-312v-274z" />
    <glyph glyph-name="Ecircumflex" unicode="&#xca;" horiz-adv-x="507" 
d="M392 845l-38 -29l-100 77l-102 -77l-36 29l138 106zM129 435h304v-45h-304v-345h312v-45h-360v754h360v-45h-312v-274z" />
    <glyph glyph-name="Edieresis" unicode="&#xcb;" horiz-adv-x="507" 
d="M160 931q16 0 28 -11.5t12 -28.5t-12 -28.5t-28 -11.5t-28 11.5t-12 28.5t12 28.5t28 11.5zM347 931q17 0 28.5 -11.5t11.5 -28.5t-11.5 -28.5t-28.5 -11.5t-28.5 11.5t-11.5 28.5t11.5 28.5t28.5 11.5zM129 435h304v-45h-304v-345h312v-45h-360v754h360v-45h-312v-274z
" />
    <glyph glyph-name="Igrave" unicode="&#xcc;" horiz-adv-x="210" 
d="M186 824l-38 -17l-124 145l61 19zM81 0v754h48v-754h-48z" />
    <glyph glyph-name="Iacute" unicode="&#xcd;" horiz-adv-x="210" 
d="M62 807l-38 17l101 147l61 -19zM81 0v754h48v-754h-48z" />
    <glyph glyph-name="Icircumflex" unicode="&#xce;" horiz-adv-x="210" 
d="M243 845l-38 -29l-100 77l-102 -77l-36 29l138 106zM81 0v754h48v-754h-48z" />
    <glyph glyph-name="Idieresis" unicode="&#xcf;" horiz-adv-x="210" 
d="M12 931q16 0 28 -11.5t12 -28.5t-12 -28.5t-28 -11.5t-28 11.5t-12 28.5t12 28.5t28 11.5zM199 931q17 0 28.5 -11.5t11.5 -28.5t-11.5 -28.5t-28.5 -11.5t-28.5 11.5t-11.5 28.5t11.5 28.5t28.5 11.5zM81 0v754h48v-754h-48z" />
    <glyph glyph-name="Eth" unicode="&#xd0;" horiz-adv-x="652" 
d="M0 389v45h81v320h136q90 0 155.5 -20.5t124.5 -74.5q120 -112 120 -283q0 -165 -116 -276q-59 -57 -126 -78.5t-158 -21.5h-136v389h-81zM302 434v-45h-173v-344h87q161 0 253 91q100 100 100 240q0 151 -109 251q-51 46 -109.5 64t-134.5 18h-87v-275h173z" />
    <glyph glyph-name="Ntilde" unicode="&#xd1;" horiz-adv-x="843" 
d="M307 843l-30 22q11 27 31.5 45.5t46.5 18.5q24 0 70 -19q51 -20 63 -20q34 0 48 41l29 -22q-7 -27 -30 -46t-51 -19q-17 0 -65 20q-46 20 -68 20q-30 0 -44 -41zM129 648v-648h-48v764l633 -668v658h48v-779z" />
    <glyph glyph-name="Ograve" unicode="&#xd2;" horiz-adv-x="854" 
d="M508 824l-38 -17l-124 145l61 19zM427 764q159 0 275 -114t116 -273t-116 -273t-275 -114t-275 114t-116 273t115.5 273t275.5 114zM427 719q-141 0 -242 -101t-101 -241t101 -241t242 -101q140 0 241.5 101.5t101.5 240.5q0 140 -101.5 241t-241.5 101z" />
    <glyph glyph-name="Oacute" unicode="&#xd3;" horiz-adv-x="854" 
d="M384 807l-38 17l101 147l61 -19zM427 764q159 0 275 -114t116 -273t-116 -273t-275 -114t-275 114t-116 273t115.5 273t275.5 114zM427 719q-141 0 -242 -101t-101 -241t101 -241t242 -101q140 0 241.5 101.5t101.5 240.5q0 140 -101.5 241t-241.5 101z" />
    <glyph glyph-name="Ocircumflex" unicode="&#xd4;" horiz-adv-x="854" 
d="M565 845l-38 -29l-100 77l-102 -77l-36 29l138 106zM427 764q159 0 275 -114t116 -273t-116 -273t-275 -114t-275 114t-116 273t115.5 273t275.5 114zM427 719q-141 0 -242 -101t-101 -241t101 -241t242 -101q140 0 241.5 101.5t101.5 240.5q0 140 -101.5 241t-241.5 101
z" />
    <glyph glyph-name="Otilde" unicode="&#xd5;" horiz-adv-x="854" 
d="M313 843l-30 22q11 27 31.5 45.5t46.5 18.5q24 0 70 -19q51 -20 63 -20q34 0 48 41l29 -22q-7 -27 -30 -46t-51 -19q-17 0 -65 20q-46 20 -68 20q-30 0 -44 -41zM427 764q159 0 275 -114t116 -273t-116 -273t-275 -114t-275 114t-116 273t115.5 273t275.5 114zM427 719
q-141 0 -242 -101t-101 -241t101 -241t242 -101q140 0 241.5 101.5t101.5 240.5q0 140 -101.5 241t-241.5 101z" />
    <glyph glyph-name="Odieresis" unicode="&#xd6;" horiz-adv-x="854" 
d="M334 931q16 0 28 -11.5t12 -28.5t-12 -28.5t-28 -11.5t-28 11.5t-12 28.5t12 28.5t28 11.5zM521 931q17 0 28.5 -11.5t11.5 -28.5t-11.5 -28.5t-28.5 -11.5t-28.5 11.5t-11.5 28.5t11.5 28.5t28.5 11.5zM427 764q159 0 275 -114t116 -273t-116 -273t-275 -114t-275 114
t-116 273t115.5 273t275.5 114zM427 719q-141 0 -242 -101t-101 -241t101 -241t242 -101q140 0 241.5 101.5t101.5 240.5q0 140 -101.5 241t-241.5 101z" />
    <glyph glyph-name="multiply" unicode="&#xd7;" 
d="M84 512l226 -226l226 226l30 -34l-224 -222l224 -224l-30 -32l-226 225l-225 -225l-31 32l225 224l-225 222z" />
    <glyph glyph-name="Oslash" unicode="&#xd8;" horiz-adv-x="854" 
d="M49 29l90 90q-103 111 -103 258q0 159 115.5 273t275.5 114q146 0 258 -99l91 91l29 -26l-92 -92q105 -111 105 -261q0 -159 -116 -273t-275 -114q-151 0 -260 101l-91 -91zM171 151l481 481q-97 87 -225 87q-141 0 -242 -101t-101 -241q0 -129 87 -226zM680 605
l-481 -482q99 -88 228 -88q140 0 241.5 101.5t101.5 240.5q0 132 -90 228z" />
    <glyph glyph-name="Ugrave" unicode="&#xd9;" horiz-adv-x="660" 
d="M396 824l-38 -17l-124 145l61 19zM586 754v-470q0 -50 -1.5 -76t-13.5 -63t-36 -67q-37 -43 -91.5 -65.5t-113.5 -22.5t-113.5 22.5t-91.5 65.5q-24 30 -36 67t-13.5 63t-1.5 76v470h48v-456q0 -46 1.5 -71t10.5 -60.5t27 -58.5q26 -34 74 -53.5t95 -19.5t95 19.5
t74 53.5q18 23 27 58.5t10.5 60.5t1.5 71v456h48z" />
    <glyph glyph-name="Uacute" unicode="&#xda;" horiz-adv-x="660" 
d="M302 807l-38 17l101 147l61 -19zM586 754v-470q0 -50 -1.5 -76t-13.5 -63t-36 -67q-37 -43 -91.5 -65.5t-113.5 -22.5t-113.5 22.5t-91.5 65.5q-24 30 -36 67t-13.5 63t-1.5 76v470h48v-456q0 -46 1.5 -71t10.5 -60.5t27 -58.5q26 -34 74 -53.5t95 -19.5t95 19.5t74 53.5
q18 23 27 58.5t10.5 60.5t1.5 71v456h48z" />
    <glyph glyph-name="Ucircumflex" unicode="&#xdb;" horiz-adv-x="660" 
d="M468 845l-38 -29l-100 77l-102 -77l-36 29l138 106zM586 754v-470q0 -50 -1.5 -76t-13.5 -63t-36 -67q-37 -43 -91.5 -65.5t-113.5 -22.5t-113.5 22.5t-91.5 65.5q-24 30 -36 67t-13.5 63t-1.5 76v470h48v-456q0 -46 1.5 -71t10.5 -60.5t27 -58.5q26 -34 74 -53.5
t95 -19.5t95 19.5t74 53.5q18 23 27 58.5t10.5 60.5t1.5 71v456h48z" />
    <glyph glyph-name="Udieresis" unicode="&#xdc;" horiz-adv-x="660" 
d="M237 931q17 0 28.5 -11.5t11.5 -28.5t-11.5 -28.5t-28.5 -11.5t-28.5 11.5t-11.5 28.5t11.5 28.5t28.5 11.5zM424 931q16 0 28 -11.5t12 -28.5t-12 -28.5t-28 -11.5t-28 11.5t-12 28.5t12 28.5t28 11.5zM586 754v-470q0 -50 -1.5 -76t-13.5 -63t-36 -67
q-37 -43 -91.5 -65.5t-113.5 -22.5t-113.5 22.5t-91.5 65.5q-24 30 -36 67t-13.5 63t-1.5 76v470h48v-456q0 -46 1.5 -71t10.5 -60.5t27 -58.5q26 -34 74 -53.5t95 -19.5t95 19.5t74 53.5q18 23 27 58.5t10.5 60.5t1.5 71v456h48z" />
    <glyph glyph-name="Yacute" unicode="&#xdd;" horiz-adv-x="559" 
d="M266 807l-38 17l101 147l61 -19zM57 754l222 -382l222 382h53l-251 -432v-322h-48v322l-251 432h53z" />
    <glyph glyph-name="Thorn" unicode="&#xde;" horiz-adv-x="472" 
d="M129 754v-160h85q54 0 92.5 -8.5t70.5 -35.5q68 -58 68 -155q0 -42 -16.5 -83t-46.5 -66q-55 -48 -168 -48h-85v-198h-48v754h48zM129 243h87q86 0 132 41q49 45 49 113q0 80 -57 122q-39 30 -132 30h-79v-306z" />
    <glyph glyph-name="germandbls" unicode="&#xdf;" horiz-adv-x="534" 
d="M28 420v42h49v188q0 90 34 131q45 57 133 57q69 0 114 -46.5t45 -115.5q0 -46 -23.5 -83.5t-64.5 -52.5v-2q83 -23 135 -97.5t52 -162.5q0 -112 -79.5 -192.5t-191.5 -91.5v42q95 14 160.5 81t65.5 161q0 98 -63.5 162t-162.5 74v42q57 1 92 35t35 90q0 51 -34.5 83
t-86.5 32q-68 0 -96 -48q-19 -33 -19 -114v-634h-45v420h-49z" />
    <glyph glyph-name="agrave" unicode="&#xe0;" horiz-adv-x="560" 
d="M346 567l-38 -17l-124 145l61 19zM438 0v83h-2q-25 -43 -74 -68t-102 -25q-103 0 -165.5 70t-62.5 174q0 103 62 170.5t164 67.5q54 0 101.5 -23.5t76.5 -66.5h2v80h45v-462h-45zM256 430q-77 0 -128 -59t-51 -137q0 -83 50.5 -142.5t131.5 -59.5q85 0 133.5 59.5
t48.5 147.5q0 82 -51 136.5t-134 54.5z" />
    <glyph glyph-name="aacute" unicode="&#xe1;" horiz-adv-x="560" 
d="M252 550l-38 17l101 147l61 -19zM438 0v83h-2q-25 -43 -74 -68t-102 -25q-103 0 -165.5 70t-62.5 174q0 103 62 170.5t164 67.5q54 0 101.5 -23.5t76.5 -66.5h2v80h45v-462h-45zM256 430q-77 0 -128 -59t-51 -137q0 -83 50.5 -142.5t131.5 -59.5q85 0 133.5 59.5
t48.5 147.5q0 82 -51 136.5t-134 54.5z" />
    <glyph glyph-name="acircumflex" unicode="&#xe2;" horiz-adv-x="560" 
d="M418 588l-38 -29l-100 77l-102 -77l-36 29l138 106zM438 0v83h-2q-25 -43 -74 -68t-102 -25q-103 0 -165.5 70t-62.5 174q0 103 62 170.5t164 67.5q54 0 101.5 -23.5t76.5 -66.5h2v80h45v-462h-45zM256 430q-77 0 -128 -59t-51 -137q0 -83 50.5 -142.5t131.5 -59.5
q85 0 133.5 59.5t48.5 147.5q0 82 -51 136.5t-134 54.5z" />
    <glyph glyph-name="atilde" unicode="&#xe3;" horiz-adv-x="560" 
d="M166 586l-30 22q11 27 31.5 45.5t46.5 18.5q24 0 70 -19q51 -20 63 -20q34 0 48 41l29 -22q-7 -27 -30 -46t-51 -19q-17 0 -65 20q-46 20 -68 20q-30 0 -44 -41zM438 0v83h-2q-25 -43 -74 -68t-102 -25q-103 0 -165.5 70t-62.5 174q0 103 62 170.5t164 67.5
q54 0 101.5 -23.5t76.5 -66.5h2v80h45v-462h-45zM256 430q-77 0 -128 -59t-51 -137q0 -83 50.5 -142.5t131.5 -59.5q85 0 133.5 59.5t48.5 147.5q0 82 -51 136.5t-134 54.5z" />
    <glyph glyph-name="adieresis" unicode="&#xe4;" horiz-adv-x="560" 
d="M187 674q17 0 28.5 -12t11.5 -28t-11.5 -28t-28.5 -12t-28.5 12t-11.5 28t11.5 28t28.5 12zM374 674q16 0 28 -12t12 -28t-12 -28t-28 -12t-28 12t-12 28t12 28t28 12zM438 0v83h-2q-25 -43 -74 -68t-102 -25q-103 0 -165.5 70t-62.5 174q0 103 62 170.5t164 67.5
q54 0 101.5 -23.5t76.5 -66.5h2v80h45v-462h-45zM256 430q-77 0 -128 -59t-51 -137q0 -83 50.5 -142.5t131.5 -59.5q85 0 133.5 59.5t48.5 147.5q0 82 -51 136.5t-134 54.5z" />
    <glyph glyph-name="aring" unicode="&#xe5;" horiz-adv-x="560" 
d="M280 714q36 0 61.5 -25.5t25.5 -61.5t-25.5 -61.5t-61.5 -25.5t-61.5 25.5t-25.5 61.5t25.5 61.5t61.5 25.5zM280 674q-20 0 -33.5 -14t-13.5 -33t13.5 -33t33.5 -14t33.5 14t13.5 33t-13.5 33t-33.5 14zM438 0v83h-2q-25 -43 -74 -68t-102 -25q-103 0 -165.5 70
t-62.5 174q0 103 62 170.5t164 67.5q54 0 101.5 -23.5t76.5 -66.5h2v80h45v-462h-45zM256 430q-77 0 -128 -59t-51 -137q0 -83 50.5 -142.5t131.5 -59.5q85 0 133.5 59.5t48.5 147.5q0 82 -51 136.5t-134 54.5z" />
    <glyph glyph-name="ae" unicode="&#xe6;" horiz-adv-x="849" 
d="M763 136l39 -26q-36 -56 -89 -88t-117 -32q-60 0 -113 30.5t-76 83.5h-2q-15 -57 -70.5 -85.5t-121.5 -28.5q-74 0 -133 37t-59 107q0 72 62 108.5t139 36.5q92 0 149 -49q1 88 -39 144t-125 56q-66 0 -155 -42v46q75 38 164 38q64 0 111.5 -33.5t69.5 -94.5
q25 57 79 92.5t117 35.5q101 0 162 -71.5t62 -174.5h-401q2 -81 52.5 -137.5t129.5 -56.5q52 0 95 28.5t70 75.5zM416 268h356q-8 65 -59 113.5t-117 48.5q-70 0 -122 -48t-58 -114zM222 237q-37 0 -70 -8t-59.5 -32.5t-26.5 -61.5q0 -38 25 -62.5t56.5 -32.5t69.5 -8
q56 0 105 26t49 77q0 53 -45 77.5t-104 24.5z" />
    <glyph glyph-name="ccedilla" unicode="&#xe7;" horiz-adv-x="477" 
d="M431 415v-60q-69 75 -163 75q-80 0 -135.5 -59t-55.5 -139t55 -140t135 -60q102 0 170 83v-61q-73 -64 -168 -64q-102 0 -169.5 70t-67.5 172q0 101 68.5 170.5t169.5 69.5q94 0 161 -57zM164 -164l93 144l56 -22l-111 -141z" />
    <glyph glyph-name="egrave" unicode="&#xe8;" horiz-adv-x="510" 
d="M321 567l-38 -17l-124 145l61 19zM478 227h-401q-2 -87 50.5 -141t134.5 -54q52 0 94.5 28.5t68.5 76.5l38 -22q-66 -125 -207 -125q-100 0 -162 70.5t-62 171.5q0 100 62.5 170t161.5 70q102 0 162.5 -71t59.5 -174zM77 269h356q-9 66 -58 113.5t-118 47.5
q-70 0 -122 -47.5t-58 -113.5z" />
    <glyph glyph-name="eacute" unicode="&#xe9;" horiz-adv-x="510" 
d="M227 550l-38 17l101 147l61 -19zM478 227h-401q-2 -87 50.5 -141t134.5 -54q52 0 94.5 28.5t68.5 76.5l38 -22q-66 -125 -207 -125q-100 0 -162 70.5t-62 171.5q0 100 62.5 170t161.5 70q102 0 162.5 -71t59.5 -174zM77 269h356q-9 66 -58 113.5t-118 47.5
q-70 0 -122 -47.5t-58 -113.5z" />
    <glyph glyph-name="ecircumflex" unicode="&#xea;" horiz-adv-x="510" 
d="M393 588l-38 -29l-100 77l-102 -77l-36 29l138 106zM478 227h-401q-2 -87 50.5 -141t134.5 -54q52 0 94.5 28.5t68.5 76.5l38 -22q-66 -125 -207 -125q-100 0 -162 70.5t-62 171.5q0 100 62.5 170t161.5 70q102 0 162.5 -71t59.5 -174zM77 269h356q-9 66 -58 113.5
t-118 47.5q-70 0 -122 -47.5t-58 -113.5z" />
    <glyph glyph-name="edieresis" unicode="&#xeb;" horiz-adv-x="510" 
d="M162 674q16 0 28 -12t12 -28t-12 -28t-28 -12t-28 12t-12 28t12 28t28 12zM349 674q17 0 28.5 -12t11.5 -28t-11.5 -28t-28.5 -12t-28.5 12t-11.5 28t11.5 28t28.5 12zM478 227h-401q-2 -87 50.5 -141t134.5 -54q52 0 94.5 28.5t68.5 76.5l38 -22q-66 -125 -207 -125
q-100 0 -162 70.5t-62 171.5q0 100 62.5 170t161.5 70q102 0 162.5 -71t59.5 -174zM77 269h356q-9 66 -58 113.5t-118 47.5q-70 0 -122 -47.5t-58 -113.5z" />
    <glyph glyph-name="igrave" unicode="&#xec;" horiz-adv-x="234" 
d="M182 567l-38 -17l-124 145l61 19zM94 0v462h45v-462h-45z" />
    <glyph glyph-name="iacute" unicode="&#xed;" horiz-adv-x="234" 
d="M88 550l-38 17l101 147l61 -19zM94 0v462h45v-462h-45z" />
    <glyph glyph-name="icircumflex" unicode="&#xee;" horiz-adv-x="234" 
d="M255 588l-38 -29l-100 77l-102 -77l-36 29l138 106zM94 0v462h45v-462h-45z" />
    <glyph glyph-name="idieresis" unicode="&#xef;" horiz-adv-x="234" 
d="M24 674q16 0 28 -12t12 -28t-12 -28t-28 -12t-28 12t-12 28t12 28t28 12zM211 674q17 0 28.5 -12t11.5 -28t-11.5 -28t-28.5 -12t-28.5 12t-11.5 28t11.5 28t28.5 12zM94 0v462h45v-462h-45z" />
    <glyph glyph-name="eth" unicode="&#xf0;" horiz-adv-x="547" 
d="M89 798l32 30q74 -43 139 -95l155 87l25 -33l-147 -82q103 -91 162.5 -204.5t59.5 -240.5q0 -133 -71.5 -201.5t-171.5 -68.5t-170 71t-70 170q0 98 70.5 170t172.5 72q94 0 169 -70q-28 81 -70 144t-121 135l-146 -82l-25 34l137 75q-48 40 -130 89zM269 430
q-81 0 -136.5 -59t-55.5 -141q0 -80 55.5 -139t136.5 -59q85 0 143 57t58 141q0 85 -57.5 142.5t-143.5 57.5z" />
    <glyph glyph-name="ntilde" unicode="&#xf1;" horiz-adv-x="490" 
d="M131 586l-30 22q11 27 31.5 45.5t46.5 18.5q24 0 70 -19q51 -20 63 -20q34 0 48 41l29 -22q-7 -27 -30 -46t-51 -19q-17 0 -65 20q-46 20 -68 20q-30 0 -44 -41zM122 390h2q20 39 56 60.5t81 21.5q85 0 118.5 -48.5t33.5 -144.5v-279h-45v279q0 36 -3.5 59.5t-14 46.5
t-34 34t-59.5 11q-135 0 -135 -202v-228h-45v462h45v-72z" />
    <glyph glyph-name="ograve" unicode="&#xf2;" horiz-adv-x="547" 
d="M339 567l-38 -17l-124 145l61 19zM272 472q102 0 172.5 -69.5t70.5 -171.5t-70.5 -171.5t-172.5 -69.5q-99 0 -169.5 70.5t-70.5 169.5q0 100 70 171t170 71zM269 430q-81 0 -136.5 -59t-55.5 -141q0 -80 55.5 -139t136.5 -59q85 0 143 57t58 141q0 85 -57.5 142.5
t-143.5 57.5z" />
    <glyph glyph-name="oacute" unicode="&#xf3;" horiz-adv-x="547" 
d="M245 550l-38 17l101 147l61 -19zM272 472q102 0 172.5 -69.5t70.5 -171.5t-70.5 -171.5t-172.5 -69.5q-99 0 -169.5 70.5t-70.5 169.5q0 100 70 171t170 71zM269 430q-81 0 -136.5 -59t-55.5 -141q0 -80 55.5 -139t136.5 -59q85 0 143 57t58 141q0 85 -57.5 142.5
t-143.5 57.5z" />
    <glyph glyph-name="ocircumflex" unicode="&#xf4;" horiz-adv-x="547" 
d="M412 588l-38 -29l-100 77l-102 -77l-36 29l138 106zM272 472q102 0 172.5 -69.5t70.5 -171.5t-70.5 -171.5t-172.5 -69.5q-99 0 -169.5 70.5t-70.5 169.5q0 100 70 171t170 71zM269 430q-81 0 -136.5 -59t-55.5 -141q0 -80 55.5 -139t136.5 -59q85 0 143 57t58 141
q0 85 -57.5 142.5t-143.5 57.5z" />
    <glyph glyph-name="otilde" unicode="&#xf5;" horiz-adv-x="547" 
d="M159 586l-30 22q11 27 31.5 45.5t46.5 18.5q24 0 70 -19q51 -20 63 -20q34 0 48 41l29 -22q-7 -27 -30 -46t-51 -19q-17 0 -65 20q-46 20 -68 20q-30 0 -44 -41zM272 472q102 0 172.5 -69.5t70.5 -171.5t-70.5 -171.5t-172.5 -69.5q-99 0 -169.5 70.5t-70.5 169.5
q0 100 70 171t170 71zM269 430q-81 0 -136.5 -59t-55.5 -141q0 -80 55.5 -139t136.5 -59q85 0 143 57t58 141q0 85 -57.5 142.5t-143.5 57.5z" />
    <glyph glyph-name="odieresis" unicode="&#xf6;" horiz-adv-x="547" 
d="M180 674q16 0 28 -12t12 -28t-12 -28t-28 -12t-28 12t-12 28t12 28t28 12zM367 674q17 0 28.5 -12t11.5 -28t-11.5 -28t-28.5 -12t-28.5 12t-11.5 28t11.5 28t28.5 12zM272 472q102 0 172.5 -69.5t70.5 -171.5t-70.5 -171.5t-172.5 -69.5q-99 0 -169.5 70.5t-70.5 169.5
q0 100 70 171t170 71zM269 430q-81 0 -136.5 -59t-55.5 -141q0 -80 55.5 -139t136.5 -59q85 0 143 57t58 141q0 85 -57.5 142.5t-143.5 57.5z" />
    <glyph glyph-name="divide" unicode="&#xf7;" 
d="M310 512q17 0 29 -12t12 -29t-12 -29t-29 -12t-29 12t-12 29t12 29t29 12zM566 280v-48h-512v48h512zM310 82q17 0 29 -12t12 -29t-12 -29t-29 -12t-29 12t-12 29t12 29t29 12z" />
    <glyph glyph-name="oslash" unicode="&#xf8;" horiz-adv-x="547" 
d="M28 17l60 60q-56 65 -56 153q0 100 70 171t170 71q90 0 156 -55l63 63l28 -29l-62 -62q58 -64 58 -158q0 -102 -70.5 -171.5t-172.5 -69.5q-91 0 -157 60l-60 -60zM119 108l278 278q-55 44 -128 44q-81 0 -136.5 -59t-55.5 -141q0 -69 42 -122zM425 357l-280 -277
q53 -48 124 -48q85 0 143 57t58 141q0 74 -45 127z" />
    <glyph glyph-name="ugrave" unicode="&#xf9;" horiz-adv-x="472" 
d="M292 567l-38 -17l-124 145l61 19zM402 462v-277q0 -33 -0.5 -48.5t-7.5 -41t-20 -43.5q-47 -62 -138 -62t-138 62q-13 18 -20 43.5t-7.5 41t-0.5 48.5v277h45v-261q0 -39 3.5 -65t15 -52t37 -39t65.5 -13t65.5 13t37 39t15 52t3.5 65v261h45z" />
    <glyph glyph-name="uacute" unicode="&#xfa;" horiz-adv-x="472" 
d="M218 550l-38 17l101 147l61 -19zM402 462v-277q0 -33 -0.5 -48.5t-7.5 -41t-20 -43.5q-47 -62 -138 -62t-138 62q-13 18 -20 43.5t-7.5 41t-0.5 48.5v277h45v-261q0 -39 3.5 -65t15 -52t37 -39t65.5 -13t65.5 13t37 39t15 52t3.5 65v261h45z" />
    <glyph glyph-name="ucircumflex" unicode="&#xfb;" horiz-adv-x="472" 
d="M374 588l-38 -29l-100 77l-102 -77l-36 29l138 106zM402 462v-277q0 -33 -0.5 -48.5t-7.5 -41t-20 -43.5q-47 -62 -138 -62t-138 62q-13 18 -20 43.5t-7.5 41t-0.5 48.5v277h45v-261q0 -39 3.5 -65t15 -52t37 -39t65.5 -13t65.5 13t37 39t15 52t3.5 65v261h45z" />
    <glyph glyph-name="udieresis" unicode="&#xfc;" horiz-adv-x="472" 
d="M143 674q17 0 28.5 -12t11.5 -28t-11.5 -28t-28.5 -12t-28.5 12t-11.5 28t11.5 28t28.5 12zM330 674q16 0 28 -12t12 -28t-12 -28t-28 -12t-28 12t-12 28t12 28t28 12zM402 462v-277q0 -33 -0.5 -48.5t-7.5 -41t-20 -43.5q-47 -62 -138 -62t-138 62q-13 18 -20 43.5
t-7.5 41t-0.5 48.5v277h45v-261q0 -39 3.5 -65t15 -52t37 -39t65.5 -13t65.5 13t37 39t15 52t3.5 65v261h45z" />
    <glyph glyph-name="yacute" unicode="&#xfd;" horiz-adv-x="460" 
d="M217 550l-38 17l101 147l61 -19zM40 462l197 -418l177 418h46l-310 -732h-46l111 262l-222 470h47z" />
    <glyph glyph-name="thorn" unicode="&#xfe;" horiz-adv-x="560" 
d="M77 -270v1095h45v-446h2q25 43 74 68t102 25q103 0 165.5 -70.5t62.5 -174.5q0 -103 -62 -170t-164 -67q-55 0 -102.5 23.5t-75.5 66.5h-2v-350h-45zM301 430q-85 0 -133.5 -60.5t-48.5 -148.5q0 -82 51 -135.5t133 -53.5q79 0 129.5 57t50.5 137q0 83 -50 143.5
t-132 60.5z" />
    <glyph glyph-name="ydieresis" unicode="&#xff;" horiz-adv-x="460" 
d="M142 674q16 0 28 -12t12 -28t-12 -28t-28 -12t-28 12t-12 28t12 28t28 12zM329 674q17 0 28.5 -12t11.5 -28t-11.5 -28t-28.5 -12t-28.5 12t-11.5 28t11.5 28t28.5 12zM40 462l197 -418l177 418h46l-310 -732h-46l111 262l-222 470h47z" />
    <glyph glyph-name="Cacute" unicode="&#x106;" horiz-adv-x="739" 
d="M422 807l-38 17l101 147l61 -19zM680 666v-66q-44 53 -113.5 86t-139.5 33q-140 0 -241.5 -103.5t-101.5 -243.5q0 -134 101 -233q49 -47 113 -75.5t129 -28.5q66 0 139 32.5t114 82.5v-66q-113 -94 -251 -94q-158 0 -275.5 114.5t-117.5 271.5q0 160 116.5 274
t277.5 114q144 0 250 -98z" />
    <glyph glyph-name="cacute" unicode="&#x107;" horiz-adv-x="477" 
d="M245 550l-38 17l101 147l61 -19zM431 415v-60q-69 75 -163 75q-80 0 -135.5 -59t-55.5 -139t55 -140t135 -60q102 0 170 83v-61q-73 -64 -168 -64q-102 0 -169.5 70t-67.5 172q0 101 68.5 170.5t169.5 69.5q94 0 161 -57z" />
    <glyph glyph-name="Ccaron" unicode="&#x10c;" horiz-adv-x="739" 
d="M284 923l38 28l100 -76l102 76l36 -28l-138 -107zM680 666v-66q-44 53 -113.5 86t-139.5 33q-140 0 -241.5 -103.5t-101.5 -243.5q0 -134 101 -233q49 -47 113 -75.5t129 -28.5q66 0 139 32.5t114 82.5v-66q-113 -94 -251 -94q-158 0 -275.5 114.5t-117.5 271.5
q0 160 116.5 274t277.5 114q144 0 250 -98z" />
    <glyph glyph-name="ccaron" unicode="&#x10d;" horiz-adv-x="477" 
d="M127 666l38 28l100 -76l102 76l36 -28l-138 -107zM431 415v-60q-69 75 -163 75q-80 0 -135.5 -59t-55.5 -139t55 -140t135 -60q102 0 170 83v-61q-73 -64 -168 -64q-102 0 -169.5 70t-67.5 172q0 101 68.5 170.5t169.5 69.5q94 0 161 -57z" />
    <glyph glyph-name="Dcroat" unicode="&#x110;" horiz-adv-x="652" 
d="M497 659q120 -112 120 -283q0 -165 -116 -276q-59 -57 -126 -78.5t-158 -21.5h-136v364h-70v45h70v345h136q90 0 155.5 -20.5t124.5 -74.5zM469 136q100 100 100 240q0 151 -109 251q-51 46 -109.5 64t-134.5 18h-87v-300h72v-45h-72v-319h87q161 0 253 91z" />
    <glyph glyph-name="dcroat" unicode="&#x111;" horiz-adv-x="560" 
d="M553 591h-70v-591h-45v83h-2q-25 -43 -74 -68t-102 -25q-103 0 -165.5 70t-62.5 174q0 103 62 170.5t164 67.5q54 0 101.5 -23.5t76.5 -66.5h2v209h-75v45h75v189h45v-189h70v-45zM259 32q85 0 133.5 59.5t48.5 147.5q0 82 -51 136.5t-134 54.5q-77 0 -128 -59t-51 -137
q0 -83 50.5 -142.5t131.5 -59.5z" />
    <glyph glyph-name="dotlessi" unicode="&#x131;" horiz-adv-x="234" 
d="M94 0v462h45v-462h-45z" />
    <glyph glyph-name="Lslash" unicode="&#x141;" horiz-adv-x="327" 
d="M0 297v49l81 57v351h48v-318l128 89v-49l-128 -89v-342h192v-45h-240v354z" />
    <glyph glyph-name="lslash" unicode="&#x142;" horiz-adv-x="229" 
d="M17 337v45l75 54v389h45v-357l75 53v-45l-75 -53v-423h-45v391z" />
    <glyph glyph-name="OE" unicode="&#x152;" horiz-adv-x="1193" 
d="M767 194h-2q-45 -94 -138.5 -149t-200.5 -55q-74 0 -145 29t-125 80q-120 114 -120 278q0 160 116.5 273.5t277.5 113.5q105 0 197 -56.5t138 -149.5h2v196h360v-45h-312v-274h305v-45h-305v-345h312v-45h-360v194zM429 719q-139 0 -242 -101.5t-103 -240.5
q0 -145 105 -244q47 -46 109.5 -72t128.5 -26q68 0 133 28t113 78q93 98 93 236q0 140 -99 241t-238 101z" />
    <glyph glyph-name="oe" unicode="&#x153;" horiz-adv-x="945" 
d="M913 227h-399q-5 -80 49 -137.5t133 -57.5q112 0 163 107l38 -23q-30 -60 -83.5 -93t-121.5 -33q-66 0 -121.5 37.5t-79.5 98.5q-29 -61 -88.5 -98.5t-127.5 -37.5q-102 0 -172.5 69.5t-70.5 170.5q0 102 71.5 172t173.5 70q68 0 127.5 -36.5t86.5 -97.5q24 63 78 98.5
t122 35.5q104 0 163.5 -70t58.5 -175zM276 430q-86 0 -142.5 -58.5t-56.5 -144.5q0 -78 57.5 -136.5t136.5 -58.5q83 0 140.5 58t57.5 140q0 81 -56 140.5t-137 59.5zM514 269h354q-9 66 -58 113.5t-118 47.5q-70 0 -121 -47.5t-57 -113.5z" />
    <glyph glyph-name="Scaron" unicode="&#x160;" horiz-adv-x="544" 
d="M144 923l38 28l100 -76l102 76l36 -28l-138 -107zM464 658l-34 -28q-56 89 -153 89q-60 0 -101 -42t-41 -102q0 -28 11 -50t36 -40.5t40 -26.5t49 -24l144 -75q86 -54 86 -150q0 -92 -71 -155.5t-165 -63.5q-77 0 -136 44t-86 118l42 19q54 -136 182 -136q75 0 130.5 52
t55.5 126q0 23 -9.5 43.5t-20 33t-34.5 28.5t-34.5 21.5t-39.5 19.5l-14 7l-136 72q-78 48 -78 135q0 84 54 137.5t139 53.5q57 0 107 -28.5t77 -77.5z" />
    <glyph glyph-name="scaron" unicode="&#x161;" horiz-adv-x="375" 
d="M50 666l38 28l100 -76l102 76l36 -28l-138 -107zM310 398l-39 -20q-24 52 -81 52q-30 0 -54.5 -21.5t-24.5 -50.5q0 -30 23 -49t56 -30.5t66.5 -25t56.5 -43.5t23 -76q0 -63 -43 -103.5t-106 -40.5q-58 0 -101.5 33t-57.5 89l44 14q29 -94 115 -94q43 0 73.5 30t30.5 74
q0 38 -23 57t-67 34q-32 12 -49 19.5t-40.5 23t-34.5 36.5t-11 49q0 51 37 84t89 33q36 0 69.5 -21t48.5 -53z" />
    <glyph glyph-name="Ydieresis" unicode="&#x178;" horiz-adv-x="559" 
d="M198 931q16 0 28 -11.5t12 -28.5t-12 -28.5t-28 -11.5t-28 11.5t-12 28.5t12 28.5t28 11.5zM385 931q17 0 28.5 -11.5t11.5 -28.5t-11.5 -28.5t-28.5 -11.5t-28.5 11.5t-11.5 28.5t11.5 28.5t28.5 11.5zM57 754l222 -382l222 382h53l-251 -432v-322h-48v322l-251 432h53z
" />
    <glyph glyph-name="Zcaron" unicode="&#x17d;" horiz-adv-x="568" 
d="M158 923l38 28l100 -76l102 76l36 -28l-138 -107zM543 0h-531l460 709h-416v45h500l-460 -709h447v-45z" />
    <glyph glyph-name="zcaron" unicode="&#x17e;" horiz-adv-x="480" 
d="M127 666l38 28l100 -76l102 76l36 -28l-138 -107zM473 0h-470l378 420h-317v42h411l-377 -420h375v-42z" />
    <glyph glyph-name="florin" unicode="&#x192;" 
d="M476 441h-115l-72 -380q-1 -6 -4.5 -26t-5 -28t-6 -26.5t-8 -27t-10 -24.5t-13 -23.5t-16 -18t-20.5 -15.5t-25.5 -8.5t-30.5 -3.5q-36 0 -80 17l9 42q36 -14 67 -14q44 0 59 25q18 29 31 100l79 411h-69l9 45h68l40 214q14 69 29 92q31 46 94 46q32 0 65 -15l-9 -41
q-25 11 -52 11q-16 0 -28 -3.5t-20.5 -12t-14.5 -15.5t-10 -21.5t-6 -22.5t-5 -26.5t-4 -24.5l-33 -181h116z" />
    <glyph glyph-name="circumflex" unicode="&#x2c6;" horiz-adv-x="426" 
d="M351 588l-38 -29l-100 77l-102 -77l-36 29l138 106z" />
    <glyph glyph-name="caron" unicode="&#x2c7;" horiz-adv-x="426" 
d="M75 666l38 28l100 -76l102 76l36 -28l-138 -107z" />
    <glyph glyph-name="uni02C9" unicode="&#x2c9;" horiz-adv-x="456" 
d="M380 629h-305v45h305v-45z" />
    <glyph glyph-name="breve" unicode="&#x2d8;" horiz-adv-x="434" 
d="M75 674h44q19 -61 98 -61t98 61h43q-6 -50 -47 -78t-94 -28t-94.5 28t-47.5 78z" />
    <glyph glyph-name="dotaccent" unicode="&#x2d9;" horiz-adv-x="313" 
d="M157 674q17 0 28.5 -12t11.5 -28t-11.5 -28t-28.5 -12t-28.5 12t-11.5 28t11.5 28t28.5 12z" />
    <glyph glyph-name="ring" unicode="&#x2da;" horiz-adv-x="324" 
d="M162 714q36 0 61.5 -25.5t25.5 -61.5t-25.5 -61.5t-61.5 -25.5t-61.5 25.5t-25.5 61.5t25.5 61.5t61.5 25.5zM162 674q-20 0 -33.5 -14t-13.5 -33t13.5 -33t33.5 -14t33.5 14t13.5 33t-13.5 33t-33.5 14z" />
    <glyph glyph-name="ogonek" unicode="&#x2db;" horiz-adv-x="321" 
d="M196 2v-2q-77 -56 -77 -105q0 -29 19.5 -44t48.5 -15q20 0 58 12l-10 -44q-31 -9 -52 -9q-43 0 -75.5 26.5t-32.5 69.5q0 62 78 111h43z" />
    <glyph glyph-name="tilde" unicode="&#x2dc;" horiz-adv-x="439" 
d="M105 586l-30 22q11 27 31.5 45.5t46.5 18.5q24 0 70 -19q51 -20 63 -20q34 0 48 41l29 -22q-7 -27 -30 -46t-51 -19q-17 0 -65 20q-46 20 -68 20q-30 0 -44 -41z" />
    <glyph glyph-name="hungarumlaut" unicode="&#x2dd;" horiz-adv-x="446" 
d="M114 550l-38 17l101 147l61 -19zM247 550l-38 17l101 147l61 -19z" />
    <glyph glyph-name="uni03A9" unicode="&#x3a9;" horiz-adv-x="815" 
d="M240 38v3q-71 57 -116 147.5t-45 203.5q0 163 96 264t236 101q141 0 233 -105t92 -257q0 -117 -47.5 -210.5t-115.5 -143.5v-3h179v-38h-252v28q80 48 135.5 143.5t55.5 218.5q0 56 -18.5 113t-52.5 106t-89 80t-121 31q-127 0 -206.5 -96.5t-79.5 -235.5
q0 -117 56.5 -215t133.5 -145v-28h-251v38h177z" />
    <glyph glyph-name="uni03BC" unicode="&#x3bc;" horiz-adv-x="472" 
d="M70 462h45v-228q0 -36 5 -67.5t17 -64t37.5 -51.5t61.5 -19q40 0 65.5 13t37 39t15 52t3.5 65v261h45v-277q0 -33 -0.5 -48.5t-7.5 -41t-20 -43.5q-47 -62 -138 -62q-34 0 -70 22t-49 60h-2v-342h-45v732z" />
    <glyph glyph-name="pi" unicode="&#x3c0;" horiz-adv-x="614" 
d="M485 512v-353q0 -104 17 -159h-44q-18 28 -18 150v362h-235q-7 -126 -33 -285.5t-56 -226.5h-45q32 78 57 231t31 281q-98 0 -135 -16l-11 30q47 25 145 25h431l-6 -39h-98z" />
    <glyph glyph-name="uni2010" unicode="&#x2010;" horiz-adv-x="190" 
d="M190 297h-190v45h190v-45z" />
    <glyph glyph-name="endash" unicode="&#x2013;" horiz-adv-x="500" 
d="M500 297h-500v45h500v-45z" />
    <glyph glyph-name="emdash" unicode="&#x2014;" horiz-adv-x="1000" 
d="M870 297h-740v45h740v-45z" />
    <glyph glyph-name="quoteleft" unicode="&#x2018;" horiz-adv-x="259" 
d="M156 764l30 -11l-68 -229l-45 13z" />
    <glyph glyph-name="quoteright" unicode="&#x2019;" horiz-adv-x="259" 
d="M103 524l-30 11l68 229l45 -13z" />
    <glyph glyph-name="quotesinglbase" unicode="&#x201a;" horiz-adv-x="259" 
d="M103 -166l-30 11l68 229l45 -14z" />
    <glyph glyph-name="quotedblleft" unicode="&#x201c;" horiz-adv-x="390" 
d="M156 764l30 -11l-68 -229l-45 13zM287 764l30 -11l-68 -229l-45 13z" />
    <glyph glyph-name="quotedblright" unicode="&#x201d;" horiz-adv-x="390" 
d="M103 524l-30 11l68 229l45 -13zM234 524l-30 11l68 229l45 -13z" />
    <glyph glyph-name="quotedblbase" unicode="&#x201e;" horiz-adv-x="390" 
d="M103 -166l-30 11l68 229l45 -14zM234 -166l-30 11l68 229l45 -14z" />
    <glyph glyph-name="dagger" unicode="&#x2020;" 
d="M334 555h181v-45h-181v-688h-48v688h-181v45h181v199h48v-199z" />
    <glyph glyph-name="daggerdbl" unicode="&#x2021;" 
d="M334 555h181v-45h-181v-428h181v-45h-181v-215h-48v215h-181v45h181v428h-181v45h181v199h48v-199z" />
    <glyph glyph-name="bullet" unicode="&#x2022;" 
d="M311 566q80 0 134 -55t54 -134q0 -78 -54 -133t-134 -55t-134.5 55t-54.5 133q0 79 54.5 134t134.5 55z" />
    <glyph glyph-name="ellipsis" unicode="&#x2026;" horiz-adv-x="1000" 
d="M167 75q17 0 29 -12t12 -29t-12 -29t-29 -12t-29 12t-12 29t12 29t29 12zM500 75q17 0 29 -12t12 -29t-12 -29t-29 -12t-29 12t-12 29t12 29t29 12zM833 75q17 0 29 -12t12 -29t-12 -29t-29 -12t-29 12t-12 29t12 29t29 12z" />
    <glyph glyph-name="perthousand" unicode="&#x2030;" horiz-adv-x="1034" 
d="M123 -17l-31 18l446 770l33 -17zM180 761q64 0 108 -42t44 -107q0 -63 -44 -105t-108 -42t-108 42t-44 105q0 65 44 107t108 42zM180 719q-45 0 -77.5 -31t-32.5 -76q0 -43 32.5 -74t77.5 -31t77.5 31t32.5 74q0 45 -32.5 76t-77.5 31zM484 289q64 0 108 -42t44 -107
q0 -63 -44 -105t-108 -42t-108 42t-44 105q0 65 44 107t108 42zM854 289q64 0 108 -42t44 -107q0 -63 -44 -105t-108 -42t-108 42t-44 105q0 65 44 107t108 42zM484 247q-45 0 -77.5 -31t-32.5 -76q0 -43 32.5 -74t77.5 -31t77.5 31t32.5 74q0 45 -32.5 76t-77.5 31z
M854 247q-45 0 -77.5 -31t-32.5 -76q0 -43 32.5 -74t77.5 -31t77.5 31t32.5 74q0 45 -32.5 76t-77.5 31z" />
    <glyph glyph-name="guilsinglleft" unicode="&#x2039;" horiz-adv-x="277" 
d="M181 151l-146 169l146 169l29 -27l-121 -142l121 -142z" />
    <glyph glyph-name="guilsinglright" unicode="&#x203a;" horiz-adv-x="277" 
d="M67 462l29 27l146 -169l-146 -169l-29 27l121 142z" />
    <glyph glyph-name="fraction" unicode="&#x2044;" horiz-adv-x="129" 
d="M-143 -17l-32 18l447 771l32 -18z" />
    <glyph glyph-name="Euro" unicode="&#x20ac;" 
d="M570 703v-52q-70 68 -181 68q-104 0 -163 -72.5t-70 -182.5h357l-15 -40h-346q-2 -24 -2 -47q0 -24 2 -46h312l-14 -40h-293q14 -123 74 -190.5t159 -67.5q105 0 180 68v-52q-27 -24 -75.5 -41t-108.5 -17q-241 0 -277 300h-74l14 40h56q-2 22 -2 46q0 21 2 47h-70l14 40
h59q16 135 84 217t194 82q116 0 184 -60z" />
    <glyph glyph-name="afii61289" unicode="&#x2113;" horiz-adv-x="518" 
d="M461 143l28 -19q-70 -128 -193 -128q-86 0 -129 60t-44 150v14q-18 -14 -68 -55l-19 31q79 66 87 74v309q0 70 14 121t37.5 77t48 37.5t52.5 11.5q62 0 94.5 -46.5t32.5 -117.5q0 -100 -61.5 -199.5t-175.5 -208.5v-28q0 -99 39.5 -146.5t97.5 -47.5q53 0 94.5 33.5
t64.5 77.5zM165 587v-283q95 99 147 183t52 169q0 133 -92 133q-42 0 -74.5 -49.5t-32.5 -152.5z" />
    <glyph glyph-name="trademark" unicode="&#x2122;" horiz-adv-x="940" 
d="M239 712v-379h-42v379h-139v42h320v-42h-139zM670 427h2l139 327h72v-421h-42v379h-4l-165 -379h-2l-163 379h-4v-379h-42v421h72z" />
    <glyph glyph-name="Omega" unicode="&#x2126;" horiz-adv-x="815" 
d="M240 38v3q-71 57 -116 147.5t-45 203.5q0 163 96 264t236 101q141 0 233 -105t92 -257q0 -117 -47.5 -210.5t-115.5 -143.5v-3h179v-38h-252v28q80 48 135.5 143.5t55.5 218.5q0 56 -18.5 113t-52.5 106t-89 80t-121 31q-127 0 -206.5 -96.5t-79.5 -235.5
q0 -117 56.5 -215t133.5 -145v-28h-251v38h177z" />
    <glyph glyph-name="estimated" unicode="&#x212e;" horiz-adv-x="933" 
d="M896 366h-696q-6 0 -6 -4v-211q0 -11 9 -24q112 -115 264 -115q81 0 153 34.5t124 94.5h62q-59 -69 -148.5 -109.5t-191.5 -40.5q-178 0 -304 113t-126 273q0 161 126 274t304 113t304 -113t126 -274v-11zM738 394v211q0 16 -10 26q-113 110 -261 110q-151 0 -263 -114
q-10 -12 -10 -26v-207q0 -7 6 -7h533q5 0 5 7z" />
    <glyph glyph-name="partialdiff" unicode="&#x2202;" horiz-adv-x="587" 
d="M112 746l-21 31q74 58 173 58q109 0 187 -104.5t78 -297.5q0 -120 -29 -217.5t-92.5 -159.5t-153.5 -62q-98 0 -151 72t-53 172q0 118 70 192.5t163 74.5q74 0 126.5 -40t72.5 -79h1q2 16 2 56q0 162 -66.5 259t-156.5 97q-83 0 -150 -52zM256 31h1q87 0 145.5 85.5
t72.5 213.5q-18 50 -69.5 93.5t-118.5 43.5q-77 0 -134 -66t-57 -160q0 -91 44 -150.5t116 -59.5z" />
    <glyph glyph-name="uni2206" unicode="&#x2206;" horiz-adv-x="717" 
d="M334 768h51l295 -728v-40h-642v40zM630 38l-188 469q-5 12 -39 94.5t-43 111.5h-5q-6 -23 -36.5 -97t-36.5 -90l-199 -488h547z" />
    <glyph glyph-name="product" unicode="&#x220f;" horiz-adv-x="764" 
d="M605 -103h-44v807h-359v-807h-44v807h-129v41h705v-41h-129v-807z" />
    <glyph glyph-name="summation" unicode="&#x2211;" horiz-adv-x="613" 
d="M25 -71l319 390l-304 395v31h529v-40h-462v-4l291 -377l-310 -380v-3h497v-44h-560v32z" />
    <glyph glyph-name="minus" unicode="&#x2212;" 
d="M566 280v-48h-512v48h512z" />
    <glyph glyph-name="uni2215" unicode="&#x2215;" horiz-adv-x="129" 
d="M-143 -17l-32 18l447 771l32 -18z" />
    <glyph glyph-name="uni2219" unicode="&#x2219;" horiz-adv-x="310" 
d="M155 297q17 0 29 -12t12 -29t-12 -29t-29 -12t-29 12t-12 29t12 29t29 12z" />
    <glyph glyph-name="radical" unicode="&#x221a;" horiz-adv-x="617" 
d="M320 -166l-185 513l-83 -31l-13 32l126 48l160 -439q12 -41 17 -66l2 -1q1 11 7 37t6 27l218 926h38l-245 -1046h-48z" />
    <glyph glyph-name="infinity" unicode="&#x221e;" horiz-adv-x="854" 
d="M796 311v-1q0 -72 -48.5 -118.5t-113.5 -46.5q-50 0 -92 30.5t-114 105.5q-27 -30 -37 -40.5t-35.5 -34t-43 -33.5t-43.5 -19t-52 -9q-65 0 -112 47.5t-47 114.5q0 70 47 117t119 47q39 0 80 -23t65 -46.5t63 -67.5q36 39 49.5 53t44 39.5t58 35t59.5 9.5
q70 0 111.5 -44.5t41.5 -115.5zM223 181h1q22 0 43 7.5t42 24t34 28.5t35.5 35t29.5 30q-2 2 -15.5 17.5t-17 19.5t-16 17.5t-18 18t-18 15.5t-20 15t-19.5 11.5t-22.5 10t-23 5t-24.5 2.5q-53 0 -84.5 -39.5t-31.5 -93.5q1 -53 35 -88.5t90 -35.5zM638 438h-1
q-28 0 -57.5 -16t-48 -32.5t-45.5 -44.5t-34 -35q50 -52 71.5 -72t53.5 -38.5t61 -18.5q54 0 86.5 38t32.5 88q0 62 -33.5 96.5t-85.5 34.5z" />
    <glyph glyph-name="integral" unicode="&#x222b;" horiz-adv-x="366" 
d="M353 887l-13 -32q-17 13 -42 13q-36 0 -56 -24q-24 -25 -33.5 -70.5t-9.5 -127.5t7 -276t7 -276q0 -148 -51 -217q-32 -41 -88 -41q-39 0 -65 19l12 33q31 -14 53 -14q31 0 52 26q44 53 44 196q0 82 -7.5 278t-7.5 276q0 86 12.5 137t42.5 80q36 37 87 37q33 0 56 -17z
" />
    <glyph glyph-name="approxequal" unicode="&#x2248;" horiz-adv-x="635" 
d="M554 449l23 -19q-51 -98 -137 -98q-9 0 -17.5 1t-14.5 2t-16 4.5t-15 5t-17 7.5l-16 8t-19.5 10t-19.5 10q-68 38 -109 38q-62 0 -114 -84l-25 19q53 99 147 99q19 0 39.5 -6t32 -11.5t32.5 -17.5t25 -14q5 -2 21.5 -10.5t22.5 -11t19 -7.5t24 -6.5t24 -1.5q35 0 60 19.5
t50 63.5zM554 273l23 -20q-51 -97 -137 -97q-9 0 -17.5 1t-14.5 2t-16 4.5t-15 5t-17 7.5l-16 8t-19.5 10t-19.5 10q-70 38 -108 38q-37 0 -63.5 -22t-51.5 -62l-25 18q52 100 147 100q25 0 46 -7t51.5 -23.5t31.5 -17.5q4 -2 13.5 -7t13.5 -7.5t12.5 -6.5t13.5 -5.5
t13 -4.5t14.5 -4t15 -2t16.5 -1q34 0 59 19.5t50 63.5z" />
    <glyph glyph-name="notequal" unicode="&#x2260;" horiz-adv-x="635" 
d="M576 424v-36h-206l-81 -169h287v-35h-303l-63 -135l-29 15l56 120h-178v35h195l80 169h-275v36h291l62 131l29 -15l-55 -116h190z" />
    <glyph glyph-name="lessequal" unicode="&#x2264;" horiz-adv-x="635" 
d="M66 380l507 248v-44l-465 -220v-2l465 -223v-44l-507 249v36zM58 48h517v-36h-517v36z" />
    <glyph glyph-name="greaterequal" unicode="&#x2265;" horiz-adv-x="635" 
d="M573 344l-507 -249v44l464 221v3l-464 221v44l507 -248v-36zM59 48h516v-36h-516v36z" />
    <glyph glyph-name="lozenge" unicode="&#x25ca;" horiz-adv-x="618" 
d="M290 -49l-226 421l226 422h38l226 -422l-227 -421h-37zM510 371l-180 332q-13 26 -21 50h-2q-15 -37 -22 -50l-178 -329l181 -334q14 -28 20 -48h3q8 23 20 48z" />
    <glyph glyph-name="fi" unicode="&#xfb01;" horiz-adv-x="475" 
d="M77 0v420h-51v42h51v207q0 81 18 113q32 56 103 56q22 0 40 -7v-41q-36 6 -37 6q-28 0 -45 -12t-24 -35.5t-8.5 -41t-1.5 -47.5v-198h116v-42h-116v-420h-45zM358 657q17 0 29 -12t12 -29t-12 -29t-29 -12t-29 12t-12 29t12 29t29 12zM335 0v462h45v-462h-45z" />
    <glyph glyph-name="fl" unicode="&#xfb02;" horiz-adv-x="439" 
d="M77 0v420h-51v42h51v207q0 81 18 113q32 56 103 56q22 0 40 -7v-41q-36 6 -37 6q-28 0 -45 -12t-24 -35.5t-8.5 -41t-1.5 -47.5v-198h116v-42h-116v-420h-45zM317 0v825h45v-825h-45z" />
    <glyph glyph-name="f_i" horiz-adv-x="475" 
d="M77 0v420h-51v42h51v207q0 81 18 113q32 56 103 56q22 0 40 -7v-41q-36 6 -37 6q-28 0 -45 -12t-24 -35.5t-8.5 -41t-1.5 -47.5v-198h116v-42h-116v-420h-45zM358 657q17 0 29 -12t12 -29t-12 -29t-29 -12t-29 12t-12 29t12 29t29 12zM335 0v462h45v-462h-45z" />
    <glyph glyph-name="f_l" horiz-adv-x="439" 
d="M77 0v420h-51v42h51v207q0 81 18 113q32 56 103 56q22 0 40 -7v-41q-36 6 -37 6q-28 0 -45 -12t-24 -35.5t-8.5 -41t-1.5 -47.5v-198h116v-42h-116v-420h-45zM317 0v825h45v-825h-45z" />
    <glyph glyph-name="a.superior" horiz-adv-x="336" 
d="M286 481v50h-2q-16 -26 -48 -41t-66 -15q-67 0 -107.5 42t-40.5 104t40 102.5t107 40.5q76 0 115 -54h2v48h29v-277h-29zM163 730q-46 0 -76.5 -33t-30.5 -77q0 -45 30 -78t79 -33q53 0 84.5 33t31.5 81q0 45 -33.5 76t-84.5 31z" />
    <glyph glyph-name="o.superior" horiz-adv-x="328" 
d="M163 764q66 0 112 -41.5t46 -102.5q0 -62 -46 -103.5t-112 -41.5q-64 0 -110 42.5t-46 101.5q0 60 45.5 102.5t110.5 42.5zM161 730q-48 0 -81.5 -33.5t-33.5 -78.5q0 -44 33.5 -76.5t81.5 -32.5q50 0 85.5 31.5t35.5 77.5q0 47 -35 79.5t-86 32.5z" />
    <glyph glyph-name="one.superior" horiz-adv-x="372" 
d="M149 754h95v-448h-34v414h-76z" />
    <glyph glyph-name="two.superior" horiz-adv-x="372" 
d="M336 306h-302l182 185q27 27 41 43.5t30.5 46t16.5 53.5q0 43 -32.5 69.5t-80.5 26.5q-51 0 -82 -27t-31 -72h-34q2 54 31 85q45 48 116 48q61 0 104 -38t43 -94q0 -66 -88 -154l-136 -138h222v-34z" />
    <glyph glyph-name="three.superior" horiz-adv-x="372" 
d="M183 525v34q44 0 73 24.5t29 65.5q0 36 -27 58.5t-68 22.5q-87 0 -92 -78h-34q5 52 38 82t89 30q53 0 90.5 -34t37.5 -82q0 -35 -20 -63t-54 -42q36 -13 58.5 -43.5t22.5 -66.5q0 -56 -41.5 -94.5t-102.5 -38.5q-56 0 -96 33t-40 84h34q5 -39 31 -61t70 -22q47 0 79 27.5
t32 69.5q0 43 -31 68.5t-78 25.5z" />
    </font>
</defs>
</svg>
